<svg width="42" height="42" viewBox="0 0 42 42" fill="none" xmlns="http://www.w3.org/2000/svg">
<path d="M25.7254 18.3631C25.4949 17.5268 25.0509 16.7649 24.4369 16.152C23.824 15.5383 23.0602 15.0969 22.2225 14.8721C21.3847 14.6473 20.5026 14.6471 19.6647 14.8715L23.1723 18.387L22.5758 21.2742L19.6966 21.8707L16.2128 18.3234C15.9863 19.1566 15.9863 20.0353 16.2128 20.8685C16.4347 21.7113 16.8767 22.4799 17.4934 23.0956C18.1063 23.7092 18.8704 24.1501 19.7084 24.3736C20.5464 24.597 21.4285 24.5952 22.2656 24.3681L24.9857 27.0724C26.4713 26.3374 27.6753 25.1361 28.4138 23.6523L25.7095 20.9083C25.9412 20.0764 25.9467 19.1978 25.7254 18.3631Z" fill="white"/>
<path d="M34.923 18.4747C34.5999 18.3893 34.305 18.2203 34.0681 17.9846C33.8312 17.749 33.6606 17.455 33.5735 17.1324C33.4864 16.8098 33.4858 16.4699 33.572 16.147C33.6581 15.8241 33.8278 15.5296 34.064 15.2933C34.368 14.9999 34.5651 14.6132 34.624 14.1948C34.6828 13.7764 34.6 13.3504 34.3887 12.9845C34.1774 12.6186 33.8498 12.3339 33.458 12.1758C33.0662 12.0176 32.6328 11.9951 32.2267 12.1118C31.8981 12.2067 31.5499 12.2111 31.2189 12.1246C30.888 12.0382 30.5865 11.864 30.3463 11.6205C30.106 11.377 29.9359 11.0732 29.8539 10.7411C29.7719 10.409 29.7811 10.061 29.8804 9.73364C29.997 9.32757 29.9745 8.89413 29.8164 8.50234C29.6582 8.11054 29.3735 7.78292 29.0077 7.57162C28.6418 7.36033 28.2157 7.27751 27.7974 7.33636C27.379 7.3952 26.9923 7.59232 26.6989 7.89634C26.4625 8.13255 26.168 8.30226 25.8451 8.38838C25.5223 8.4745 25.1824 8.47398 24.8597 8.38687C24.5371 8.29976 24.2432 8.12915 24.0075 7.89222C23.7718 7.65529 23.6028 7.36043 23.5174 7.03735C23.4156 6.62702 23.1794 6.26257 22.8465 6.00209C22.5135 5.74162 22.1029 5.6001 21.6801 5.6001C21.2574 5.6001 20.8468 5.74162 20.5138 6.00209C20.1808 6.26257 19.9446 6.62702 19.8428 7.03735C19.7574 7.36043 19.5884 7.65529 19.3527 7.89222C19.1171 8.12915 18.8231 8.29976 18.5005 8.38687C18.1779 8.47398 17.838 8.4745 17.5151 8.38838C17.1922 8.30226 16.8977 8.13255 16.6613 7.89634C16.3679 7.59232 15.9813 7.3952 15.5629 7.33636C15.1445 7.27751 14.7184 7.36033 14.3526 7.57162C13.9867 7.78292 13.702 8.11054 13.5439 8.50234C13.3857 8.89413 13.3632 9.32757 13.4799 9.73364C13.581 10.0615 13.5916 10.4105 13.5104 10.7439C13.4293 11.0772 13.2594 11.3824 13.0189 11.627C12.7783 11.8716 12.4761 12.0466 12.1442 12.1333C11.8122 12.2201 11.463 12.2154 11.1335 12.1197C10.7275 12.0031 10.294 12.0256 9.90224 12.1837C9.51045 12.3419 9.18282 12.6266 8.97153 12.9924C8.76023 13.3583 8.67742 13.7844 8.73626 14.2027C8.7951 14.6211 8.99223 15.0078 9.29625 15.3012C9.53245 15.5376 9.70217 15.8321 9.78828 16.155C9.8744 16.4779 9.87388 16.8177 9.78677 17.1404C9.69967 17.463 9.52905 17.7569 9.29212 17.9926C9.0552 18.2283 8.76033 18.3973 8.43725 18.4827C8.02692 18.5845 7.66248 18.8207 7.402 19.1536C7.14152 19.4866 7 19.8972 7 20.32C7 20.7427 7.14152 21.1533 7.402 21.4863C7.66248 21.8193 8.02692 22.0555 8.43725 22.1573C8.76033 22.2427 9.0552 22.4117 9.29212 22.6474C9.52905 22.883 9.69967 23.177 9.78677 23.4996C9.87388 23.8222 9.8744 24.1621 9.78828 24.485C9.70217 24.8079 9.53245 25.1024 9.29625 25.3388C8.99223 25.6322 8.7951 26.0188 8.73626 26.4372C8.67742 26.8556 8.76023 27.2817 8.97153 27.6475C9.18282 28.0134 9.51045 28.2981 9.90224 28.4562C10.294 28.6144 10.7275 28.6369 11.1335 28.5202C11.4614 28.4191 11.8105 28.4085 12.1438 28.4897C12.4771 28.5708 12.7823 28.7407 13.0269 28.9812C13.2715 29.2218 13.4465 29.524 13.5332 29.8559C13.62 30.1879 13.6153 30.5371 13.5196 30.8666C13.403 31.2726 13.4255 31.7061 13.5836 32.0979C13.7418 32.4897 14.0265 32.8173 14.3923 33.0286C14.7582 33.2399 15.1843 33.3227 15.6027 33.2638C16.021 33.205 16.4077 33.0079 16.7011 32.7039C16.9375 32.4676 17.232 32.2979 17.5549 32.2118C17.8778 32.1257 18.2176 32.1262 18.5403 32.2133C18.8629 32.3004 19.1568 32.471 19.3925 32.708C19.6282 32.9449 19.7972 33.2398 19.8826 33.5628C19.9844 33.9732 20.2206 34.3376 20.5536 34.5981C20.8865 34.8586 21.2971 35.0001 21.7199 35.0001C22.1426 35.0001 22.5532 34.8586 22.8862 34.5981C23.2192 34.3376 23.4554 33.9732 23.5572 33.5628C23.6426 33.2398 23.8116 32.9449 24.0473 32.708C24.2829 32.471 24.5769 32.3004 24.8995 32.2133C25.2221 32.1262 25.562 32.1257 25.8849 32.2118C26.2078 32.2979 26.5023 32.4676 26.7387 32.7039C27.0321 33.0079 27.4187 33.205 27.8371 33.2638C28.2555 33.3227 28.6816 33.2399 29.0474 33.0286C29.4133 32.8173 29.698 32.4897 29.8561 32.0979C30.0143 31.7061 30.0368 31.2726 29.9201 30.8666C29.8282 30.5412 29.8246 30.1972 29.9099 29.8701C29.9952 29.5429 30.1661 29.2444 30.4052 29.0053C30.6443 28.7662 30.9428 28.5953 31.27 28.51C31.5971 28.4247 31.9411 28.4283 32.2665 28.5202C32.6725 28.6369 33.106 28.6144 33.4978 28.4562C33.8896 28.2981 34.2172 28.0134 34.4285 27.6475C34.6398 27.2817 34.7226 26.8556 34.6638 26.4372C34.6049 26.0188 34.4078 25.6322 34.1038 25.3388C33.8676 25.1024 33.6978 24.8079 33.6117 24.485C33.5256 24.1621 33.5261 23.8222 33.6132 23.4996C33.7003 23.177 33.871 22.883 34.1079 22.6474C34.3448 22.4117 34.6397 22.2427 34.9628 22.1573C35.3758 22.0541 35.742 21.8147 36.0022 21.4778C36.2624 21.1408 36.4014 20.726 36.3968 20.3003C36.3922 19.8746 36.2443 19.4629 35.9769 19.1316C35.7094 18.8004 35.3382 18.569 34.923 18.4747ZM21.6483 29.4588C19.8393 29.4588 18.0708 28.9223 16.5667 27.9173C15.0625 26.9122 13.8901 25.4837 13.1978 23.8123C12.5055 22.141 12.3244 20.3019 12.6773 18.5276C13.0303 16.7533 13.9014 15.1235 15.1806 13.8443C16.4598 12.5651 18.0896 11.694 19.8639 11.3411C21.6382 10.9881 23.4773 11.1693 25.1486 11.8616C26.82 12.5539 28.2485 13.7262 29.2535 15.2304C30.2586 16.7346 30.795 18.503 30.795 20.312C30.795 22.7379 29.8314 25.0644 28.116 26.7797C26.4007 28.4951 24.0742 29.4588 21.6483 29.4588Z" fill="white"/>
<path fill-rule="evenodd" clip-rule="evenodd" d="M27.3434 17.9165L27.3477 17.9324C27.5579 18.7252 27.6161 19.5474 27.5226 20.3561L28.9605 21.8152C29.0615 21.3241 29.1134 20.8207 29.1134 20.3118C29.1134 18.8351 28.6755 17.3915 27.855 16.1636C27.0346 14.9357 25.8684 13.9786 24.5041 13.4135C23.1397 12.8484 21.6384 12.7005 20.19 12.9886C19.8583 13.0546 19.5327 13.1428 19.2154 13.252C19.2198 13.2508 19.2241 13.2496 19.2285 13.2485C20.3513 12.9478 21.5336 12.9481 22.6562 13.2493C23.7786 13.5505 24.802 14.1419 25.6233 14.964C26.4428 15.7825 27.0356 16.7999 27.3434 17.9165ZM24.4353 16.1518C25.0492 16.7647 25.4933 17.5267 25.7238 18.3629C25.9451 19.1976 25.9396 20.0763 25.7079 20.9081L28.4121 23.6521C28.0428 24.3942 27.5571 25.0655 26.978 25.6432C26.3991 26.2208 25.7268 26.7048 24.9841 27.0722L22.2639 24.368C21.4269 24.595 20.5447 24.5968 19.7067 24.3734C18.8687 24.1499 18.1046 23.709 17.4917 23.0954C16.875 22.4797 16.4331 21.7111 16.2112 20.8684C16.1934 20.8027 16.1769 20.7368 16.1619 20.6706C15.9861 19.8969 16.0025 19.0908 16.2112 18.3232L19.6949 21.8705L22.5741 21.274L23.1707 18.3868L19.6631 14.8713C20.4206 14.6684 21.2142 14.6492 21.9786 14.8134C22.0597 14.8309 22.1405 14.8504 22.2208 14.8719C23.0586 15.0967 23.8223 15.5382 24.4353 16.1518ZM21.3423 18.9329L18.4738 16.0579C18.0501 15.6332 17.885 15.0148 18.0406 14.4354C18.1716 13.948 18.5129 13.5504 18.963 13.3441C17.9935 13.7175 17.1081 14.2909 16.3669 15.0321C15.6124 15.7866 15.0317 16.6906 14.659 17.6805C14.8586 17.1982 15.2738 16.8317 15.7867 16.6977C16.369 16.5456 16.9881 16.7166 17.4098 17.146L20.2514 20.0395L21.1523 19.8529L21.3423 18.9329ZM14.611 17.8117C14.6035 17.8351 14.5965 17.8587 14.59 17.8825C14.2857 19.0022 14.2851 20.1826 14.5882 21.3025C14.8864 22.4303 15.4784 23.459 16.3039 24.2834C17.1258 25.106 18.1503 25.697 19.2738 25.9967C20.0681 26.2085 20.892 26.2693 21.7031 26.1794L23.1566 27.6243C22.6635 27.7262 22.1578 27.7786 21.6467 27.7786C20.1699 27.7786 18.7263 27.3407 17.4984 26.5202C16.2705 25.6998 15.3134 24.5336 14.7483 23.1692C14.1832 21.8049 14.0353 20.3036 14.3234 18.8552C14.3942 18.4994 14.4905 18.1507 14.611 17.8117ZM25.2061 28.7376C24.0903 29.2089 22.8814 29.4586 21.6467 29.4586C19.8376 29.4586 18.0692 28.9221 16.565 27.9171C15.0608 26.912 13.8885 25.4835 13.1962 23.8121C12.5039 22.1408 12.3228 20.3017 12.6757 18.5274C13.0286 16.7531 13.8998 15.1233 15.179 13.8441C16.4581 12.5649 18.0879 11.6938 19.8622 11.3409C21.6365 10.988 23.4756 11.1691 25.147 11.8614C26.8183 12.5537 28.2468 13.726 29.2519 15.2302C30.2569 16.7344 30.7934 18.5028 30.7934 20.3118C30.7934 21.5397 30.5465 22.7421 30.0802 23.8527C30.0074 24.026 29.9293 24.1971 29.846 24.3657C29.4082 25.2512 28.826 26.068 28.1144 26.7796C27.4018 27.4921 26.5838 28.075 25.697 28.5129C25.5355 28.5927 25.3718 28.6676 25.2061 28.7376ZM32.2251 12.1116C32.6311 11.9949 33.0646 12.0175 33.4564 12.1756C33.8482 12.3338 34.1758 12.6184 34.3871 12.9843C34.5984 13.3502 34.6812 13.7762 34.6223 14.1946C34.5635 14.613 34.3664 14.9997 34.0624 15.2931C33.8261 15.5295 33.6564 15.824 33.5703 16.1468C33.4842 16.4697 33.4847 16.8096 33.5718 17.1322C33.6589 17.4548 33.8295 17.7488 34.0665 17.9845C34.3034 18.2201 34.5983 18.3892 34.9213 18.4746C35.3365 18.5688 35.7078 18.8002 35.9752 19.1315C36.2426 19.4627 36.3906 19.8744 36.3952 20.3001C36.3998 20.7258 36.2608 21.1406 36.0005 21.4776C35.7403 21.8145 35.3741 22.0539 34.9611 22.1571C34.638 22.2425 34.3432 22.4115 34.1062 22.6472C33.8693 22.8829 33.6987 23.1768 33.6116 23.4994C33.5245 23.8221 33.524 24.1619 33.6101 24.4848C33.6962 24.8077 33.8659 25.1022 34.1021 25.3386C34.4061 25.632 34.6033 26.0187 34.6621 26.437C34.721 26.8554 34.6381 27.2815 34.4268 27.6474C34.2155 28.0132 33.8879 28.2979 33.4961 28.456C33.1043 28.6142 32.6709 28.6367 32.2648 28.52C31.9395 28.4281 31.5955 28.4245 31.2683 28.5098C30.9412 28.5951 30.6426 28.7661 30.4036 29.0051C30.1645 29.2442 29.9935 29.5427 29.9083 29.8699C29.823 30.197 29.8265 30.541 29.9185 30.8664C30.0352 31.2725 30.0126 31.7059 29.8545 32.0977C29.6963 32.4895 29.4117 32.8171 29.0458 33.0284C28.6799 33.2397 28.2539 33.3225 27.8355 33.2637C27.4171 33.2048 27.0304 33.0077 26.737 32.7037C26.5006 32.4675 26.2061 32.2978 25.8833 32.2116C25.5604 32.1255 25.2205 32.126 24.8979 32.2131C24.5753 32.3003 24.2813 32.4709 24.0456 32.7078C23.81 32.9447 23.6409 33.2396 23.5555 33.5627C23.4538 33.973 23.2176 34.3374 22.8846 34.5979C22.5516 34.8584 22.141 34.9999 21.7182 34.9999C21.2955 34.9999 20.8849 34.8584 20.5519 34.5979C20.2189 34.3374 19.9827 33.973 19.8809 33.5627C19.7956 33.2396 19.6265 32.9447 19.3909 32.7078C19.1552 32.4709 18.8612 32.3003 18.5386 32.2131C18.216 32.126 17.8761 32.1255 17.5532 32.2116C17.2303 32.2978 16.9359 32.4675 16.6995 32.7037C16.4061 33.0077 16.0194 33.2048 15.601 33.2637C15.1826 33.3225 14.7566 33.2397 14.3907 33.0284C14.0248 32.8171 13.7401 32.4895 13.582 32.0977C13.4239 31.7059 13.4013 31.2725 13.518 30.8664C13.6136 30.5369 13.6183 30.1877 13.5316 29.8558C13.4448 29.5238 13.2699 29.2216 13.0253 28.981C12.7806 28.7405 12.4755 28.5706 12.1421 28.4895C11.8088 28.4083 11.4597 28.4189 11.1319 28.52C10.7258 28.6367 10.2924 28.6142 9.9006 28.456C9.5088 28.2979 9.18118 28.0132 8.96989 27.6474C8.75859 27.2815 8.67577 26.8554 8.73462 26.437C8.79346 26.0187 8.99059 25.632 9.29461 25.3386C9.53081 25.1022 9.70052 24.8077 9.78664 24.4848C9.87276 24.1619 9.87224 23.8221 9.78513 23.4994C9.69803 23.1768 9.52741 22.8829 9.29048 22.6472C9.05356 22.4115 8.75869 22.2425 8.43561 22.1571C8.02528 22.0553 7.66084 21.8191 7.40036 21.4861C7.13988 21.1532 6.99836 20.7426 6.99836 20.3198C6.99836 19.897 7.13988 19.4865 7.40036 19.1535C7.66084 18.8205 8.02528 18.5843 8.43561 18.4825C8.75869 18.3971 9.05356 18.2281 9.29048 17.9924C9.52741 17.7568 9.69803 17.4628 9.78513 17.1402C9.87224 16.8176 9.87276 16.4777 9.78664 16.1548C9.70052 15.8319 9.53081 15.5374 9.29461 15.301C8.99059 15.0076 8.79346 14.621 8.73462 14.2026C8.67577 13.7842 8.75859 13.3581 8.96989 12.9923C9.18118 12.6264 9.5088 12.3417 9.9006 12.1836C10.2924 12.0254 10.7258 12.0029 11.1319 12.1196C11.4614 12.2152 11.8106 12.2199 12.1425 12.1331C12.4744 12.0464 12.7767 11.8714 13.0172 11.6268C13.2578 11.3822 13.4276 11.077 13.5088 10.7437C13.59 10.4104 13.5794 10.0613 13.4782 9.73347C13.3616 9.32739 13.3841 8.89395 13.5422 8.50216C13.7004 8.11037 13.9851 7.78274 14.3509 7.57145C14.7168 7.36015 15.1429 7.27734 15.5612 7.33618C15.9796 7.39503 16.3663 7.59215 16.6597 7.89617C16.8961 8.13237 17.1906 8.30209 17.5135 8.3882C17.8363 8.47432 18.1762 8.4738 18.4989 8.3867C18.8215 8.29959 19.1154 8.12897 19.3511 7.89204C19.5868 7.65512 19.7558 7.36025 19.8412 7.03717C19.943 6.62684 20.1792 6.2624 20.5121 6.00192C20.8451 5.74144 21.2557 5.59992 21.6785 5.59992C22.1012 5.59992 22.5118 5.74144 22.8448 6.00192C23.1778 6.2624 23.414 6.62684 23.5158 7.03717C23.6012 7.36025 23.7702 7.65512 24.0059 7.89204C24.2415 8.12897 24.5355 8.29959 24.8581 8.3867C25.1807 8.4738 25.5206 8.47432 25.8435 8.3882C26.1664 8.30209 26.4609 8.13237 26.6972 7.89617C26.9906 7.59215 27.3773 7.39503 27.7957 7.33618C28.2141 7.27734 28.6401 7.36015 29.006 7.57145C29.3719 7.78274 29.6566 8.11037 29.8147 8.50216C29.9729 8.89395 29.9954 9.32739 29.8787 9.73347C29.7794 10.0608 29.7703 10.4089 29.8523 10.741C29.9343 11.073 30.1044 11.3769 30.3446 11.6203C30.5849 11.8638 30.8863 12.038 31.2173 12.1245C31.5483 12.2109 31.8964 12.2065 32.2251 12.1116ZM25.1414 6.61283C25.1517 6.64846 25.1708 6.68095 25.197 6.70729C25.2244 6.73482 25.2585 6.75465 25.296 6.76477C25.3335 6.7749 25.373 6.77496 25.4105 6.76495C25.4461 6.75546 25.4787 6.73724 25.5054 6.71199C26.0571 6.14811 26.7801 5.78249 27.5617 5.67255C28.3514 5.56149 29.1556 5.7178 29.8462 6.11662C30.5368 6.51544 31.0741 7.13382 31.3726 7.87333C31.6711 8.61284 31.7136 9.43095 31.4934 10.1974C31.4911 10.2053 31.4888 10.2132 31.4864 10.2211C31.4748 10.2592 31.4738 10.2996 31.4833 10.3382C31.4928 10.3768 31.5126 10.4121 31.5405 10.4404C31.5684 10.4687 31.6035 10.489 31.642 10.499C31.6804 10.5091 31.7209 10.5086 31.7591 10.4975L31.7611 10.4969C32.5276 10.2767 33.3457 10.3192 34.0852 10.6177C34.8247 10.9162 35.4431 11.4536 35.8419 12.1441C36.2407 12.8347 36.397 13.6389 36.286 14.4286C36.176 15.2102 35.8104 15.9332 35.2465 16.4849C35.2213 16.5116 35.2031 16.5442 35.1936 16.5798C35.1836 16.6173 35.1836 16.6568 35.1937 16.6943C35.2039 16.7318 35.2237 16.766 35.2512 16.7934C35.276 16.818 35.3062 16.8363 35.3393 16.847C36.1043 17.0313 36.7875 17.4632 37.2824 18.0761C37.7871 18.7014 38.0664 19.4785 38.0751 20.282C38.0838 21.0855 37.8213 21.8685 37.3302 22.5044C36.8428 23.1356 36.1583 23.5854 35.386 23.7825C35.3502 23.7928 35.3175 23.812 35.291 23.8383C35.2635 23.8657 35.2436 23.8999 35.2335 23.9373C35.2234 23.9748 35.2233 24.0144 35.2333 24.0519C35.2428 24.0874 35.261 24.1201 35.2863 24.1468C35.8502 24.6984 36.2158 25.4214 36.3257 26.2031C36.4368 26.9928 36.2805 27.7969 35.8817 28.4875C35.4828 29.1781 34.8645 29.7154 34.125 30.0139C33.3872 30.3117 32.5712 30.3547 31.8063 30.1363C31.7689 30.126 31.7295 30.1257 31.692 30.1355C31.654 30.1454 31.6193 30.1653 31.5915 30.1931C31.5637 30.2209 31.5439 30.2555 31.5339 30.2936C31.5242 30.3311 31.5244 30.3706 31.5348 30.408C31.7532 31.1729 31.7101 31.9888 31.4124 32.7265C31.1139 33.466 30.5765 34.0844 29.886 34.4832C29.1954 34.882 28.3912 35.0384 27.6015 34.9273C26.8199 34.8174 26.0969 34.4517 25.5452 33.8879C25.5185 33.8626 25.4859 33.8444 25.4503 33.8349C25.4128 33.8249 25.3733 33.8249 25.3358 33.8351C25.2983 33.8452 25.2641 33.865 25.2367 33.8926C25.2105 33.9189 25.1914 33.9514 25.1811 33.987C24.9864 34.7534 24.5428 35.4337 23.9197 35.9212C23.2912 36.4128 22.5162 36.6799 21.7182 36.6799C20.9203 36.6799 20.1453 36.4128 19.5168 35.9212C18.8937 35.4337 18.4501 34.7534 18.2554 33.987C18.2451 33.9514 18.2259 33.9189 18.1998 33.8926C18.1724 33.865 18.1382 33.8452 18.1007 33.8351C18.0632 33.8249 18.0237 33.8249 17.9862 33.8349C17.9506 33.8444 17.918 33.8626 17.8913 33.8879C17.3396 34.4517 16.6166 34.8174 15.835 34.9273C15.0453 35.0384 14.2411 34.882 13.5505 34.4832C12.8599 34.0844 12.3226 33.466 12.0241 32.7265C11.7256 31.987 11.6831 31.1689 11.9033 30.4024L11.9046 30.398C11.9157 30.3597 11.9163 30.3192 11.9062 30.2806C11.8961 30.242 11.8758 30.2069 11.8473 30.1789C11.8189 30.151 11.7834 30.1312 11.7447 30.1218C11.706 30.1124 11.6654 30.1136 11.6273 30.1253C11.623 30.1267 11.6187 30.128 11.6143 30.1293C11.6082 30.1311 11.602 30.1329 11.5958 30.1347C10.8294 30.3549 10.0113 30.3124 9.27177 30.0139C8.53226 29.7154 7.91388 29.1781 7.51506 28.4875C7.11624 27.7969 6.95992 26.9928 7.07099 26.2031C7.18093 25.4214 7.54655 24.6984 8.11043 24.1468C8.13568 24.1201 8.1539 24.0874 8.16339 24.0519C8.1734 24.0143 8.17334 23.9748 8.16321 23.9373C8.15309 23.8999 8.13326 23.8657 8.10572 23.8383C8.07939 23.8121 8.0469 23.793 8.01127 23.7827C7.2449 23.5879 6.56457 23.1444 6.07713 22.5213C5.58547 21.8928 5.31836 21.1178 5.31836 20.3198C5.31836 19.5218 5.58547 18.7469 6.07713 18.1184C6.56457 17.4952 7.2449 17.0517 8.01127 16.8569C8.0469 16.8466 8.07939 16.8275 8.10572 16.8013C8.13326 16.7739 8.15309 16.7398 8.16321 16.7023C8.17334 16.6648 8.1734 16.6253 8.16339 16.5877C8.1539 16.5522 8.13568 16.5196 8.11043 16.4929C7.54655 15.9412 7.18093 15.2182 7.07099 14.4366C6.95992 13.6468 7.11624 12.8427 7.51506 12.1521C7.91387 11.4615 8.53226 10.9242 9.27177 10.6257C10.0113 10.3272 10.8294 10.2847 11.5958 10.5049L11.6002 10.5062C11.6385 10.5173 11.6791 10.5178 11.7177 10.5077C11.7563 10.4977 11.7914 10.4773 11.8194 10.4489C11.8473 10.4205 11.8671 10.385 11.8765 10.3463C11.8859 10.3075 11.8847 10.267 11.8729 10.2289C11.8697 10.2184 11.8666 10.2079 11.8636 10.1974C11.6433 9.43095 11.6859 8.61283 11.9844 7.87333C12.2829 7.13382 12.8202 6.51544 13.5108 6.11662C14.2014 5.7178 15.0055 5.56149 15.7952 5.67255C16.5769 5.78249 17.2999 6.14811 17.8515 6.71199C17.8782 6.73724 17.9108 6.75546 17.9464 6.76495C17.9839 6.77496 18.0234 6.7749 18.0609 6.76477C18.0984 6.75465 18.1326 6.73482 18.16 6.70729C18.1862 6.68095 18.2053 6.64846 18.2156 6.61283C18.4103 5.84646 18.8539 5.16613 19.477 4.67869C20.1055 4.18704 20.8805 3.91992 21.6785 3.91992C22.4764 3.91992 23.2514 4.18704 23.8799 4.67869C24.503 5.16613 24.9466 5.84646 25.1414 6.61283Z" fill="#9F9F9F"/>
</svg>
