<svg width="43" height="42" viewBox="0 0 43 42" fill="none" xmlns="http://www.w3.org/2000/svg">
<path d="M26.0575 18.3631C25.8269 17.5268 25.3829 16.7649 24.769 16.152C24.156 15.5383 23.3922 15.0969 22.5545 14.8721C21.7168 14.6473 20.8346 14.6471 19.9968 14.8715L23.5043 18.387L22.9078 21.2742L20.0286 21.8707L16.5449 18.3234C16.3184 19.1566 16.3184 20.0353 16.5449 20.8685C16.7668 21.7113 17.2087 22.4799 17.8254 23.0956C18.4383 23.7092 19.2024 24.1501 20.0404 24.3736C20.8784 24.597 21.7606 24.5952 22.5976 24.3681L25.3178 27.0724C26.8033 26.3374 28.0073 25.1361 28.7458 23.6523L26.0416 20.9083C26.2733 20.0764 26.2788 19.1978 26.0575 18.3631Z" fill="#EAC218"/>
<path d="M35.255 18.4747C34.9319 18.3893 34.6371 18.2203 34.4001 17.9846C34.1632 17.749 33.9926 17.455 33.9055 17.1324C33.8184 16.8098 33.8179 16.4699 33.904 16.147C33.9901 15.8241 34.1598 15.5296 34.396 15.2933C34.7 14.9999 34.8972 14.6132 34.956 14.1948C35.0149 13.7764 34.932 13.3504 34.7207 12.9845C34.5094 12.6186 34.1818 12.3339 33.79 12.1758C33.3982 12.0176 32.9648 11.9951 32.5587 12.1118C32.2301 12.2067 31.8819 12.2111 31.551 12.1246C31.22 12.0382 30.9185 11.864 30.6783 11.6205C30.438 11.377 30.268 11.0732 30.186 10.7411C30.104 10.409 30.1131 10.061 30.2124 9.73364C30.3291 9.32757 30.3065 8.89413 30.1484 8.50234C29.9903 8.11054 29.7056 7.78292 29.3397 7.57162C28.9738 7.36033 28.5478 7.27751 28.1294 7.33636C27.711 7.3952 27.3243 7.59232 27.0309 7.89634C26.7945 8.13255 26.5001 8.30226 26.1772 8.38838C25.8543 8.4745 25.5144 8.47398 25.1918 8.38687C24.8692 8.29976 24.5752 8.12915 24.3395 7.89222C24.1039 7.65529 23.9348 7.36043 23.8494 7.03735C23.7477 6.62702 23.5115 6.26257 23.1785 6.00209C22.8455 5.74162 22.4349 5.6001 22.0122 5.6001C21.5894 5.6001 21.1788 5.74162 20.8458 6.00209C20.5128 6.26257 20.2766 6.62702 20.1749 7.03735C20.0895 7.36043 19.9204 7.65529 19.6848 7.89222C19.4491 8.12915 19.1551 8.29976 18.8325 8.38687C18.5099 8.47398 18.17 8.4745 17.8471 8.38838C17.5242 8.30226 17.2298 8.13255 16.9934 7.89634C16.7 7.59232 16.3133 7.3952 15.8949 7.33636C15.4765 7.27751 15.0505 7.36033 14.6846 7.57162C14.3187 7.78292 14.0341 8.11054 13.8759 8.50234C13.7178 8.89413 13.6952 9.32757 13.8119 9.73364C13.9131 10.0615 13.9236 10.4105 13.8425 10.7439C13.7613 11.0772 13.5915 11.3824 13.3509 11.627C13.1104 11.8716 12.8081 12.0466 12.4762 12.1333C12.1443 12.2201 11.795 12.2154 11.4656 12.1197C11.0595 12.0031 10.6261 12.0256 10.2343 12.1837C9.84248 12.3419 9.51485 12.6266 9.30356 12.9924C9.09226 13.3583 9.00945 13.7844 9.06829 14.2027C9.12714 14.6211 9.32426 15.0078 9.62828 15.3012C9.86448 15.5376 10.0342 15.8321 10.1203 16.155C10.2064 16.4779 10.2059 16.8177 10.1188 17.1404C10.0317 17.463 9.86108 17.7569 9.62415 17.9926C9.38723 18.2283 9.09236 18.3973 8.76928 18.4827C8.35895 18.5845 7.99451 18.8207 7.73403 19.1536C7.47355 19.4866 7.33203 19.8972 7.33203 20.32C7.33203 20.7427 7.47355 21.1533 7.73403 21.4863C7.99451 21.8193 8.35895 22.0555 8.76928 22.1573C9.09236 22.2427 9.38723 22.4117 9.62415 22.6474C9.86108 22.883 10.0317 23.177 10.1188 23.4996C10.2059 23.8222 10.2064 24.1621 10.1203 24.485C10.0342 24.8079 9.86448 25.1024 9.62828 25.3388C9.32426 25.6322 9.12714 26.0188 9.06829 26.4372C9.00945 26.8556 9.09226 27.2817 9.30356 27.6475C9.51485 28.0134 9.84248 28.2981 10.2343 28.4562C10.6261 28.6144 11.0595 28.6369 11.4656 28.5202C11.7934 28.4191 12.1425 28.4085 12.4758 28.4897C12.8092 28.5708 13.1143 28.7407 13.3589 28.9812C13.6035 29.2218 13.7785 29.524 13.8653 29.8559C13.952 30.1879 13.9473 30.5371 13.8517 30.8666C13.735 31.2726 13.7575 31.7061 13.9157 32.0979C14.0738 32.4897 14.3585 32.8173 14.7244 33.0286C15.0902 33.2399 15.5163 33.3227 15.9347 33.2638C16.3531 33.205 16.7397 33.0079 17.0332 32.7039C17.2695 32.4676 17.564 32.2979 17.8869 32.2118C18.2098 32.1257 18.5497 32.1262 18.8723 32.2133C19.1949 32.3004 19.4889 32.471 19.7245 32.708C19.9602 32.9449 20.1292 33.2398 20.2146 33.5628C20.3164 33.9732 20.5526 34.3376 20.8856 34.5981C21.2186 34.8586 21.6292 35.0001 22.0519 35.0001C22.4747 35.0001 22.8853 34.8586 23.2183 34.5981C23.5512 34.3376 23.7874 33.9732 23.8892 33.5628C23.9746 33.2398 24.1436 32.9449 24.3793 32.708C24.615 32.471 24.9089 32.3004 25.2315 32.2133C25.5542 32.1262 25.894 32.1257 26.2169 32.2118C26.5398 32.2979 26.8343 32.4676 27.0707 32.7039C27.3641 33.0079 27.7508 33.205 28.1692 33.2638C28.5875 33.3227 29.0136 33.2399 29.3795 33.0286C29.7453 32.8173 30.03 32.4897 30.1882 32.0979C30.3463 31.7061 30.3688 31.2726 30.2522 30.8666C30.1602 30.5412 30.1567 30.1972 30.2419 29.8701C30.3272 29.5429 30.4982 29.2444 30.7372 29.0053C30.9763 28.7662 31.2748 28.5953 31.602 28.51C31.9292 28.4247 32.2731 28.4283 32.5985 28.5202C33.0046 28.6369 33.438 28.6144 33.8298 28.4562C34.2216 28.2981 34.5492 28.0134 34.7605 27.6475C34.9718 27.2817 35.0546 26.8556 34.9958 26.4372C34.9369 26.0188 34.7398 25.6322 34.4358 25.3388C34.1996 25.1024 34.0299 24.8079 33.9438 24.485C33.8576 24.1621 33.8582 23.8222 33.9453 23.4996C34.0324 23.177 34.203 22.883 34.4399 22.6474C34.6768 22.4117 34.9717 22.2427 35.2948 22.1573C35.7078 22.0541 36.074 21.8147 36.3342 21.4778C36.5944 21.1408 36.7335 20.726 36.7289 20.3003C36.7243 19.8746 36.5763 19.4629 36.3089 19.1316C36.0415 18.8004 35.6702 18.569 35.255 18.4747ZM21.9803 29.4588C20.1713 29.4588 18.4029 28.9223 16.8987 27.9173C15.3945 26.9122 14.2222 25.4837 13.5299 23.8123C12.8376 22.141 12.6564 20.3019 13.0094 18.5276C13.3623 16.7533 14.2334 15.1235 15.5126 13.8443C16.7918 12.5651 18.4216 11.694 20.1959 11.3411C21.9702 10.9881 23.8093 11.1693 25.4806 11.8616C27.152 12.5539 28.5805 13.7262 29.5856 15.2304C30.5906 16.7346 31.1271 18.503 31.1271 20.312C31.1271 22.7379 30.1634 25.0644 28.448 26.7797C26.7327 28.4951 24.4062 29.4588 21.9803 29.4588Z" fill="#EAC218"/>
<path fill-rule="evenodd" clip-rule="evenodd" d="M27.6774 17.9165L27.6817 17.9324C27.8919 18.7252 27.9501 19.5474 27.8566 20.3561L29.2945 21.8152C29.3954 21.3241 29.4474 20.8207 29.4474 20.3118C29.4474 18.8351 29.0095 17.3915 28.189 16.1636C27.3685 14.9357 26.2024 13.9786 24.838 13.4135C23.4737 12.8484 21.9724 12.7005 20.524 12.9886C20.1922 13.0546 19.8667 13.1428 19.5494 13.252C19.5538 13.2508 19.5581 13.2496 19.5625 13.2485C20.6853 12.9478 21.8675 12.9481 22.9902 13.2493C24.1126 13.5505 25.1359 14.1419 25.9573 14.964C26.7768 15.7825 27.3696 16.7999 27.6774 17.9165ZM24.7693 16.1518C25.3832 16.7647 25.8272 17.5267 26.0578 18.3629C26.2791 19.1976 26.2736 20.0763 26.0419 20.9081L28.7461 23.6521C28.3768 24.3942 27.8911 25.0655 27.312 25.6432C26.7331 26.2208 26.0608 26.7048 25.3181 27.0722L22.5979 24.368C21.7609 24.595 20.8787 24.5968 20.0407 24.3734C19.2027 24.1499 18.4386 23.709 17.8257 23.0954C17.209 22.4797 16.7671 21.7111 16.5452 20.8684C16.5273 20.8027 16.5109 20.7368 16.4959 20.6706C16.3201 19.8969 16.3365 19.0908 16.5452 18.3232L20.0289 21.8705L22.9081 21.274L23.5046 18.3868L19.9971 14.8713C20.7545 14.6684 21.5482 14.6492 22.3126 14.8134C22.3937 14.8309 22.4744 14.8504 22.5548 14.8719C23.3925 15.0967 24.1563 15.5382 24.7693 16.1518ZM21.6763 18.9329L18.8078 16.0579C18.3841 15.6332 18.219 15.0148 18.3746 14.4354C18.5056 13.948 18.8468 13.5504 19.297 13.3441C18.3275 13.7175 17.4421 14.2909 16.7009 15.0321C15.9463 15.7866 15.3657 16.6906 14.9929 17.6805C15.1925 17.1982 15.6078 16.8317 16.1206 16.6977C16.7029 16.5456 17.3221 16.7166 17.7438 17.146L20.5854 20.0395L21.4863 19.8529L21.6763 18.9329ZM14.9449 17.8117C14.9375 17.8351 14.9305 17.8587 14.924 17.8825C14.6197 19.0022 14.6191 20.1826 14.9222 21.3025C15.2204 22.4303 15.8124 23.459 16.6379 24.2834C17.4598 25.106 18.4843 25.697 19.6078 25.9967C20.4021 26.2085 21.2259 26.2693 22.0371 26.1794L23.4906 27.6243C22.9975 27.7262 22.4918 27.7786 21.9806 27.7786C20.5039 27.7786 19.0603 27.3407 17.8324 26.5202C16.6045 25.6998 15.6474 24.5336 15.0823 23.1692C14.5172 21.8049 14.3693 20.3036 14.6574 18.8552C14.7282 18.4994 14.8245 18.1507 14.9449 17.8117ZM25.5401 28.7376C24.4243 29.2089 23.2154 29.4586 21.9806 29.4586C20.1716 29.4586 18.4032 28.9221 16.899 27.9171C15.3948 26.912 14.2225 25.4835 13.5302 23.8121C12.8379 22.1408 12.6567 20.3017 13.0097 18.5274C13.3626 16.7531 14.2337 15.1233 15.5129 13.8441C16.7921 12.5649 18.4219 11.6938 20.1962 11.3409C21.9705 10.988 23.8096 11.1691 25.4809 11.8614C27.1523 12.5537 28.5808 13.726 29.5859 15.2302C30.5909 16.7344 31.1274 18.5028 31.1274 20.3118C31.1274 21.5397 30.8805 22.7421 30.4142 23.8527C30.3414 24.026 30.2633 24.1971 30.18 24.3657C29.7422 25.2512 29.16 26.068 28.4484 26.7796C27.7358 27.4921 26.9177 28.075 26.0309 28.5129C25.8695 28.5927 25.7058 28.6676 25.5401 28.7376ZM32.559 12.1116C32.9651 11.9949 33.3986 12.0175 33.7903 12.1756C34.1821 12.3338 34.5098 12.6184 34.7211 12.9843C34.9323 13.3502 35.0152 13.7762 34.9563 14.1946C34.8975 14.613 34.7004 14.9997 34.3963 15.2931C34.1601 15.5295 33.9904 15.824 33.9043 16.1468C33.8182 16.4697 33.8187 16.8096 33.9058 17.1322C33.9929 17.4548 34.1635 17.7488 34.4005 17.9845C34.6374 18.2201 34.9322 18.3892 35.2553 18.4746C35.6705 18.5688 36.0418 18.8002 36.3092 19.1315C36.5766 19.4627 36.7246 19.8744 36.7292 20.3001C36.7338 20.7258 36.5947 21.1406 36.3345 21.4776C36.0743 21.8145 35.7081 22.0539 35.2951 22.1571C34.972 22.2425 34.6772 22.4115 34.4402 22.6472C34.2033 22.8829 34.0327 23.1768 33.9456 23.4994C33.8585 23.8221 33.8579 24.1619 33.9441 24.4848C34.0302 24.8077 34.1999 25.1022 34.4361 25.3386C34.7401 25.632 34.9372 26.0187 34.9961 26.437C35.0549 26.8554 34.9721 27.2815 34.7608 27.6474C34.5495 28.0132 34.2219 28.2979 33.8301 28.456C33.4383 28.6142 33.0049 28.6367 32.5988 28.52C32.2735 28.4281 31.9295 28.4245 31.6023 28.5098C31.2751 28.5951 30.9766 28.7661 30.7376 29.0051C30.4985 29.2442 30.3275 29.5427 30.2422 29.8699C30.157 30.197 30.1605 30.541 30.2525 30.8664C30.3691 31.2725 30.3466 31.7059 30.1885 32.0977C30.0303 32.4895 29.7457 32.8171 29.3798 33.0284C29.0139 33.2397 28.5879 33.3225 28.1695 33.2637C27.7511 33.2048 27.3644 33.0077 27.071 32.7037C26.8346 32.4675 26.5401 32.2978 26.2172 32.2116C25.8944 32.1255 25.5545 32.126 25.2319 32.2131C24.9092 32.3003 24.6153 32.4709 24.3796 32.7078C24.144 32.9447 23.9749 33.2396 23.8895 33.5627C23.7878 33.973 23.5515 34.3374 23.2186 34.5979C22.8856 34.8584 22.475 34.9999 22.0522 34.9999C21.6295 34.9999 21.2189 34.8584 20.8859 34.5979C20.5529 34.3374 20.3167 33.973 20.2149 33.5627C20.1296 33.2396 19.9605 32.9447 19.7248 32.7078C19.4892 32.4709 19.1952 32.3003 18.8726 32.2131C18.55 32.126 18.2101 32.1255 17.8872 32.2116C17.5643 32.2978 17.2699 32.4675 17.0335 32.7037C16.7401 33.0077 16.3534 33.2048 15.935 33.2637C15.5166 33.3225 15.0906 33.2397 14.7247 33.0284C14.3588 32.8171 14.0741 32.4895 13.916 32.0977C13.7578 31.7059 13.7353 31.2725 13.852 30.8664C13.9476 30.5369 13.9523 30.1877 13.8656 29.8558C13.7788 29.5238 13.6039 29.2216 13.3592 28.981C13.1146 28.7405 12.8095 28.5706 12.4761 28.4895C12.1428 28.4083 11.7937 28.4189 11.4659 28.52C11.0598 28.6367 10.6264 28.6142 10.2346 28.456C9.84279 28.2979 9.51517 28.0132 9.30387 27.6474C9.09258 27.2815 9.00976 26.8554 9.0686 26.437C9.12745 26.0187 9.32457 25.632 9.62859 25.3386C9.86479 25.1022 10.0345 24.8077 10.1206 24.4848C10.2067 24.1619 10.2062 23.8221 10.1191 23.4994C10.032 23.1768 9.86139 22.8829 9.62447 22.6472C9.38754 22.4115 9.09267 22.2425 8.76959 22.1571C8.35927 22.0553 7.99482 21.8191 7.73434 21.4861C7.47386 21.1532 7.33234 20.7426 7.33234 20.3198C7.33234 19.897 7.47386 19.4865 7.73434 19.1535C7.99482 18.8205 8.35927 18.5843 8.76959 18.4825C9.09267 18.3971 9.38754 18.2281 9.62447 17.9924C9.86139 17.7568 10.032 17.4628 10.1191 17.1402C10.2062 16.8176 10.2067 16.4777 10.1206 16.1548C10.0345 15.8319 9.86479 15.5374 9.62859 15.301C9.32457 15.0076 9.12745 14.621 9.0686 14.2026C9.00976 13.7842 9.09258 13.3581 9.30387 12.9923C9.51517 12.6264 9.84279 12.3417 10.2346 12.1836C10.6264 12.0254 11.0598 12.0029 11.4659 12.1196C11.7954 12.2152 12.1446 12.2199 12.4765 12.1331C12.8084 12.0464 13.1107 11.8714 13.3512 11.6268C13.5918 11.3822 13.7616 11.077 13.8428 10.7437C13.9239 10.4104 13.9134 10.0613 13.8122 9.73347C13.6955 9.32739 13.7181 8.89395 13.8762 8.50216C14.0344 8.11037 14.319 7.78274 14.6849 7.57145C15.0508 7.36015 15.4768 7.27734 15.8952 7.33618C16.3136 7.39503 16.7003 7.59215 16.9937 7.89617C17.2301 8.13237 17.5246 8.30209 17.8474 8.3882C18.1703 8.47432 18.5102 8.4738 18.8328 8.3867C19.1555 8.29959 19.4494 8.12897 19.6851 7.89204C19.9207 7.65512 20.0898 7.36025 20.1752 7.03717C20.2769 6.62684 20.5131 6.2624 20.8461 6.00192C21.1791 5.74144 21.5897 5.59992 22.0125 5.59992C22.4352 5.59992 22.8458 5.74144 23.1788 6.00192C23.5118 6.2624 23.748 6.62684 23.8498 7.03717C23.9351 7.36025 24.1042 7.65512 24.3398 7.89204C24.5755 8.12897 24.8695 8.29959 25.1921 8.3867C25.5147 8.4738 25.8546 8.47432 26.1775 8.3882C26.5004 8.30209 26.7948 8.13237 27.0312 7.89617C27.3246 7.59215 27.7113 7.39503 28.1297 7.33618C28.5481 7.27734 28.9741 7.36015 29.34 7.57145C29.7059 7.78274 29.9906 8.11037 30.1487 8.50216C30.3069 8.89395 30.3294 9.32739 30.2127 9.73347C30.1134 10.0608 30.1043 10.4089 30.1863 10.741C30.2683 11.073 30.4384 11.3769 30.6786 11.6203C30.9188 11.8638 31.2203 12.038 31.5513 12.1245C31.8822 12.2109 32.2304 12.2065 32.559 12.1116ZM25.4754 6.61283C25.4857 6.64846 25.5048 6.68095 25.531 6.70729C25.5583 6.73482 25.5925 6.75465 25.63 6.76477C25.6675 6.7749 25.707 6.77496 25.7445 6.76495C25.7801 6.75546 25.8127 6.73724 25.8394 6.71199C26.3911 6.14811 27.1141 5.78249 27.8957 5.67255C28.6854 5.56149 29.4896 5.7178 30.1802 6.11662C30.8708 6.51544 31.4081 7.13382 31.7066 7.87333C32.0051 8.61284 32.0476 9.43095 31.8274 10.1974C31.8251 10.2053 31.8228 10.2132 31.8204 10.2211C31.8088 10.2592 31.8078 10.2996 31.8173 10.3382C31.8268 10.3768 31.8466 10.4121 31.8745 10.4404C31.9024 10.4687 31.9375 10.489 31.9759 10.499C32.0144 10.5091 32.0549 10.5086 32.0931 10.4975L32.0951 10.4969C32.8616 10.2767 33.6797 10.3192 34.4192 10.6177C35.1587 10.9162 35.7771 11.4536 36.1759 12.1441C36.5747 12.8347 36.731 13.6389 36.6199 14.4286C36.51 15.2102 36.1444 15.9332 35.5805 16.4849C35.5553 16.5116 35.537 16.5442 35.5276 16.5798C35.5175 16.6173 35.5176 16.6568 35.5277 16.6943C35.5378 16.7318 35.5577 16.766 35.5852 16.7934C35.61 16.818 35.6402 16.8363 35.6733 16.847C36.4383 17.0313 37.1215 17.4632 37.6164 18.0761C38.1211 18.7014 38.4004 19.4785 38.4091 20.282C38.4178 21.0855 38.1553 21.8685 37.6642 22.5044C37.1768 23.1356 36.4923 23.5854 35.72 23.7825C35.6841 23.7928 35.6515 23.812 35.625 23.8383C35.5975 23.8657 35.5776 23.8999 35.5675 23.9373C35.5574 23.9748 35.5573 24.0144 35.5673 24.0519C35.5768 24.0874 35.595 24.1201 35.6203 24.1468C36.1842 24.6984 36.5498 25.4214 36.6597 26.2031C36.7708 26.9928 36.6145 27.7969 36.2157 28.4875C35.8168 29.1781 35.1984 29.7154 34.4589 30.0139C33.7212 30.3117 32.9052 30.3547 32.1402 30.1363C32.1029 30.126 32.0635 30.1257 32.026 30.1355C31.988 30.1454 31.9533 30.1653 31.9255 30.1931C31.8977 30.2209 31.8778 30.2555 31.8679 30.2936C31.8581 30.3311 31.8584 30.3706 31.8687 30.408C32.0872 31.1729 32.0441 31.9888 31.7464 32.7265C31.4479 33.466 30.9105 34.0844 30.2199 34.4832C29.5294 34.882 28.7252 35.0384 27.9355 34.9273C27.1539 34.8174 26.4309 34.4517 25.8792 33.8879C25.8525 33.8626 25.8199 33.8444 25.7843 33.8349C25.7468 33.8249 25.7073 33.8249 25.6698 33.8351C25.6323 33.8452 25.5981 33.865 25.5707 33.8926C25.5445 33.9189 25.5254 33.9514 25.5151 33.987C25.3204 34.7534 24.8768 35.4337 24.2537 35.9212C23.6252 36.4128 22.8502 36.6799 22.0522 36.6799C21.2543 36.6799 20.4793 36.4128 19.8508 35.9212C19.2277 35.4337 18.7841 34.7534 18.5893 33.987C18.579 33.9514 18.5599 33.9189 18.5337 33.8926C18.5063 33.865 18.4722 33.8452 18.4347 33.8351C18.3972 33.8249 18.3577 33.8249 18.3202 33.8349C18.2846 33.8444 18.252 33.8626 18.2253 33.8879C17.6736 34.4517 16.9506 34.8174 16.169 34.9273C15.3793 35.0384 14.5751 34.882 13.8845 34.4832C13.1939 34.0844 12.6566 33.466 12.3581 32.7265C12.0596 31.987 12.0171 31.1689 12.2373 30.4024L12.2386 30.398C12.2497 30.3597 12.2503 30.3192 12.2402 30.2806C12.2301 30.242 12.2098 30.2069 12.1813 30.1789C12.1529 30.151 12.1174 30.1312 12.0787 30.1218C12.0399 30.1124 11.9994 30.1136 11.9613 30.1253C11.957 30.1267 11.9527 30.128 11.9483 30.1293C11.9422 30.1311 11.936 30.1329 11.9298 30.1347C11.1634 30.3549 10.3453 30.3124 9.60575 30.0139C8.86625 29.7154 8.24786 29.1781 7.84904 28.4875C7.45023 27.7969 7.29391 26.9928 7.40498 26.2031C7.51491 25.4214 7.88054 24.6984 8.44441 24.1468C8.46967 24.1201 8.48788 24.0874 8.49737 24.0519C8.50738 24.0143 8.50732 23.9748 8.4972 23.9373C8.48707 23.8999 8.46724 23.8657 8.43971 23.8383C8.41337 23.8121 8.38088 23.793 8.34525 23.7827C7.57888 23.5879 6.89855 23.1444 6.41111 22.5213C5.91946 21.8928 5.65234 21.1178 5.65234 20.3198C5.65234 19.5218 5.91946 18.7469 6.41111 18.1184C6.89855 17.4952 7.57888 17.0517 8.34525 16.8569C8.38088 16.8466 8.41338 16.8275 8.43971 16.8013C8.46724 16.7739 8.48707 16.7398 8.4972 16.7023C8.50732 16.6648 8.50738 16.6253 8.49737 16.5877C8.48788 16.5522 8.46967 16.5196 8.44441 16.4929C7.88054 15.9412 7.51491 15.2182 7.40498 14.4366C7.29391 13.6468 7.45023 12.8427 7.84904 12.1521C8.24786 11.4615 8.86625 10.9242 9.60575 10.6257C10.3453 10.3272 11.1634 10.2847 11.9298 10.5049L11.9342 10.5062C11.9725 10.5173 12.0131 10.5178 12.0517 10.5077C12.0903 10.4977 12.1254 10.4773 12.1533 10.4489C12.1813 10.4205 12.201 10.385 12.2105 10.3463C12.2199 10.3075 12.2187 10.267 12.2069 10.2289C12.2037 10.2184 12.2006 10.2079 12.1976 10.1974C11.9773 9.43095 12.0198 8.61283 12.3183 7.87333C12.6168 7.13382 13.1542 6.51544 13.8448 6.11662C14.5353 5.7178 15.3395 5.56149 16.1292 5.67255C16.9108 5.78249 17.6338 6.14811 18.1855 6.71199C18.2122 6.73724 18.2448 6.75546 18.2804 6.76495C18.3179 6.77496 18.3574 6.7749 18.3949 6.76477C18.4324 6.75465 18.4666 6.73482 18.494 6.70729C18.5202 6.68095 18.5393 6.64846 18.5496 6.61283C18.7443 5.84646 19.1879 5.16613 19.811 4.67869C20.4395 4.18704 21.2145 3.91992 22.0125 3.91992C22.8104 3.91992 23.5854 4.18704 24.2139 4.67869C24.837 5.16613 25.2806 5.84646 25.4754 6.61283Z" fill="white"/>
</svg>
