<svg width="72" height="72" viewBox="0 0 72 72" fill="none" xmlns="http://www.w3.org/2000/svg">
<path d="M44.1007 31.4796C43.7055 30.0459 42.9444 28.7397 41.8919 27.6891C40.8411 26.6371 39.5318 25.8803 38.0957 25.495C36.6595 25.1096 35.1473 25.1092 33.711 25.4939L39.724 31.5205L38.7013 36.4699L33.7655 37.4925L27.7934 31.4114C27.4052 32.8399 27.4052 34.3461 27.7934 35.7746C28.1738 37.2192 28.9314 38.5368 29.9887 39.5923C31.0393 40.6443 32.3492 41.4001 33.7858 41.7832C35.2223 42.1663 36.7346 42.1631 38.1696 41.7739L42.8327 46.4097C45.3793 45.1497 47.4434 43.0905 48.7093 40.5468L44.0735 35.8427C44.4707 34.4167 44.4801 32.9105 44.1007 31.4796Z" fill="#EAC218"/>
<path d="M59.868 31.6709C59.3141 31.5245 58.8086 31.2347 58.4025 30.8307C57.9963 30.4268 57.7038 29.9228 57.5545 29.3698C57.4052 28.8167 57.4043 28.234 57.5519 27.6805C57.6996 27.127 57.9905 26.6222 58.3954 26.2169C58.9166 25.714 59.2545 25.0511 59.3554 24.3339C59.4563 23.6166 59.3143 22.8863 58.9521 22.259C58.5899 21.6318 58.0282 21.1438 57.3566 20.8727C56.6849 20.6016 55.9419 20.563 55.2458 20.763C54.6824 20.9256 54.0855 20.9333 53.5182 20.785C52.9508 20.6368 52.434 20.3383 52.0222 19.9208C51.6103 19.5034 51.3187 18.9826 51.1782 18.4133C51.0376 17.844 51.0533 17.2473 51.2235 16.6862C51.4235 15.99 51.3849 15.247 51.1138 14.5754C50.8427 13.9037 50.3547 13.3421 49.7274 12.9799C49.1002 12.6176 48.3698 12.4757 47.6526 12.5765C46.9354 12.6774 46.2725 13.0153 45.7695 13.5365C45.3643 13.9414 44.8595 14.2324 44.3059 14.38C43.7524 14.5276 43.1698 14.5268 42.6167 14.3774C42.0636 14.2281 41.5597 13.9356 41.1557 13.5295C40.7517 13.1233 40.4619 12.6178 40.3156 12.064C40.1411 11.3605 39.7362 10.7358 39.1653 10.2892C38.5945 9.8427 37.8907 9.6001 37.1659 9.6001C36.4412 9.6001 35.7373 9.8427 35.1665 10.2892C34.5957 10.7358 34.1907 11.3605 34.0163 12.064C33.8699 12.6178 33.5801 13.1233 33.1761 13.5295C32.7721 13.9356 32.2682 14.2281 31.7151 14.3774C31.1621 14.5268 30.5794 14.5276 30.0259 14.38C29.4724 14.2324 28.9676 13.9414 28.5623 13.5365C28.0593 13.0153 27.3965 12.6774 26.6792 12.5765C25.962 12.4757 25.2316 12.6176 24.6044 12.9799C23.9772 13.3421 23.4892 13.9037 23.2181 14.5754C22.947 15.247 22.9083 15.99 23.1084 16.6862C23.2818 17.2481 23.2999 17.8466 23.1608 18.418C23.0216 18.9894 22.7304 19.5126 22.3181 19.9319C21.9057 20.3513 21.3876 20.6512 20.8186 20.7999C20.2495 20.9486 19.6509 20.9406 19.0861 20.7766C18.3899 20.5766 17.6469 20.6152 16.9753 20.8863C16.3036 21.1574 15.742 21.6455 15.3798 22.2727C15.0175 22.8999 14.8756 23.6303 14.9764 24.3475C15.0773 25.0647 15.4152 25.7276 15.9364 26.2306C16.3413 26.6358 16.6323 27.1406 16.7799 27.6942C16.9275 28.2477 16.9267 28.8303 16.7773 29.3834C16.628 29.9365 16.3355 30.4404 15.9294 30.8444C15.5232 31.2484 15.0177 31.5382 14.4639 31.6845C13.7604 31.859 13.1357 32.2639 12.6891 32.8348C12.2426 33.4056 12 34.1095 12 34.8342C12 35.5589 12.2426 36.2628 12.6891 36.8336C13.1357 37.4044 13.7604 37.8094 14.4639 37.9838C15.0177 38.1302 15.5232 38.42 15.9294 38.824C16.3355 39.228 16.628 39.7319 16.7773 40.285C16.9267 40.838 16.9275 41.4207 16.7799 41.9742C16.6323 42.5277 16.3413 43.0325 15.9364 43.4378C15.4152 43.9408 15.0773 44.6036 14.9764 45.3209C14.8756 46.0381 15.0175 46.7685 15.3798 47.3957C15.742 48.0229 16.3036 48.5109 16.9753 48.782C17.6469 49.0531 18.3899 49.0918 19.0861 48.8917C19.6481 48.7183 20.2465 48.7002 20.8179 48.8393C21.3893 48.9785 21.9125 49.2697 22.3318 49.682C22.7512 50.0944 23.0511 50.6125 23.1998 51.1815C23.3485 51.7506 23.3405 52.3492 23.1765 52.914C22.9765 53.6102 23.0151 54.3532 23.2862 55.0248C23.5574 55.6965 24.0454 56.2581 24.6726 56.6203C25.2998 56.9826 26.0302 57.1245 26.7474 57.0237C27.4646 56.9228 28.1275 56.5848 28.6305 56.0637C29.0357 55.6588 29.5405 55.3678 30.0941 55.2202C30.6476 55.0726 31.2302 55.0734 31.7833 55.2228C32.3364 55.3721 32.8403 55.6646 33.2443 56.0707C33.6483 56.4769 33.9381 56.9824 34.0844 57.5362C34.2589 58.2397 34.6638 58.8644 35.2347 59.311C35.8055 59.7575 36.5094 60.0001 37.2341 60.0001C37.9588 60.0001 38.6627 59.7575 39.2335 59.311C39.8043 58.8644 40.2093 58.2397 40.3837 57.5362C40.5301 56.9824 40.8199 56.4769 41.2239 56.0707C41.6279 55.6646 42.1318 55.3721 42.6849 55.2228C43.2379 55.0734 43.8206 55.0726 44.3741 55.2202C44.9276 55.3678 45.4325 55.6588 45.8377 56.0637C46.3407 56.5848 47.0035 56.9228 47.7208 57.0237C48.438 57.1245 49.1684 56.9826 49.7956 56.6203C50.4228 56.2581 50.9108 55.6965 51.1819 55.0248C51.453 54.3532 51.4917 53.6102 51.2916 52.914C51.134 52.3563 51.1279 51.7666 51.2741 51.2057C51.4203 50.6449 51.7134 50.1332 52.1232 49.7233C52.5331 49.3135 53.0448 49.0204 53.6056 48.8742C54.1665 48.728 54.7562 48.7341 55.3139 48.8917C56.0101 49.0918 56.7531 49.0531 57.4247 48.782C58.0964 48.5109 58.658 48.0229 59.0203 47.3957C59.3825 46.7685 59.5244 46.0381 59.4236 45.3209C59.3227 44.6036 58.9848 43.9408 58.4636 43.4378C58.0587 43.0325 57.7677 42.5277 57.6201 41.9742C57.4725 41.4207 57.4734 40.838 57.6227 40.285C57.772 39.7319 58.0645 39.228 58.4707 38.824C58.8768 38.42 59.3823 38.1302 59.9362 37.9838C60.6442 37.807 61.272 37.3966 61.718 36.819C62.1641 36.2413 62.4025 35.5302 62.3946 34.8004C62.3867 34.0707 62.133 33.3649 61.6746 32.797C61.2162 32.2292 60.5797 31.8324 59.868 31.6709ZM37.1114 50.5006C34.0101 50.5006 30.9786 49.581 28.4 47.8581C25.8214 46.1351 23.8116 43.6862 22.6249 40.8211C21.4381 37.9559 21.1275 34.8032 21.7326 31.7615C22.3376 28.7199 23.831 25.9259 26.0239 23.733C28.2168 21.5401 31.0107 20.0468 34.0523 19.4417C37.094 18.8367 40.2467 19.1472 43.1119 20.334C45.9771 21.5208 48.426 23.5306 50.1489 26.1092C51.8719 28.6877 52.7915 31.7193 52.7915 34.8205C52.7915 38.9792 51.1395 42.9675 48.1989 45.9081C45.2583 48.8486 41.27 50.5006 37.1114 50.5006Z" fill="#EAC218"/>
<path fill-rule="evenodd" clip-rule="evenodd" d="M46.8763 30.7141L46.8837 30.7414C47.244 32.1004 47.3438 33.5099 47.1836 34.8963L49.6486 37.3975C49.8216 36.5558 49.9106 35.6927 49.9106 34.8204C49.9106 32.2888 49.1599 29.814 47.7534 27.7091C46.3469 25.6041 44.3478 23.9635 42.0089 22.9947C39.67 22.0259 37.0963 21.7724 34.6133 22.2663C34.0447 22.3794 33.4866 22.5305 32.9427 22.7179C32.9501 22.7158 32.9576 22.7138 32.9651 22.7118C34.89 22.1963 36.9166 22.1968 38.8412 22.7132C40.7653 23.2296 42.5196 24.2433 43.9277 25.6526C45.3325 27.0557 46.3487 28.7999 46.8763 30.7141ZM41.891 27.6889C42.9435 28.7396 43.7047 30.0458 44.0999 31.4794C44.4792 32.9103 44.4698 34.4166 44.0726 35.8426L48.7085 40.5466C48.0754 41.8187 47.2428 42.9695 46.25 43.9599C45.2575 44.95 44.105 45.7797 42.8318 46.4096L38.1687 41.7738C36.7338 42.1629 35.2215 42.1661 33.7849 41.783C32.3483 41.4 31.0384 40.6442 29.9878 39.5922C28.9306 38.5367 28.173 37.2191 27.7926 35.7744C27.762 35.6619 27.7338 35.5489 27.7081 35.4355C27.4067 34.1091 27.4349 32.7272 27.7926 31.4113L33.7647 37.4924L38.7005 36.4698L39.7231 31.5203L33.7101 25.4937C35.0086 25.146 36.3692 25.113 37.6795 25.3946C37.8185 25.4244 37.957 25.4579 38.0948 25.4948C39.5309 25.8802 40.8402 26.6369 41.891 27.6889ZM36.5888 32.4565L31.6713 27.5279C30.945 26.7999 30.6619 25.7398 30.9287 24.7466C31.1532 23.9109 31.7383 23.2293 32.5099 22.8757C30.848 23.5158 29.3301 24.4987 28.0595 25.7694C26.766 27.0629 25.7706 28.6125 25.1316 30.3095C25.4738 29.4827 26.1856 28.8544 27.0648 28.6247C28.063 28.364 29.1245 28.6572 29.8474 29.3933L34.7187 34.3536L36.263 34.0336L36.5888 32.4565ZM25.0493 30.5344C25.0365 30.5745 25.0245 30.615 25.0134 30.6559C24.4917 32.5752 24.4907 34.5989 25.0104 36.5186C25.5215 38.4521 26.5364 40.2155 27.9515 41.6288C29.3604 43.039 31.1167 44.0522 33.0428 44.5658C34.4044 44.9289 35.8167 45.0333 37.2073 44.879L39.699 47.3561C38.8536 47.5307 37.9867 47.6205 37.1105 47.6205C34.5789 47.6205 32.1041 46.8698 29.9992 45.4633C27.8942 44.0568 26.2536 42.0577 25.2848 39.7188C24.316 37.3799 24.0625 34.8062 24.5564 32.3232C24.6777 31.7133 24.8428 31.1156 25.0493 30.5344ZM43.2124 49.2645C41.2997 50.0726 39.2272 50.5005 37.1105 50.5005C34.0093 50.5005 30.9777 49.5809 28.3991 47.8579C25.8205 46.135 23.8108 43.6861 22.624 40.8209C21.4372 37.9558 21.1267 34.803 21.7317 31.7614C22.3367 28.7197 23.8301 25.9258 26.023 23.7329C28.2159 21.54 31.0098 20.0466 34.0515 19.4416C37.0931 18.8366 40.2459 19.1471 43.111 20.3339C45.9762 21.5207 48.4251 23.5304 50.148 26.109C51.871 28.6876 52.7906 31.7192 52.7906 34.8204C52.7906 36.9253 52.3674 38.9866 51.568 40.8905C51.4433 41.1876 51.3094 41.4809 51.1665 41.7699C50.4161 43.2878 49.4179 44.688 48.198 45.9079C46.9765 47.1295 45.5741 48.1287 44.0539 48.8794C43.7772 49.0161 43.4965 49.1445 43.2124 49.2645ZM55.2449 20.7629C55.941 20.5629 56.6841 20.6015 57.3557 20.8726C58.0274 21.1437 58.589 21.6317 58.9512 22.2589C59.3134 22.8861 59.4554 23.6165 59.3545 24.3337C59.2537 25.051 58.9157 25.7138 58.3946 26.2168C57.9896 26.6221 57.6987 27.1269 57.5511 27.6804C57.4034 28.2339 57.4043 28.8166 57.5536 29.3696C57.703 29.9227 57.9955 30.4266 58.4016 30.8306C58.8078 31.2346 59.3133 31.5244 59.8671 31.6708C60.5788 31.8323 61.2153 32.2291 61.6737 32.7969C62.1322 33.3647 62.3858 34.0706 62.3937 34.8003C62.4016 35.5301 62.1632 36.2412 61.7172 36.8188C61.2711 37.3964 60.6433 37.8068 59.9353 37.9837C59.3814 38.1301 58.876 38.4199 58.4698 38.8239C58.0636 39.2279 57.7712 39.7318 57.6218 40.2848C57.4725 40.8379 57.4716 41.4206 57.6192 41.9741C57.7669 42.5276 58.0578 43.0324 58.4627 43.4377C58.9839 43.9406 59.3218 44.6035 59.4227 45.3207C59.5236 46.038 59.3816 46.7683 59.0194 47.3956C58.6572 48.0228 58.0955 48.5108 57.4239 48.7819C56.7522 49.053 56.0092 49.0916 55.3131 48.8916C54.7553 48.7339 54.1656 48.7279 53.6048 48.8741C53.0439 49.0202 52.5322 49.3134 52.1224 49.7232C51.7125 50.133 51.4194 50.6447 51.2732 51.2056C51.1271 51.7665 51.1331 52.3562 51.2908 52.9139C51.4908 53.61 51.4522 54.3531 51.1811 55.0247C50.91 55.6964 50.422 56.258 49.7947 56.6202C49.1675 56.9824 48.4372 57.1244 47.7199 57.0235C47.0027 56.9226 46.3398 56.5847 45.8368 56.0635C45.4316 55.6586 44.9268 55.3677 44.3733 55.2201C43.8197 55.0724 43.2371 55.0733 42.684 55.2226C42.131 55.372 41.627 55.6645 41.223 56.0706C40.819 56.4768 40.5293 56.9823 40.3829 57.5361C40.2084 58.2395 39.8035 58.8643 39.2327 59.3108C38.6618 59.7574 37.958 60 37.2332 60C36.5085 60 35.8046 59.7574 35.2338 59.3108C34.663 58.8643 34.2581 58.2395 34.0836 57.5361C33.9372 56.9823 33.6474 56.4768 33.2434 56.0706C32.8394 55.6645 32.3355 55.372 31.7824 55.2226C31.2294 55.0733 30.6467 55.0724 30.0932 55.2201C29.5397 55.3677 29.0349 55.6586 28.6296 56.0635C28.1267 56.5847 27.4638 56.9226 26.7465 57.0235C26.0293 57.1244 25.2989 56.9824 24.6717 56.6202C24.0445 56.258 23.5565 55.6964 23.2854 55.0247C23.0143 54.3531 22.9757 53.61 23.1757 52.9139C23.3396 52.3491 23.3477 51.7504 23.199 51.1814C23.0502 50.6124 22.7503 50.0942 22.331 49.6819C21.9116 49.2695 21.3885 48.9783 20.8171 48.8392C20.2456 48.7001 19.6472 48.7182 19.0852 48.8916C18.3891 49.0916 17.6461 49.053 16.9744 48.7819C16.3028 48.5108 15.7411 48.0228 15.3789 47.3956C15.0167 46.7683 14.8747 46.038 14.9756 45.3207C15.0765 44.6035 15.4144 43.9406 15.9356 43.4377C16.3405 43.0324 16.6314 42.5276 16.7791 41.9741C16.9267 41.4206 16.9258 40.8379 16.7765 40.2848C16.6271 39.7318 16.3347 39.2279 15.9285 38.8239C15.5223 38.4199 15.0169 38.1301 14.463 37.9837C13.7596 37.8092 13.1348 37.4043 12.6883 36.8335C12.2417 36.2627 11.9991 35.5588 11.9991 34.8341C11.9991 34.1093 12.2417 33.4055 12.6883 32.8346C13.1348 32.2638 13.7596 31.8589 14.463 31.6844C15.0169 31.538 15.5223 31.2482 15.9285 30.8443C16.3347 30.4403 16.6271 29.9363 16.7765 29.3833C16.9258 28.8302 16.9267 28.2475 16.7791 27.694C16.6314 27.1405 16.3405 26.6357 15.9356 26.2305C15.4144 25.7275 15.0765 25.0646 14.9756 24.3474C14.8747 23.6301 15.0167 22.8998 15.3789 22.2725C15.7411 21.6453 16.3028 21.1573 16.9744 20.8862C17.6461 20.6151 18.3891 20.5765 19.0852 20.7765C19.65 20.9405 20.2487 20.9485 20.8177 20.7998C21.3867 20.6511 21.9049 20.3511 22.3172 19.9318C22.7296 19.5124 23.0208 18.9893 23.1599 18.4179C23.299 17.8465 23.2809 17.248 23.1075 16.686C22.9075 15.9899 22.9461 15.2469 23.2172 14.5752C23.4883 13.9036 23.9763 13.3419 24.6035 12.9797C25.2308 12.6175 25.9611 12.4755 26.6784 12.5764C27.3956 12.6773 28.0585 13.0152 28.5615 13.5364C28.9667 13.9413 29.4715 14.2323 30.025 14.3799C30.5785 14.5275 31.1612 14.5266 31.7143 14.3773C32.2673 14.228 32.7713 13.9355 33.1753 13.5293C33.5792 13.1232 33.869 12.6177 34.0154 12.0638C34.1899 11.3604 34.5948 10.7356 35.1656 10.2891C35.7365 9.84257 36.4403 9.59997 37.1651 9.59997C37.8898 9.59997 38.5937 9.84257 39.1645 10.2891C39.7353 10.7356 40.1402 11.3604 40.3147 12.0638C40.4611 12.6177 40.7509 13.1232 41.1549 13.5293C41.5589 13.9355 42.0628 14.228 42.6158 14.3773C43.1689 14.5266 43.7516 14.5275 44.3051 14.3799C44.8586 14.2323 45.3634 13.9413 45.7687 13.5364C46.2716 13.0152 46.9345 12.6773 47.6517 12.5764C48.369 12.4755 49.0994 12.6175 49.7266 12.9797C50.3538 13.3419 50.8418 13.9036 51.1129 14.5752C51.384 15.2469 51.4226 15.9899 51.2226 16.686C51.0524 17.2472 51.0367 17.8439 51.1773 18.4132C51.3179 18.9825 51.6094 19.5033 52.0213 19.9207C52.4331 20.3381 52.95 20.6367 53.5173 20.7849C54.0847 20.9331 54.6815 20.9255 55.2449 20.7629ZM43.1014 11.3364C43.1191 11.3975 43.1519 11.4532 43.1968 11.4983C43.2437 11.5455 43.3023 11.5795 43.3666 11.5969C43.4308 11.6142 43.4986 11.6143 43.5629 11.5972C43.6239 11.5809 43.6798 11.5497 43.7255 11.5064C44.6713 10.5397 45.9107 9.91294 47.2506 9.72448C48.6044 9.53408 49.983 9.80205 51.1669 10.4857C52.3507 11.1694 53.2718 12.2295 53.7836 13.4972C54.2953 14.765 54.3681 16.1674 53.9906 17.4814C53.9867 17.495 53.9827 17.5085 53.9786 17.5221C53.9588 17.5873 53.957 17.6566 53.9733 17.7228C53.9897 17.7889 54.0236 17.8495 54.0714 17.898C54.1193 17.9465 54.1794 17.9812 54.2453 17.9984C54.3112 18.0157 54.3806 18.0148 54.4461 17.9959L54.4496 17.9949C55.7635 17.6173 57.166 17.6902 58.4337 18.2019C59.7014 18.7136 60.7615 19.6348 61.4452 20.8186C62.1289 22.0025 62.3969 23.3811 62.2065 24.7348C62.018 26.0748 61.3912 27.3142 60.4246 28.2599C60.3813 28.3057 60.3501 28.3616 60.3338 28.4226C60.3166 28.4869 60.3167 28.5547 60.3341 28.6189C60.3514 28.6832 60.3854 28.7418 60.4326 28.7887C60.4751 28.8309 60.5268 28.8624 60.5836 28.8807C61.895 29.1967 63.0663 29.937 63.9146 30.9878C64.7799 32.0596 65.2587 33.3918 65.2735 34.7692C65.2884 36.1467 64.8385 37.4889 63.9966 38.5791C63.161 39.6611 61.9877 40.4322 60.6636 40.7702C60.6022 40.7878 60.5462 40.8206 60.5008 40.8658C60.4536 40.9127 60.4196 40.9713 60.4023 41.0356C60.3849 41.0998 60.3848 41.1676 60.402 41.2319C60.4182 41.2929 60.4495 41.3488 60.4928 41.3946C61.4594 42.3403 62.0862 43.5797 62.2746 44.9196C62.465 46.2734 62.1971 47.652 61.5134 48.8358C60.8297 50.0197 59.7696 50.9408 58.5019 51.4525C57.2371 51.9631 55.8382 52.0368 54.527 51.6623C54.463 51.6447 54.3954 51.6442 54.3311 51.661C54.2659 51.678 54.2065 51.712 54.1588 51.7597C54.1112 51.8073 54.0771 51.8668 54.0601 51.9319C54.0434 51.9963 54.0438 52.064 54.0615 52.1281C54.436 53.4393 54.3622 54.8381 53.8517 56.1027C53.34 57.3704 52.4189 58.4305 51.235 59.1142C50.0512 59.7979 48.6726 60.0659 47.3188 59.8755C45.9789 59.687 44.7395 59.0602 43.7937 58.0936C43.748 58.0503 43.6921 58.0191 43.6311 58.0028C43.5667 57.9856 43.499 57.9857 43.4347 58.0031C43.3705 58.0204 43.3119 58.0544 43.2649 58.1016C43.22 58.1468 43.1873 58.2025 43.1696 58.2636C42.8357 59.5773 42.0753 60.7436 41.0071 61.5792C39.9297 62.4221 38.6012 62.88 37.2332 62.88C35.8653 62.88 34.5367 62.4221 33.4593 61.5792C32.3911 60.7436 31.6307 59.5773 31.2968 58.2636C31.2792 58.2025 31.2464 58.1468 31.2015 58.1016C31.1546 58.0544 31.096 58.0204 31.0317 58.0031C30.9675 57.9857 30.8997 57.9856 30.8354 58.0028C30.7744 58.019 30.7185 58.0503 30.6727 58.0936C29.727 59.0602 28.4876 59.687 27.1477 59.8755C25.7939 60.0659 24.4153 59.7979 23.2314 59.1142C22.0476 58.4305 21.1265 57.3704 20.6147 56.1027C20.103 54.835 20.0301 53.4325 20.4077 52.1186L20.4098 52.111C20.4289 52.0454 20.4298 51.9758 20.4126 51.9097C20.3953 51.8435 20.3604 51.7833 20.3117 51.7354C20.2629 51.6875 20.2021 51.6536 20.1357 51.6375C20.0693 51.6213 19.9998 51.6234 19.9345 51.6436C19.9271 51.6458 19.9197 51.6481 19.9123 51.6503C19.9017 51.6535 19.8911 51.6566 19.8806 51.6596C18.5666 52.0371 17.1641 51.9643 15.8964 51.4525C14.6287 50.9408 13.5686 50.0197 12.8849 48.8358C12.2012 47.652 11.9333 46.2734 12.1237 44.9196C12.3121 43.5797 12.9389 42.3403 13.9055 41.3945C13.9488 41.3488 13.9801 41.2929 13.9963 41.2319C14.0135 41.1676 14.0134 41.0998 13.996 41.0356C13.9787 40.9713 13.9447 40.9127 13.8975 40.8658C13.8523 40.8209 13.7966 40.7881 13.7356 40.7704C12.4218 40.4366 11.2555 39.6762 10.4199 38.608C9.57705 37.5305 9.11914 36.202 9.11914 34.8341C9.11914 33.4661 9.57705 32.1376 10.4199 31.0601C11.2555 29.9919 12.4218 29.2315 13.7356 28.8977C13.7966 28.88 13.8523 28.8472 13.8975 28.8023C13.9447 28.7554 13.9787 28.6968 13.996 28.6326C14.0134 28.5683 14.0135 28.5006 13.9963 28.4362C13.9801 28.3752 13.9488 28.3194 13.9055 28.2736C12.9389 27.3278 12.3121 26.0884 12.1237 24.7485C11.9333 23.3947 12.2012 22.0161 12.8849 20.8323C13.5686 19.6484 14.6287 18.7273 15.8964 18.2156C17.1641 17.7039 18.5666 17.631 19.8806 18.0085L19.8881 18.0107C19.9537 18.0297 20.0233 18.0307 20.0894 18.0134C20.1556 17.9961 20.2158 17.9612 20.2637 17.9125C20.3116 17.8638 20.3455 17.803 20.3616 17.7366C20.3778 17.6701 20.3757 17.6006 20.3556 17.5353C20.35 17.5174 20.3447 17.4994 20.3395 17.4814C19.962 16.1674 20.0349 14.765 20.5466 13.4972C21.0583 12.2295 21.9794 11.1694 23.1633 10.4857C24.3471 9.80205 25.7257 9.53408 27.0795 9.72448C28.4194 9.91294 29.6588 10.5397 30.6046 11.5064C30.6503 11.5497 30.7062 11.5809 30.7672 11.5972C30.8316 11.6143 30.8993 11.6142 30.9636 11.5969C31.0278 11.5795 31.0864 11.5455 31.1333 11.4983C31.1782 11.4532 31.211 11.3975 31.2287 11.3364C31.5625 10.0226 32.3229 8.85632 33.3911 8.02071C34.4686 7.17788 35.7971 6.71997 37.1651 6.71997C38.533 6.71997 39.8615 7.17788 40.939 8.02071C42.0072 8.85632 42.7676 10.0226 43.1014 11.3364Z" fill="white"/>
</svg>
