<svg width="43" height="42" viewBox="0 0 43 42" fill="none" xmlns="http://www.w3.org/2000/svg">
<path d="M26.3915 18.3631C26.1609 17.5268 25.7169 16.7649 25.103 16.152C24.49 15.5383 23.7262 15.0969 22.8885 14.8721C22.0508 14.6473 21.1686 14.6471 20.3308 14.8715L23.8383 18.387L23.2418 21.2742L20.3626 21.8707L16.8789 18.3234C16.6524 19.1566 16.6524 20.0353 16.8789 20.8685C17.1007 21.7113 17.5427 22.4799 18.1594 23.0956C18.7723 23.7092 19.5364 24.1501 20.3744 24.3736C21.2124 24.597 22.0946 24.5952 22.9316 24.3681L25.6518 27.0724C27.1373 26.3374 28.3413 25.1361 29.0798 23.6523L26.3755 20.9083C26.6073 20.0764 26.6127 19.1978 26.3915 18.3631Z" fill="#41A4FF"/>
<path d="M35.589 18.4747C35.2659 18.3893 34.9711 18.2203 34.7341 17.9846C34.4972 17.749 34.3266 17.455 34.2395 17.1324C34.1524 16.8098 34.1519 16.4699 34.238 16.147C34.3241 15.8241 34.4938 15.5296 34.73 15.2933C35.034 14.9999 35.2312 14.6132 35.29 14.1948C35.3488 13.7764 35.266 13.3504 35.0547 12.9845C34.8434 12.6186 34.5158 12.3339 34.124 12.1758C33.7322 12.0176 33.2988 11.9951 32.8927 12.1118C32.5641 12.2067 32.2159 12.2111 31.885 12.1246C31.554 12.0382 31.2525 11.864 31.0123 11.6205C30.772 11.377 30.6019 11.0732 30.5199 10.7411C30.4379 10.409 30.4471 10.061 30.5464 9.73364C30.6631 9.32757 30.6405 8.89413 30.4824 8.50234C30.3242 8.11054 30.0396 7.78292 29.6737 7.57162C29.3078 7.36033 28.8818 7.27751 28.4634 7.33636C28.045 7.3952 27.6583 7.59232 27.3649 7.89634C27.1285 8.13255 26.834 8.30226 26.5112 8.38838C26.1883 8.4745 25.8484 8.47398 25.5258 8.38687C25.2031 8.29976 24.9092 8.12915 24.6735 7.89222C24.4379 7.65529 24.2688 7.36043 24.1834 7.03735C24.0817 6.62702 23.8455 6.26257 23.5125 6.00209C23.1795 5.74162 22.7689 5.6001 22.3461 5.6001C21.9234 5.6001 21.5128 5.74162 21.1798 6.00209C20.8468 6.26257 20.6106 6.62702 20.5088 7.03735C20.4235 7.36043 20.2544 7.65529 20.0188 7.89222C19.7831 8.12915 19.4891 8.29976 19.1665 8.38687C18.8439 8.47398 18.504 8.4745 18.1811 8.38838C17.8582 8.30226 17.5638 8.13255 17.3274 7.89634C17.034 7.59232 16.6473 7.3952 16.2289 7.33636C15.8105 7.27751 15.3845 7.36033 15.0186 7.57162C14.6527 7.78292 14.368 8.11054 14.2099 8.50234C14.0517 8.89413 14.0292 9.32757 14.1459 9.73364C14.2471 10.0615 14.2576 10.4105 14.1765 10.7439C14.0953 11.0772 13.9254 11.3824 13.6849 11.627C13.4444 11.8716 13.1421 12.0466 12.8102 12.1333C12.4782 12.2201 12.129 12.2154 11.7996 12.1197C11.3935 12.0031 10.96 12.0256 10.5683 12.1837C10.1765 12.3419 9.84884 12.6266 9.63754 12.9924C9.42625 13.3583 9.34343 13.7844 9.40228 14.2027C9.46112 14.6211 9.65824 15.0078 9.96226 15.3012C10.1985 15.5376 10.3682 15.8321 10.4543 16.155C10.5404 16.4779 10.5399 16.8177 10.4528 17.1404C10.3657 17.463 10.1951 17.7569 9.95814 17.9926C9.72121 18.2283 9.42635 18.3973 9.10327 18.4827C8.69294 18.5845 8.32849 18.8207 8.06801 19.1536C7.80753 19.4866 7.66602 19.8972 7.66602 20.32C7.66602 20.7427 7.80753 21.1533 8.06801 21.4863C8.32849 21.8193 8.69294 22.0555 9.10327 22.1573C9.42635 22.2427 9.72121 22.4117 9.95814 22.6474C10.1951 22.883 10.3657 23.177 10.4528 23.4996C10.5399 23.8222 10.5404 24.1621 10.4543 24.485C10.3682 24.8079 10.1985 25.1024 9.96226 25.3388C9.65824 25.6322 9.46112 26.0188 9.40228 26.4372C9.34343 26.8556 9.42625 27.2817 9.63754 27.6475C9.84884 28.0134 10.1765 28.2981 10.5683 28.4562C10.96 28.6144 11.3935 28.6369 11.7996 28.5202C12.1274 28.4191 12.4765 28.4085 12.8098 28.4897C13.1431 28.5708 13.4483 28.7407 13.6929 28.9812C13.9375 29.2218 14.1125 29.524 14.1992 29.8559C14.286 30.1879 14.2813 30.5371 14.1857 30.8666C14.069 31.2726 14.0915 31.7061 14.2497 32.0979C14.4078 32.4897 14.6925 32.8173 15.0584 33.0286C15.4242 33.2399 15.8503 33.3227 16.2687 33.2638C16.6871 33.205 17.0737 33.0079 17.3671 32.7039C17.6035 32.4676 17.898 32.2979 18.2209 32.2118C18.5438 32.1257 18.8837 32.1262 19.2063 32.2133C19.5289 32.3004 19.8229 32.471 20.0585 32.708C20.2942 32.9449 20.4632 33.2398 20.5486 33.5628C20.6504 33.9732 20.8866 34.3376 21.2196 34.5981C21.5525 34.8586 21.9631 35.0001 22.3859 35.0001C22.8087 35.0001 23.2193 34.8586 23.5522 34.5981C23.8852 34.3376 24.1214 33.9732 24.2232 33.5628C24.3086 33.2398 24.4776 32.9449 24.7133 32.708C24.949 32.471 25.2429 32.3004 25.5655 32.2133C25.8882 32.1262 26.228 32.1257 26.5509 32.2118C26.8738 32.2979 27.1683 32.4676 27.4047 32.7039C27.6981 33.0079 28.0848 33.205 28.5031 33.2638C28.9215 33.3227 29.3476 33.2399 29.7135 33.0286C30.0793 32.8173 30.364 32.4897 30.5222 32.0979C30.6803 31.7061 30.7028 31.2726 30.5861 30.8666C30.4942 30.5412 30.4906 30.1972 30.5759 29.8701C30.6612 29.5429 30.8322 29.2444 31.0712 29.0053C31.3103 28.7662 31.6088 28.5953 31.936 28.51C32.2631 28.4247 32.6071 28.4283 32.9325 28.5202C33.3386 28.6369 33.772 28.6144 34.1638 28.4562C34.5556 28.2981 34.8832 28.0134 35.0945 27.6475C35.3058 27.2817 35.3886 26.8556 35.3298 26.4372C35.2709 26.0188 35.0738 25.6322 34.7698 25.3388C34.5336 25.1024 34.3639 24.8079 34.2777 24.485C34.1916 24.1621 34.1921 23.8222 34.2793 23.4996C34.3664 23.177 34.537 22.883 34.7739 22.6474C35.0108 22.4117 35.3057 22.2427 35.6288 22.1573C36.0418 22.0541 36.408 21.8147 36.6682 21.4778C36.9284 21.1408 37.0674 20.726 37.0628 20.3003C37.0583 19.8746 36.9103 19.4629 36.6429 19.1316C36.3754 18.8004 36.0042 18.569 35.589 18.4747ZM22.3143 29.4588C20.5053 29.4588 18.7368 28.9223 17.2327 27.9173C15.7285 26.9122 14.5561 25.4837 13.8638 23.8123C13.1716 22.141 12.9904 20.3019 13.3433 18.5276C13.6963 16.7533 14.5674 15.1235 15.8466 13.8443C17.1258 12.5651 18.7556 11.694 20.5299 11.3411C22.3042 10.9881 24.1433 11.1693 25.8146 11.8616C27.486 12.5539 28.9145 13.7262 29.9195 15.2304C30.9246 16.7346 31.461 18.503 31.461 20.312C31.461 22.7379 30.4974 25.0644 28.782 26.7797C27.0667 28.4951 24.7402 29.4588 22.3143 29.4588Z" fill="#41A4FF"/>
<path fill-rule="evenodd" clip-rule="evenodd" d="M28.0114 17.9165L28.0157 17.9324C28.2258 18.7252 28.2841 19.5474 28.1906 20.3561L29.6285 21.8152C29.7294 21.3241 29.7814 20.8207 29.7814 20.3118C29.7814 18.8351 29.3434 17.3915 28.523 16.1636C27.7025 14.9357 26.5364 13.9786 25.172 13.4135C23.8077 12.8484 22.3063 12.7005 20.8579 12.9886C20.5262 13.0546 20.2007 13.1428 19.8834 13.252C19.8877 13.2508 19.8921 13.2496 19.8965 13.2485C21.0193 12.9478 22.2015 12.9481 23.3242 13.2493C24.4466 13.5505 25.4699 14.1419 26.2913 14.964C27.1108 15.7825 27.7035 16.7999 28.0114 17.9165ZM25.1033 16.1518C25.7172 16.7647 26.1612 17.5267 26.3918 18.3629C26.6131 19.1976 26.6076 20.0763 26.3759 20.9081L29.0801 23.6521C28.7108 24.3942 28.2251 25.0655 27.646 25.6432C27.067 26.2208 26.3947 26.7048 25.6521 27.0722L22.9319 24.368C22.0949 24.595 21.2127 24.5968 20.3747 24.3734C19.5367 24.1499 18.7726 23.709 18.1597 23.0954C17.543 22.4797 17.1011 21.7111 16.8792 20.8684C16.8613 20.8027 16.8449 20.7368 16.8299 20.6706C16.6541 19.8969 16.6705 19.0908 16.8792 18.3232L20.3629 21.8705L23.2421 21.274L23.8386 18.3868L20.3311 14.8713C21.0885 14.6684 21.8822 14.6492 22.6465 14.8134C22.7276 14.8309 22.8084 14.8504 22.8888 14.8719C23.7265 15.0967 24.4903 15.5382 25.1033 16.1518ZM22.0103 18.9329L19.1418 16.0579C18.7181 15.6332 18.5529 15.0148 18.7086 14.4354C18.8395 13.948 19.1808 13.5504 19.6309 13.3441C18.6615 13.7175 17.7761 14.2909 17.0349 15.0321C16.2803 15.7866 15.6997 16.6906 15.3269 17.6805C15.5265 17.1982 15.9418 16.8317 16.4546 16.6977C17.0369 16.5456 17.6561 16.7166 18.0778 17.146L20.9194 20.0395L21.8202 19.8529L22.0103 18.9329ZM15.2789 17.8117C15.2714 17.8351 15.2645 17.8587 15.258 17.8825C14.9537 19.0022 14.9531 20.1826 15.2562 21.3025C15.5544 22.4303 16.1464 23.459 16.9719 24.2834C17.7937 25.106 18.8183 25.697 19.9418 25.9967C20.7361 26.2085 21.5599 26.2693 22.3711 26.1794L23.8246 27.6243C23.3314 27.7262 22.8257 27.7786 22.3146 27.7786C20.8379 27.7786 19.3942 27.3407 18.1663 26.5202C16.9384 25.6998 15.9814 24.5336 15.4163 23.1692C14.8511 21.8049 14.7033 20.3036 14.9914 18.8552C15.0621 18.4994 15.1584 18.1507 15.2789 17.8117ZM25.874 28.7376C24.7583 29.2089 23.5493 29.4586 22.3146 29.4586C20.5056 29.4586 18.7372 28.9221 17.233 27.9171C15.7288 26.912 14.5565 25.4835 13.8642 23.8121C13.1719 22.1408 12.9907 20.3017 13.3437 18.5274C13.6966 16.7531 14.5677 15.1233 15.8469 13.8441C17.1261 12.5649 18.7559 11.6938 20.5302 11.3409C22.3045 10.988 24.1436 11.1691 25.8149 11.8614C27.4863 12.5537 28.9148 13.726 29.9199 15.2302C30.9249 16.7344 31.4614 18.5028 31.4614 20.3118C31.4614 21.5397 31.2145 22.7421 30.7482 23.8527C30.6754 24.026 30.5973 24.1971 30.5139 24.3657C30.0762 25.2512 29.494 26.068 28.7823 26.7796C28.0698 27.4921 27.2517 28.075 26.3649 28.5129C26.2035 28.5927 26.0398 28.6676 25.874 28.7376ZM32.893 12.1116C33.2991 11.9949 33.7325 12.0175 34.1243 12.1756C34.5161 12.3338 34.8437 12.6184 35.055 12.9843C35.2663 13.3502 35.3492 13.7762 35.2903 14.1946C35.2315 14.613 35.0343 14.9997 34.7303 15.2931C34.4941 15.5295 34.3244 15.824 34.2383 16.1468C34.1522 16.4697 34.1527 16.8096 34.2398 17.1322C34.3269 17.4548 34.4975 17.7488 34.7344 17.9845C34.9714 18.2201 35.2662 18.3892 35.5893 18.4746C36.0045 18.5688 36.3758 18.8002 36.6432 19.1315C36.9106 19.4627 37.0586 19.8744 37.0632 20.3001C37.0678 20.7258 36.9287 21.1406 36.6685 21.4776C36.4083 21.8145 36.0421 22.0539 35.6291 22.1571C35.306 22.2425 35.0111 22.4115 34.7742 22.6472C34.5373 22.8829 34.3667 23.1768 34.2796 23.4994C34.1925 23.8221 34.1919 24.1619 34.2781 24.4848C34.3642 24.8077 34.5339 25.1022 34.7701 25.3386C35.0741 25.632 35.2712 26.0187 35.3301 26.437C35.3889 26.8554 35.3061 27.2815 35.0948 27.6474C34.8835 28.0132 34.5559 28.2979 34.1641 28.456C33.7723 28.6142 33.3389 28.6367 32.9328 28.52C32.6074 28.4281 32.2635 28.4245 31.9363 28.5098C31.6091 28.5951 31.3106 28.7661 31.0715 29.0051C30.8325 29.2442 30.6615 29.5427 30.5762 29.8699C30.491 30.197 30.4945 30.541 30.5865 30.8664C30.7031 31.2725 30.6806 31.7059 30.5225 32.0977C30.3643 32.4895 30.0796 32.8171 29.7138 33.0284C29.3479 33.2397 28.9218 33.3225 28.5035 33.2637C28.0851 33.2048 27.6984 33.0077 27.405 32.7037C27.1686 32.4675 26.8741 32.2978 26.5512 32.2116C26.2283 32.1255 25.8885 32.126 25.5658 32.2131C25.2432 32.3003 24.9493 32.4709 24.7136 32.7078C24.4779 32.9447 24.3089 33.2396 24.2235 33.5627C24.1217 33.973 23.8855 34.3374 23.5525 34.5979C23.2196 34.8584 22.809 34.9999 22.3862 34.9999C21.9635 34.9999 21.5529 34.8584 21.2199 34.5979C20.8869 34.3374 20.6507 33.973 20.5489 33.5627C20.4635 33.2396 20.2945 32.9447 20.0588 32.7078C19.8232 32.4709 19.5292 32.3003 19.2066 32.2131C18.884 32.126 18.5441 32.1255 18.2212 32.2116C17.8983 32.2978 17.6038 32.4675 17.3674 32.7037C17.074 33.0077 16.6874 33.2048 16.269 33.2637C15.8506 33.3225 15.4245 33.2397 15.0587 33.0284C14.6928 32.8171 14.4081 32.4895 14.25 32.0977C14.0918 31.7059 14.0693 31.2725 14.186 30.8664C14.2816 30.5369 14.2863 30.1877 14.1996 29.8558C14.1128 29.5238 13.9378 29.2216 13.6932 28.981C13.4486 28.7405 13.1434 28.5706 12.8101 28.4895C12.4768 28.4083 12.1277 28.4189 11.7999 28.52C11.3938 28.6367 10.9604 28.6142 10.5686 28.456C10.1768 28.2979 9.84915 28.0132 9.63786 27.6474C9.42656 27.2815 9.34374 26.8554 9.40259 26.437C9.46143 26.0187 9.65856 25.632 9.96257 25.3386C10.1988 25.1022 10.3685 24.8077 10.4546 24.4848C10.5407 24.1619 10.5402 23.8221 10.4531 23.4994C10.366 23.1768 10.1954 22.8829 9.95845 22.6472C9.72152 22.4115 9.42666 22.2425 9.10358 22.1571C8.69325 22.0553 8.3288 21.8191 8.06832 21.4861C7.80785 21.1532 7.66633 20.7426 7.66633 20.3198C7.66633 19.897 7.80785 19.4865 8.06832 19.1535C8.3288 18.8205 8.69325 18.5843 9.10358 18.4825C9.42666 18.3971 9.72152 18.2281 9.95845 17.9924C10.1954 17.7568 10.366 17.4628 10.4531 17.1402C10.5402 16.8176 10.5407 16.4777 10.4546 16.1548C10.3685 15.8319 10.1988 15.5374 9.96257 15.301C9.65856 15.0076 9.46143 14.621 9.40259 14.2026C9.34374 13.7842 9.42656 13.3581 9.63786 12.9923C9.84915 12.6264 10.1768 12.3417 10.5686 12.1836C10.9604 12.0254 11.3938 12.0029 11.7999 12.1196C12.1293 12.2152 12.4786 12.2199 12.8105 12.1331C13.1424 12.0464 13.4447 11.8714 13.6852 11.6268C13.9258 11.3822 14.0956 11.077 14.1768 10.7437C14.2579 10.4104 14.2474 10.0613 14.1462 9.73347C14.0295 9.32739 14.0521 8.89395 14.2102 8.50216C14.3683 8.11037 14.653 7.78274 15.0189 7.57145C15.3848 7.36015 15.8108 7.27734 16.2292 7.33618C16.6476 7.39503 17.0343 7.59215 17.3277 7.89617C17.5641 8.13237 17.8585 8.30209 18.1814 8.3882C18.5043 8.47432 18.8442 8.4738 19.1668 8.3867C19.4894 8.29959 19.7834 8.12897 20.0191 7.89204C20.2547 7.65512 20.4238 7.36025 20.5091 7.03717C20.6109 6.62684 20.8471 6.2624 21.1801 6.00192C21.5131 5.74144 21.9237 5.59992 22.3464 5.59992C22.7692 5.59992 23.1798 5.74144 23.5128 6.00192C23.8458 6.2624 24.082 6.62684 24.1837 7.03717C24.2691 7.36025 24.4382 7.65512 24.6738 7.89204C24.9095 8.12897 25.2035 8.29959 25.5261 8.3867C25.8487 8.4738 26.1886 8.47432 26.5115 8.3882C26.8344 8.30209 27.1288 8.13237 27.3652 7.89617C27.6586 7.59215 28.0453 7.39503 28.4637 7.33618C28.8821 7.27734 29.3081 7.36015 29.674 7.57145C30.0399 7.78274 30.3245 8.11037 30.4827 8.50216C30.6408 8.89395 30.6634 9.32739 30.5467 9.73347C30.4474 10.0608 30.4383 10.4089 30.5203 10.741C30.6023 11.073 30.7723 11.3769 31.0126 11.6203C31.2528 11.8638 31.5543 12.038 31.8853 12.1245C32.2162 12.2109 32.5644 12.2065 32.893 12.1116ZM25.8093 6.61283C25.8196 6.64846 25.8387 6.68095 25.8649 6.70729C25.8923 6.73482 25.9265 6.75465 25.964 6.76477C26.0015 6.7749 26.041 6.77496 26.0785 6.76495C26.1141 6.75546 26.1467 6.73724 26.1734 6.71199C26.7251 6.14811 27.4481 5.78249 28.2297 5.67255C29.0194 5.56149 29.8236 5.7178 30.5142 6.11662C31.2048 6.51544 31.7421 7.13382 32.0406 7.87333C32.3391 8.61284 32.3816 9.43095 32.1614 10.1974C32.1591 10.2053 32.1567 10.2132 32.1543 10.2211C32.1428 10.2592 32.1417 10.2996 32.1513 10.3382C32.1608 10.3768 32.1806 10.4121 32.2085 10.4404C32.2364 10.4687 32.2715 10.489 32.3099 10.499C32.3484 10.5091 32.3888 10.5086 32.427 10.4975L32.4291 10.4969C33.1955 10.2767 34.0137 10.3192 34.7532 10.6177C35.4927 10.9162 36.1111 11.4536 36.5099 12.1441C36.9087 12.8347 37.065 13.6389 36.9539 14.4286C36.844 15.2102 36.4784 15.9332 35.9145 16.4849C35.8893 16.5116 35.871 16.5442 35.8615 16.5798C35.8515 16.6173 35.8516 16.6568 35.8617 16.6943C35.8718 16.7318 35.8917 16.766 35.9192 16.7934C35.944 16.818 35.9742 16.8363 36.0073 16.847C36.7723 17.0313 37.4555 17.4632 37.9504 18.0761C38.4551 18.7014 38.7344 19.4785 38.7431 20.282C38.7517 21.0855 38.4893 21.8685 37.9982 22.5044C37.5108 23.1356 36.8263 23.5854 36.054 23.7825C36.0181 23.7928 35.9854 23.812 35.959 23.8383C35.9314 23.8657 35.9116 23.8999 35.9015 23.9373C35.8914 23.9748 35.8913 24.0144 35.9013 24.0519C35.9108 24.0874 35.929 24.1201 35.9543 24.1468C36.5181 24.6984 36.8838 25.4214 36.9937 26.2031C37.1048 26.9928 36.9485 27.7969 36.5496 28.4875C36.1508 29.1781 35.5324 29.7154 34.7929 30.0139C34.0552 30.3117 33.2391 30.3547 32.4742 30.1363C32.4369 30.126 32.3975 30.1257 32.36 30.1355C32.322 30.1454 32.2873 30.1653 32.2595 30.1931C32.2317 30.2209 32.2118 30.2555 32.2019 30.2936C32.1921 30.3311 32.1924 30.3706 32.2027 30.408C32.4211 31.1729 32.3781 31.9888 32.0803 32.7265C31.7818 33.466 31.2445 34.0844 30.5539 34.4832C29.8633 34.882 29.0592 35.0384 28.2695 34.9273C27.4878 34.8174 26.7649 34.4517 26.2132 33.8879C26.1865 33.8626 26.1539 33.8444 26.1183 33.8349C26.0807 33.8249 26.0412 33.8249 26.0038 33.8351C25.9663 33.8452 25.9321 33.865 25.9047 33.8926C25.8785 33.9189 25.8594 33.9514 25.8491 33.987C25.6543 34.7534 25.2108 35.4337 24.5877 35.9212C23.9592 36.4128 23.1842 36.6799 22.3862 36.6799C21.5883 36.6799 20.8133 36.4128 20.1848 35.9212C19.5616 35.4337 19.1181 34.7534 18.9233 33.987C18.913 33.9514 18.8939 33.9189 18.8677 33.8926C18.8403 33.865 18.8062 33.8452 18.7687 33.8351C18.7312 33.8249 18.6917 33.8249 18.6541 33.8349C18.6186 33.8444 18.586 33.8626 18.5593 33.8879C18.0076 34.4517 17.2846 34.8174 16.503 34.9273C15.7133 35.0384 14.9091 34.882 14.2185 34.4832C13.5279 34.0844 12.9906 33.466 12.6921 32.7265C12.3936 31.987 12.3511 31.1689 12.5713 30.4024L12.5726 30.398C12.5837 30.3597 12.5842 30.3192 12.5742 30.2806C12.5641 30.242 12.5437 30.2069 12.5153 30.1789C12.4869 30.151 12.4514 30.1312 12.4127 30.1218C12.3739 30.1124 12.3334 30.1136 12.2953 30.1253C12.291 30.1267 12.2866 30.128 12.2823 30.1293C12.2762 30.1311 12.27 30.1329 12.2638 30.1347C11.4974 30.3549 10.6792 30.3124 9.93974 30.0139C9.20023 29.7154 8.58184 29.1781 8.18303 28.4875C7.78421 27.7969 7.62789 26.9928 7.73896 26.2031C7.84889 25.4214 8.21452 24.6984 8.7784 24.1468C8.80365 24.1201 8.82187 24.0874 8.83136 24.0519C8.84137 24.0143 8.84131 23.9748 8.83118 23.9373C8.82106 23.8999 8.80123 23.8657 8.77369 23.8383C8.74736 23.8121 8.71487 23.793 8.67924 23.7827C7.91287 23.5879 7.23253 23.1444 6.74509 22.5213C6.25344 21.8928 5.98633 21.1178 5.98633 20.3198C5.98633 19.5218 6.25344 18.7469 6.74509 18.1184C7.23253 17.4952 7.91287 17.0517 8.67924 16.8569C8.71487 16.8466 8.74736 16.8275 8.77369 16.8013C8.80123 16.7739 8.82106 16.7398 8.83118 16.7023C8.84131 16.6648 8.84137 16.6253 8.83136 16.5877C8.82187 16.5522 8.80365 16.5196 8.7784 16.4929C8.21452 15.9412 7.84889 15.2182 7.73896 14.4366C7.62789 13.6468 7.78421 12.8427 8.18303 12.1521C8.58184 11.4615 9.20023 10.9242 9.93974 10.6257C10.6792 10.3272 11.4974 10.2847 12.2638 10.5049L12.2682 10.5062C12.3065 10.5173 12.3471 10.5178 12.3857 10.5077C12.4242 10.4977 12.4594 10.4773 12.4873 10.4489C12.5153 10.4205 12.535 10.385 12.5445 10.3463C12.5539 10.3075 12.5527 10.267 12.5409 10.2289C12.5377 10.2184 12.5346 10.2079 12.5315 10.1974C12.3113 9.43095 12.3538 8.61283 12.6523 7.87333C12.9508 7.13382 13.4881 6.51544 14.1787 6.11662C14.8693 5.7178 15.6735 5.56149 16.4632 5.67255C17.2448 5.78249 17.9678 6.14811 18.5195 6.71199C18.5462 6.73724 18.5788 6.75546 18.6144 6.76495C18.6519 6.77496 18.6914 6.7749 18.7289 6.76477C18.7664 6.75465 18.8006 6.73482 18.828 6.70729C18.8541 6.68095 18.8733 6.64846 18.8836 6.61283C19.0783 5.84646 19.5219 5.16613 20.145 4.67869C20.7735 4.18704 21.5485 3.91992 22.3464 3.91992C23.1444 3.91992 23.9194 4.18704 24.5479 4.67869C25.171 5.16613 25.6146 5.84646 25.8093 6.61283Z" fill="white"/>
</svg>
