<svg width="24" height="24" viewBox="0 0 24 24" fill="none" xmlns="http://www.w3.org/2000/svg">
<path fill-rule="evenodd" clip-rule="evenodd" d="M11.5499 3.24693C11.8256 3.14165 12.1304 3.14165 12.4061 3.24693L20.0006 6.14702C21.2449 6.62216 20.9044 8.46807 19.5725 8.46807H4.38356C3.05168 8.46807 2.71122 6.62216 3.95547 6.14702L11.5499 3.24693ZM12.8752 6.16038C12.8752 6.58521 12.5308 6.92961 12.106 6.92961C11.6811 6.92961 11.3367 6.58521 11.3367 6.16038C11.3367 5.73555 11.6811 5.39115 12.106 5.39115C12.5308 5.39115 12.8752 5.73555 12.8752 6.16038ZM12.8752 16.1604V10.0065H11.3367V16.1604H9.79826L9.79827 10.0065H8.2598L8.2598 16.1604H6.72134V10.0065H5.18288L5.18288 16.1604H4.41365C3.98882 16.1604 3.64442 16.5048 3.64442 16.9296C3.64442 17.3544 3.98881 17.6988 4.41365 17.6988H19.7983C20.2231 17.6988 20.5675 17.3544 20.5675 16.9296C20.5675 16.5048 20.2231 16.1604 19.7983 16.1604H19.029V10.0065H17.4906V16.1604H15.9521V10.0065H14.4136V16.1604H12.8752ZM2.10596 20.0065C2.10596 19.5817 2.45035 19.2373 2.87519 19.2373H21.3367C21.7616 19.2373 22.106 19.5817 22.106 20.0065C22.106 20.4314 21.7616 20.7758 21.3367 20.7758H2.87519C2.45035 20.7758 2.10596 20.4314 2.10596 20.0065Z" fill="#5C5342"/>
</svg>
