<svg width="24" height="24" viewBox="0 0 24 24" fill="none" xmlns="http://www.w3.org/2000/svg">
<g clip-path="url(#clip0_796_2221)">
<path d="M3.12109 19.5391V20.8391C3.12109 20.8991 3.18109 20.9591 3.24109 20.9591C3.30109 20.9591 3.36109 20.8991 3.36109 20.8391C3.36109 20.8391 3.36109 20.1991 3.36109 19.5391C3.32109 19.5391 3.28109 19.5391 3.24109 19.5391C3.20109 19.5591 3.16109 19.5591 3.12109 19.5391Z" fill="white"/>
<path d="M3.24023 14.0391C2.14023 14.0391 1.24023 14.9391 1.24023 16.0391V17.5591C1.24023 18.6191 2.08023 19.4791 3.12023 19.5391V18.2391L2.32023 17.4391C2.28023 17.3991 2.28023 17.3191 2.32023 17.2791C2.36023 17.2391 2.44023 17.2391 2.48023 17.2791L3.12023 17.9191V17.7191C3.12023 17.6791 3.12023 17.5591 3.12023 17.5591V16.4991C3.12023 16.4391 3.18023 16.3791 3.24023 16.3791C3.30023 16.3791 3.36023 16.4391 3.36023 16.4991V17.3391L4.00023 16.6991C4.04023 16.6591 4.12023 16.6591 4.16023 16.6991C4.20023 16.7391 4.20023 16.8191 4.16023 16.8591L3.36023 17.6591V18.1591C3.36023 18.1591 3.36023 18.8591 3.36023 19.5391C4.40023 19.4791 5.24023 18.6191 5.24023 17.5591V16.0391C5.24023 14.9391 4.34023 14.0391 3.24023 14.0391Z" fill="white"/>
<path d="M12.0198 4.53953V3.89953H12.4598C12.6998 3.89953 12.8998 3.69953 12.8998 3.45953C12.8998 3.21953 12.6998 3.01953 12.4598 3.01953H12.0198H11.8998H11.5998C11.3598 3.01953 11.1598 3.21953 11.1598 3.45953V4.55953C9.95977 4.75953 8.99977 5.67953 8.75977 6.85953H14.5598C14.2998 5.63953 13.2798 4.69953 12.0198 4.53953Z" fill="white"/>
<path d="M21.2998 12.7998C20.4998 12.7998 19.8398 13.4598 19.8398 14.2598V15.3798C19.8398 16.1598 20.4398 16.7998 21.2198 16.8398V15.8998L20.6398 15.3198C20.5998 15.2798 20.5998 15.2398 20.6398 15.1998C20.6798 15.1598 20.7198 15.1598 20.7598 15.1998L21.2198 15.6598V15.5198C21.2198 15.4798 21.2198 15.3998 21.2198 15.3998V14.5998C21.2198 14.5598 21.2598 14.5198 21.2998 14.5198C21.3398 14.5198 21.3798 14.5598 21.3798 14.5998V15.1998L21.8398 14.7398C21.8798 14.6998 21.9198 14.6998 21.9598 14.7398C21.9998 14.7798 21.9998 14.8198 21.9598 14.8598L21.3798 15.4398V15.7998C21.3798 15.7998 21.3798 16.3198 21.3798 16.8198C22.1398 16.7798 22.7598 16.1398 22.7598 15.3598V14.2398C22.7598 13.4598 22.0998 12.7998 21.2998 12.7998Z" fill="white"/>
<path d="M21.2012 16.8398V17.7798C21.2012 17.8198 21.2412 17.8598 21.2812 17.8598C21.3212 17.8598 21.3612 17.8198 21.3612 17.7798C21.3612 17.7798 21.3612 17.3198 21.3612 16.8398C21.3412 16.8398 21.3012 16.8398 21.2812 16.8398C21.2612 16.8398 21.2412 16.8398 21.2012 16.8398Z" fill="white"/>
<path d="M11.6407 14.6592C10.5807 14.6592 9.7207 15.5192 9.7207 16.5792V17.8792H13.5607V16.5792C13.5607 15.5192 12.7007 14.6592 11.6407 14.6592Z" fill="white"/>
<path d="M18.4407 10.0791H4.8407C4.5007 10.0791 4.2207 10.3591 4.2207 10.6991V13.6191C5.1807 14.0191 5.8407 14.9391 5.8407 16.0391V17.5591C5.8407 17.6591 5.8407 17.7591 5.8207 17.8791H8.8607V16.5791C8.8607 15.0391 10.1007 13.7991 11.6407 13.7991C13.1807 13.7991 14.4207 15.0391 14.4207 16.5791V17.8791H18.4407C18.7807 17.8791 19.0607 17.5991 19.0607 17.2591V10.6991C19.0607 10.3591 18.7807 10.0791 18.4407 10.0791ZM7.0407 15.4591C7.0407 15.6991 6.8407 15.8991 6.6007 15.8991C6.3607 15.8991 6.1607 15.6991 6.1607 15.4591V14.7191C6.1607 14.4791 6.3607 14.2791 6.6007 14.2791C6.8407 14.2791 7.0407 14.4791 7.0407 14.7191V15.4591ZM7.0407 12.7391C7.0407 12.9791 6.8407 13.1791 6.6007 13.1791C6.3607 13.1791 6.1607 12.9791 6.1607 12.7391V11.9991C6.1607 11.7591 6.3607 11.5591 6.6007 11.5591C6.8407 11.5591 7.0407 11.7591 7.0407 11.9991V12.7391ZM9.0407 12.7391C9.0407 12.9791 8.8407 13.1791 8.6007 13.1791C8.3607 13.1791 8.1607 12.9791 8.1607 12.7391V11.9991C8.1607 11.7591 8.3607 11.5591 8.6007 11.5591C8.8407 11.5591 9.0407 11.7591 9.0407 11.9991V12.7391ZM11.0407 12.7391C11.0407 12.9791 10.8407 13.1791 10.6007 13.1791C10.3607 13.1791 10.1607 12.9791 10.1607 12.7391V11.9991C10.1607 11.7591 10.3607 11.5591 10.6007 11.5591C10.8407 11.5591 11.0407 11.7591 11.0407 11.9991V12.7391ZM13.0607 12.7391C13.0607 12.9791 12.8607 13.1791 12.6207 13.1791C12.3807 13.1791 12.1807 12.9791 12.1807 12.7391V11.9991C12.1807 11.7591 12.3807 11.5591 12.6207 11.5591C12.8607 11.5591 13.0607 11.7591 13.0607 11.9991V12.7391ZM15.0607 12.7391C15.0607 12.9791 14.8607 13.1791 14.6207 13.1791C14.3807 13.1791 14.1807 12.9791 14.1807 12.7391V11.9991C14.1807 11.7591 14.3807 11.5591 14.6207 11.5591C14.8607 11.5591 15.0607 11.7591 15.0607 11.9991V12.7391ZM17.0607 15.4591C17.0607 15.6991 16.8607 15.8991 16.6207 15.8991C16.3807 15.8991 16.1807 15.6991 16.1807 15.4591V14.7191C16.1807 14.4791 16.3807 14.2791 16.6207 14.2791C16.8607 14.2791 17.0607 14.4791 17.0607 14.7191V15.4591ZM17.0607 12.7391C17.0607 12.9791 16.8607 13.1791 16.6207 13.1791C16.3807 13.1791 16.1807 12.9791 16.1807 12.7391V11.9991C16.1807 11.7591 16.3807 11.5591 16.6207 11.5591C16.8607 11.5591 17.0607 11.7591 17.0607 11.9991V12.7391Z" fill="white"/>
<path d="M15.5398 8.35926C15.5398 8.01926 15.2598 7.73926 14.9198 7.73926H8.37977C8.03977 7.73926 7.75977 8.01926 7.75977 8.35926V9.33926H15.5398V8.35926Z" fill="white"/>
</g>
<defs>
<clipPath id="clip0_796_2221">
<rect width="24" height="24" fill="white"/>
</clipPath>
</defs>
</svg>
