<svg width="24" height="24" viewBox="0 0 24 24" fill="none" xmlns="http://www.w3.org/2000/svg">
<path d="M3.12012 19.5391V20.8391C3.12012 20.8991 3.18012 20.9591 3.24012 20.9591C3.30012 20.9591 3.36012 20.8991 3.36012 20.8391C3.36012 20.8391 3.36012 20.1991 3.36012 19.5391C3.32012 19.5391 3.28012 19.5391 3.24012 19.5391C3.20012 19.5591 3.16012 19.5591 3.12012 19.5391Z" fill="#5C5342"/>
<path d="M3.24023 14.0391C2.14023 14.0391 1.24023 14.9391 1.24023 16.0391V17.5591C1.24023 18.6191 2.08023 19.4791 3.12023 19.5391V18.2391L2.32023 17.4391C2.28023 17.3991 2.28023 17.3191 2.32023 17.2791C2.36023 17.2391 2.44023 17.2391 2.48023 17.2791L3.12023 17.9191V17.7191C3.12023 17.6791 3.12023 17.5591 3.12023 17.5591V16.4991C3.12023 16.4391 3.18023 16.3791 3.24023 16.3791C3.30023 16.3791 3.36023 16.4391 3.36023 16.4991V17.3391L4.00023 16.6991C4.04023 16.6591 4.12023 16.6591 4.16023 16.6991C4.20023 16.7391 4.20023 16.8191 4.16023 16.8591L3.36023 17.6591V18.1591C3.36023 18.1591 3.36023 18.8591 3.36023 19.5391C4.40023 19.4791 5.24023 18.6191 5.24023 17.5591V16.0391C5.24023 14.9391 4.34023 14.0391 3.24023 14.0391Z" fill="#5C5342"/>
<path d="M12.0203 4.53953V3.89953H12.4603C12.7003 3.89953 12.9003 3.69953 12.9003 3.45953C12.9003 3.21953 12.7003 3.01953 12.4603 3.01953H12.0203H11.9003H11.6003C11.3603 3.01953 11.1603 3.21953 11.1603 3.45953V4.55953C9.96025 4.75953 9.00025 5.67953 8.76025 6.85953H14.5603C14.3003 5.63953 13.2803 4.69953 12.0203 4.53953Z" fill="#5C5342"/>
<path d="M21.3003 12.7998C20.5003 12.7998 19.8403 13.4598 19.8403 14.2598V15.3798C19.8403 16.1598 20.4403 16.7998 21.2203 16.8398V15.8998L20.6403 15.3198C20.6003 15.2798 20.6003 15.2398 20.6403 15.1998C20.6803 15.1598 20.7203 15.1598 20.7603 15.1998L21.2203 15.6598V15.5198C21.2203 15.4798 21.2203 15.3998 21.2203 15.3998V14.5998C21.2203 14.5598 21.2603 14.5198 21.3003 14.5198C21.3403 14.5198 21.3803 14.5598 21.3803 14.5998V15.1998L21.8403 14.7398C21.8803 14.6998 21.9203 14.6998 21.9603 14.7398C22.0003 14.7798 22.0003 14.8198 21.9603 14.8598L21.3803 15.4398V15.7998C21.3803 15.7998 21.3803 16.3198 21.3803 16.8198C22.1403 16.7798 22.7603 16.1398 22.7603 15.3598V14.2398C22.7603 13.4598 22.1003 12.7998 21.3003 12.7998Z" fill="#5C5342"/>
<path d="M21.2002 16.8398V17.7798C21.2002 17.8198 21.2402 17.8598 21.2802 17.8598C21.3202 17.8598 21.3602 17.8198 21.3602 17.7798C21.3602 17.7798 21.3602 17.3198 21.3602 16.8398C21.3402 16.8398 21.3002 16.8398 21.2802 16.8398C21.2602 16.8398 21.2402 16.8398 21.2002 16.8398Z" fill="#5C5342"/>
<path d="M11.6402 14.6592C10.5802 14.6592 9.72021 15.5192 9.72021 16.5792V17.8792H13.5602V16.5792C13.5602 15.5192 12.7002 14.6592 11.6402 14.6592Z" fill="#5C5342"/>
<path d="M18.4402 10.0791H4.84021C4.50021 10.0791 4.22021 10.3591 4.22021 10.6991V13.6191C5.18021 14.0191 5.84021 14.9391 5.84021 16.0391V17.5591C5.84021 17.6591 5.84021 17.7591 5.82021 17.8791H8.86021V16.5791C8.86021 15.0391 10.1002 13.7991 11.6402 13.7991C13.1802 13.7991 14.4202 15.0391 14.4202 16.5791V17.8791H18.4402C18.7802 17.8791 19.0602 17.5991 19.0602 17.2591V10.6991C19.0602 10.3591 18.7802 10.0791 18.4402 10.0791ZM7.04021 15.4591C7.04021 15.6991 6.84021 15.8991 6.60021 15.8991C6.36021 15.8991 6.16021 15.6991 6.16021 15.4591V14.7191C6.16021 14.4791 6.36021 14.2791 6.60021 14.2791C6.84021 14.2791 7.04021 14.4791 7.04021 14.7191V15.4591ZM7.04021 12.7391C7.04021 12.9791 6.84021 13.1791 6.60021 13.1791C6.36021 13.1791 6.16021 12.9791 6.16021 12.7391V11.9991C6.16021 11.7591 6.36021 11.5591 6.60021 11.5591C6.84021 11.5591 7.04021 11.7591 7.04021 11.9991V12.7391ZM9.04021 12.7391C9.04021 12.9791 8.84021 13.1791 8.60021 13.1791C8.36021 13.1791 8.16021 12.9791 8.16021 12.7391V11.9991C8.16021 11.7591 8.36021 11.5591 8.60021 11.5591C8.84021 11.5591 9.04021 11.7591 9.04021 11.9991V12.7391ZM11.0402 12.7391C11.0402 12.9791 10.8402 13.1791 10.6002 13.1791C10.3602 13.1791 10.1602 12.9791 10.1602 12.7391V11.9991C10.1602 11.7591 10.3602 11.5591 10.6002 11.5591C10.8402 11.5591 11.0402 11.7591 11.0402 11.9991V12.7391ZM13.0602 12.7391C13.0602 12.9791 12.8602 13.1791 12.6202 13.1791C12.3802 13.1791 12.1802 12.9791 12.1802 12.7391V11.9991C12.1802 11.7591 12.3802 11.5591 12.6202 11.5591C12.8602 11.5591 13.0602 11.7591 13.0602 11.9991V12.7391ZM15.0602 12.7391C15.0602 12.9791 14.8602 13.1791 14.6202 13.1791C14.3802 13.1791 14.1802 12.9791 14.1802 12.7391V11.9991C14.1802 11.7591 14.3802 11.5591 14.6202 11.5591C14.8602 11.5591 15.0602 11.7591 15.0602 11.9991V12.7391ZM17.0602 15.4591C17.0602 15.6991 16.8602 15.8991 16.6202 15.8991C16.3802 15.8991 16.1802 15.6991 16.1802 15.4591V14.7191C16.1802 14.4791 16.3802 14.2791 16.6202 14.2791C16.8602 14.2791 17.0602 14.4791 17.0602 14.7191V15.4591ZM17.0602 12.7391C17.0602 12.9791 16.8602 13.1791 16.6202 13.1791C16.3802 13.1791 16.1802 12.9791 16.1802 12.7391V11.9991C16.1802 11.7591 16.3802 11.5591 16.6202 11.5591C16.8602 11.5591 17.0602 11.7591 17.0602 11.9991V12.7391Z" fill="#5C5342"/>
<path d="M15.5403 8.35926C15.5403 8.01926 15.2603 7.73926 14.9203 7.73926H8.38025C8.04025 7.73926 7.76025 8.01926 7.76025 8.35926V9.33926H15.5403V8.35926Z" fill="#5C5342"/>
</svg>
