<svg width="24" height="24" viewBox="0 0 24 24" fill="none" xmlns="http://www.w3.org/2000/svg">
<path fill-rule="evenodd" clip-rule="evenodd" d="M11.5495 3.24692C11.8251 3.14164 12.13 3.14164 12.4056 3.24692L20.0001 6.14702C21.2444 6.62216 20.9039 8.46806 19.572 8.46806H4.38308C3.05119 8.46806 2.71074 6.62216 3.95498 6.14702L11.5495 3.24692ZM12.8747 6.16037C12.8747 6.58521 12.5303 6.9296 12.1055 6.9296C11.6806 6.9296 11.3362 6.58521 11.3362 6.16037C11.3362 5.73554 11.6806 5.39114 12.1055 5.39114C12.5303 5.39114 12.8747 5.73554 12.8747 6.16037ZM12.8747 16.1604V10.0065H11.3362V16.1604H9.79778L9.79778 10.0065H8.25932L8.25932 16.1604H6.72085V10.0065H5.18239L5.18239 16.1604H4.41316C3.98833 16.1604 3.64393 16.5048 3.64393 16.9296C3.64393 17.3544 3.98833 17.6988 4.41316 17.6988H19.7978C20.2226 17.6988 20.567 17.3544 20.567 16.9296C20.567 16.5048 20.2226 16.1604 19.7978 16.1604H19.0285V10.0065H17.4901V16.1604H15.9516V10.0065H14.4132V16.1604H12.8747ZM2.10547 20.0065C2.10547 19.5817 2.44987 19.2373 2.8747 19.2373H21.3362C21.7611 19.2373 22.1055 19.5817 22.1055 20.0065C22.1055 20.4314 21.7611 20.7758 21.3362 20.7758H2.8747C2.44987 20.7758 2.10547 20.4314 2.10547 20.0065Z" fill="white"/>
</svg>
