<svg width="18" height="19" viewBox="0 0 18 19" fill="none" xmlns="http://www.w3.org/2000/svg">
<path d="M11.7372 2C12.0557 1.99925 12.3074 2.24663 12.3082 2.57646L12.3089 3.13868C14.3749 3.3006 15.7396 4.7084 15.7418 6.86732L15.75 13.1867C15.753 15.5405 14.2742 16.9887 11.9039 16.9925L6.11392 17C3.7584 17.003 2.26112 15.5202 2.25816 13.1597L2.25 6.91454C2.24705 4.74138 3.56365 3.33733 5.62963 3.14768L5.62889 2.58546C5.62815 2.25563 5.87252 2.0075 6.19833 2.0075C6.52415 2.00675 6.76852 2.25413 6.76926 2.58396L6.77 3.1087L11.1685 3.1027L11.1678 2.57796C11.1671 2.24813 11.4114 2.00075 11.7372 2ZM12.0394 12.6439H12.032C11.6913 12.6522 11.4181 12.9378 11.4255 13.2826C11.4262 13.6274 11.701 13.9115 12.0416 13.919C12.3889 13.9183 12.6703 13.6327 12.6695 13.2804C12.6695 12.928 12.3874 12.6439 12.0394 12.6439ZM5.93768 12.6447C5.59705 12.6597 5.33047 12.9453 5.33121 13.2901C5.34676 13.6349 5.62815 13.9048 5.96878 13.889C6.30274 13.8741 6.56858 13.5884 6.55303 13.2436C6.54563 12.9063 6.2709 12.6439 5.93768 12.6447ZM8.98852 12.6409C8.64789 12.6567 8.38206 12.9415 8.38206 13.2864C8.39761 13.6312 8.679 13.9003 9.01962 13.8853C9.35285 13.8696 9.61943 13.5847 9.60387 13.2391C9.59647 12.9025 9.32175 12.6402 8.98852 12.6409ZM5.93398 9.94602C5.59335 9.96102 5.32751 10.2466 5.32825 10.5914C5.34306 10.9363 5.62519 11.2061 5.96582 11.1904C6.29904 11.1754 6.56488 10.8898 6.54933 10.545C6.54192 10.2076 6.26794 9.94527 5.93398 9.94602ZM8.98556 9.91979C8.64493 9.93478 8.37835 10.2204 8.37909 10.5652C8.3939 10.91 8.67603 11.1792 9.01666 11.1642C9.34988 11.1484 9.61572 10.8636 9.60091 10.5187C9.59277 10.1814 9.31878 9.91904 8.98556 9.91979ZM12.0364 9.92353C11.6958 9.93103 11.4292 10.2084 11.4299 10.5532V10.5615C11.4373 10.9063 11.7187 11.1679 12.0601 11.1604C12.3933 11.1522 12.6592 10.8666 12.6518 10.5217C12.6362 10.1919 12.3689 9.92279 12.0364 9.92353ZM11.17 4.25712L6.77148 4.26312L6.77222 4.86957C6.77222 5.19265 6.5286 5.44753 6.20278 5.44753C5.87696 5.44828 5.63186 5.19415 5.63186 4.87107L5.63111 4.29385C4.18715 4.43853 3.38815 5.28711 3.39037 6.91304L3.39111 7.14618L14.6022 7.13118V6.86881C14.5704 5.25712 13.7618 4.41155 12.3104 4.28561L12.3111 4.86282C12.3111 5.18516 12.0601 5.44078 11.7417 5.44078C11.4159 5.44153 11.1708 5.18666 11.1708 4.86432L11.17 4.25712Z" fill="#333333"/>
</svg>
