<svg width="32" height="33" viewBox="0 0 32 33" fill="none" xmlns="http://www.w3.org/2000/svg">
<path d="M23.3342 0C28.74 0 31.75 2.8851 31.75 7.82866V24.5719C31.75 29.5965 28.74 32.4168 23.3342 32.4168H8.6675C3.3475 32.4168 0.25 29.5965 0.25 24.5719V7.82866C0.25 2.8851 3.3475 0 8.6675 0H23.3342ZM9.14 22.2703C8.615 22.2217 8.1075 22.4486 7.8275 22.8701C7.5475 23.2753 7.5475 23.8101 7.8275 24.2316C8.1075 24.6368 8.615 24.8799 9.14 24.8151H22.86C23.5583 24.7502 24.085 24.1975 24.085 23.5508C24.085 22.8863 23.5583 22.3352 22.86 22.2703H9.14ZM22.86 14.8777H9.14C8.38575 14.8777 7.775 15.4466 7.775 16.1436C7.775 16.8405 8.38575 17.4078 9.14 17.4078H22.86C23.6125 17.4078 24.225 16.8405 24.225 16.1436C24.225 15.4466 23.6125 14.8777 22.86 14.8777ZM14.3708 7.53691H9.14V7.55312C8.38575 7.55312 7.775 8.12041 7.775 8.81737C7.775 9.51433 8.38575 10.0816 9.14 10.0816H14.3708C15.125 10.0816 15.7375 9.51433 15.7375 8.79954C15.7375 8.1042 15.125 7.53691 14.3708 7.53691Z" fill="#5C5342"/>
</svg>
