<svg width="20" height="20" viewBox="0 0 20 20" fill="none" xmlns="http://www.w3.org/2000/svg">
<path fill-rule="evenodd" clip-rule="evenodd" d="M2.05666 8.30666C2.11472 8.24846 2.18369 8.20228 2.25962 8.17077C2.33555 8.13926 2.41696 8.12305 2.49916 8.12305C2.58137 8.12305 2.66277 8.13926 2.73871 8.17077C2.81464 8.20228 2.88361 8.24846 2.94166 8.30666L9.99916 15.3654L17.0567 8.30666C17.174 8.18931 17.3332 8.12337 17.4992 8.12337C17.6651 8.12337 17.8243 8.18931 17.9417 8.30666C18.059 8.42402 18.125 8.58319 18.125 8.74916C18.125 8.91513 18.059 9.07431 17.9417 9.19166L10.4417 16.6917C10.3836 16.7499 10.3146 16.796 10.2387 16.8276C10.1628 16.8591 10.0814 16.8753 9.99916 16.8753C9.91695 16.8753 9.83555 16.8591 9.75962 16.8276C9.68369 16.796 9.61472 16.7499 9.55666 16.6917L2.05666 9.19166C1.99846 9.13361 1.95228 9.06464 1.92077 8.98871C1.88927 8.91277 1.87305 8.83137 1.87305 8.74916C1.87305 8.66695 1.88927 8.58555 1.92077 8.50962C1.95228 8.43369 1.99846 8.36472 2.05666 8.30666Z" fill="#227893"/>
<path fill-rule="evenodd" clip-rule="evenodd" d="M2.05666 3.30666C2.11472 3.24846 2.18369 3.20228 2.25962 3.17077C2.33555 3.13927 2.41696 3.12305 2.49916 3.12305C2.58137 3.12305 2.66277 3.13927 2.73871 3.17077C2.81464 3.20228 2.88361 3.24846 2.94166 3.30666L9.99916 10.3654L17.0567 3.30666C17.1148 3.24855 17.1838 3.20246 17.2597 3.17101C17.3356 3.13956 17.417 3.12337 17.4992 3.12337C17.5813 3.12337 17.6627 3.13956 17.7386 3.17101C17.8146 3.20246 17.8836 3.24855 17.9417 3.30666C17.9998 3.36477 18.0459 3.43376 18.0773 3.50968C18.1088 3.58561 18.125 3.66698 18.125 3.74916C18.125 3.83134 18.1088 3.91272 18.0773 3.98864C18.0459 4.06457 17.9998 4.13355 17.9417 4.19166L10.4417 11.6917C10.3836 11.7499 10.3146 11.796 10.2387 11.8276C10.1628 11.8591 10.0814 11.8753 9.99916 11.8753C9.91695 11.8753 9.83555 11.8591 9.75962 11.8276C9.68369 11.796 9.61472 11.7499 9.55666 11.6917L2.05666 4.19166C1.99846 4.13361 1.95228 4.06464 1.92077 3.98871C1.88927 3.91277 1.87305 3.83137 1.87305 3.74916C1.87305 3.66696 1.88927 3.58555 1.92077 3.50962C1.95228 3.43369 1.99846 3.36472 2.05666 3.30666Z" fill="#227893"/>
</svg>
