<svg xmlns="http://www.w3.org/2000/svg" viewBox="0 0 17.65 17.65" width="20px" height="20px">
  <defs>
    <style>
      .cls-1 {
        fill: #FCC8B8;
      }
    </style>
  </defs>
  <title>download</title>
  <g id="圖層_2" data-name="圖層 2">
    <g id="圖層_1-2" data-name="圖層 1">
      <path class="cls-1" d="M1.83,15.82h14v-7a.93.93,0,0,1,.82-1,.91.91,0,0,1,1,.91c0,.68,0,1.37,0,2V16A1.53,1.53,0,0,1,16,17.65H1.64A1.53,1.53,0,0,1,0,16V8.86A.92.92,0,0,1,1.19,8a.93.93,0,0,1,.64.92v7Z"/>
      <path class="cls-1" d="M9.74,10.87l.16-.15L11.62,9a.91.91,0,0,1,1.49,1,1.26,1.26,0,0,1-.24.36L9.51,13.69a.92.92,0,0,1-1.37,0Q6.44,12,4.77,10.31A.91.91,0,1,1,6.05,9l1.7,1.7.16.15V1a.92.92,0,0,1,.92-1,.9.9,0,0,1,.9.86,1.69,1.69,0,0,1,0,.23v9.78Z"/>
    </g>
  </g>
</svg>