<svg width="21" height="22" viewBox="0 0 21 22" fill="none" xmlns="http://www.w3.org/2000/svg">
<path d="M17.4911 17.0841C17.9785 17.0841 18.375 17.4857 18.375 17.9795C18.375 18.4743 17.9785 18.875 17.4911 18.875H12.4947C12.0073 18.875 11.6108 18.4743 11.6108 17.9795C11.6108 17.4857 12.0073 17.0841 12.4947 17.0841H17.4911ZM14.0261 3.73668L15.3168 4.76194C15.846 5.1758 16.1988 5.72135 16.3196 6.29512C16.4588 6.92626 16.3103 7.54612 15.8924 8.08226L8.20435 18.0244C7.85151 18.4759 7.33155 18.7299 6.77444 18.7393L3.71035 18.7769C3.54321 18.7769 3.40394 18.664 3.3668 18.5041L2.67041 15.4848C2.5497 14.9298 2.67041 14.3561 3.02325 13.914L8.47362 6.85948C8.56647 6.7466 8.7336 6.72873 8.84502 6.81245L11.1384 8.63721C11.287 8.75949 11.4913 8.82533 11.7048 8.79712C12.1598 8.74068 12.4662 8.32681 12.4198 7.88473C12.3919 7.65899 12.2805 7.47087 12.132 7.32978C12.0855 7.29215 9.90353 5.54264 9.90353 5.54264C9.76425 5.42976 9.73639 5.22283 9.84782 5.08268L10.7113 3.96243C11.5099 2.93717 12.9026 2.84311 14.0261 3.73668Z" fill="white"/>
</svg>
