<svg width="100" height="100" viewBox="0 0 100 100" fill="none" xmlns="http://www.w3.org/2000/svg">
<path d="M76.3157 8.03739L23.6606 8.00898C22.7386 7.97334 21.8187 8.12152 20.9534 8.44505C20.0882 8.76858 19.2946 9.26112 18.6179 9.89451C17.9413 10.5279 17.395 11.2897 17.0102 12.1364C16.6254 12.9831 16.4096 13.8981 16.3752 14.829L16.3373 85.171C16.3706 86.102 16.5854 87.0172 16.9693 87.8643C17.3532 88.7114 17.8988 89.4738 18.5747 90.1079C19.2506 90.742 20.0437 91.2354 20.9086 91.5599C21.7735 91.8843 22.6933 92.0335 23.6154 91.9989L76.2703 92.0273C77.1924 92.0629 78.1123 91.9147 78.9776 91.5912C79.8428 91.2677 80.6364 90.7752 81.3131 90.1418C81.9897 89.5084 82.536 88.7466 82.9208 87.8999C83.3057 87.0532 83.5214 86.1382 83.5558 85.2072L83.5938 14.8653C83.5604 13.9343 83.3456 13.0191 82.9617 12.172C82.5778 11.3249 82.0323 10.5625 81.3563 9.92834C80.6804 9.29422 79.8873 8.80083 79.0224 8.47637C78.1575 8.15191 77.2377 8.00274 76.3157 8.03739ZM42.4798 81.5103C42.4397 82.4729 42.0246 83.3806 41.3248 84.0357C40.625 84.6907 39.6972 85.0402 38.7435 85.0079L27.5404 85.0018C26.5866 85.0331 25.6592 84.6827 24.9602 84.0268C24.2611 83.371 23.847 82.4629 23.8079 81.5002L23.8136 71.0015C23.8537 70.0389 24.2688 69.1312 24.9686 68.4761C25.6683 67.8211 26.5961 67.4716 27.5498 67.5039L38.753 67.51C39.7067 67.4787 40.6341 67.8291 41.3332 68.485C42.0322 69.1408 42.4464 70.0489 42.4854 71.0116L42.4798 81.5103ZM42.493 57.0133C42.4529 57.9759 42.0378 58.8836 41.338 59.5386C40.6382 60.1937 39.7105 60.5431 38.7567 60.5109L27.5536 60.5048C26.5998 60.5361 25.6725 60.1856 24.9734 59.5298C24.2743 58.874 23.8602 57.9659 23.8211 57.0032L23.8268 46.5044C23.8669 45.5418 24.282 44.6342 24.9818 43.9791C25.6816 43.324 26.6093 42.9746 27.5631 43.0069L38.7662 43.013C39.7199 42.9817 40.6473 43.3321 41.3464 43.988C42.0455 44.6438 42.4596 45.5519 42.4987 46.5146L42.493 57.0133ZM42.5062 32.5163C42.4661 33.4789 42.051 34.3866 41.3512 35.0416C40.6514 35.6967 39.7237 36.0461 38.7699 36.0138L27.5668 36.0078C26.6131 36.0391 25.6857 35.6886 24.9866 35.0328C24.2875 34.377 23.8734 33.4689 23.8344 32.5062L23.84 22.0074C23.8801 21.0448 24.2952 20.1371 24.995 19.482C25.6948 18.827 26.6225 18.4775 27.5763 18.5098L38.7794 18.5159C39.7332 18.4846 40.6605 18.835 41.3596 19.4909C42.0587 20.1467 42.4728 21.0548 42.5119 22.0175L42.5062 32.5163ZM68.6222 78.0249L49.9504 78.0148C49.4735 78.0505 48.9944 77.9864 48.5431 77.8266C48.0918 77.6667 47.6781 77.4146 47.3278 77.0859C46.9774 76.7573 46.6981 76.3591 46.5071 75.9165C46.3161 75.4738 46.2177 74.9961 46.218 74.5132C46.2182 74.0304 46.3172 73.5528 46.5086 73.1103C46.7 72.6679 46.9799 72.27 47.3306 71.9418C47.6812 71.6135 48.0952 71.3618 48.5467 71.2024C48.9981 71.0431 49.4773 70.9795 49.9542 71.0157L68.626 71.0257C69.1029 70.9901 69.582 71.0542 70.0333 71.214C70.4845 71.3738 70.8983 71.626 71.2486 71.9547C71.5989 72.2833 71.8783 72.6814 72.0693 73.1241C72.2602 73.5668 72.3587 74.0445 72.3584 74.5273C72.3582 75.0102 72.2592 75.4878 72.0678 75.9302C71.8763 76.3727 71.5965 76.7705 71.2458 77.0988C70.8951 77.4271 70.4811 77.6788 70.0297 77.8382C69.5783 77.9975 69.0991 78.0611 68.6222 78.0249ZM68.6354 53.5279L49.9636 53.5178C49.4867 53.5535 49.0076 53.4894 48.5563 53.3296C48.1051 53.1697 47.6913 52.9176 47.341 52.5889C46.9907 52.2602 46.7113 51.8621 46.5203 51.4194C46.3293 50.9768 46.2309 50.4991 46.2312 50.0162C46.2314 49.5334 46.3304 49.0558 46.5218 48.6133C46.7133 48.1709 46.9931 47.773 47.3438 47.4447C47.6945 47.1165 48.1085 46.8648 48.5599 46.7054C49.0113 46.5461 49.4905 46.4825 49.9674 46.5187L68.6392 46.5287C69.1161 46.4931 69.5952 46.5572 70.0465 46.717C70.4977 46.8768 70.9115 47.129 71.2618 47.4577C71.6122 47.7863 71.8915 48.1844 72.0825 48.6271C72.2735 49.0698 72.3719 49.5475 72.3716 50.0303C72.3714 50.5132 72.2724 50.9908 72.081 51.4332C71.8895 51.8757 71.6097 52.2735 71.259 52.6018C70.9084 52.9301 70.4943 53.1818 70.0429 53.3411C69.5915 53.5005 69.1123 53.5641 68.6354 53.5279ZM68.6487 29.0309L49.9768 29.0208C49.4999 29.0565 49.0208 28.9924 48.5695 28.8325C48.1183 28.6727 47.7045 28.4206 47.3542 28.0919C47.0039 27.7632 46.7245 27.3651 46.5335 26.9224C46.3426 26.4798 46.2441 26.0021 46.2444 25.5192C46.2447 25.0364 46.3436 24.5588 46.535 24.1163C46.7265 23.6739 47.0063 23.276 47.357 22.9477C47.7077 22.6195 48.1217 22.3678 48.5731 22.2084C49.0246 22.0491 49.5037 21.9855 49.9806 22.0217L68.6524 22.0317C69.1294 21.9961 69.6084 22.0602 70.0597 22.22C70.511 22.3798 70.9247 22.632 71.275 22.9606C71.6254 23.2893 71.9048 23.6874 72.0957 24.1301C72.2867 24.5728 72.3851 25.0505 72.3849 25.5333C72.3846 26.0162 72.2856 26.4938 72.0942 26.9362C71.9028 27.3787 71.6229 27.7765 71.2723 28.1048C70.9216 28.4331 70.5076 28.6848 70.0561 28.8441C69.6047 29.0035 69.1255 29.0671 68.6487 29.0309Z" fill="#F0A6AF"/>
</svg>
