<svg width="101" height="100" viewBox="0 0 101 100" fill="none" xmlns="http://www.w3.org/2000/svg">
<path d="M16.6939 27.959V47.0425L8.22852 40.8003L16.6939 27.959Z" fill="#ffffff"/>
<path d="M92.2291 40.8003L83.7637 47.0425V27.959L92.2291 40.8003Z" fill="#ffffff"/>
<path d="M92.2285 46.8102V91.9991H8.22852V46.6641L38.2664 69.4517H62.1906L92.2285 46.8102Z" fill="#ffffff"/>
<path d="M21.6152 8V50.6707L39.9202 64.5307H60.5357L78.8407 50.6707V8H21.6152ZM40.6021 23.0629L46.2922 28.0797L59.8435 16.0126L63.1171 19.6878L46.3067 34.6551L37.3473 26.7543L40.6021 23.0629ZM66.4752 56.5198H33.9807V51.598H66.4752L66.4752 56.5198ZM66.4752 45.1225H33.9807V40.2006H66.4752L66.4752 45.1225Z" fill="#ffffff"/>
</svg>
