<svg width="121" height="120" viewBox="0 0 121 120" fill="none" xmlns="http://www.w3.org/2000/svg">
<g clip-path="url(#clip0_604_2772)">
<g filter="url(#filter0_d_604_2772)">
<path d="M64.2541 10.001C68.0353 10.001 71.4589 12.101 73.3495 15.201C74.2693 16.701 74.8825 18.551 74.7292 20.501C74.627 22.001 75.0868 23.501 75.9044 24.901C78.5104 29.151 84.2845 30.751 88.7811 28.351C93.8398 25.451 100.227 27.201 103.14 32.151L106.563 38.051C109.527 43.001 107.892 49.351 102.782 52.201C98.4386 54.751 96.9056 60.401 99.5116 64.701C100.329 66.051 101.249 67.201 102.68 67.901C104.468 68.851 105.848 70.351 106.819 71.851C108.709 74.951 108.556 78.751 106.716 82.101L103.14 88.101C101.249 91.301 97.7232 93.301 94.0953 93.301C92.3068 93.301 90.314 92.801 88.6789 91.801C87.3503 90.951 85.8174 90.651 84.1823 90.651C79.1236 90.651 74.8825 94.801 74.7292 99.751C74.7292 105.501 70.0282 110.001 64.1519 110.001H57.2026C51.2752 110.001 46.5742 105.501 46.5742 99.751C46.472 94.801 42.2309 90.651 37.1722 90.651C35.486 90.651 33.9531 90.951 32.6756 91.801C31.0405 92.801 28.9966 93.301 27.2592 93.301C23.5802 93.301 20.0544 91.301 18.1638 88.101L14.6381 82.101C12.7474 78.851 12.6453 74.951 14.5359 71.851C15.3534 70.351 16.8864 68.851 18.6237 67.901C20.0544 67.201 20.9742 66.051 21.8429 64.701C24.3978 60.401 22.8648 54.751 18.5215 52.201C13.4628 49.351 11.8277 43.001 14.7403 38.051L18.1638 32.151C21.1275 27.201 27.4636 25.451 32.5734 28.351C37.0189 30.751 42.793 29.151 45.399 24.901C46.2166 23.501 46.6764 22.001 46.5742 20.501C46.472 18.551 47.0341 16.701 48.005 15.201C49.8956 12.101 53.3192 10.101 57.0493 10.001H64.2541ZM60.7283 45.901C52.706 45.901 46.2166 52.201 46.2166 60.051C46.2166 67.901 52.706 74.151 60.7283 74.151C68.7507 74.151 75.0868 67.901 75.0868 60.051C75.0868 52.201 68.7507 45.901 60.7283 45.901Z" fill="white"/>
</g>
</g>
<defs>
<filter id="filter0_d_604_2772" x="1.16797" y="3.00098" width="119" height="124" filterUnits="userSpaceOnUse" color-interpolation-filters="sRGB">
<feFlood flood-opacity="0" result="BackgroundImageFix"/>
<feColorMatrix in="SourceAlpha" type="matrix" values="0 0 0 0 0 0 0 0 0 0 0 0 0 0 0 0 0 0 127 0" result="hardAlpha"/>
<feOffset dy="5"/>
<feGaussianBlur stdDeviation="6"/>
<feComposite in2="hardAlpha" operator="out"/>
<feColorMatrix type="matrix" values="0 0 0 0 0.41276 0 0 0 0 0.41276 0 0 0 0 0.41276 0 0 0 0.16 0"/>
<feBlend mode="normal" in2="BackgroundImageFix" result="effect1_dropShadow_604_2772"/>
<feBlend mode="normal" in="SourceGraphic" in2="effect1_dropShadow_604_2772" result="shape"/>
</filter>
<clipPath id="clip0_604_2772">
<rect width="120" height="120" fill="white" transform="translate(0.667969)"/>
</clipPath>
</defs>
</svg>
