<svg width="101" height="100" viewBox="0 0 101 100" fill="none" xmlns="http://www.w3.org/2000/svg">
<path d="M53.5276 8C56.7038 8 59.5796 9.764 61.1677 12.368C61.9403 13.628 62.4554 15.182 62.3266 16.82C62.2408 18.08 62.6271 19.34 63.3138 20.516C65.5029 24.086 70.3531 25.43 74.1302 23.414C78.3795 20.978 83.7448 22.448 86.1914 26.606L89.0672 31.562C91.5567 35.72 90.1832 41.054 85.8909 43.448C82.2425 45.59 80.9549 50.336 83.1439 53.948C83.8307 55.082 84.6033 56.048 85.8051 56.636C87.3074 57.434 88.4663 58.694 89.2818 59.954C90.8699 62.558 90.7411 65.75 89.1959 68.564L86.1914 73.604C84.6033 76.292 81.6416 77.972 78.5942 77.972C77.0919 77.972 75.4179 77.552 74.0444 76.712C72.9284 75.998 71.6408 75.746 70.2672 75.746C66.0179 75.746 62.4554 79.232 62.3266 83.39C62.3266 88.22 58.3778 92 53.4417 92H47.6043C42.6253 92 38.6765 88.22 38.6765 83.39C38.5907 79.232 35.0281 75.746 30.7788 75.746C29.3624 75.746 28.0747 75.998 27.0017 76.712C25.6281 77.552 23.9113 77.972 22.4519 77.972C19.3615 77.972 16.3999 76.292 14.8117 73.604L11.8501 68.564C10.262 65.834 10.1762 62.558 11.7643 59.954C12.451 58.694 13.7387 57.434 15.1981 56.636C16.3999 56.048 17.1725 55.082 17.9021 53.948C20.0483 50.336 18.7606 45.59 15.1122 43.448C10.8629 41.054 9.4894 35.72 11.936 31.562L14.8117 26.606C17.3012 22.448 22.6236 20.978 26.9158 23.414C30.65 25.43 35.5003 24.086 37.6893 20.516C38.376 19.34 38.7623 18.08 38.6765 16.82C38.5907 15.182 39.0628 13.628 39.8783 12.368C41.4664 9.764 44.3422 8.084 47.4756 8H53.5276ZM50.5659 38.156C43.8272 38.156 38.376 43.448 38.376 50.042C38.376 56.636 43.8272 61.886 50.5659 61.886C57.3047 61.886 62.6271 56.636 62.6271 50.042C62.6271 43.448 57.3047 38.156 50.5659 38.156Z" fill="#77B5D0"/>
</svg>
