<svg width="121" height="121" viewBox="0 0 121 121" fill="none" xmlns="http://www.w3.org/2000/svg">
<g clip-path="url(#clip0_604_2757)">
<g filter="url(#filter0_d_604_2757)">
<path d="M91.1676 10.006H28.5003C27.403 9.96417 26.3082 10.1412 25.2786 10.5269C24.2491 10.9126 23.3048 11.4995 22.5 12.2539C21.6951 13.0084 21.0454 13.9157 20.588 14.9239C20.1305 15.9321 19.8743 17.0215 19.834 18.1298V101.87C19.8743 102.979 20.1305 104.068 20.588 105.076C21.0454 106.084 21.6952 106.992 22.5 107.746C23.3049 108.501 24.2491 109.087 25.2787 109.473C26.3083 109.859 27.403 110.036 28.5004 109.994H91.1676C92.2649 110.036 93.3597 109.859 94.3893 109.473C95.4189 109.087 96.3631 108.501 97.1679 107.746C97.9728 106.992 98.6225 106.084 99.08 105.076C99.5375 104.068 99.7937 102.979 99.834 101.87V18.1298C99.7937 17.0215 99.5375 15.9321 99.08 14.9239C98.6225 13.9157 97.9728 13.0084 97.1679 12.2539C96.3631 11.4994 95.4189 10.9126 94.3893 10.5269C93.3597 10.1412 92.2649 9.96416 91.1676 10.006ZM50.9451 97.4955C50.898 98.6415 50.4045 99.7223 49.5721 100.503C48.7397 101.283 47.6357 101.699 46.5006 101.662H33.1673C32.0321 101.699 30.9282 101.283 30.0958 100.503C29.2634 99.7223 28.7699 98.6415 28.7228 97.4955V84.997C28.7699 83.851 29.2634 82.7701 30.0958 81.9899C30.9282 81.2096 32.0322 80.793 33.1673 80.8308H46.5006C47.6357 80.793 48.7397 81.2096 49.5721 81.9899C50.4045 82.7702 50.898 83.851 50.9451 84.997L50.9451 97.4955ZM50.9451 68.3324C50.898 69.4784 50.4045 70.5592 49.5721 71.3395C48.7397 72.1198 47.6357 72.5364 46.5006 72.4985H33.1673C32.0321 72.5364 30.9282 72.1198 30.0958 71.3395C29.2634 70.5592 28.7699 69.4784 28.7228 68.3324V55.8338C28.7699 54.6878 29.2634 53.607 30.0958 52.8267C30.9282 52.0465 32.0322 51.6299 33.1673 51.6677H46.5006C47.6357 51.6299 48.7397 52.0465 49.5721 52.8268C50.4045 53.6071 50.898 54.6879 50.9451 55.8339L50.9451 68.3324ZM50.9451 39.1693C50.898 40.3153 50.4045 41.3961 49.5721 42.1764C48.7397 42.9567 47.6357 43.3733 46.5006 43.3354H33.1673C32.0321 43.3733 30.9282 42.9567 30.0958 42.1764C29.2634 41.3961 28.7699 40.3153 28.7228 39.1693V26.6707C28.7699 25.5247 29.2634 24.4438 30.0958 23.6635C30.9282 22.8832 32.0321 22.4667 33.1673 22.5045H46.5006C47.6357 22.4667 48.7397 22.8832 49.5721 23.6635C50.4045 24.4438 50.898 25.5247 50.9451 26.6707V39.1693ZM82.0562 93.3294H59.834C59.2664 93.3722 58.6961 93.2962 58.159 93.1062C57.6218 92.9162 57.1292 92.6163 56.7121 92.2252C56.2949 91.8342 55.9621 91.3604 55.7346 90.8335C55.507 90.3067 55.3896 89.7381 55.3896 89.1632C55.3896 88.5884 55.507 88.0198 55.7346 87.4929C55.9621 86.9661 56.2949 86.4923 56.7121 86.1012C57.1292 85.7102 57.6218 85.4103 58.159 85.2203C58.6961 85.0303 59.2664 84.9543 59.834 84.9971H82.0562C82.6238 84.9543 83.194 85.0303 83.7312 85.2203C84.2683 85.4103 84.7609 85.7102 85.1781 86.1012C85.5952 86.4923 85.928 86.9661 86.1556 87.4929C86.3831 88.0198 86.5006 88.5884 86.5006 89.1632C86.5006 89.7381 86.3831 90.3067 86.1556 90.8335C85.928 91.3604 85.5952 91.8342 85.1781 92.2252C84.7609 92.6163 84.2683 92.9162 83.7312 93.1062C83.194 93.2962 82.6238 93.3722 82.0562 93.3294ZM82.0562 64.1663H59.834C59.2664 64.2091 58.6961 64.1331 58.159 63.9431C57.6218 63.7531 57.1292 63.4532 56.7121 63.0621C56.2949 62.6711 55.9621 62.1973 55.7346 61.6704C55.507 61.1436 55.3896 60.5749 55.3896 60.0001C55.3896 59.4253 55.507 58.8567 55.7346 58.3298C55.9621 57.803 56.2949 57.3292 56.7121 56.9381C57.1292 56.5471 57.6218 56.2472 58.159 56.0572C58.6961 55.8672 59.2664 55.7912 59.834 55.834H82.0562C82.6238 55.7912 83.194 55.8672 83.7312 56.0572C84.2683 56.2472 84.7609 56.5471 85.1781 56.9381C85.5952 57.3292 85.928 57.803 86.1556 58.3298C86.3831 58.8567 86.5006 59.4253 86.5006 60.0001C86.5006 60.5749 86.3831 61.1436 86.1556 61.6704C85.928 62.1973 85.5952 62.6711 85.1781 63.0621C84.7609 63.4532 84.2683 63.7531 83.7312 63.9431C83.194 64.1331 82.6238 64.2091 82.0562 64.1663ZM82.0562 35.0032H59.834C59.2664 35.046 58.6961 34.97 58.159 34.78C57.6218 34.59 57.1292 34.2901 56.7121 33.899C56.2949 33.508 55.9621 33.0342 55.7346 32.5073C55.507 31.9805 55.3896 31.4118 55.3896 30.837C55.3896 30.2622 55.507 29.6936 55.7346 29.1667C55.9621 28.6399 56.2949 28.1661 56.7121 27.775C57.1292 27.384 57.6218 27.0841 58.159 26.8941C58.6961 26.7041 59.2664 26.6281 59.834 26.6709H82.0562C82.6238 26.6281 83.194 26.7041 83.7312 26.8941C84.2683 27.0841 84.7609 27.384 85.1781 27.775C85.5952 28.1661 85.928 28.6399 86.1556 29.1667C86.3831 29.6936 86.5006 30.2622 86.5006 30.837C86.5006 31.4118 86.3831 31.9805 86.1556 32.5073C85.928 33.0342 85.5952 33.508 85.1781 33.899C84.7609 34.2901 84.2683 34.59 83.7312 34.78C83.194 34.97 82.6238 35.046 82.0562 35.0032Z" fill="white"/>
</g>
</g>
<defs>
<filter id="filter0_d_604_2757" x="7.83398" y="3" width="104" height="124" filterUnits="userSpaceOnUse" color-interpolation-filters="sRGB">
<feFlood flood-opacity="0" result="BackgroundImageFix"/>
<feColorMatrix in="SourceAlpha" type="matrix" values="0 0 0 0 0 0 0 0 0 0 0 0 0 0 0 0 0 0 127 0" result="hardAlpha"/>
<feOffset dy="5"/>
<feGaussianBlur stdDeviation="6"/>
<feComposite in2="hardAlpha" operator="out"/>
<feColorMatrix type="matrix" values="0 0 0 0 0.41276 0 0 0 0 0.41276 0 0 0 0 0.41276 0 0 0 0.16 0"/>
<feBlend mode="normal" in2="BackgroundImageFix" result="effect1_dropShadow_604_2757"/>
<feBlend mode="normal" in="SourceGraphic" in2="effect1_dropShadow_604_2757" result="shape"/>
</filter>
<clipPath id="clip0_604_2757">
<rect width="120" height="120.8" fill="white" transform="translate(0.333984)"/>
</clipPath>
</defs>
</svg>
