<svg width="120" height="121" viewBox="0 0 120 121" fill="none" xmlns="http://www.w3.org/2000/svg">
<path d="M93.9667 13.9262H54.9667L54.8426 13.6146C54.4756 12.6664 53.8293 11.8517 52.9892 11.278C52.149 10.7042 51.1545 10.3984 50.1367 10.4008H27.0513C24.9443 10.3783 22.9142 11.1904 21.4052 12.6594C19.8963 14.1283 19.0315 16.1346 19 18.239V102.546C19.0308 104.652 19.8949 106.66 21.4035 108.132C22.9122 109.604 24.9426 110.419 27.0513 110.4H87.12C87.5832 110.4 88.0392 110.286 88.448 110.068C88.8568 109.851 89.206 109.537 89.4649 109.153C89.7275 108.774 89.8945 108.338 89.9517 107.88C90.0088 107.423 89.9544 106.959 89.7931 106.527H93.9827C94.9352 106.524 95.8777 106.332 96.7552 105.962C97.6327 105.592 98.4277 105.051 99.0939 104.371C99.7602 103.691 100.284 102.886 100.636 102.001C100.987 101.117 101.159 100.172 101.142 99.2207V21.2486C101.158 20.2958 100.984 19.3492 100.631 18.4638C100.278 17.5785 99.7525 16.7719 99.0852 16.0908C98.4178 15.4097 97.6217 14.8677 96.7431 14.4961C95.8645 14.1246 94.9208 13.9308 93.9667 13.9262ZM93.0304 98.0815H86.6516L83.0903 88.6528C84.1136 88.4756 85.0324 87.9195 85.6633 87.0954C86.2941 86.2714 86.5906 85.24 86.4937 84.2072C86.3967 83.1744 85.9133 82.2161 85.1401 81.5235C84.3668 80.831 83.3605 80.4552 82.3221 80.4711H79.9929L77.0718 72.725H83.0262C84.1407 72.7148 85.2062 72.2655 85.9907 71.4747C86.7752 70.6838 87.2154 69.6156 87.2154 68.5023C87.2154 67.389 86.7752 66.3208 85.9907 65.53C85.2062 64.7392 84.1407 64.2898 83.0262 64.2796H73.9426L71.0212 56.5215H83.0262C83.57 56.5389 84.1117 56.447 84.6193 56.2512C85.1268 56.0553 85.5897 55.7596 85.9806 55.3815C86.3714 55.0034 86.6822 54.5508 86.8944 54.0504C87.1067 53.55 87.216 53.0121 87.216 52.4686C87.216 51.9252 87.1067 51.3873 86.8944 50.8869C86.6822 50.3865 86.3714 49.9338 85.9806 49.5557C85.5897 49.1777 85.1268 48.8819 84.6193 48.6861C84.1117 48.4902 83.57 48.3983 83.0262 48.4157H67.896L64.9709 40.6897H83.0262C84.1409 40.679 85.2063 40.2291 85.9908 39.438C86.7753 38.6468 87.2153 37.5784 87.2153 36.4649C87.2153 35.3514 86.7753 34.283 85.9908 33.4918C85.2063 32.7007 84.1409 32.2509 83.0262 32.2401H61.8456L58.096 22.3758H93.0304L93.0304 98.0815Z" fill="white"/>
</svg>
