<svg width="101" height="100" viewBox="0 0 101 100" fill="none" xmlns="http://www.w3.org/2000/svg">
<path d="M79.7142 10.9617H46.9542L46.85 10.6999C46.5417 9.90347 45.9988 9.21911 45.2931 8.73715C44.5874 8.2552 43.7519 7.99831 42.897 8.00038H23.5053C21.7354 7.98143 20.0301 8.66358 18.7626 9.89753C17.4951 11.1315 16.7686 12.8167 16.7422 14.5844V85.4024C16.7681 87.1715 17.4939 88.8584 18.7612 90.0946C20.0284 91.3307 21.734 92.0157 23.5053 91.9997H73.963C74.3521 91.9994 74.7351 91.9037 75.0785 91.7211C75.4219 91.5385 75.7152 91.2745 75.9327 90.9523C76.1533 90.634 76.2936 90.2672 76.3416 89.8831C76.3896 89.499 76.3439 89.109 76.2084 88.7464H79.7276C80.5278 88.744 81.3194 88.5827 82.0565 88.2718C82.7936 87.9609 83.4615 87.5067 84.0211 86.9355C84.5807 86.3643 85.021 85.6876 85.3163 84.9449C85.6116 84.2021 85.756 83.4081 85.7411 82.609V17.1125C85.7545 16.3121 85.6087 15.517 85.3122 14.7733C85.0157 14.0296 84.5743 13.352 84.0137 12.7799C83.4531 12.2078 82.7844 11.7525 82.0464 11.4404C81.3084 11.1283 80.5156 10.9656 79.7142 10.9617ZM78.9277 81.6521H73.5696L70.5781 73.7321C71.4376 73.5832 72.2094 73.1161 72.7393 72.4238C73.2692 71.7316 73.5183 70.8653 73.4369 69.9977C73.3554 69.1301 72.9494 68.3252 72.2998 67.7434C71.6503 67.1617 70.805 66.846 69.9327 66.8594H67.9763L65.5225 60.3527H70.5242C71.4604 60.3441 72.3554 59.9667 73.0144 59.3024C73.6734 58.6381 74.0431 57.7408 74.0431 56.8056C74.0431 55.8705 73.6734 54.9731 73.0144 54.3088C72.3554 53.6446 71.4604 53.2671 70.5242 53.2585H62.894L60.44 46.7418H70.5242C70.981 46.7564 71.4361 46.6791 71.8624 46.5146C72.2887 46.3501 72.6776 46.1017 73.0059 45.7841C73.3342 45.4666 73.5952 45.0863 73.7735 44.666C73.9518 44.2456 74.0436 43.7938 74.0436 43.3373C74.0436 42.8808 73.9518 42.429 73.7735 42.0086C73.5952 41.5883 73.3342 41.2081 73.0059 40.8905C72.6776 40.5729 72.2887 40.3245 71.8624 40.16C71.4361 39.9955 70.981 39.9182 70.5242 39.9328H57.8149L55.3577 33.443H70.5242C71.4606 33.434 72.3555 33.0561 73.0145 32.3916C73.6734 31.727 74.0431 30.8295 74.0431 29.8942C74.0431 28.9589 73.6734 28.0614 73.0145 27.3968C72.3555 26.7323 71.4606 26.3544 70.5242 26.3454H52.7325L49.5828 18.0593H78.9277L78.9277 81.6521Z" fill="white"/>
</svg>
