<svg width="101" height="100" viewBox="0 0 101 100" fill="none" xmlns="http://www.w3.org/2000/svg">
<path d="M4.8418 18.5882C4.8418 15.7801 5.95734 13.0869 7.94302 11.1012C9.9287 9.11554 12.6219 8 15.43 8H31.3124C34.1206 8 36.8137 9.11554 38.7994 11.1012C40.7851 13.0869 41.9006 15.7801 41.9006 18.5882V34.4706C41.9006 37.2788 40.7851 39.9719 38.7994 41.9576C36.8137 43.9433 34.1206 45.0588 31.3124 45.0588H15.43C12.6219 45.0588 9.9287 43.9433 7.94302 41.9576C5.95734 39.9719 4.8418 37.2788 4.8418 34.4706V18.5882ZM33.1865 23.1094C33.4326 22.8633 33.6278 22.5711 33.761 22.2496C33.8942 21.928 33.9628 21.5834 33.9628 21.2353C33.9628 20.8872 33.8942 20.5426 33.761 20.221C33.6278 19.8995 33.4326 19.6073 33.1865 19.3612C32.9404 19.1151 32.6482 18.9198 32.3267 18.7866C32.0051 18.6534 31.6604 18.5849 31.3124 18.5849C30.9643 18.5849 30.6197 18.6534 30.2981 18.7866C29.9766 18.9198 29.6844 19.1151 29.4383 19.3612L20.7241 28.0806L17.3042 24.6553C17.058 24.4092 16.7659 24.214 16.4443 24.0808C16.1227 23.9476 15.7781 23.879 15.43 23.879C15.082 23.879 14.7373 23.9476 14.4158 24.0808C14.0942 24.214 13.802 24.4092 13.5559 24.6553C13.3098 24.9014 13.1146 25.1936 12.9814 25.5151C12.8482 25.8367 12.7796 26.1814 12.7796 26.5294C12.7796 26.8775 12.8482 27.2221 12.9814 27.5437C13.1146 27.8652 13.3098 28.1574 13.5559 28.4035L18.85 33.6976C19.0959 33.9442 19.388 34.1397 19.7096 34.2732C20.0312 34.4066 20.376 34.4753 20.7241 34.4753C21.0723 34.4753 21.4171 34.4066 21.7387 34.2732C22.0603 34.1397 22.3524 33.9442 22.5983 33.6976L33.1865 23.1094Z" fill="#87A976"/>
<path d="M48.0762 17.0179C48.0762 16.1989 48.4015 15.4134 48.9807 14.8342C49.5599 14.2551 50.3454 13.9297 51.1644 13.9297H94.3997C95.2188 13.9297 96.0043 14.2551 96.5834 14.8342C97.1626 15.4134 97.4879 16.1989 97.4879 17.0179V23.1944C97.4879 24.0134 97.1626 24.7989 96.5834 25.3781C96.0043 25.9573 95.2188 26.2826 94.3997 26.2826H51.1644C50.3454 26.2826 49.5599 25.9573 48.9807 25.3781C48.4015 24.7989 48.0762 24.0134 48.0762 23.1944V17.0179ZM48.0762 35.5473C48.0762 34.7283 48.4015 33.9428 48.9807 33.3636C49.5599 32.7845 50.3454 32.4591 51.1644 32.4591H82.0468C82.8658 32.4591 83.6513 32.7845 84.2305 33.3636C84.8096 33.9428 85.135 34.7283 85.135 35.5473C85.135 36.3664 84.8096 37.1519 84.2305 37.731C83.6513 38.3102 82.8658 38.6356 82.0468 38.6356H51.1644C50.3454 38.6356 49.5599 38.3102 48.9807 37.731C48.4015 37.1519 48.0762 36.3664 48.0762 35.5473Z" fill="#87A976"/>
<path d="M15.43 60.2355H31.3124C32.7165 60.2355 34.063 60.7933 35.0559 61.7861C36.0487 62.779 36.6065 64.1256 36.6065 65.5296V81.412C36.6065 82.8161 36.0487 84.1627 35.0559 85.1555C34.063 86.1483 32.7165 86.7061 31.3124 86.7061H15.43C14.0259 86.7061 12.6794 86.1483 11.6865 85.1555C10.6937 84.1627 10.1359 82.8161 10.1359 81.412V65.5296C10.1359 64.1256 10.6937 62.779 11.6865 61.7861C12.6794 60.7933 14.0259 60.2355 15.43 60.2355ZM15.43 54.9414C12.6219 54.9414 9.9287 56.057 7.94302 58.0426C5.95734 60.0283 4.8418 62.7215 4.8418 65.5296L4.8418 81.412C4.8418 84.2202 5.95734 86.9133 7.94302 88.899C9.9287 90.8847 12.6219 92.0002 15.43 92.0002H31.3124C34.1206 92.0002 36.8137 90.8847 38.7994 88.899C40.7851 86.9133 41.9006 84.2202 41.9006 81.412V65.5296C41.9006 62.7215 40.7851 60.0283 38.7994 58.0426C36.8137 56.057 34.1206 54.9414 31.3124 54.9414H15.43Z" fill="#87A976"/>
<path d="M48.3242 63.9593C48.3242 63.1403 48.6496 62.3548 49.2287 61.7756C49.8079 61.1965 50.5934 60.8711 51.4125 60.8711H94.6477C95.4668 60.8711 96.2523 61.1965 96.8315 61.7756C97.4106 62.3548 97.736 63.1403 97.736 63.9593V70.1358C97.736 70.9549 97.4106 71.7404 96.8315 72.3195C96.2523 72.8987 95.4668 73.224 94.6477 73.224H51.4125C50.5934 73.224 49.8079 72.8987 49.2287 72.3195C48.6496 71.7404 48.3242 70.9549 48.3242 70.1358V63.9593ZM48.3242 82.4887C48.3242 81.6697 48.6496 80.8842 49.2287 80.305C49.8079 79.7259 50.5934 79.4005 51.4125 79.4005H82.2948C83.1139 79.4005 83.8994 79.7259 84.4785 80.305C85.0577 80.8842 85.383 81.6697 85.383 82.4887C85.383 83.3078 85.0577 84.0933 84.4785 84.6725C83.8994 85.2516 83.1139 85.577 82.2948 85.577H51.4125C50.5934 85.577 49.8079 85.2516 49.2287 84.6725C48.6496 84.0933 48.3242 83.3078 48.3242 82.4887Z" fill="#87A976"/>
</svg>
