<svg width="120" height="120" viewBox="0 0 120 120" fill="none" xmlns="http://www.w3.org/2000/svg">
<g clip-path="url(#clip0_604_2764)">
<g filter="url(#filter0_d_604_2764)">
<path d="M10.332 60C10.332 46.7392 15.5999 34.0215 24.9767 24.6447C34.3535 15.2678 47.0712 10 60.332 10C73.5929 10 86.3106 15.2678 95.6874 24.6447C105.064 34.0215 110.332 46.7392 110.332 60C110.332 73.2608 105.064 85.9785 95.6874 95.3553C86.3106 104.732 73.5929 110 60.332 110C47.0712 110 34.3535 104.732 24.9767 95.3553C15.5999 85.9785 10.332 73.2608 10.332 60ZM57.207 16.7313C53.0195 18.0063 48.8633 21.8562 45.4133 28.325C44.5174 30.0042 43.6945 31.8208 42.9445 33.775C47.3508 34.7562 52.1445 35.3813 57.207 35.5688V16.7313ZM36.8883 32.1187C37.7799 29.7146 38.782 27.4688 39.8945 25.3812C40.9823 23.342 42.23 21.3921 43.6258 19.55C38.3042 21.7535 33.47 24.9862 29.4008 29.0625C31.6674 30.2167 34.1633 31.2313 36.8883 32.1187ZM32.2633 56.875C32.4883 50.1875 33.4383 43.8312 34.9883 38.075C31.6036 36.9974 28.3285 35.6016 25.207 33.9062C20.2279 40.589 17.2733 48.5614 16.6945 56.875H32.2633ZM41.0133 39.7437C39.5375 45.3418 38.6989 51.0887 38.5133 56.875H57.207V41.8188C51.5195 41.6313 46.0633 40.9125 41.0133 39.7437ZM63.457 41.8125V56.875H82.1445C81.961 51.0889 81.1244 45.3421 79.6508 39.7437C74.6008 40.9125 69.1445 41.6188 63.457 41.8125ZM38.5195 63.125C38.7383 69.2938 39.6195 75.0875 41.0133 80.2562C46.3323 79.0487 51.7552 78.3559 57.207 78.1875V63.125H38.5195ZM63.457 63.125V78.1813C69.1445 78.3688 74.6008 79.0875 79.6508 80.2562C81.0445 75.0875 81.9258 69.2938 82.1508 63.125H63.457ZM42.9445 86.225C43.6945 88.1792 44.5174 89.9958 45.4133 91.675C48.8633 98.1437 53.0258 101.988 57.207 103.269V84.4375C52.1445 84.625 47.3508 85.2438 42.9445 86.225ZM43.632 100.45C42.2341 98.6081 40.9843 96.6582 39.8945 94.6187C38.7458 92.4391 37.7416 90.1863 36.8883 87.875C34.3174 88.7017 31.8141 89.7256 29.4008 90.9375C33.47 95.0138 38.3104 98.2465 43.632 100.45ZM34.9883 81.925C33.3678 75.7822 32.4515 69.475 32.257 63.125H16.6945C17.2733 71.4386 20.2279 79.411 25.207 86.0938C28.1445 84.4813 31.4258 83.0813 34.9883 81.925ZM77.0383 100.45C82.3571 98.2476 87.189 95.0171 91.257 90.9437C88.8457 89.7322 86.3445 88.7083 83.7758 87.8813C82.9222 90.1905 81.918 92.4411 80.7695 94.6187C79.6818 96.658 78.4341 98.6079 77.0383 100.45ZM63.457 84.4313V103.269C67.6445 101.994 71.8008 98.1437 75.2508 91.675C76.1508 89.9958 76.9737 88.1792 77.7195 86.225C73.0298 85.1956 68.2557 84.591 63.457 84.4313ZM85.6758 81.925C89.2383 83.0813 92.5195 84.4813 95.457 86.0938C100.436 79.411 103.391 71.4386 103.97 63.125H88.407C88.2126 69.475 87.2963 75.7822 85.6758 81.925ZM103.97 56.875C103.391 48.5614 100.436 40.589 95.457 33.9062C92.5195 35.5188 89.2383 36.9188 85.6758 38.075C87.2258 43.825 88.1758 50.1875 88.407 56.875H103.97ZM80.7695 25.3812C81.8779 27.4729 82.882 29.7188 83.782 32.1187C86.3487 31.2914 88.8477 30.2675 91.257 29.0562C87.1885 24.9851 82.3566 21.7568 77.0383 19.5563C78.4008 21.325 79.6508 23.2875 80.7695 25.3812ZM77.7195 33.775C77.0061 31.9107 76.1817 30.0908 75.2508 28.325C71.8008 21.8562 67.6445 18.0125 63.457 16.7313V35.5625C68.5195 35.375 73.3133 34.7562 77.7195 33.775Z" fill="white"/>
</g>
</g>
<defs>
<filter id="filter0_d_604_2764" x="-1.66797" y="3" width="124" height="124" filterUnits="userSpaceOnUse" color-interpolation-filters="sRGB">
<feFlood flood-opacity="0" result="BackgroundImageFix"/>
<feColorMatrix in="SourceAlpha" type="matrix" values="0 0 0 0 0 0 0 0 0 0 0 0 0 0 0 0 0 0 127 0" result="hardAlpha"/>
<feOffset dy="5"/>
<feGaussianBlur stdDeviation="6"/>
<feComposite in2="hardAlpha" operator="out"/>
<feColorMatrix type="matrix" values="0 0 0 0 0.41276 0 0 0 0 0.41276 0 0 0 0 0.41276 0 0 0 0.16 0"/>
<feBlend mode="normal" in2="BackgroundImageFix" result="effect1_dropShadow_604_2764"/>
<feBlend mode="normal" in="SourceGraphic" in2="effect1_dropShadow_604_2764" result="shape"/>
</filter>
<clipPath id="clip0_604_2764">
<rect width="120" height="120" fill="white"/>
</clipPath>
</defs>
</svg>
