<svg width="101" height="100" viewBox="0 0 101 100" fill="none" xmlns="http://www.w3.org/2000/svg">
<path d="M42.5 17C40.5109 17 38.6032 17.7902 37.1967 19.1967C35.7902 20.6032 35 22.5109 35 24.5V27H17.5C15.5109 27 13.6032 27.7902 12.1967 29.1967C10.7902 30.6032 10 32.5109 10 34.5L10 41.42L48.07 51.57C49.3346 51.9068 50.6654 51.9068 51.93 51.57L90 41.42V34.5C90 32.5109 89.2098 30.6032 87.8033 29.1967C86.3968 27.7902 84.4891 27 82.5 27H65V24.5C65 22.5109 64.2098 20.6032 62.8033 19.1967C61.3968 17.7902 59.4891 17 57.5 17H42.5ZM42.5 22H57.5C58.163 22 58.7989 22.2634 59.2678 22.7322C59.7366 23.2011 60 23.837 60 24.5V27H40V24.5C40 23.837 40.2634 23.2011 40.7322 22.7322C41.2011 22.2634 41.837 22 42.5 22Z" fill="#C498DF"/>
<path d="M10 74.5C10 76.4891 10.7902 78.3968 12.1967 79.8033C13.6032 81.2098 15.5109 82 17.5 82H82.5C84.4891 82 86.3968 81.2098 87.8033 79.8033C89.2098 78.3968 90 76.4891 90 74.5V46.25L50.645 56.735C50.2224 56.8478 49.7776 56.8478 49.355 56.735L10 46.25V74.5Z" fill="#C498DF"/>
</svg>
