<svg width="42" height="42" viewBox="0 0 42 42" fill="none" xmlns="http://www.w3.org/2000/svg">
<path d="M16.625 26.2766C23.7419 26.2766 29.75 27.4476 29.75 31.9703C29.75 36.493 23.7034 37.625 16.625 37.625C9.50811 37.625 3.5 36.4522 3.5 31.9313C3.5 27.4086 9.54489 26.2766 16.625 26.2766ZM33.2482 13.125C34.1166 13.125 34.8214 13.8415 34.8214 14.7203V16.7788H36.9268C37.7934 16.7788 38.5 17.4953 38.5 18.3741C38.5 19.2529 37.7934 19.9694 36.9268 19.9694H34.8214V22.0297C34.8214 22.9085 34.1166 23.625 33.2482 23.625C32.3816 23.625 31.675 22.9085 31.675 22.0297V19.9694H29.5732C28.7048 19.9694 28 19.2529 28 18.3741C28 17.4953 28.7048 16.7788 29.5732 16.7788H31.675V14.7203C31.675 13.8415 32.3816 13.125 33.2482 13.125ZM16.625 4.375C21.4455 4.375 25.3096 8.2891 25.3096 13.172C25.3096 18.0548 21.4455 21.9689 16.625 21.9689C11.8045 21.9689 7.94039 18.0548 7.94039 13.172C7.94039 8.2891 11.8045 4.375 16.625 4.375Z" fill="#539CB3"/>
</svg>
