<svg width="18" height="10" viewBox="0 0 18 10" fill="none" xmlns="http://www.w3.org/2000/svg">
<path d="M0 1.21429C0 1.02485 0.0790178 0.843164 0.21967 0.70921C0.360322 0.575255 0.551088 0.5 0.75 0.5H17.25C17.4489 0.5 17.6397 0.575255 17.7803 0.70921C17.921 0.843164 18 1.02485 18 1.21429C18 1.40373 17.921 1.58541 17.7803 1.71936C17.6397 1.85332 17.4489 1.92857 17.25 1.92857H0.75C0.551088 1.92857 0.360322 1.85332 0.21967 1.71936C0.0790178 1.58541 0 1.40373 0 1.21429Z" fill="#5C5342"/>
<path d="M0 9.06975C0 8.88031 0.0790178 8.69863 0.21967 8.56468C0.360322 8.43072 0.551088 8.35547 0.75 8.35547H17.25C17.4489 8.35547 17.6397 8.43072 17.7803 8.56468C17.921 8.69863 18 8.88031 18 9.06975C18 9.25919 17.921 9.44088 17.7803 9.57483C17.6397 9.70879 17.4489 9.78404 17.25 9.78404H0.75C0.551088 9.78404 0.360322 9.70879 0.21967 9.57483C0.0790178 9.44088 0 9.25919 0 9.06975Z" fill="#5C5342"/>
<path d="M0 5.14202C0 4.95258 0.0790178 4.7709 0.21967 4.63694C0.360322 4.50299 0.551088 4.42773 0.75 4.42773H17.25C17.4489 4.42773 17.6397 4.50299 17.7803 4.63694C17.921 4.7709 18 4.95258 18 5.14202C18 5.33146 17.921 5.51314 17.7803 5.6471C17.6397 5.78105 17.4489 5.85631 17.25 5.85631H0.75C0.551088 5.85631 0.360322 5.78105 0.21967 5.6471C0.0790178 5.51314 0 5.33146 0 5.14202Z" fill="#5C5342"/>
</svg>
