<svg width="28" height="28" viewBox="0 0 28 28" fill="none" xmlns="http://www.w3.org/2000/svg">
<path d="M8.50496 14.8979H3.82777C3.33045 14.8979 2.91602 14.5012 2.91602 13.9996C2.91602 13.5096 3.33045 13.1012 3.82777 13.1012H8.50496L8.50531 7.52467C8.50531 4.66634 10.9148 2.33301 13.8665 2.33301H19.7456C22.6852 2.33301 25.0827 4.66634 25.0827 7.51301V20.4863C25.0827 23.3447 22.6852 25.6663 19.7215 25.6663H13.8544C10.9148 25.6663 8.50531 23.3447 8.50531 20.498L8.50496 14.8979L15.9748 14.898L14.0472 16.7647C13.6857 17.1147 13.6857 17.6863 14.0472 18.0363C14.2279 18.2113 14.4688 18.293 14.7098 18.293C14.9387 18.293 15.1796 18.2113 15.3603 18.0363L18.8782 14.6413C19.0589 14.478 19.1553 14.2447 19.1553 13.9997C19.1553 13.7663 19.0589 13.533 18.8782 13.3697L15.3603 9.97468C14.9989 9.62468 14.4086 9.62468 14.0472 9.97468C13.6857 10.3247 13.6857 10.8963 14.0472 11.2463L15.9748 13.1013L8.50496 13.1012V14.8979Z" fill="#5C5342"/>
</svg>
