<svg width="20" height="20" viewBox="0 0 20 20" fill="none" xmlns="http://www.w3.org/2000/svg">
<path fill-rule="evenodd" clip-rule="evenodd" d="M10.4432 14.1924C10.3851 14.2506 10.3161 14.2967 10.2402 14.3282C10.1643 14.3598 10.0829 14.376 10.0007 14.376C9.91847 14.376 9.83706 14.3598 9.76113 14.3282C9.6852 14.2967 9.61623 14.2506 9.55818 14.1924L2.05817 6.69236C1.94082 6.575 1.87489 6.41583 1.87489 6.24986C1.87489 6.08389 1.94082 5.92472 2.05817 5.80736C2.17553 5.69 2.33471 5.62407 2.50068 5.62407C2.66664 5.62407 2.82582 5.69 2.94318 5.80736L10.0007 12.8661L17.0582 5.80736C17.1755 5.69 17.3347 5.62407 17.5007 5.62407C17.6666 5.62407 17.8258 5.69 17.9432 5.80736C18.0605 5.92472 18.1265 6.08389 18.1265 6.24986C18.1265 6.41583 18.0605 6.575 17.9432 6.69236L10.4432 14.1924Z" fill="white"/>
</svg>
