<svg width="35" height="35" viewBox="0 0 35 35" fill="none" xmlns="http://www.w3.org/2000/svg">
<path d="M27.8156 3.83737H16.3496L16.3131 3.74575C16.2052 3.46699 16.0152 3.22747 15.7682 3.05878C15.5212 2.8901 15.2288 2.80019 14.9296 2.80092H8.14246C7.52301 2.79428 6.92616 3.03303 6.48253 3.46492C6.0389 3.8968 5.78464 4.48663 5.77539 5.10532V29.8916C5.78445 30.5108 6.0385 31.1012 6.48203 31.5339C6.92556 31.9665 7.52252 32.2063 8.14246 32.2007H25.8027C25.9388 32.2006 26.0729 32.1671 26.1931 32.1032C26.3133 32.0392 26.4159 31.9468 26.4921 31.8341C26.5693 31.7227 26.6184 31.5943 26.6352 31.4599C26.652 31.3254 26.636 31.1889 26.5886 31.062H27.8203C28.1003 31.0612 28.3774 31.0047 28.6354 30.8959C28.8934 30.7871 29.1271 30.6281 29.323 30.4282C29.5189 30.2283 29.673 29.9915 29.7763 29.7315C29.8797 29.4715 29.9302 29.1936 29.925 28.9139V5.99017C29.9297 5.71002 29.8787 5.43174 29.7749 5.17144C29.6711 4.91113 29.5166 4.67399 29.3204 4.47375C29.1242 4.27352 28.8902 4.11416 28.6319 4.00493C28.3736 3.89569 28.0961 3.83872 27.8156 3.83737ZM27.5403 28.579H25.665L24.6179 25.807C24.9188 25.7549 25.1889 25.5914 25.3744 25.3491C25.5599 25.1069 25.647 24.8036 25.6185 24.5C25.59 24.1963 25.4479 23.9146 25.2206 23.711C24.9932 23.5074 24.6974 23.3969 24.3921 23.4016H23.7073L22.8485 21.1242H24.5991C24.9268 21.1212 25.24 20.9891 25.4707 20.7566C25.7013 20.5241 25.8307 20.2101 25.8307 19.8827C25.8307 19.5554 25.7013 19.2414 25.4707 19.0089C25.24 18.7764 24.9268 18.6443 24.5991 18.6413H21.9285L21.0696 16.3604H24.5991C24.759 16.3655 24.9182 16.3385 25.0675 16.2809C25.2167 16.2233 25.3528 16.1364 25.4677 16.0252C25.5826 15.9141 25.674 15.781 25.7364 15.6339C25.7987 15.4868 25.8309 15.3286 25.8309 15.1688C25.8309 15.0091 25.7987 14.8509 25.7364 14.7038C25.674 14.5567 25.5826 14.4236 25.4677 14.3124C25.3528 14.2013 25.2167 14.1143 25.0675 14.0568C24.9182 13.9992 24.759 13.9722 24.5991 13.9773H20.1508L19.2908 11.7058H24.5991C24.9268 11.7027 25.2401 11.5704 25.4707 11.3378C25.7013 11.1052 25.8307 10.7911 25.8307 10.4637C25.8307 10.1364 25.7013 9.82226 25.4707 9.58967C25.2401 9.35707 24.9268 9.22482 24.5991 9.22166H18.372L17.2696 6.32154H27.5403L27.5403 28.579Z" fill="#6B6B6B"/>
</svg>
