<svg width="35" height="35" viewBox="0 0 35 35" fill="none" xmlns="http://www.w3.org/2000/svg">
<path d="M5.5879 9.78711V16.4663L2.625 14.2816L5.5879 9.78711Z" fill="#6B6B6B"/>
<path d="M32.0254 14.2816L29.0625 16.4663V9.78711L32.0254 14.2816Z" fill="#6B6B6B"/>
<path d="M32.025 16.3851V32.2013H2.625V16.334L13.1383 24.3097H21.5117L32.025 16.3851Z" fill="#6B6B6B"/>
<path d="M7.31055 2.80078V17.7355L13.7173 22.5865H20.9327L27.3394 17.7355V2.80078H7.31055ZM13.9559 8.07279L15.9475 9.82867L20.6905 5.60518L21.8362 6.89151L15.9525 12.1301L12.8168 9.36479L13.9559 8.07279ZM23.0115 19.7827H11.6385V18.0601H23.0115L23.0115 19.7827ZM23.0115 15.7937H11.6385V14.071H23.0115L23.0115 15.7937Z" fill="#6B6B6B"/>
</svg>
