<svg width="35" height="35" viewBox="0 0 35 35" fill="none" xmlns="http://www.w3.org/2000/svg">
<path d="M25.6263 5.25151H9.72447C9.44602 5.24097 9.16822 5.28558 8.90697 5.38277C8.64571 5.47997 8.40612 5.62786 8.20189 5.81799C7.99766 6.00812 7.83279 6.23675 7.71671 6.49082C7.60063 6.74489 7.53562 7.01942 7.52539 7.2987V28.4013C7.53562 28.6806 7.60063 28.9551 7.71671 29.2092C7.83279 29.4633 7.99766 29.6919 8.2019 29.882C8.40613 30.0721 8.64573 30.22 8.90698 30.3172C9.16824 30.4144 9.44603 30.459 9.72449 30.4485H25.6263C25.9047 30.459 26.1825 30.4144 26.4438 30.3172C26.7051 30.22 26.9447 30.0721 27.1489 29.882C27.3531 29.6919 27.518 29.4633 27.6341 29.2092C27.7501 28.9551 27.8152 28.6806 27.8254 28.4013V7.2987C27.8152 7.01942 27.7501 6.74489 27.6341 6.49082C27.518 6.23675 27.3531 6.00811 27.1489 5.81798C26.9447 5.62786 26.7051 5.47997 26.4438 5.38277C26.1825 5.28557 25.9047 5.24097 25.6263 5.25151ZM15.4198 27.2989C15.4079 27.5877 15.2827 27.86 15.0714 28.0567C14.8602 28.2533 14.5801 28.3583 14.292 28.3487H10.9087C10.6207 28.3583 10.3405 28.2533 10.1293 28.0567C9.91809 27.86 9.79287 27.5877 9.78093 27.2989V24.1492C9.79288 23.8604 9.9181 23.5881 10.1293 23.3914C10.3405 23.1948 10.6207 23.0898 10.9087 23.0994H14.2921C14.5801 23.0898 14.8602 23.1948 15.0714 23.3914C15.2827 23.5881 15.4079 23.8605 15.4198 24.1492L15.4198 27.2989ZM15.4198 19.9498C15.4079 20.2386 15.2827 20.5109 15.0714 20.7076C14.8602 20.9042 14.5801 21.0092 14.292 20.9996H10.9087C10.6207 21.0092 10.3405 20.9042 10.1293 20.7076C9.91809 20.5109 9.79288 20.2386 9.78093 19.9498V16.8001C9.79288 16.5113 9.9181 16.239 10.1293 16.0423C10.3406 15.8457 10.6207 15.7407 10.9087 15.7503H14.2921C14.5801 15.7407 14.8602 15.8457 15.0714 16.0423C15.2827 16.239 15.4079 16.5113 15.4198 16.8001L15.4198 19.9498ZM15.4198 12.6007C15.4079 12.8894 15.2827 13.1618 15.0714 13.3584C14.8602 13.5551 14.5801 13.6601 14.292 13.6505H10.9087C10.6207 13.6601 10.3405 13.5551 10.1293 13.3584C9.91809 13.1618 9.79288 12.8894 9.78093 12.6007V9.45101C9.79288 9.16221 9.91809 8.88985 10.1293 8.69321C10.3405 8.49658 10.6207 8.3916 10.9087 8.40114H14.292C14.5801 8.3916 14.8602 8.49658 15.0714 8.69321C15.2827 8.88985 15.4079 9.16221 15.4198 9.45101V12.6007ZM23.3143 26.249H17.6754C17.5314 26.2598 17.3867 26.2406 17.2504 26.1928C17.114 26.1449 16.9891 26.0693 16.8832 25.9708C16.7774 25.8722 16.6929 25.7528 16.6352 25.6201C16.5774 25.4873 16.5476 25.344 16.5476 25.1991C16.5476 25.0543 16.5774 24.911 16.6352 24.7782C16.6929 24.6454 16.7774 24.5261 16.8832 24.4275C16.9891 24.329 17.114 24.2534 17.2504 24.2055C17.3867 24.1576 17.5314 24.1385 17.6754 24.1493H23.3143C23.4583 24.1385 23.603 24.1576 23.7393 24.2055C23.8756 24.2534 24.0006 24.329 24.1065 24.4275C24.2123 24.5261 24.2967 24.6454 24.3545 24.7782C24.4122 24.911 24.442 25.0543 24.442 25.1991C24.442 25.344 24.4122 25.4873 24.3545 25.6201C24.2967 25.7528 24.2123 25.8722 24.1065 25.9708C24.0006 26.0693 23.8756 26.1449 23.7393 26.1928C23.603 26.2406 23.4583 26.2598 23.3143 26.249ZM23.3143 18.8999H17.6754C17.5314 18.9107 17.3867 18.8915 17.2504 18.8437C17.114 18.7958 16.9891 18.7202 16.8832 18.6217C16.7774 18.5231 16.6929 18.4037 16.6352 18.271C16.5774 18.1382 16.5476 17.9949 16.5476 17.85C16.5476 17.7052 16.5774 17.5619 16.6352 17.4291C16.6929 17.2963 16.7774 17.177 16.8832 17.0784C16.9891 16.9799 17.114 16.9043 17.2504 16.8564C17.3867 16.8085 17.5314 16.7894 17.6754 16.8002H23.3143C23.4583 16.7894 23.603 16.8085 23.7393 16.8564C23.8756 16.9043 24.0006 16.9799 24.1065 17.0784C24.2123 17.177 24.2967 17.2963 24.3545 17.4291C24.4122 17.5619 24.442 17.7052 24.442 17.85C24.442 17.9949 24.4122 18.1382 24.3545 18.271C24.2967 18.4037 24.2123 18.5231 24.1065 18.6217C24.0006 18.7202 23.8756 18.7958 23.7393 18.8437C23.603 18.8915 23.4583 18.9107 23.3143 18.8999ZM23.3143 11.5508H17.6754C17.5314 11.5616 17.3867 11.5424 17.2504 11.4946C17.114 11.4467 16.9891 11.3711 16.8832 11.2726C16.7774 11.174 16.6929 11.0546 16.6352 10.9218C16.5774 10.7891 16.5476 10.6458 16.5476 10.5009C16.5476 10.3561 16.5774 10.2128 16.6352 10.08C16.6929 9.94724 16.7774 9.82785 16.8832 9.72931C16.9891 9.63076 17.114 9.55519 17.2504 9.50731C17.3867 9.45943 17.5314 9.44028 17.6754 9.45106H23.3143C23.4583 9.44028 23.603 9.45943 23.7393 9.50731C23.8756 9.55519 24.0006 9.63076 24.1065 9.72931C24.2123 9.82785 24.2967 9.94724 24.3545 10.08C24.4122 10.2128 24.442 10.3561 24.442 10.5009C24.442 10.6458 24.4122 10.7891 24.3545 10.9218C24.2967 11.0546 24.2123 11.174 24.1065 11.2726C24.0006 11.3711 23.8756 11.4467 23.7393 11.4946C23.603 11.5424 23.4583 11.5616 23.3143 11.5508Z" fill="#333333"/>
</svg>
