<svg width="35" height="35" viewBox="0 0 35 35" fill="none" xmlns="http://www.w3.org/2000/svg">
<path d="M2.02539 7.02941C2.02539 6.09335 2.39724 5.19563 3.05913 4.53374C3.72102 3.87185 4.61874 3.5 5.5548 3.5H10.8489C11.785 3.5 12.6827 3.87185 13.3446 4.53374C14.0065 5.19563 14.3783 6.09335 14.3783 7.02941V12.3235C14.3783 13.2596 14.0065 14.1573 13.3446 14.8192C12.6827 15.4811 11.785 15.8529 10.8489 15.8529H5.5548C4.61874 15.8529 3.72102 15.4811 3.05913 14.8192C2.39724 14.1573 2.02539 13.2596 2.02539 12.3235V7.02941ZM11.4736 8.53647C11.5557 8.45443 11.6207 8.35704 11.6651 8.24985C11.7095 8.14267 11.7324 8.02778 11.7324 7.91176C11.7324 7.79575 11.7095 7.68086 11.6651 7.57368C11.6207 7.46649 11.5557 7.3691 11.4736 7.28706C11.3916 7.20502 11.2942 7.13995 11.187 7.09555C11.0798 7.05115 10.9649 7.0283 10.8489 7.0283C10.7329 7.0283 10.618 7.05115 10.5108 7.09555C10.4036 7.13995 10.3063 7.20502 10.2242 7.28706L7.31951 10.1935L6.17951 9.05176C6.09747 8.96973 6.00008 8.90465 5.89289 8.86025C5.7857 8.81585 5.67082 8.793 5.5548 8.793C5.43878 8.793 5.3239 8.81585 5.21671 8.86025C5.10953 8.90465 5.01213 8.96973 4.9301 9.05176C4.84806 9.1338 4.78298 9.23119 4.73858 9.33838C4.69419 9.44557 4.67133 9.56045 4.67133 9.67647C4.67133 9.79249 4.69419 9.90737 4.73858 10.0146C4.78298 10.1217 4.84806 10.2191 4.9301 10.3012L6.6948 12.0659C6.77676 12.1481 6.87413 12.2132 6.98133 12.2577C7.08853 12.3022 7.20345 12.3251 7.31951 12.3251C7.43557 12.3251 7.55049 12.3022 7.65768 12.2577C7.76488 12.2132 7.86225 12.1481 7.94421 12.0659L11.4736 8.53647Z" fill="#6B6B6B"/>
<path d="M16.4375 6.50597C16.4375 6.23296 16.546 5.97112 16.739 5.77807C16.9321 5.58502 17.1939 5.47656 17.4669 5.47656H31.8787C32.1517 5.47656 32.4135 5.58502 32.6066 5.77807C32.7996 5.97112 32.9081 6.23296 32.9081 6.50597V8.5648C32.9081 8.83781 32.7996 9.09965 32.6066 9.2927C32.4135 9.48575 32.1517 9.59421 31.8787 9.59421H17.4669C17.1939 9.59421 16.9321 9.48575 16.739 9.2927C16.546 9.09965 16.4375 8.83781 16.4375 8.5648V6.50597ZM16.4375 12.6824C16.4375 12.4094 16.546 12.1476 16.739 11.9545C16.9321 11.7615 17.1939 11.653 17.4669 11.653H27.761C28.034 11.653 28.2959 11.7615 28.4889 11.9545C28.682 12.1476 28.7904 12.4094 28.7904 12.6824C28.7904 12.9555 28.682 13.2173 28.4889 13.4103C28.2959 13.6034 28.034 13.7119 27.761 13.7119H17.4669C17.1939 13.7119 16.9321 13.6034 16.739 13.4103C16.546 13.2173 16.4375 12.9555 16.4375 12.6824Z" fill="#6B6B6B"/>
<path d="M5.5548 20.9112H10.8489C11.3169 20.9112 11.7658 21.0971 12.0968 21.4281C12.4277 21.759 12.6136 22.2079 12.6136 22.6759V27.97C12.6136 28.438 12.4277 28.8869 12.0968 29.2178C11.7658 29.5488 11.3169 29.7347 10.8489 29.7347H5.5548C5.08677 29.7347 4.63791 29.5488 4.30697 29.2178C3.97602 28.8869 3.7901 28.438 3.7901 27.97V22.6759C3.7901 22.2079 3.97602 21.759 4.30697 21.4281C4.63791 21.0971 5.08677 20.9112 5.5548 20.9112ZM5.5548 19.1465C4.61874 19.1465 3.72102 19.5183 3.05913 20.1802C2.39724 20.8421 2.02539 21.7398 2.02539 22.6759L2.02539 27.97C2.02539 28.9061 2.39724 29.8038 3.05913 30.4657C3.72102 31.1276 4.61874 31.4994 5.5548 31.4994H10.8489C11.785 31.4994 12.6827 31.1276 13.3446 30.4657C14.0065 29.8038 14.3783 28.9061 14.3783 27.97V22.6759C14.3783 21.7398 14.0065 20.8421 13.3446 20.1802C12.6827 19.5183 11.785 19.1465 10.8489 19.1465H5.5548Z" fill="#6B6B6B"/>
<path d="M16.5195 22.1525C16.5195 21.8794 16.628 21.6176 16.821 21.4246C17.0141 21.2315 17.2759 21.123 17.5489 21.123H31.9607C32.2337 21.123 32.4956 21.2315 32.6886 21.4246C32.8817 21.6176 32.9901 21.8794 32.9901 22.1525V24.2113C32.9901 24.4843 32.8817 24.7461 32.6886 24.9392C32.4956 25.1322 32.2337 25.2407 31.9607 25.2407H17.5489C17.2759 25.2407 17.0141 25.1322 16.821 24.9392C16.628 24.7461 16.5195 24.4843 16.5195 24.2113V22.1525ZM16.5195 28.3289C16.5195 28.0559 16.628 27.7941 16.821 27.601C17.0141 27.408 17.2759 27.2995 17.5489 27.2995H27.8431C28.1161 27.2995 28.3779 27.408 28.571 27.601C28.764 27.7941 28.8725 28.0559 28.8725 28.3289C28.8725 28.6019 28.764 28.8638 28.571 29.0568C28.3779 29.2499 28.1161 29.3583 27.8431 29.3583H17.5489C17.2759 29.3583 17.0141 29.2499 16.821 29.0568C16.628 28.8638 16.5195 28.6019 16.5195 28.3289Z" fill="#6B6B6B"/>
</svg>
