<svg width="35" height="35" viewBox="0 0 35 35" fill="none" xmlns="http://www.w3.org/2000/svg">
<path d="M18.5466 2.91602C19.6495 2.91602 20.648 3.52852 21.1994 4.43268C21.4677 4.87018 21.6465 5.40977 21.6018 5.97852C21.572 6.41602 21.7062 6.85352 21.9446 7.26185C22.7047 8.50143 24.3888 8.9681 25.7003 8.2681C27.1758 7.42227 29.0387 7.93268 29.8882 9.37643L30.8867 11.0973C31.7511 12.541 31.2742 14.3931 29.7839 15.2243C28.5171 15.9681 28.07 17.616 28.8301 18.8702C29.0685 19.2639 29.3368 19.5993 29.7541 19.8035C30.2757 20.0806 30.6781 20.5181 30.9613 20.9556C31.5127 21.8598 31.468 22.9681 30.9315 23.9452L29.8882 25.6952C29.3368 26.6285 28.3084 27.2118 27.2503 27.2118C26.7287 27.2118 26.1474 27.066 25.6705 26.7743C25.283 26.5264 24.8359 26.4389 24.359 26.4389C22.8835 26.4389 21.6465 27.6493 21.6018 29.0931C21.6018 30.7702 20.2307 32.0827 18.5168 32.0827H16.4899C14.7611 32.0827 13.39 30.7702 13.39 29.0931C13.3602 27.6493 12.1232 26.4389 10.6477 26.4389C10.1559 26.4389 9.7088 26.5264 9.33621 26.7743C8.8593 27.066 8.26316 27.2118 7.75644 27.2118C6.68338 27.2118 5.65504 26.6285 5.10361 25.6952L4.07526 23.9452C3.52383 22.9973 3.49403 21.8598 4.04546 20.9556C4.28391 20.5181 4.73102 20.0806 5.23774 19.8035C5.65504 19.5993 5.9233 19.2639 6.17666 18.8702C6.92184 17.616 6.47473 15.9681 5.20793 15.2243C3.73248 14.3931 3.25557 12.541 4.10507 11.0973L5.10361 9.37643C5.96801 7.93268 7.81605 7.42227 9.30641 8.2681C10.603 8.9681 12.2871 8.50143 13.0472 7.26185C13.2857 6.85352 13.4198 6.41602 13.39 5.97852C13.3602 5.40977 13.5241 4.87018 13.8073 4.43268C14.3587 3.52852 15.3572 2.94518 16.4452 2.91602H18.5466ZM17.5183 13.3868C15.1784 13.3868 13.2857 15.2243 13.2857 17.5139C13.2857 19.8035 15.1784 21.6264 17.5183 21.6264C19.8581 21.6264 21.7062 19.8035 21.7062 17.5139C21.7062 15.2243 19.8581 13.3868 17.5183 13.3868Z" fill="#333333"/>
</svg>
