<svg width="32" height="32" viewBox="0 0 32 32" fill="none" xmlns="http://www.w3.org/2000/svg">
<path fill-rule="evenodd" clip-rule="evenodd" d="M9.29183 3.29183C9.38473 3.19871 9.49508 3.12482 9.61657 3.07441C9.73806 3.024 9.8683 2.99805 9.99983 2.99805C10.1314 2.99805 10.2616 3.024 10.3831 3.07441C10.5046 3.12482 10.6149 3.19871 10.7078 3.29183L22.7078 15.2918C22.801 15.3847 22.8748 15.4951 22.9253 15.6166C22.9757 15.7381 23.0016 15.8683 23.0016 15.9998C23.0016 16.1314 22.9757 16.2616 22.9253 16.3831C22.8748 16.5046 22.801 16.6149 22.7078 16.7078L10.7078 28.7078C10.5201 28.8956 10.2654 29.0011 9.99983 29.0011C9.73428 29.0011 9.47961 28.8956 9.29183 28.7078C9.10406 28.5201 8.99857 28.2654 8.99857 27.9998C8.99857 27.7343 9.10406 27.4796 9.29183 27.2918L20.5858 15.9998L9.29183 4.70783C9.19871 4.61494 9.12482 4.50459 9.07441 4.3831C9.024 4.26161 8.99805 4.13137 8.99805 3.99983C8.99805 3.8683 9.024 3.73806 9.07441 3.61657C9.12482 3.49508 9.19871 3.38473 9.29183 3.29183Z" fill="#333333"/>
</svg>
