<svg width="35" height="35" viewBox="0 0 35 35" fill="none" xmlns="http://www.w3.org/2000/svg">
<path d="M1.40039 6.50666C1.40039 5.5238 1.79083 4.5812 2.48582 3.88621C3.18081 3.19122 4.12341 2.80078 5.10627 2.80078H10.6651C11.648 2.80078 12.5906 3.19122 13.2856 3.88621C13.9805 4.5812 14.371 5.5238 14.371 6.50666V12.0655C14.371 13.0483 13.9805 13.991 13.2856 14.6859C12.5906 15.3809 11.648 15.7714 10.6651 15.7714H5.10627C4.12341 15.7714 3.18081 15.3809 2.48582 14.6859C1.79083 13.991 1.40039 13.0483 1.40039 12.0655V6.50666ZM11.321 8.08908C11.4072 8.00294 11.4755 7.90067 11.5221 7.78813C11.5687 7.67558 11.5927 7.55495 11.5927 7.43313C11.5927 7.31131 11.5687 7.19069 11.5221 7.07814C11.4755 6.96559 11.4072 6.86333 11.321 6.77719C11.2349 6.69105 11.1326 6.62272 11.0201 6.57611C10.9075 6.52949 10.7869 6.50549 10.6651 6.50549C10.5433 6.50549 10.4226 6.52949 10.3101 6.57611C10.1976 6.62272 10.0953 6.69105 10.0092 6.77719L6.95921 9.82899L5.76221 8.63013C5.67607 8.54399 5.57381 8.47567 5.46127 8.42905C5.34872 8.38243 5.22809 8.35843 5.10627 8.35843C4.98445 8.35843 4.86383 8.38243 4.75128 8.42905C4.63873 8.47567 4.53647 8.54399 4.45033 8.63013C4.36419 8.71627 4.29586 8.81854 4.24924 8.93108C4.20263 9.04363 4.17863 9.16426 4.17863 9.28608C4.17863 9.40789 4.20263 9.52852 4.24924 9.64107C4.29586 9.75361 4.36419 9.85588 4.45033 9.94202L6.30327 11.795C6.38933 11.8812 6.49157 11.9497 6.60413 11.9964C6.71669 12.0431 6.83735 12.0671 6.95921 12.0671C7.08108 12.0671 7.20174 12.0431 7.3143 11.9964C7.42686 11.9497 7.52909 11.8812 7.61516 11.795L11.321 8.08908Z" fill="#333333"/>
<path d="M16.5332 5.95784C16.5332 5.67117 16.6471 5.39624 16.8498 5.19354C17.0525 4.99083 17.3274 4.87695 17.6141 4.87695H32.7464C33.0331 4.87695 33.308 4.99083 33.5107 5.19354C33.7134 5.39624 33.8273 5.67117 33.8273 5.95784V8.1196C33.8273 8.40627 33.7134 8.6812 33.5107 8.8839C33.308 9.0866 33.0331 9.20048 32.7464 9.20048H17.6141C17.3274 9.20048 17.0525 9.0866 16.8498 8.8839C16.6471 8.6812 16.5332 8.40627 16.5332 8.1196V5.95784ZM16.5332 12.4431C16.5332 12.1565 16.6471 11.8815 16.8498 11.6788C17.0525 11.4761 17.3274 11.3622 17.6141 11.3622H28.4229C28.7096 11.3622 28.9845 11.4761 29.1872 11.6788C29.3899 11.8815 29.5038 12.1565 29.5038 12.4431C29.5038 12.7298 29.3899 13.0047 29.1872 13.2074C28.9845 13.4101 28.7096 13.524 28.4229 13.524H17.6141C17.3274 13.524 17.0525 13.4101 16.8498 13.2074C16.6471 13.0047 16.5332 12.7298 16.5332 12.4431Z" fill="#333333"/>
<path d="M5.10627 21.0834H10.6651C11.1565 21.0834 11.6278 21.2786 11.9753 21.6261C12.3228 21.9736 12.518 22.4449 12.518 22.9364V28.4952C12.518 28.9866 12.3228 29.4579 11.9753 29.8054C11.6278 30.1529 11.1565 30.3481 10.6651 30.3481H5.10627C4.61484 30.3481 4.14354 30.1529 3.79605 29.8054C3.44855 29.4579 3.25333 28.9866 3.25333 28.4952V22.9364C3.25333 22.4449 3.44855 21.9736 3.79605 21.6261C4.14354 21.2786 4.61484 21.0834 5.10627 21.0834ZM5.10627 19.2305C4.12341 19.2305 3.18081 19.6209 2.48582 20.3159C1.79083 21.0109 1.40039 21.9535 1.40039 22.9364L1.40039 28.4952C1.40039 29.478 1.79083 30.4206 2.48582 31.1156C3.18081 31.8106 4.12341 32.2011 5.10627 32.2011H10.6651C11.648 32.2011 12.5906 31.8106 13.2856 31.1156C13.9805 30.4206 14.371 29.478 14.371 28.4952V22.9364C14.371 21.9535 13.9805 21.0109 13.2856 20.3159C12.5906 19.6209 11.648 19.2305 10.6651 19.2305H5.10627Z" fill="#333333"/>
<path d="M16.6191 22.3875C16.6191 22.1009 16.733 21.8259 16.9357 21.6232C17.1384 21.4205 17.4134 21.3066 17.7 21.3066H32.8324C33.119 21.3066 33.394 21.4205 33.5967 21.6232C33.7994 21.8259 33.9133 22.1009 33.9133 22.3875V24.5493C33.9133 24.836 33.7994 25.1109 33.5967 25.3136C33.394 25.5163 33.119 25.6302 32.8324 25.6302H17.7C17.4134 25.6302 17.1384 25.5163 16.9357 25.3136C16.733 25.1109 16.6191 24.836 16.6191 24.5493V22.3875ZM16.6191 28.8728C16.6191 28.5861 16.733 28.3112 16.9357 28.1085C17.1384 27.9058 17.4134 27.7919 17.7 27.7919H28.5088C28.7955 27.7919 29.0704 27.9058 29.2731 28.1085C29.4759 28.3112 29.5897 28.5861 29.5897 28.8728C29.5897 29.1595 29.4759 29.4344 29.2731 29.6371C29.0704 29.8398 28.7955 29.9537 28.5088 29.9537H17.7C17.4134 29.9537 17.1384 29.8398 16.9357 29.6371C16.733 29.4344 16.6191 29.1595 16.6191 28.8728Z" fill="#333333"/>
</svg>
