<svg width="20" height="20" viewBox="0 0 20 20" fill="none" xmlns="http://www.w3.org/2000/svg">
<path fill-rule="evenodd" clip-rule="evenodd" d="M9.55634 5.80764C9.61439 5.74944 9.68336 5.70326 9.7593 5.67175C9.83523 5.64024 9.91663 5.62402 9.99884 5.62402C10.081 5.62402 10.1624 5.64024 10.2384 5.67175C10.3143 5.70326 10.3833 5.74944 10.4413 5.80764L17.9413 13.3076C18.0587 13.425 18.1246 13.5842 18.1246 13.7501C18.1246 13.9161 18.0587 14.0753 17.9413 14.1926C17.824 14.31 17.6648 14.3759 17.4988 14.3759C17.3329 14.3759 17.1737 14.31 17.0563 14.1926L9.99884 7.13389L2.94134 14.1926C2.82398 14.31 2.66481 14.3759 2.49884 14.3759C2.33287 14.3759 2.17369 14.31 2.05634 14.1926C1.93898 14.0753 1.87305 13.9161 1.87305 13.7501C1.87305 13.5842 1.93898 13.425 2.05634 13.3076L9.55634 5.80764Z" fill="#5C5342"/>
</svg>
