<svg width="24" height="22" viewBox="0 0 24 22" fill="none" xmlns="http://www.w3.org/2000/svg">
<mask id="path-1-inside-1_1879_3667" fill="white">
<path fill-rule="evenodd" clip-rule="evenodd" d="M20.0204 15.3384C20.0265 15.3384 20.0327 15.3384 20.0388 15.3384C22.2265 15.3384 24 13.5649 24 11.3773C24 9.18957 22.2265 7.41609 20.0388 7.41609L20.0321 7.4161C19.9115 5.33686 18.1871 3.68792 16.0777 3.68792C15.7593 3.68792 15.4496 3.72549 15.153 3.79643C14.2936 1.81319 12.3185 0.425781 10.0194 0.425781C6.93091 0.425781 4.42718 2.92951 4.42718 6.01801C4.42718 6.17496 4.43365 6.3304 4.44633 6.48407L4.42718 6.48403C1.98212 6.48403 0 8.46615 0 10.9112C0 13.3563 1.98212 15.3384 4.42718 15.3384C4.43178 15.3384 4.43637 15.3384 4.44096 15.3384H20.0204Z"/>
</mask>
<path fill-rule="evenodd" clip-rule="evenodd" d="M20.0204 15.3384C20.0265 15.3384 20.0327 15.3384 20.0388 15.3384C22.2265 15.3384 24 13.5649 24 11.3773C24 9.18957 22.2265 7.41609 20.0388 7.41609L20.0321 7.4161C19.9115 5.33686 18.1871 3.68792 16.0777 3.68792C15.7593 3.68792 15.4496 3.72549 15.153 3.79643C14.2936 1.81319 12.3185 0.425781 10.0194 0.425781C6.93091 0.425781 4.42718 2.92951 4.42718 6.01801C4.42718 6.17496 4.43365 6.3304 4.44633 6.48407L4.42718 6.48403C1.98212 6.48403 0 8.46615 0 10.9112C0 13.3563 1.98212 15.3384 4.42718 15.3384C4.43178 15.3384 4.43637 15.3384 4.44096 15.3384H20.0204Z" fill="white"/>
<path d="M20.0204 15.3384L20.0249 14.3384H20.0204V15.3384ZM20.0388 7.41609V6.41609L20.0373 6.41609L20.0388 7.41609ZM20.0321 7.4161L19.0338 7.47401C19.0645 8.00351 19.5033 8.41693 20.0337 8.4161L20.0321 7.4161ZM15.153 3.79643L14.2354 4.19405C14.4285 4.63945 14.9135 4.88191 15.3856 4.76901L15.153 3.79643ZM4.44633 6.48407L4.44421 7.48407C4.72409 7.48466 4.99141 7.36794 5.18122 7.16226C5.37103 6.95659 5.46596 6.68078 5.44294 6.40185L4.44633 6.48407ZM4.42718 6.48403L4.4293 5.48403H4.42718V6.48403ZM4.44096 15.3384V14.3384L4.43784 14.3384L4.44096 15.3384ZM20.0159 16.3384C20.0235 16.3384 20.0311 16.3384 20.0388 16.3384V14.3384C20.0342 14.3384 20.0296 14.3384 20.0249 14.3384L20.0159 16.3384ZM20.0388 16.3384C22.7788 16.3384 25 14.1172 25 11.3773H23C23 13.0127 21.6742 14.3384 20.0388 14.3384V16.3384ZM25 11.3773C25 8.63728 22.7788 6.41609 20.0388 6.41609V8.41609C21.6742 8.41609 23 9.74185 23 11.3773H25ZM20.0373 6.41609L20.0305 6.41611L20.0337 8.4161L20.0404 8.41609L20.0373 6.41609ZM21.0304 7.3582C20.8793 4.75315 18.72 2.68792 16.0777 2.68792V4.68792C17.6543 4.68792 18.9437 5.92057 19.0338 7.47401L21.0304 7.3582ZM16.0777 2.68792C15.6803 2.68792 15.2927 2.73483 14.9204 2.82386L15.3856 4.76901C15.6066 4.71615 15.8382 4.68792 16.0777 4.68792V2.68792ZM16.0705 3.39882C15.0583 1.06299 12.7312 -0.574219 10.0194 -0.574219V1.42578C11.9058 1.42578 13.5288 2.56338 14.2354 4.19405L16.0705 3.39882ZM10.0194 -0.574219C6.37863 -0.574219 3.42718 2.37722 3.42718 6.01801H5.42718C5.42718 3.48179 7.4832 1.42578 10.0194 1.42578V-0.574219ZM3.42718 6.01801C3.42718 6.20244 3.43478 6.38531 3.44972 6.5663L5.44294 6.40185C5.43252 6.27549 5.42718 6.14749 5.42718 6.01801H3.42718ZM4.44845 5.48408L4.4293 5.48404L4.42507 7.48403L4.44421 7.48407L4.44845 5.48408ZM4.42718 5.48403C1.42983 5.48403 -1 7.91387 -1 10.9112H1C1 9.01844 2.5344 7.48403 4.42718 7.48403V5.48403ZM-1 10.9112C-1 13.9086 1.42983 16.3384 4.42718 16.3384V14.3384C2.5344 14.3384 1 12.804 1 10.9112H-1ZM4.42718 16.3384C4.43275 16.3384 4.43838 16.3384 4.44408 16.3384L4.43784 14.3384C4.43436 14.3384 4.43081 14.3384 4.42718 14.3384V16.3384ZM20.0204 14.3384H4.44096V16.3384H20.0204V14.3384Z" fill="white" mask="url(#path-1-inside-1_1879_3667)"/>
<path fill-rule="evenodd" clip-rule="evenodd" d="M20.6824 12.7521L12.653 8.95174L13.3765 17.8056L15.5646 16.2921L18.1697 20.0583L20.8756 18.1866L18.2705 14.4204L20.6824 12.7521Z" fill="white"/>
<path d="M12.653 8.95174L12.8669 8.49981C12.7054 8.42339 12.5154 8.43891 12.3685 8.54053C12.2216 8.64215 12.1401 8.81443 12.1546 8.99247L12.653 8.95174ZM20.6824 12.7521L20.9669 13.1633C21.1138 13.0617 21.1953 12.8894 21.1808 12.7114C21.1662 12.5333 21.0578 12.3766 20.8963 12.3002L20.6824 12.7521ZM13.3765 17.8056L12.8782 17.8464C12.8927 18.0244 13.0011 18.1811 13.1626 18.2576C13.3241 18.334 13.514 18.3185 13.6609 18.2168L13.3765 17.8056ZM15.5646 16.2921L15.9758 16.0076C15.8188 15.7805 15.5073 15.7238 15.2802 15.8809L15.5646 16.2921ZM18.1697 20.0583L17.7585 20.3427C17.9156 20.5698 18.2271 20.6266 18.4542 20.4695L18.1697 20.0583ZM20.8756 18.1866L21.1601 18.5978C21.2691 18.5224 21.3438 18.4067 21.3675 18.2763C21.3913 18.1458 21.3623 18.0112 21.2869 17.9022L20.8756 18.1866ZM18.2705 14.4204L17.9861 14.0092C17.759 14.1663 17.7022 14.4777 17.8593 14.7048L18.2705 14.4204ZM12.4391 9.40368L20.4685 13.204L20.8963 12.3002L12.8669 8.49981L12.4391 9.40368ZM13.8748 17.7649L13.1513 8.91102L12.1546 8.99247L12.8782 17.8464L13.8748 17.7649ZM15.2802 15.8809L13.0921 17.3944L13.6609 18.2168L15.8491 16.7033L15.2802 15.8809ZM18.581 19.7739L15.9758 16.0076L15.1534 16.5765L17.7585 20.3427L18.581 19.7739ZM20.5912 17.7754L17.8853 19.6471L18.4542 20.4695L21.1601 18.5978L20.5912 17.7754ZM17.8593 14.7048L20.4644 18.471L21.2869 17.9022L18.6818 14.136L17.8593 14.7048ZM20.398 12.3409L17.9861 14.0092L18.555 14.8316L20.9669 13.1633L20.398 12.3409Z" fill="#539CB3"/>
</svg>
