<svg width="76" height="85" viewBox="0 0 76 85" fill="none" xmlns="http://www.w3.org/2000/svg">
<g filter="url(#filter0_d_564_4818)">
<path d="M41.7574 7.91602C42.5297 7.91602 43.1238 8.53727 43.1238 9.27685V18.8027C43.1238 24.2164 47.6089 28.6539 53.0446 28.6835C55.302 28.6835 57.0842 28.7131 58.4505 28.7131C59.3713 28.7131 60.8861 28.6835 62.1634 28.6835C62.9059 28.6835 63.5 29.2752 63.5 30.0148V53.7998C63.5 61.1364 57.5297 67.0827 50.1337 67.0827H26.5198C18.797 67.0827 12.5 60.8406 12.5 53.1489V21.2581C12.5 13.9214 18.5 7.91602 25.896 7.91602H41.7574ZM37.4505 30.9023C36.2327 30.9023 35.2228 31.8785 35.2228 33.0914V38.2093H30.1139C28.896 38.2093 27.8861 39.1856 27.8861 40.4281C27.8861 41.641 28.896 42.6173 30.1139 42.6173H35.2228V47.7352C35.2228 48.9481 36.2327 49.9244 37.4505 49.9244C38.6683 49.9244 39.6485 48.9481 39.6485 47.7352V42.6173H44.7871C46.005 42.6173 47.0149 41.641 47.0149 40.4281C47.0149 39.1856 46.005 38.2093 44.7871 38.2093H39.6485V33.0914C39.6485 31.8785 38.6683 30.9023 37.4505 30.9023ZM47.4488 10.5969C47.4488 9.32182 49.0023 8.68873 49.8904 9.60877C53.1013 12.9339 58.7122 18.7471 61.8488 21.9953C62.7161 22.8917 62.0805 24.3797 60.83 24.3827C58.3884 24.3916 55.5102 24.3827 53.4399 24.362C50.1548 24.362 47.4488 21.6669 47.4488 18.395V10.5969Z" fill="#333333"/>
</g>
<defs>
<filter id="filter0_d_564_4818" x="-10" y="-5" width="96" height="95" filterUnits="userSpaceOnUse" color-interpolation-filters="sRGB">
<feFlood flood-opacity="0" result="BackgroundImageFix"/>
<feColorMatrix in="SourceAlpha" type="matrix" values="0 0 0 0 0 0 0 0 0 0 0 0 0 0 0 0 0 0 127 0" result="hardAlpha"/>
<feOffset dy="5"/>
<feGaussianBlur stdDeviation="6"/>
<feComposite in2="hardAlpha" operator="out"/>
<feColorMatrix type="matrix" values="0 0 0 0 0.41276 0 0 0 0 0.41276 0 0 0 0 0.41276 0 0 0 0.16 0"/>
<feBlend mode="normal" in2="BackgroundImageFix" result="effect1_dropShadow_564_4818"/>
<feBlend mode="normal" in="SourceGraphic" in2="effect1_dropShadow_564_4818" result="shape"/>
</filter>
</defs>
</svg>
