<svg width="21" height="22" viewBox="0 0 21 22" fill="none" xmlns="http://www.w3.org/2000/svg">
<path d="M12.8995 1.44727C12.9858 1.44711 13.0712 1.46396 13.1509 1.49684C13.2306 1.52972 13.3031 1.57799 13.3641 1.63889L19.861 8.13577C19.984 8.25883 20.0532 8.42572 20.0532 8.59974C20.0532 8.77375 19.984 8.94064 19.861 9.0637C19.231 9.6937 18.454 9.83545 17.8883 9.83545C17.656 9.83545 17.4486 9.81183 17.2846 9.78427L13.1712 13.8976C13.279 14.334 13.3493 14.7788 13.3812 15.2272C13.4416 16.1486 13.3392 17.4414 12.4362 18.3444C12.3131 18.4674 12.1462 18.5365 11.9722 18.5365C11.7982 18.5365 11.6313 18.4674 11.5083 18.3444L7.7952 14.6326L3.61883 18.809C3.36289 19.065 2.01889 19.9929 1.76295 19.737C1.50702 19.481 2.43495 18.1357 2.69089 17.8811L6.86726 13.7047L3.15552 9.99164C3.03249 9.86858 2.96337 9.70169 2.96337 9.52767C2.96337 9.35366 3.03249 9.18677 3.15552 9.0637C4.05852 8.1607 5.35133 8.05702 6.2727 8.1187C6.72107 8.15063 7.16588 8.22089 7.60226 8.3287L11.7156 4.21664C11.6826 4.01661 11.665 3.81432 11.6631 3.61158C11.6631 3.0472 11.8049 2.2702 12.4362 1.63889C12.5592 1.51621 12.7258 1.4473 12.8995 1.44727Z" fill="#333333"/>
</svg>
