<svg width="150" height="150" viewBox="0 0 150 150" fill="none" xmlns="http://www.w3.org/2000/svg">
<path fill-rule="evenodd" clip-rule="evenodd" d="M73.072 19.954C74.2207 19.5153 75.4908 19.5153 76.6395 19.954L137.659 43.2557C142.844 45.2354 141.425 52.9267 135.876 52.9267H13.8357C8.2862 52.9267 6.86761 45.2354 12.052 43.2557L73.072 19.954ZM80.4647 38.5036C80.4647 41.1588 78.3122 43.3113 75.657 43.3113C73.0018 43.3113 70.8493 41.1588 70.8493 38.5036C70.8493 35.8484 73.0018 33.6959 75.657 33.6959C78.3122 33.6959 80.4647 35.8484 80.4647 38.5036ZM80.4648 101.004V62.5421H70.8494V101.004H61.234L61.234 62.5421H51.6186V101.004H42.0032V62.5421H32.3878V101.004H25.7725C24.1156 101.004 22.7725 102.347 22.7725 104.004V107.619C22.7725 109.276 24.1156 110.619 25.7725 110.619H125.542C127.199 110.619 128.542 109.276 128.542 107.619V104.004C128.542 102.347 127.199 101.004 125.542 101.004H118.926V62.5421H109.311L109.311 101.004H99.6955V62.5421H90.0802L90.0801 101.004H80.4648ZM13.1571 123.234C13.1571 121.578 14.5002 120.234 16.1571 120.234H135.157C136.814 120.234 138.157 121.578 138.157 123.234V126.85C138.157 128.507 136.814 129.85 135.157 129.85H16.157C14.5002 129.85 13.1571 128.507 13.1571 126.85V123.234Z" fill="#333333"/>
</svg>
