<svg width="120" height="120" viewBox="0 0 120 120" fill="none" xmlns="http://www.w3.org/2000/svg">
<path fill-rule="evenodd" clip-rule="evenodd" d="M78.0685 25.1267H60.6152V13.4912H78.0685L73.4143 19.309L78.0685 25.1267Z" fill="#333333"/>
<path fill-rule="evenodd" clip-rule="evenodd" d="M101.34 60.5229H18.7278C17.7969 60.5229 16.9824 59.7084 16.9824 58.7776C16.9824 57.8467 17.7969 57.0322 18.7278 57.0322H101.34C102.271 57.0322 103.085 57.8467 103.085 58.7776C103.085 59.7084 102.271 60.5229 101.34 60.5229Z" fill="#333333"/>
<path fill-rule="evenodd" clip-rule="evenodd" d="M60.0324 36.7617C59.1016 36.7617 58.2871 35.9472 58.2871 35.0164V11.7453C58.2871 10.8145 59.1016 10 60.0324 10C60.9633 10 61.7778 10.8145 61.7778 11.7453V35.0164C61.7778 35.9472 60.9633 36.7617 60.0324 36.7617Z" fill="#333333"/>
<path d="M44.0919 112.883C44.0919 112.883 40.834 112.883 40.834 109.625C40.834 106.367 44.0919 96.8256 60.0326 96.8256C75.9733 96.8256 79.2312 106.483 79.2312 109.625C79.2312 112.766 76.0896 112.883 76.0896 112.883H44.0919ZM60.0326 93.684C62.5924 93.684 65.0359 92.6368 66.7812 90.8915C68.5266 89.1461 69.5737 86.7027 69.5737 84.1428C69.5737 81.583 68.5266 79.1396 66.7812 77.3942C65.0359 75.5325 62.5924 74.4854 60.0326 74.4854C57.4728 74.4854 55.0293 75.5326 53.284 77.2779C51.5387 79.0232 50.4915 81.4667 50.4915 84.0265C50.4915 86.5863 51.5387 89.0298 53.284 90.7751C55.0293 92.6368 57.4728 93.684 60.0326 93.684Z" fill="#333333"/>
<path d="M90.8652 96.9414C85.1638 96.9414 81.2077 98.105 78.2988 99.8503C81.6731 103.341 82.7203 107.53 82.7203 109.74C82.7203 111.02 82.4876 112.068 82.0222 112.998H106.922C106.922 112.998 110.18 112.998 110.18 109.74C110.18 106.483 106.922 96.9414 90.8652 96.9414Z" fill="#333333"/>
<path d="M90.8673 93.6838C93.4271 93.6838 95.8706 92.6366 97.6159 90.8913C99.3612 89.146 100.408 86.7025 100.408 84.1427C100.408 81.5829 99.3612 79.1394 97.6159 77.3941C95.8706 75.6488 93.4271 74.6016 90.8673 74.6016C88.3075 74.6016 85.864 75.6488 84.1187 77.3941C82.3734 79.1394 81.3262 81.5829 81.3262 84.1427C81.3262 86.7025 82.3734 89.146 84.1187 90.8913C85.864 92.6366 88.3075 93.6838 90.8673 93.6838Z" fill="#333333"/>
<path d="M29.1993 93.6838C31.7592 93.6838 34.2026 92.6366 35.9479 90.8913C37.6933 89.146 38.7405 86.7025 38.7405 84.1427C38.7405 81.5829 37.6933 79.1394 35.9479 77.3941C34.2026 75.6488 31.7592 74.6016 29.1993 74.6016C26.6395 74.6016 24.1961 75.6488 22.4507 77.3941C20.7054 79.1394 19.6582 81.5829 19.6582 84.1427C19.6582 86.7025 20.7054 89.146 22.4507 90.8913C24.1961 92.6366 26.6395 93.6838 29.1993 93.6838Z" fill="#333333"/>
<path d="M37.3435 109.74C37.3435 107.413 38.3907 103.341 41.765 99.8503C38.8561 98.105 34.7837 96.9414 29.1986 96.9414C13.2579 96.9414 10 106.483 10 109.74C10 112.998 13.2579 112.882 13.2579 112.882H38.158C37.5762 111.951 37.3435 110.904 37.3435 109.74Z" fill="#333333"/>
<path d="M60.0312 70.996C61.6601 70.996 63.1728 71.345 64.6854 71.8105V64.0146H55.377V71.8105C56.8896 71.345 58.4022 70.996 60.0312 70.996Z" fill="#333333"/>
<path d="M90.8651 70.996C92.4941 70.996 94.0067 71.345 95.5194 71.8105V64.0146H86.2109V71.8105C87.7236 71.345 89.2362 70.996 90.8651 70.996Z" fill="#333333"/>
<path d="M29.1972 70.996C30.8262 70.996 32.3388 71.345 33.8514 71.8105V64.0146H24.543V71.8105C26.0556 71.345 27.5682 70.996 29.1972 70.996Z" fill="#333333"/>
<path fill-rule="evenodd" clip-rule="evenodd" d="M99.593 52.6118L81.7906 42.9543L60.7303 31.5515C60.3813 31.3188 59.7995 31.3188 59.4504 31.5515L38.3901 42.9543L20.4714 52.6118C19.4242 53.1936 19.8896 54.7062 21.1695 54.7062H60.0322H98.8949C100.175 54.7062 100.64 53.1936 99.593 52.6118ZM60.0322 47.7249C57.1233 47.7249 54.7962 45.3978 54.7962 42.4889C54.7962 39.58 57.1233 37.2529 60.0322 37.2529C62.9411 37.2529 65.2682 39.58 65.2682 42.4889C65.2682 45.3978 62.9411 47.7249 60.0322 47.7249Z" fill="#333333"/>
</svg>
