<svg width="150" height="150" viewBox="0 0 150 150" fill="none" xmlns="http://www.w3.org/2000/svg">
<path d="M104.158 12.5646C113.149 12.0027 122.015 15.1244 128.695 21.2431C134.814 27.9237 137.936 36.7895 137.436 45.8427V104.157C137.998 113.21 134.814 122.076 128.758 128.757C122.077 134.876 113.149 137.997 104.158 137.435H45.8429C36.7897 137.997 27.9238 134.876 21.2432 128.757C15.1245 122.076 12.0027 113.21 12.5646 104.157V45.8427C12.0027 36.7895 15.1245 27.9237 21.2432 21.2431C27.9238 15.1244 36.7897 12.0027 45.8429 12.5646H104.158ZM102.535 41.0976C98.6637 37.2266 92.4201 37.2266 88.5491 41.0976L84.3659 45.3432C83.7415 45.9675 83.7415 47.0289 84.3659 47.6533C84.3659 47.6533 84.4884 47.7751 84.7066 47.9919L86.2423 49.5193C87.1307 50.4031 88.2395 51.5069 89.353 52.6169L93.1285 56.3907C93.9163 57.182 94.4389 57.7123 94.4805 57.7678C95.1673 58.5171 95.6044 59.516 95.6044 60.6399C95.6044 62.8875 93.7937 64.7606 91.4836 64.7606C90.4222 64.7606 89.4232 64.3235 88.7364 63.6368L78.3096 53.2725C77.8101 52.773 76.936 52.773 76.4365 53.2725L46.6546 83.0542C44.5942 85.1145 43.4079 87.8617 43.3455 90.7962L42.9709 105.593C42.9709 106.405 43.2206 107.154 43.7826 107.716C44.3445 108.278 45.0937 108.59 45.9054 108.59H60.5778C63.5747 108.59 66.4468 107.404 68.632 105.281L110.651 63.1373C114.46 59.2663 114.46 53.0227 110.651 49.2142L102.535 41.0976Z" fill="#333333"/>
</svg>
