<svg width="18" height="19" viewBox="0 0 18 19" fill="none" xmlns="http://www.w3.org/2000/svg">
<path d="M15.9664 2.14294C16.0005 2.05775 16.0089 1.96443 15.9904 1.87455C15.972 1.78467 15.9276 1.70217 15.8627 1.63729C15.7978 1.57241 15.7153 1.528 15.6255 1.50956C15.5356 1.49112 15.4423 1.49947 15.3571 1.53357L1.71974 6.98881H1.7188L1.29507 7.15756C1.21481 7.18957 1.14497 7.24315 1.09325 7.31237C1.04153 7.38159 1.00994 7.46375 1.00199 7.54979C0.994036 7.63583 1.01002 7.7224 1.04817 7.79993C1.08633 7.87745 1.14517 7.94293 1.2182 7.98911L1.60256 8.23286L1.60349 8.23473L6.28614 11.2141L9.26542 15.8968L9.26729 15.8987L9.51103 16.2831C9.55737 16.3558 9.62287 16.4144 9.70034 16.4523C9.77781 16.4902 9.86423 16.506 9.95011 16.498C10.036 16.4899 10.118 16.4583 10.187 16.4067C10.2561 16.355 10.3096 16.2853 10.3416 16.2053L15.9664 2.14294ZM14.2481 3.91479L7.22267 10.9403L7.02112 10.6235C6.98419 10.5653 6.9349 10.516 6.87675 10.4791L6.55988 10.2775L13.5853 3.25198L14.6896 2.81043L14.2481 3.91479Z" fill="white"/>
</svg>
