<svg width="19" height="18" viewBox="0 0 19 18" fill="none" xmlns="http://www.w3.org/2000/svg">
<g clip-path="url(#clip0_1320_4796)">
<path d="M11.5549 3.375H16.0347C16.3473 3.37497 16.6566 3.4401 16.9426 3.56624C17.2287 3.69238 17.4854 3.87676 17.6962 4.10762C17.9071 4.33848 18.0675 4.61076 18.1673 4.90707C18.267 5.20339 18.304 5.51725 18.2757 5.82863L17.559 13.7036C17.5082 14.2627 17.2503 14.7825 16.8359 15.1611C16.4215 15.5397 15.8805 15.7498 15.3192 15.75H3.67653C3.1152 15.7498 2.57422 15.5397 2.1598 15.1611C1.74539 14.7825 1.48746 14.2627 1.43666 13.7036L0.720033 5.82863C0.673049 5.30758 0.8091 4.78646 1.10478 4.35488L1.06091 3.375C1.06091 2.77826 1.29796 2.20597 1.71992 1.78401C2.14187 1.36205 2.71417 1.125 3.31091 1.125H7.44191C8.0386 1.12513 8.6108 1.36226 9.03266 1.78425L9.96416 2.71575C10.386 3.13774 10.9582 3.37487 11.5549 3.375ZM2.19266 3.51C2.43416 3.42075 2.69066 3.37575 2.96216 3.375H9.03266L8.23728 2.57963C8.02635 2.36863 7.74025 2.25006 7.44191 2.25H3.31091C3.01621 2.24995 2.73325 2.36553 2.52288 2.57191C2.3125 2.77829 2.19151 3.05898 2.18591 3.35362L2.19266 3.51Z" fill="#6B6B6B"/>
</g>
<defs>
<clipPath id="clip0_1320_4796">
<rect width="18" height="18" fill="white" transform="translate(0.5)"/>
</clipPath>
</defs>
</svg>
