<svg width="18" height="18" viewBox="0 0 18 18" fill="none" xmlns="http://www.w3.org/2000/svg">
<g clip-path="url(#clip0_1553_4366)">
<path d="M10.4546 0H4.5C3.90326 0 3.33097 0.237053 2.90901 0.65901C2.48705 1.08097 2.25 1.65326 2.25 2.25V15.75C2.25 16.3467 2.48705 16.919 2.90901 17.341C3.33097 17.7629 3.90326 18 4.5 18H13.5C14.0967 18 14.669 17.7629 15.091 17.341C15.5129 16.919 15.75 16.3467 15.75 15.75V5.29537C15.7499 4.99703 15.6314 4.71093 15.4204 4.5L11.25 0.329625C11.0391 0.118632 10.753 6.37171e-05 10.4546 0ZM10.6875 3.9375V1.6875L14.0625 5.0625H11.8125C11.5141 5.0625 11.228 4.94397 11.017 4.733C10.806 4.52202 10.6875 4.23587 10.6875 3.9375ZM7.14825 11.0858C7.09595 11.138 7.03386 11.1795 6.96553 11.2078C6.8972 11.2361 6.82396 11.2507 6.75 11.2507C6.67604 11.2507 6.6028 11.2361 6.53447 11.2078C6.46614 11.1795 6.40405 11.138 6.35175 11.0858C6.29945 11.0335 6.25797 10.9714 6.22966 10.903C6.20136 10.8347 6.18679 10.7615 6.18679 10.6875C6.18679 10.6135 6.20136 10.5403 6.22966 10.472C6.25797 10.4036 6.29945 10.3415 6.35175 10.2892L8.60175 8.03925C8.654 7.98687 8.71607 7.94531 8.78441 7.91695C8.85275 7.88859 8.92601 7.87399 9 7.87399C9.07399 7.87399 9.14725 7.88859 9.21559 7.91695C9.28393 7.94531 9.346 7.98687 9.39825 8.03925L11.6483 10.2892C11.7005 10.3415 11.742 10.4036 11.7703 10.472C11.7986 10.5403 11.8132 10.6135 11.8132 10.6875C11.8132 10.7615 11.7986 10.8347 11.7703 10.903C11.742 10.9714 11.7005 11.0335 11.6483 11.0858C11.596 11.138 11.5339 11.1795 11.4655 11.2078C11.3972 11.2361 11.324 11.2507 11.25 11.2507C11.176 11.2507 11.1028 11.2361 11.0345 11.2078C10.9661 11.1795 10.904 11.138 10.8517 11.0858L9.5625 9.79537V14.0625C9.5625 14.2117 9.50324 14.3548 9.39775 14.4602C9.29226 14.5657 9.14918 14.625 9 14.625C8.85082 14.625 8.70774 14.5657 8.60225 14.4602C8.49676 14.3548 8.4375 14.2117 8.4375 14.0625V9.79537L7.14825 11.0858Z" fill="#539CB3"/>
</g>
<defs>
<clipPath id="clip0_1553_4366">
<rect width="18" height="18" fill="white"/>
</clipPath>
</defs>
</svg>
