<svg width="19" height="18" viewBox="0 0 19 18" fill="none" xmlns="http://www.w3.org/2000/svg">
<g clip-path="url(#clip0_1273_4618)">
<path d="M7.25391 6.1875C7.25391 6.63505 7.07612 7.06428 6.75965 7.38074C6.44318 7.69721 6.01396 7.875 5.56641 7.875C5.11885 7.875 4.68963 7.69721 4.37316 7.38074C4.0567 7.06428 3.87891 6.63505 3.87891 6.1875C3.87891 5.73995 4.0567 5.31072 4.37316 4.99426C4.68963 4.67779 5.11885 4.5 5.56641 4.5C6.01396 4.5 6.44318 4.67779 6.75965 4.99426C7.07612 5.31072 7.25391 5.73995 7.25391 6.1875Z" fill="#539CB3"/>
<path d="M2.75391 1.125C2.15717 1.125 1.58487 1.36205 1.16292 1.78401C0.740959 2.20597 0.503906 2.77826 0.503906 3.375V14.625C0.503906 15.2217 0.740959 15.794 1.16292 16.216C1.58487 16.6379 2.15717 16.875 2.75391 16.875H16.2539C16.8506 16.875 17.4229 16.6379 17.8449 16.216C18.2669 15.794 18.5039 15.2217 18.5039 14.625V3.375C18.5039 2.77826 18.2669 2.20597 17.8449 1.78401C17.4229 1.36205 16.8506 1.125 16.2539 1.125H2.75391ZM16.2539 2.25C16.5523 2.25 16.8384 2.36853 17.0494 2.5795C17.2604 2.79048 17.3789 3.07663 17.3789 3.375V10.6875L13.1298 8.49713C13.0243 8.44428 12.9048 8.42594 12.7883 8.44472C12.6718 8.4635 12.5642 8.51843 12.4807 8.60175L8.30691 12.7755L5.31441 10.782C5.20636 10.7101 5.07676 10.6777 4.94759 10.6904C4.81841 10.7031 4.69761 10.7601 4.60566 10.8517L1.62891 13.5V3.375C1.62891 3.07663 1.74743 2.79048 1.95841 2.5795C2.16939 2.36853 2.45554 2.25 2.75391 2.25H16.2539Z" fill="#539CB3"/>
</g>
<defs>
<clipPath id="clip0_1273_4618">
<rect width="18" height="18" fill="white" transform="translate(0.5)"/>
</clipPath>
</defs>
</svg>
