<svg width="19" height="18" viewBox="0 0 19 18" fill="none" xmlns="http://www.w3.org/2000/svg">
<path fill-rule="evenodd" clip-rule="evenodd" d="M12.7115 8.0383C12.7638 8.09055 12.8054 8.15263 12.8338 8.22096C12.8621 8.2893 12.8767 8.36256 12.8767 8.43655C12.8767 8.51054 12.8621 8.5838 12.8338 8.65214C12.8054 8.72048 12.7638 8.78255 12.7115 8.8348L9.33646 12.2098C9.28421 12.2622 9.22214 12.3037 9.1538 12.3321C9.08546 12.3605 9.0122 12.3751 8.93821 12.3751C8.86422 12.3751 8.79096 12.3605 8.72262 12.3321C8.65428 12.3037 8.59221 12.2622 8.53996 12.2098L6.85246 10.5223C6.80016 10.47 6.75868 10.4079 6.73037 10.3396C6.70207 10.2713 6.6875 10.198 6.6875 10.1241C6.6875 10.0501 6.70207 9.97685 6.73037 9.90852C6.75868 9.84019 6.80016 9.7781 6.85246 9.7258C6.95808 9.62018 7.10134 9.56084 7.25071 9.56084C7.32467 9.56084 7.39791 9.57541 7.46624 9.60371C7.53457 9.63202 7.59666 9.6735 7.64896 9.7258L8.93821 11.0162L11.915 8.0383C11.9672 7.98592 12.0293 7.94436 12.0976 7.916C12.166 7.88764 12.2392 7.87305 12.3132 7.87305C12.3872 7.87305 12.4605 7.88764 12.5288 7.916C12.5971 7.94436 12.6592 7.98592 12.7115 8.0383Z" fill="#5C5342"/>
<path d="M5 1.6875H3.875C3.27826 1.6875 2.70597 1.92455 2.28401 2.34651C1.86205 2.76847 1.625 3.34076 1.625 3.9375V15.75C1.625 16.3467 1.86205 16.919 2.28401 17.341C2.70597 17.7629 3.27826 18 3.875 18H15.125C15.7217 18 16.294 17.7629 16.716 17.341C17.1379 16.919 17.375 16.3467 17.375 15.75V3.9375C17.375 3.34076 17.1379 2.76847 16.716 2.34651C16.294 1.92455 15.7217 1.6875 15.125 1.6875H14V2.8125H15.125C15.4234 2.8125 15.7095 2.93103 15.9205 3.142C16.1315 3.35298 16.25 3.63913 16.25 3.9375V15.75C16.25 16.0484 16.1315 16.3345 15.9205 16.5455C15.7095 16.7565 15.4234 16.875 15.125 16.875H3.875C3.57663 16.875 3.29048 16.7565 3.0795 16.5455C2.86853 16.3345 2.75 16.0484 2.75 15.75V3.9375C2.75 3.63913 2.86853 3.35298 3.0795 3.142C3.29048 2.93103 3.57663 2.8125 3.875 2.8125H5V1.6875Z" fill="#5C5342"/>
<path d="M11.1875 1.125C11.3367 1.125 11.4798 1.18426 11.5852 1.28975C11.6907 1.39524 11.75 1.53832 11.75 1.6875V2.8125C11.75 2.96168 11.6907 3.10476 11.5852 3.21025C11.4798 3.31574 11.3367 3.375 11.1875 3.375H7.8125C7.66332 3.375 7.52024 3.31574 7.41475 3.21025C7.30926 3.10476 7.25 2.96168 7.25 2.8125V1.6875C7.25 1.53832 7.30926 1.39524 7.41475 1.28975C7.52024 1.18426 7.66332 1.125 7.8125 1.125H11.1875ZM7.8125 0C7.36495 0 6.93572 0.17779 6.61926 0.494257C6.30279 0.810725 6.125 1.23995 6.125 1.6875V2.8125C6.125 3.26005 6.30279 3.68928 6.61926 4.00574C6.93572 4.32221 7.36495 4.5 7.8125 4.5H11.1875C11.6351 4.5 12.0643 4.32221 12.3807 4.00574C12.6972 3.68928 12.875 3.26005 12.875 2.8125V1.6875C12.875 1.23995 12.6972 0.810725 12.3807 0.494257C12.0643 0.17779 11.6351 0 11.1875 0L7.8125 0Z" fill="#5C5342"/>
</svg>
