<svg width="19" height="18" viewBox="0 0 19 18" fill="none" xmlns="http://www.w3.org/2000/svg">
<g clip-path="url(#clip0_1536_11055)">
<path d="M14.9605 0.164692C14.855 0.0592399 14.712 0 14.5628 0C14.4137 0 14.2706 0.0592399 14.1652 0.164692L12.3123 2.01757L16.4827 6.18794L18.3355 4.33619C18.3879 4.28394 18.4295 4.22187 18.4578 4.15353C18.4862 4.08519 18.5008 4.01193 18.5008 3.93794C18.5008 3.86395 18.4862 3.79069 18.4578 3.72235C18.4295 3.65402 18.3879 3.59194 18.3355 3.53969L14.9605 0.164692ZM15.6873 6.98332L11.5169 2.81294L4.20441 10.1254H4.43728C4.58647 10.1254 4.72954 10.1847 4.83503 10.2902C4.94052 10.3957 4.99978 10.5388 4.99978 10.6879V11.2504H5.56228C5.71147 11.2504 5.85454 11.3097 5.96003 11.4152C6.06552 11.5207 6.12478 11.6638 6.12478 11.8129V12.3754H6.68728C6.83647 12.3754 6.97954 12.4347 7.08503 12.5402C7.19052 12.6457 7.24978 12.7888 7.24978 12.9379V13.5004H7.81228C7.96147 13.5004 8.10454 13.5597 8.21003 13.6652C8.31552 13.7707 8.37478 13.9138 8.37478 14.0629V14.2958L15.6873 6.98332ZM7.28578 15.3848C7.26211 15.3219 7.24992 15.2552 7.24978 15.1879V14.6254H6.68728C6.5381 14.6254 6.39502 14.5662 6.28953 14.4607C6.18404 14.3552 6.12478 14.2121 6.12478 14.0629V13.5004H5.56228C5.4131 13.5004 5.27002 13.4412 5.16453 13.3357C5.05904 13.2302 4.99978 13.0871 4.99978 12.9379V12.3754H4.43728C4.2881 12.3754 4.14502 12.3162 4.03953 12.2107C3.93405 12.1052 3.87478 11.9621 3.87478 11.8129V11.2504H3.31228C3.24503 11.2503 3.17835 11.2381 3.11541 11.2144L2.91403 11.4147C2.86043 11.4687 2.81833 11.533 2.79028 11.6037L0.540282 17.2287C0.499365 17.3309 0.489348 17.4429 0.511474 17.5508C0.5336 17.6586 0.586895 17.7576 0.664753 17.8355C0.74261 17.9133 0.841605 17.9666 0.949466 17.9888C1.05733 18.0109 1.16931 18.0009 1.27153 17.9599L6.89653 15.7099C6.96725 15.6819 7.03155 15.6398 7.08553 15.5862L7.28578 15.3848Z" fill="#5C5342"/>
</g>
<defs>
<clipPath id="clip0_1536_11055">
<rect width="18" height="18" fill="white" transform="translate(0.5)"/>
</clipPath>
</defs>
</svg>
