<svg width="42" height="42" viewBox="0 0 42 42" fill="none" xmlns="http://www.w3.org/2000/svg">
<path d="M16.6255 26.2766C23.7424 26.2766 29.7505 27.4476 29.7505 31.9703C29.7505 36.493 23.7038 37.625 16.6255 37.625C9.5086 37.625 3.50049 36.4522 3.50049 31.9313C3.50049 27.4086 9.54538 26.2766 16.6255 26.2766ZM33.2487 13.125C34.1171 13.125 34.8219 13.8415 34.8219 14.7203V16.7788H36.9273C37.7939 16.7788 38.5005 17.4953 38.5005 18.3741C38.5005 19.2529 37.7939 19.9694 36.9273 19.9694H34.8219V22.0297C34.8219 22.9085 34.1171 23.625 33.2487 23.625C32.3821 23.625 31.6755 22.9085 31.6755 22.0297V19.9694H29.5737C28.7053 19.9694 28.0005 19.2529 28.0005 18.3741C28.0005 17.4953 28.7053 16.7788 29.5737 16.7788H31.6755V14.7203C31.6755 13.8415 32.3821 13.125 33.2487 13.125ZM16.6255 4.375C21.446 4.375 25.3101 8.2891 25.3101 13.172C25.3101 18.0548 21.446 21.9689 16.6255 21.9689C11.805 21.9689 7.94088 18.0548 7.94088 13.172C7.94088 8.2891 11.805 4.375 16.6255 4.375Z" fill="#5C5342"/>
</svg>
