<svg width="42" height="42" viewBox="0 0 42 42" fill="none" xmlns="http://www.w3.org/2000/svg">
<path d="M34.9821 33.1682C35.9571 33.1682 36.75 33.9715 36.75 34.9591C36.75 35.9486 35.9571 36.75 34.9821 36.75H24.9895C24.0145 36.75 23.2216 35.9486 23.2216 34.9591C23.2216 33.9715 24.0145 33.1682 24.9895 33.1682H34.9821ZM28.0522 6.47336L30.6335 8.52387C31.692 9.3516 32.3977 10.4427 32.6391 11.5902C32.9177 12.8525 32.6205 14.0922 31.7849 15.1645L16.4087 35.0488C15.703 35.9518 14.6631 36.4597 13.5489 36.4785L7.42069 36.5538C7.08643 36.5538 6.80787 36.328 6.73359 36.0082L5.34082 29.9696C5.09941 28.8597 5.34082 27.7121 6.04649 26.828L16.9472 12.719C17.1329 12.4932 17.4672 12.4575 17.69 12.6249L22.2769 16.2744C22.574 16.519 22.9826 16.6507 23.4097 16.5942C24.3196 16.4814 24.9324 15.6536 24.8396 14.7695C24.7839 14.318 24.561 13.9417 24.2639 13.6596C24.1711 13.5843 19.8071 10.0853 19.8071 10.0853C19.5285 9.85953 19.4728 9.44566 19.6956 9.16536L21.4227 6.92485C23.0197 4.87434 25.8052 4.68622 28.0522 6.47336Z" fill="#5C5342"/>
</svg>
