<svg width="20" height="18" viewBox="0 0 20 18" fill="none" xmlns="http://www.w3.org/2000/svg">
<path fill-rule="evenodd" clip-rule="evenodd" d="M15.5385 6.53977C15.8482 6.56527 16.0792 6.83602 16.0544 7.14577C16.0499 7.19677 15.6435 12.23 15.4095 14.3413C15.264 15.6515 14.3984 16.4488 13.0919 16.4728C12.0922 16.49 11.1277 16.4998 10.1849 16.4998C9.1687 16.4998 8.17795 16.4885 7.1977 16.4683C5.9437 16.4435 5.07595 15.6305 4.9342 14.3465C4.69795 12.2165 4.2937 7.19602 4.28995 7.14577C4.26445 6.83602 4.49545 6.56453 4.8052 6.53977C5.11045 6.53152 5.38645 6.74603 5.4112 7.05503C5.41359 7.08758 5.57886 9.1378 5.75895 11.1663L5.79512 11.5711C5.88582 12.5794 5.97777 13.5483 6.05245 14.2228C6.1327 14.9525 6.52645 15.329 7.22095 15.3433C9.09595 15.383 11.0092 15.3853 13.0717 15.3478C13.8097 15.3335 14.2087 14.9645 14.2912 14.2175C14.5237 12.122 14.9287 7.10603 14.9332 7.05503C14.9579 6.74603 15.2317 6.53003 15.5385 6.53977ZM11.7591 1.5C12.4475 1.5 13.0528 1.96425 13.2305 2.6295L13.4211 3.57525C13.4826 3.88528 13.7547 4.11169 14.0697 4.11667L16.531 4.11675C16.8415 4.11675 17.0935 4.36875 17.0935 4.67925C17.0935 4.98975 16.8415 5.24175 16.531 5.24175L14.0917 5.24164C14.0879 5.24171 14.0841 5.24175 14.0803 5.24175L14.062 5.241L6.28121 5.24166C6.27517 5.24172 6.26911 5.24175 6.26305 5.24175L6.2515 5.241L3.8125 5.24175C3.502 5.24175 3.25 4.98975 3.25 4.67925C3.25 4.36875 3.502 4.11675 3.8125 4.11675L6.27325 4.116L6.34902 4.1112C6.63123 4.07459 6.86578 3.86025 6.92305 3.57525L7.1053 2.66325C7.29055 1.96425 7.8958 1.5 8.5843 1.5H11.7591ZM11.7591 2.625H8.5843C8.4043 2.625 8.24605 2.74575 8.2003 2.919L8.02555 3.7965C8.00334 3.90765 7.971 4.01476 7.92961 4.11695H12.414C12.3725 4.01476 12.3401 3.90765 12.3178 3.7965L12.1355 2.8845C12.0973 2.74575 11.939 2.625 11.7591 2.625Z" fill="#10B7B7"/>
<path d="M7.75 7.5V14.25" stroke="#10B7B7" stroke-linecap="round"/>
<path d="M10 7.5V14.25" stroke="#10B7B7" stroke-linecap="round"/>
<path d="M12.25 7.5V14.25" stroke="#10B7B7" stroke-linecap="round"/>
</svg>
