<svg width="42" height="42" viewBox="0 0 42 42" fill="none" xmlns="http://www.w3.org/2000/svg">
<path d="M18.8258 5.25002C20.6517 5.25002 22.3546 6.56519 22.9694 8.67321C23.1951 9.55437 23.2868 10.4374 23.3749 11.2885L23.4575 12.0626C23.7731 14.6459 23.7731 27.3372 23.4575 29.9393L23.3749 30.7416C23.296 31.5514 23.2153 32.3893 22.9822 33.2836C22.3675 35.386 20.7288 36.75 18.868 36.75C18.8093 36.75 18.7506 36.75 18.6845 36.7481C17.6569 36.7481 16.5394 36.1168 15.9063 35.5664L9.73503 30.4203H6.5659C4.11979 30.4203 2.32878 28.6486 2.00398 25.9074C1.62963 23.1663 1.70303 18.4636 2.00398 15.9723C2.35814 13.3777 4.23356 11.5797 6.5659 11.5797H9.73503L15.7888 6.50883C16.5192 5.8738 17.8074 5.24628 18.8258 5.25002ZM33.7576 5.63688C34.488 5.11833 35.4917 5.30809 35.9927 6.05021C38.7379 10.0915 40.25 15.4029 40.25 20.9998C40.25 26.6005 38.7379 31.91 35.9927 35.9513C35.6936 36.3928 35.2 36.6578 34.6733 36.6578C34.3467 36.6578 34.031 36.5563 33.7594 36.3647C33.0328 35.8442 32.8529 34.8203 33.3557 34.0763C35.7303 30.578 37.0387 25.9336 37.0387 20.9998C37.0387 16.068 35.7303 11.4236 33.3557 7.92526C32.8529 7.18313 33.0328 6.15731 33.7576 5.63688ZM28.2246 10.9522C28.9568 10.4355 29.9569 10.6215 30.4615 11.3655C32.2342 13.9771 33.2122 17.3984 33.2122 21C33.2122 24.6017 32.2342 28.023 30.4615 30.6345C30.1606 31.076 29.6688 31.3409 29.1421 31.3409C28.8155 31.3409 28.498 31.2395 28.2264 31.0478C27.4997 30.5274 27.3199 29.5016 27.8245 28.7595C29.2283 26.6909 30.0009 23.9347 30.0009 21C30.0009 18.0635 29.2283 15.3091 27.8245 13.2406C27.3199 12.4984 27.4997 11.4726 28.2246 10.9522Z" fill="#539CB3"/>
</svg>
