<svg width="72" height="72" viewBox="0 0 72 72" fill="none" xmlns="http://www.w3.org/2000/svg">
<mask id="path-1-outside-1_904_9250" maskUnits="userSpaceOnUse" x="10.3984" y="3.2002" width="53" height="66" fill="black">
<rect fill="white" x="10.3984" y="3.2002" width="53" height="66"/>
<path fill-rule="evenodd" clip-rule="evenodd" d="M46.4582 16.4835H47.4151V41.9809C49.0332 41.9766 50.6362 42.293 52.1313 42.9118C53.6265 43.5307 54.9842 44.4396 56.126 45.5862C56.5696 46.0401 56.979 46.5262 57.3507 47.0406V16.4835H58.3688C58.6066 16.4825 58.8395 16.4163 59.0424 16.2921C59.2436 16.1611 59.4029 15.9752 59.5016 15.7563C59.6022 15.5392 59.637 15.2973 59.6016 15.0606C59.5663 14.8239 59.4623 14.6027 59.3026 14.4244L53.3474 7.61951C53.2313 7.48773 53.0875 7.38318 52.9264 7.31332C52.767 7.23881 52.5932 7.2002 52.4173 7.2002C52.2414 7.2002 52.0677 7.23881 51.9083 7.31332C51.7472 7.38318 51.6034 7.48773 51.4873 7.61951L45.5244 14.4244C45.3667 14.6037 45.2641 14.8247 45.2289 15.0608C45.1938 15.2969 45.2275 15.5382 45.3261 15.7557C45.4247 15.9731 45.584 16.1574 45.7848 16.2865C45.9857 16.4157 46.2195 16.4841 46.4582 16.4835ZM35.0658 54.3048C35.058 51.2875 36.1595 48.3725 38.1608 46.1144C40.1621 43.8562 42.9236 42.4124 45.92 42.0575V25.1945C45.92 24.5042 45.7839 23.8208 45.5196 23.1832C45.2552 22.5456 44.8677 21.9664 44.3793 21.4787C43.8909 20.991 43.3111 20.6044 42.6731 20.3409C42.0352 20.0775 41.3515 19.9424 40.6613 19.9434H19.6571C18.9669 19.9424 18.2833 20.0775 17.6453 20.3409C17.0073 20.6044 16.4276 20.991 15.9391 21.4787C15.4507 21.9664 15.0633 22.5456 14.7989 23.1832C14.5345 23.8208 14.3984 24.5042 14.3984 25.1945V56.739C14.3974 57.4299 14.5328 58.1141 14.7967 58.7526C15.0606 59.3911 15.4479 59.9712 15.9364 60.4597C16.4249 60.9482 17.0051 61.3355 17.6435 61.5995C18.282 61.8634 18.9663 61.9987 19.6571 61.9977H37.7985C36.0308 59.8236 35.0658 57.1069 35.0658 54.3048ZM21.3565 30.8359C21.6027 30.5912 21.9355 30.4537 22.2827 30.4532H38.0588C38.4059 30.4537 38.7387 30.5912 38.985 30.8359C39.2301 31.0849 39.3676 31.4203 39.3677 31.7698C39.3672 32.1169 39.2296 32.4498 38.985 32.696C38.8644 32.8195 38.7204 32.9177 38.5613 32.9848C38.4023 33.0518 38.2314 33.0864 38.0588 33.0863H22.2827C22.11 33.0864 21.9392 33.0518 21.7801 32.9848C21.621 32.9177 21.477 32.8195 21.3565 32.696C21.1097 32.4505 20.9694 32.1178 20.9661 31.7698C20.9691 31.4194 21.1092 31.0841 21.3565 30.8359ZM21.3565 36.0946C21.6027 35.8499 21.9355 35.7124 22.2827 35.7119H38.0588C38.3896 35.7371 38.6987 35.8864 38.9242 36.1298C39.1497 36.3732 39.275 36.6928 39.275 37.0246C39.275 37.3564 39.1497 37.676 38.9242 37.9194C38.6987 38.1628 38.3896 38.3121 38.0588 38.3374H22.2827C22.022 38.3392 21.7667 38.2631 21.5496 38.1189C21.3324 37.9748 21.1633 37.769 21.0638 37.5281C20.9643 37.2872 20.939 37.022 20.9911 36.7666C21.0433 36.5112 21.1705 36.2772 21.3565 36.0946ZM21.3565 41.3533C21.6027 41.1086 21.9355 40.9711 22.2827 40.9706H38.0588C38.3896 40.9958 38.6987 41.1451 38.9242 41.3885C39.1497 41.6319 39.275 41.9515 39.275 42.2833C39.275 42.6151 39.1497 42.9347 38.9242 43.1781C38.6987 43.4215 38.3896 43.5708 38.0588 43.5961H22.2827C22.022 43.5979 21.7667 43.5218 21.5496 43.3776C21.3324 43.2335 21.1633 43.0277 21.0638 42.7868C20.9643 42.5459 20.939 42.2807 20.9911 42.0253C21.0433 41.7699 21.1705 41.5359 21.3565 41.3533ZM31.1007 48.472C30.9779 48.5941 30.8322 48.6908 30.6719 48.7565C30.5117 48.8221 30.3401 48.8555 30.1669 48.8548H22.2827C21.9518 48.8295 21.6427 48.6802 21.4172 48.4368C21.1917 48.1934 21.0664 47.8738 21.0664 47.542C21.0664 47.2102 21.1917 46.8906 21.4172 46.6472C21.6427 46.4038 21.9518 46.2545 22.2827 46.2293H30.1669C30.4265 46.2296 30.6803 46.3068 30.8962 46.451C31.1122 46.5952 31.2807 46.8 31.3805 47.0398C31.4803 47.2795 31.507 47.5434 31.4572 47.7982C31.4074 48.0531 31.2834 48.2875 31.1007 48.472ZM55.5307 60.9722C57.0785 59.0944 57.9273 56.738 57.9324 54.3046C57.9357 52.9241 57.667 51.5565 57.1416 50.2799C56.6163 49.0032 55.8445 47.8426 54.8705 46.8643C53.1542 45.1393 50.8927 44.0629 48.4716 43.8184C46.0504 43.5739 43.6195 44.1766 41.5929 45.5237C39.5663 46.8708 38.0695 48.8789 37.3577 51.2059C36.6458 53.5329 36.7629 56.0347 37.689 58.2851C38.615 60.5354 40.2928 62.395 42.4363 63.5469C44.5798 64.6989 47.0565 65.0719 49.4442 64.6024C51.8319 64.1329 53.9829 62.8499 55.5307 60.9722ZM52.3828 50.1022C52.5049 50.1526 52.6165 50.2253 52.7119 50.3165H52.689C52.8705 50.5005 52.9746 50.7471 52.9799 51.0055C52.9791 51.2641 52.8807 51.5129 52.7043 51.702L47.4532 58.2543C47.3661 58.3522 47.2591 58.4305 47.1394 58.484C47.0183 58.537 46.8887 58.5681 46.7567 58.5758C46.6226 58.578 46.4896 58.5519 46.3663 58.4993C46.2427 58.4518 46.1306 58.3787 46.0372 58.285L42.562 54.8021C42.3868 54.6158 42.2908 54.3689 42.2941 54.1132C42.2993 53.8593 42.4037 53.6175 42.5849 53.4396C42.6735 53.3483 42.7793 53.2755 42.8963 53.2256C43.0132 53.1756 43.139 53.1495 43.2662 53.1487C43.5205 53.145 43.7668 53.238 43.9551 53.409L46.7031 56.1646L51.2958 50.3472C51.3815 50.2476 51.4889 50.169 51.6097 50.1175C51.7301 50.0634 51.8604 50.0347 51.9924 50.0333C52.1256 50.0325 52.2579 50.0558 52.3828 50.1022Z"/>
</mask>
<path fill-rule="evenodd" clip-rule="evenodd" d="M46.4582 16.4835H47.4151V41.9809C49.0332 41.9766 50.6362 42.293 52.1313 42.9118C53.6265 43.5307 54.9842 44.4396 56.126 45.5862C56.5696 46.0401 56.979 46.5262 57.3507 47.0406V16.4835H58.3688C58.6066 16.4825 58.8395 16.4163 59.0424 16.2921C59.2436 16.1611 59.4029 15.9752 59.5016 15.7563C59.6022 15.5392 59.637 15.2973 59.6016 15.0606C59.5663 14.8239 59.4623 14.6027 59.3026 14.4244L53.3474 7.61951C53.2313 7.48773 53.0875 7.38318 52.9264 7.31332C52.767 7.23881 52.5932 7.2002 52.4173 7.2002C52.2414 7.2002 52.0677 7.23881 51.9083 7.31332C51.7472 7.38318 51.6034 7.48773 51.4873 7.61951L45.5244 14.4244C45.3667 14.6037 45.2641 14.8247 45.2289 15.0608C45.1938 15.2969 45.2275 15.5382 45.3261 15.7557C45.4247 15.9731 45.584 16.1574 45.7848 16.2865C45.9857 16.4157 46.2195 16.4841 46.4582 16.4835ZM35.0658 54.3048C35.058 51.2875 36.1595 48.3725 38.1608 46.1144C40.1621 43.8562 42.9236 42.4124 45.92 42.0575V25.1945C45.92 24.5042 45.7839 23.8208 45.5196 23.1832C45.2552 22.5456 44.8677 21.9664 44.3793 21.4787C43.8909 20.991 43.3111 20.6044 42.6731 20.3409C42.0352 20.0775 41.3515 19.9424 40.6613 19.9434H19.6571C18.9669 19.9424 18.2833 20.0775 17.6453 20.3409C17.0073 20.6044 16.4276 20.991 15.9391 21.4787C15.4507 21.9664 15.0633 22.5456 14.7989 23.1832C14.5345 23.8208 14.3984 24.5042 14.3984 25.1945V56.739C14.3974 57.4299 14.5328 58.1141 14.7967 58.7526C15.0606 59.3911 15.4479 59.9712 15.9364 60.4597C16.4249 60.9482 17.0051 61.3355 17.6435 61.5995C18.282 61.8634 18.9663 61.9987 19.6571 61.9977H37.7985C36.0308 59.8236 35.0658 57.1069 35.0658 54.3048ZM21.3565 30.8359C21.6027 30.5912 21.9355 30.4537 22.2827 30.4532H38.0588C38.4059 30.4537 38.7387 30.5912 38.985 30.8359C39.2301 31.0849 39.3676 31.4203 39.3677 31.7698C39.3672 32.1169 39.2296 32.4498 38.985 32.696C38.8644 32.8195 38.7204 32.9177 38.5613 32.9848C38.4023 33.0518 38.2314 33.0864 38.0588 33.0863H22.2827C22.11 33.0864 21.9392 33.0518 21.7801 32.9848C21.621 32.9177 21.477 32.8195 21.3565 32.696C21.1097 32.4505 20.9694 32.1178 20.9661 31.7698C20.9691 31.4194 21.1092 31.0841 21.3565 30.8359ZM21.3565 36.0946C21.6027 35.8499 21.9355 35.7124 22.2827 35.7119H38.0588C38.3896 35.7371 38.6987 35.8864 38.9242 36.1298C39.1497 36.3732 39.275 36.6928 39.275 37.0246C39.275 37.3564 39.1497 37.676 38.9242 37.9194C38.6987 38.1628 38.3896 38.3121 38.0588 38.3374H22.2827C22.022 38.3392 21.7667 38.2631 21.5496 38.1189C21.3324 37.9748 21.1633 37.769 21.0638 37.5281C20.9643 37.2872 20.939 37.022 20.9911 36.7666C21.0433 36.5112 21.1705 36.2772 21.3565 36.0946ZM21.3565 41.3533C21.6027 41.1086 21.9355 40.9711 22.2827 40.9706H38.0588C38.3896 40.9958 38.6987 41.1451 38.9242 41.3885C39.1497 41.6319 39.275 41.9515 39.275 42.2833C39.275 42.6151 39.1497 42.9347 38.9242 43.1781C38.6987 43.4215 38.3896 43.5708 38.0588 43.5961H22.2827C22.022 43.5979 21.7667 43.5218 21.5496 43.3776C21.3324 43.2335 21.1633 43.0277 21.0638 42.7868C20.9643 42.5459 20.939 42.2807 20.9911 42.0253C21.0433 41.7699 21.1705 41.5359 21.3565 41.3533ZM31.1007 48.472C30.9779 48.5941 30.8322 48.6908 30.6719 48.7565C30.5117 48.8221 30.3401 48.8555 30.1669 48.8548H22.2827C21.9518 48.8295 21.6427 48.6802 21.4172 48.4368C21.1917 48.1934 21.0664 47.8738 21.0664 47.542C21.0664 47.2102 21.1917 46.8906 21.4172 46.6472C21.6427 46.4038 21.9518 46.2545 22.2827 46.2293H30.1669C30.4265 46.2296 30.6803 46.3068 30.8962 46.451C31.1122 46.5952 31.2807 46.8 31.3805 47.0398C31.4803 47.2795 31.507 47.5434 31.4572 47.7982C31.4074 48.0531 31.2834 48.2875 31.1007 48.472ZM55.5307 60.9722C57.0785 59.0944 57.9273 56.738 57.9324 54.3046C57.9357 52.9241 57.667 51.5565 57.1416 50.2799C56.6163 49.0032 55.8445 47.8426 54.8705 46.8643C53.1542 45.1393 50.8927 44.0629 48.4716 43.8184C46.0504 43.5739 43.6195 44.1766 41.5929 45.5237C39.5663 46.8708 38.0695 48.8789 37.3577 51.2059C36.6458 53.5329 36.7629 56.0347 37.689 58.2851C38.615 60.5354 40.2928 62.395 42.4363 63.5469C44.5798 64.6989 47.0565 65.0719 49.4442 64.6024C51.8319 64.1329 53.9829 62.8499 55.5307 60.9722ZM52.3828 50.1022C52.5049 50.1526 52.6165 50.2253 52.7119 50.3165H52.689C52.8705 50.5005 52.9746 50.7471 52.9799 51.0055C52.9791 51.2641 52.8807 51.5129 52.7043 51.702L47.4532 58.2543C47.3661 58.3522 47.2591 58.4305 47.1394 58.484C47.0183 58.537 46.8887 58.5681 46.7567 58.5758C46.6226 58.578 46.4896 58.5519 46.3663 58.4993C46.2427 58.4518 46.1306 58.3787 46.0372 58.285L42.562 54.8021C42.3868 54.6158 42.2908 54.3689 42.2941 54.1132C42.2993 53.8593 42.4037 53.6175 42.5849 53.4396C42.6735 53.3483 42.7793 53.2755 42.8963 53.2256C43.0132 53.1756 43.139 53.1495 43.2662 53.1487C43.5205 53.145 43.7668 53.238 43.9551 53.409L46.7031 56.1646L51.2958 50.3472C51.3815 50.2476 51.4889 50.169 51.6097 50.1175C51.7301 50.0634 51.8604 50.0347 51.9924 50.0333C52.1256 50.0325 52.2579 50.0558 52.3828 50.1022Z" fill="white"/>
<path d="M47.4151 16.4835H51.0151C51.0151 14.4953 49.4033 12.8835 47.4151 12.8835V16.4835ZM46.4582 16.4835L46.4582 12.8835L46.4501 12.8835L46.4582 16.4835ZM47.4151 41.9809H43.8151C43.8151 42.9374 44.1957 43.8545 44.8729 44.5299C45.5501 45.2053 46.4682 45.5835 47.4246 45.5809L47.4151 41.9809ZM52.1313 42.9118L53.508 39.5855L53.508 39.5855L52.1313 42.9118ZM56.126 45.5862L58.7004 43.0698C58.6926 43.0618 58.6848 43.0539 58.6769 43.046L56.126 45.5862ZM57.3507 47.0406L54.4329 49.1492C55.3474 50.4147 56.9733 50.9464 58.4588 50.4658C59.9443 49.9852 60.9507 48.6019 60.9507 47.0406H57.3507ZM57.3507 16.4835V12.8835C55.3625 12.8835 53.7507 14.4953 53.7507 16.4835H57.3507ZM58.3688 16.4835V20.0835C58.374 20.0835 58.3793 20.0835 58.3845 20.0835L58.3688 16.4835ZM59.0424 16.2921L60.9216 19.3627C60.9503 19.3452 60.9788 19.3272 61.007 19.3088L59.0424 16.2921ZM59.5016 15.7563L56.2351 14.2432C56.23 14.2542 56.225 14.2652 56.22 14.2762L59.5016 15.7563ZM59.3026 14.4244L56.5935 16.7953C56.6027 16.8057 56.6118 16.816 56.6211 16.8263L59.3026 14.4244ZM53.3474 7.61951L56.0565 5.24866L56.0485 5.23962L53.3474 7.61951ZM52.9264 7.31332L51.4015 10.5744C51.4323 10.5888 51.4633 10.6028 51.4945 10.6163L52.9264 7.31332ZM51.9083 7.31332L53.3402 10.6163C53.3714 10.6028 53.4024 10.5888 53.4332 10.5744L51.9083 7.31332ZM51.4873 7.61951L48.7862 5.23961L48.7797 5.24695L51.4873 7.61951ZM45.5244 14.4244L48.2274 16.8022L48.232 16.797L45.5244 14.4244ZM45.2289 15.0608L48.7897 15.5911L48.7897 15.5911L45.2289 15.0608ZM45.7848 16.2865L47.7317 13.2584L47.7317 13.2584L45.7848 16.2865ZM38.1608 46.1144L40.855 48.5021L40.855 48.5021L38.1608 46.1144ZM35.0658 54.3048L38.6658 54.3049L38.6658 54.2955L35.0658 54.3048ZM45.92 42.0575L46.3434 45.6325C48.1552 45.418 49.52 43.882 49.52 42.0575H45.92ZM44.3793 21.4787L41.8356 24.0261L41.8356 24.0262L44.3793 21.4787ZM42.6731 20.3409L41.2991 23.6684L41.2991 23.6684L42.6731 20.3409ZM40.6613 19.9434L40.6613 23.5434L40.6666 23.5434L40.6613 19.9434ZM19.6571 19.9434L19.6519 23.5434H19.6571V19.9434ZM15.9391 21.4787L13.3954 18.9313L13.3954 18.9313L15.9391 21.4787ZM14.7989 23.1832L18.1244 24.5621L18.1244 24.5621L14.7989 23.1832ZM14.3984 25.1945L17.9984 25.1945L17.9984 25.1945L14.3984 25.1945ZM14.3984 56.739L17.9984 56.7443V56.739H14.3984ZM14.7967 58.7526L11.4697 60.1278L11.4697 60.1278L14.7967 58.7526ZM17.6435 61.5995L19.0188 58.2725L19.0188 58.2725L17.6435 61.5995ZM19.6571 61.9977L19.6571 58.3977L19.6519 58.3977L19.6571 61.9977ZM37.7985 61.9977V65.5977C39.1875 65.5977 40.4526 64.7986 41.0493 63.5443C41.6461 62.29 41.468 60.8043 40.5917 59.7266L37.7985 61.9977ZM22.2827 30.4532L22.2827 26.8532L22.2776 26.8532L22.2827 30.4532ZM21.3565 30.8359L18.8188 28.2824C18.8144 28.2867 18.8101 28.2911 18.8057 28.2955L21.3565 30.8359ZM38.0588 30.4532L38.0639 26.8532H38.0588V30.4532ZM38.985 30.8359L41.5505 28.3104C41.5412 28.301 41.532 28.2917 41.5226 28.2824L38.985 30.8359ZM39.3677 31.7698L42.9677 31.7749L42.9677 31.7684L39.3677 31.7698ZM38.985 32.696L36.4315 30.1583C36.4235 30.1663 36.4156 30.1743 36.4078 30.1824L38.985 32.696ZM38.5613 32.9848L37.1631 29.6674L37.1631 29.6674L38.5613 32.9848ZM38.0588 33.0863L38.0591 29.4863H38.0588V33.0863ZM22.2827 33.0863L22.2827 29.4863L22.2823 29.4863L22.2827 33.0863ZM21.7801 32.9848L20.3819 36.3022L20.3819 36.3022L21.7801 32.9848ZM21.3565 32.696L23.9336 30.1824C23.9209 30.1693 23.908 30.1563 23.895 30.1434L21.3565 32.696ZM20.9661 31.7698L17.3662 31.739C17.366 31.7608 17.366 31.7826 17.3662 31.8044L20.9661 31.7698ZM22.2827 35.7119L22.2827 32.1119L22.2776 32.1119L22.2827 35.7119ZM21.3565 36.0946L23.8789 38.6631C23.884 38.6581 23.8891 38.6531 23.8941 38.6481L21.3565 36.0946ZM38.0588 35.7119L38.333 32.1223C38.2418 32.1154 38.1503 32.1119 38.0588 32.1119V35.7119ZM38.9242 36.1298L41.565 33.6831L41.565 33.6831L38.9242 36.1298ZM38.9242 37.9194L36.2834 35.4727L36.2834 35.4727L38.9242 37.9194ZM38.0588 38.3374V41.9374C38.1503 41.9374 38.2418 41.9339 38.3331 41.9269L38.0588 38.3374ZM22.2827 38.3374V34.7374C22.2744 34.7374 22.266 34.7374 22.2577 34.7375L22.2827 38.3374ZM20.9911 36.7666L24.5184 37.4868L24.5184 37.4868L20.9911 36.7666ZM22.2827 40.9706L22.2827 37.3706L22.2776 37.3706L22.2827 40.9706ZM21.3565 41.3533L23.8789 43.9218C23.884 43.9168 23.8891 43.9118 23.8941 43.9068L21.3565 41.3533ZM38.0588 40.9706L38.333 37.381C38.2418 37.3741 38.1503 37.3706 38.0588 37.3706V40.9706ZM38.9242 43.1781L41.565 45.6248L41.565 45.6248L38.9242 43.1781ZM38.0588 43.5961V47.1961C38.1503 47.1961 38.2418 47.1926 38.3331 47.1856L38.0588 43.5961ZM22.2827 43.5961V39.9961C22.2744 39.9961 22.266 39.9961 22.2577 39.9962L22.2827 43.5961ZM21.0638 42.7868L24.3912 41.4127L24.3912 41.4127L21.0638 42.7868ZM20.9911 42.0253L24.5184 42.7455L24.5184 42.7455L20.9911 42.0253ZM31.1007 48.472L33.6384 51.0255C33.6454 51.0186 33.6524 51.0116 33.6593 51.0046L31.1007 48.472ZM30.1669 48.8548L30.1827 45.2548C30.1774 45.2548 30.1721 45.2548 30.1669 45.2548L30.1669 48.8548ZM22.2827 48.8548L22.0083 52.4443C22.0996 52.4513 22.1911 52.4548 22.2827 52.4548V48.8548ZM21.4172 48.4368L18.7764 50.8835L18.7764 50.8835L21.4172 48.4368ZM21.4172 46.6472L18.7764 44.2005L18.7764 44.2005L21.4172 46.6472ZM22.2827 46.2293V42.6293C22.1911 42.6293 22.0996 42.6328 22.0083 42.6397L22.2827 46.2293ZM30.1669 46.2293L30.172 42.6293H30.1669V46.2293ZM31.3805 47.0398L28.057 48.4236L28.0571 48.4236L31.3805 47.0398ZM57.9324 54.3046L54.3324 54.296L54.3324 54.297L57.9324 54.3046ZM55.5307 60.9722L58.3087 63.2619L58.3087 63.2619L55.5307 60.9722ZM57.1416 50.2799L60.4707 48.9099L60.4707 48.9098L57.1416 50.2799ZM54.8705 46.8643L52.3186 49.4035L52.3193 49.4043L54.8705 46.8643ZM48.4716 43.8184L48.8332 40.2366L48.8332 40.2366L48.4716 43.8184ZM41.5929 45.5237L39.6 42.5256L39.6 42.5256L41.5929 45.5237ZM37.3577 51.2059L33.9152 50.1528L33.9152 50.1528L37.3577 51.2059ZM37.689 58.2851L34.3598 59.6551L34.3598 59.6551L37.689 58.2851ZM42.4363 63.5469L44.1405 60.3758L44.1405 60.3758L42.4363 63.5469ZM49.4442 64.6024L48.7496 61.07L48.7496 61.07L49.4442 64.6024ZM52.7119 50.3165V53.9165C54.1828 53.9165 55.5057 53.0217 56.0532 51.6566C56.6008 50.2914 56.2627 48.7305 55.1994 47.7141L52.7119 50.3165ZM52.3828 50.1022L53.7566 46.7747C53.7166 46.7581 53.6763 46.7424 53.6358 46.7273L52.3828 50.1022ZM52.689 50.3165V46.7165C51.2374 46.7165 49.9278 47.5883 49.3677 48.9275C48.8077 50.2667 49.1067 51.8113 50.1261 52.8447L52.689 50.3165ZM52.9799 51.0055L56.5798 51.016C56.5799 50.9879 56.5797 50.9599 56.5791 50.9318L52.9799 51.0055ZM52.7043 51.702L50.0715 49.2468C50.0102 49.3125 49.9513 49.3806 49.8951 49.4507L52.7043 51.702ZM47.4532 58.2543L50.1417 60.6486C50.1832 60.602 50.2234 60.5543 50.2625 60.5056L47.4532 58.2543ZM47.1394 58.484L48.5829 61.7819C48.5912 61.7783 48.5996 61.7746 48.608 61.7708L47.1394 58.484ZM46.7567 58.5758L46.8135 62.1754C46.8648 62.1746 46.9161 62.1727 46.9673 62.1697L46.7567 58.5758ZM46.3663 58.4993L47.7782 55.1877C47.7385 55.1708 47.6985 55.1546 47.6583 55.1391L46.3663 58.4993ZM46.0372 58.285L48.5876 55.7443L48.5855 55.7422L46.0372 58.285ZM42.562 54.8021L39.939 57.2679C39.9635 57.2939 39.9883 57.3196 40.0136 57.3449L42.562 54.8021ZM42.2941 54.1132L38.6948 54.0388C38.6946 54.0483 38.6945 54.0578 38.6943 54.0674L42.2941 54.1132ZM42.5849 53.4396L45.107 56.0085C45.1282 55.9876 45.1492 55.9665 45.17 55.9451L42.5849 53.4396ZM42.8963 53.2256L41.4827 49.9147L41.4826 49.9147L42.8963 53.2256ZM43.2662 53.1487L43.288 56.7487C43.2985 56.7486 43.309 56.7485 43.3195 56.7483L43.2662 53.1487ZM43.9551 53.409L46.5042 50.8669C46.4622 50.8248 46.4191 50.7837 46.3751 50.7437L43.9551 53.409ZM46.7031 56.1646L44.154 58.7067C44.8805 59.4352 45.8841 59.8181 46.9113 59.7586C47.9385 59.6991 48.8911 59.2029 49.5287 58.3954L46.7031 56.1646ZM51.2958 50.3472L48.5665 47.9997C48.5336 48.038 48.5015 48.0769 48.4703 48.1164L51.2958 50.3472ZM51.6097 50.1175L53.0212 53.4292C53.0432 53.4199 53.065 53.4103 53.0867 53.4005L51.6097 50.1175ZM51.9924 50.0333L51.9703 46.4334C51.9653 46.4334 51.9603 46.4335 51.9554 46.4335L51.9924 50.0333ZM47.4151 12.8835H46.4582V20.0835H47.4151V12.8835ZM51.0151 41.9809V16.4835H43.8151V41.9809H51.0151ZM53.508 39.5855C51.5734 38.7848 49.4993 38.3754 47.4055 38.3809L47.4246 45.5809C48.5671 45.5779 49.6989 45.8013 50.7546 46.2382L53.508 39.5855ZM58.6769 43.046C57.1995 41.5624 55.4427 40.3862 53.508 39.5855L50.7546 46.2382C51.8103 46.6751 52.7689 47.3169 53.5751 48.1265L58.6769 43.046ZM60.2686 44.932C59.7926 44.2734 59.2684 43.6509 58.7004 43.0698L53.5516 48.1027C53.8708 48.4293 54.1654 48.7791 54.4329 49.1492L60.2686 44.932ZM53.7507 16.4835V47.0406H60.9507V16.4835H53.7507ZM58.3688 12.8835H57.3507V20.0835H58.3688V12.8835ZM57.1631 13.2216C57.5214 13.0023 57.9329 12.8854 58.353 12.8835L58.3845 20.0835C59.2802 20.0796 60.1577 19.8303 60.9216 19.3627L57.1631 13.2216ZM56.22 14.2762C56.4043 13.8675 56.702 13.5202 57.0778 13.2755L61.007 19.3088C61.7851 18.8021 62.4015 18.0829 62.7833 17.2364L56.22 14.2762ZM56.0412 15.5926C55.9726 15.1335 56.04 14.6644 56.2351 14.2432L62.7682 17.2694C63.1645 16.4139 63.3014 15.461 63.1621 14.5285L56.0412 15.5926ZM56.6211 16.8263C56.3113 16.4806 56.1098 16.0516 56.0412 15.5926L63.1621 14.5285C63.0228 13.5961 62.6133 12.7249 61.9842 12.0225L56.6211 16.8263ZM50.6383 9.99034L56.5935 16.7953L62.0117 12.0536L56.0565 5.24868L50.6383 9.99034ZM51.4945 10.6163C51.1698 10.4756 50.8802 10.2649 50.6462 9.9994L56.0485 5.23962C55.5823 4.71053 55.0052 4.2908 54.3582 4.01034L51.4945 10.6163ZM52.4173 10.8002C52.0663 10.8002 51.7195 10.7231 51.4015 10.5744L54.4512 4.05221C53.8145 3.7545 53.1202 3.6002 52.4173 3.6002V10.8002ZM53.4332 10.5744C53.1151 10.7231 52.7684 10.8002 52.4173 10.8002V3.6002C51.7145 3.6002 51.0202 3.7545 50.3835 4.05221L53.4332 10.5744ZM54.1884 9.9994C53.9545 10.2649 53.6649 10.4756 53.3402 10.6163L50.4764 4.01034C49.8295 4.2908 49.2523 4.71053 48.7862 5.23962L54.1884 9.9994ZM48.232 16.797L54.1949 9.99206L48.7797 5.24695L42.8168 12.0519L48.232 16.797ZM48.7897 15.5911C48.7227 16.0405 48.5275 16.4611 48.2274 16.8022L42.8214 12.0466C42.2059 12.7463 41.8055 13.6088 41.6682 14.5305L48.7897 15.5911ZM48.6047 14.2687C48.7924 14.6825 48.8566 15.1417 48.7897 15.5911L41.6682 14.5305C41.5309 15.4522 41.6626 16.3939 42.0475 17.2426L48.6047 14.2687ZM47.7317 13.2584C48.1139 13.5041 48.417 13.8549 48.6047 14.2687L42.0475 17.2426C42.4324 18.0913 43.0542 18.8108 43.838 19.3147L47.7317 13.2584ZM46.4501 12.8835C46.9045 12.8825 47.3495 13.0127 47.7317 13.2584L43.838 19.3147C44.6218 19.8187 45.5345 20.0856 46.4664 20.0835L46.4501 12.8835ZM35.4666 43.7266C32.8796 46.6457 31.4557 50.4137 31.4658 54.3141L38.6658 54.2955C38.6603 52.1612 39.4394 50.0994 40.855 48.5021L35.4666 43.7266ZM45.4966 38.4825C41.6233 38.9412 38.0536 40.8076 35.4666 43.7266L40.855 48.5021C42.2706 46.9048 44.2239 45.8835 46.3434 45.6325L45.4966 38.4825ZM42.32 25.1945V42.0575H49.52V25.1945H42.32ZM42.1941 24.5621C42.2772 24.7625 42.32 24.9774 42.32 25.1945H49.52C49.52 24.0311 49.2906 22.879 48.845 21.8043L42.1941 24.5621ZM41.8356 24.0262C41.9892 24.1795 42.111 24.3616 42.1941 24.5621L48.845 21.8043C48.3994 20.7296 47.7463 19.7533 46.923 18.9313L41.8356 24.0262ZM41.2991 23.6684C41.4997 23.7512 41.682 23.8728 41.8356 24.0261L46.923 18.9313C46.0998 18.1092 45.1225 17.4575 44.0472 17.0135L41.2991 23.6684ZM40.6666 23.5434C40.8836 23.5431 41.0985 23.5856 41.2991 23.6684L44.0472 17.0135C42.9718 16.5694 41.8195 16.3417 40.6561 16.3434L40.6666 23.5434ZM19.6571 23.5434H40.6613V16.3434H19.6571V23.5434ZM19.0193 23.6684C19.2199 23.5856 19.4349 23.5431 19.6519 23.5434L19.6624 16.3434C18.499 16.3417 17.3466 16.5694 16.2713 17.0135L19.0193 23.6684ZM18.4829 24.0262C18.6364 23.8728 18.8187 23.7512 19.0193 23.6684L16.2713 17.0135C15.1959 17.4575 14.2187 18.1092 13.3954 18.9313L18.4829 24.0262ZM18.1244 24.5621C18.2075 24.3616 18.3293 24.1795 18.4829 24.0262L13.3954 18.9313C12.5722 19.7533 11.919 20.7296 11.4734 21.8043L18.1244 24.5621ZM17.9984 25.1945C17.9984 24.9774 18.0412 24.7626 18.1244 24.5621L11.4734 21.8043C11.0278 22.879 10.7984 24.0311 10.7984 25.1945L17.9984 25.1945ZM17.9984 56.739V25.1945H10.7984V56.739H17.9984ZM18.1237 57.3774C18.0407 57.1766 17.9981 56.9615 17.9984 56.7443L10.7984 56.7337C10.7967 57.8983 11.0249 59.0517 11.4697 60.1278L18.1237 57.3774ZM18.482 57.9141C18.3284 57.7605 18.2066 57.5781 18.1237 57.3774L11.4697 60.1278C11.9146 61.204 12.5674 62.1819 13.3908 63.0053L18.482 57.9141ZM19.0188 58.2725C18.818 58.1895 18.6356 58.0677 18.482 57.9141L13.3908 63.0053C14.2143 63.8287 15.1921 64.4816 16.2683 64.9264L19.0188 58.2725ZM19.6519 58.3977C19.4347 58.398 19.2195 58.3555 19.0188 58.2725L16.2683 64.9264C17.3445 65.3713 18.4979 65.5994 19.6624 65.5977L19.6519 58.3977ZM37.7985 58.3977H19.6571V65.5977H37.7985V58.3977ZM31.4658 54.3048C31.4657 57.9341 32.7156 61.4528 35.0053 64.2688L40.5917 59.7266C39.3459 58.1943 38.6658 56.2797 38.6658 54.3049L31.4658 54.3048ZM22.2776 26.8532C20.9813 26.855 19.7382 27.3687 18.8188 28.2824L23.8941 33.3894C23.4671 33.8137 22.8898 34.0523 22.2878 34.0532L22.2776 26.8532ZM38.0588 26.8532H22.2827V34.0532H38.0588V26.8532ZM41.5226 28.2824C40.6032 27.3687 39.3601 26.855 38.0639 26.8532L38.0537 34.0532C37.4516 34.0523 36.8743 33.8137 36.4473 33.3894L41.5226 28.2824ZM42.9677 31.7684C42.9672 30.4745 42.4582 29.2325 41.5505 28.3104L36.4194 33.3614C36.002 32.9373 35.7679 32.3662 35.7677 31.7711L42.9677 31.7684ZM41.5384 35.2336C42.4522 34.3142 42.9658 33.0711 42.9677 31.7749L35.7677 31.7647C35.7685 31.1626 36.0071 30.5853 36.4315 30.1583L41.5384 35.2336ZM39.9595 36.3022C40.5613 36.0485 41.1062 35.6771 41.5621 35.2096L36.4078 30.1824C36.6227 29.962 36.8795 29.7869 37.1631 29.6674L39.9595 36.3022ZM38.0584 36.6863C38.7114 36.6864 39.3578 36.5558 39.9596 36.3022L37.1631 29.6674C37.4467 29.5479 37.7513 29.4863 38.0591 29.4863L38.0584 36.6863ZM22.2827 36.6863H38.0588V29.4863H22.2827V36.6863ZM20.3819 36.3022C20.9836 36.5558 21.63 36.6864 22.283 36.6863L22.2823 29.4863C22.5901 29.4863 22.8947 29.5479 23.1783 29.6674L20.3819 36.3022ZM18.7793 35.2096C19.2353 35.6771 19.7801 36.0485 20.3819 36.3022L23.1783 29.6674C23.4619 29.7869 23.7187 29.962 23.9336 30.1824L18.7793 35.2096ZM17.3662 31.8044C17.3787 33.0986 17.9002 34.3359 18.8179 35.2485L23.895 30.1434C24.3191 30.5652 24.5601 31.137 24.5659 31.7351L17.3662 31.8044ZM18.8057 28.2955C17.894 29.2109 17.3772 30.4471 17.3662 31.739L24.5659 31.8005C24.5609 32.3917 24.3244 32.9574 23.9072 33.3763L18.8057 28.2955ZM22.2776 32.1119C20.9813 32.1137 19.7382 32.6274 18.8188 33.5411L23.8941 38.6481C23.4671 39.0724 22.8898 39.311 22.2878 39.3119L22.2776 32.1119ZM38.0588 32.1119H22.2827V39.3119H38.0588V32.1119ZM41.565 33.6831C40.7229 32.7742 39.5686 32.2167 38.333 32.1223L37.7845 39.3014C37.2106 39.2576 36.6746 38.9987 36.2834 38.5765L41.565 33.6831ZM42.875 37.0246C42.875 35.7855 42.4071 34.5921 41.565 33.6831L36.2834 38.5765C35.8923 38.1544 35.675 37.6001 35.675 37.0246H42.875ZM41.565 40.3661C42.4071 39.4572 42.875 38.2637 42.875 37.0246H35.675C35.675 36.4491 35.8923 35.8949 36.2834 35.4727L41.565 40.3661ZM38.3331 41.9269C39.5686 41.8325 40.7229 41.2751 41.565 40.3661L36.2834 35.4727C36.6746 35.0506 37.2106 34.7917 37.7844 34.7479L38.3331 41.9269ZM22.2827 41.9374H38.0588V34.7374H22.2827V41.9374ZM19.5583 41.1181C20.3727 41.6588 21.33 41.9441 22.3076 41.9373L22.2577 34.7375C22.714 34.7343 23.1608 34.8675 23.5409 35.1198L19.5583 41.1181ZM17.7363 38.9022C18.1095 39.8058 18.7439 40.5774 19.5583 41.1181L23.5409 35.1198C23.921 35.3722 24.2171 35.7323 24.3912 36.154L17.7363 38.9022ZM17.4639 36.0465C17.2683 37.0043 17.3632 37.9987 17.7363 38.9022L24.3912 36.154C24.5654 36.5757 24.6096 37.0398 24.5184 37.4868L17.4639 36.0465ZM18.834 33.5261C18.1365 34.2111 17.6595 35.0887 17.4639 36.0465L24.5184 37.4868C24.4271 37.9338 24.2044 38.3434 23.8789 38.6631L18.834 33.5261ZM22.2776 37.3706C20.9813 37.3724 19.7382 37.8861 18.8188 38.7998L23.8941 43.9068C23.4671 44.3311 22.8898 44.5697 22.2878 44.5706L22.2776 37.3706ZM38.0588 37.3706H22.2827V44.5706H38.0588V37.3706ZM41.565 38.9418C40.7229 38.0329 39.5686 37.4754 38.333 37.381L37.7845 44.5601C37.2106 44.5163 36.6745 44.2573 36.2834 43.8352L41.565 38.9418ZM42.875 42.2833C42.875 41.0442 42.4071 39.8508 41.565 38.9418L36.2834 43.8352C35.8923 43.4131 35.675 42.8588 35.675 42.2833H42.875ZM41.565 45.6248C42.4071 44.7159 42.875 43.5224 42.875 42.2833H35.675C35.675 41.7078 35.8923 41.1536 36.2834 40.7314L41.565 45.6248ZM38.3331 47.1856C39.5686 47.0912 40.7229 46.5338 41.565 45.6248L36.2835 40.7314C36.6746 40.3093 37.2106 40.0504 37.7844 40.0066L38.3331 47.1856ZM22.2827 47.1961H38.0588V39.9961H22.2827V47.1961ZM19.5583 46.3768C20.3727 46.9175 21.33 47.2028 22.3076 47.196L22.2577 39.9962C22.714 39.993 23.1608 40.1262 23.5409 40.3785L19.5583 46.3768ZM17.7363 44.1609C18.1095 45.0645 18.7439 45.8361 19.5583 46.3768L23.5409 40.3785C23.9209 40.6309 24.217 40.991 24.3912 41.4127L17.7363 44.1609ZM17.4639 41.3052C17.2683 42.263 17.3632 43.2574 17.7364 44.1609L24.3912 41.4127C24.5654 41.8344 24.6096 42.2985 24.5184 42.7455L17.4639 41.3052ZM18.834 38.7848C18.1365 39.4698 17.6595 40.3474 17.4639 41.3052L24.5184 42.7455C24.4271 43.1925 24.2044 43.6021 23.8789 43.9218L18.834 38.7848ZM32.0371 52.0876C32.6356 51.8423 33.1797 51.4814 33.6384 51.0255L28.5631 45.9186C28.7761 45.7069 29.0288 45.5393 29.3068 45.4253L32.0371 52.0876ZM30.1511 52.4547C30.7978 52.4576 31.4387 52.3328 32.0371 52.0876L29.3068 45.4253C29.5847 45.3114 29.8823 45.2535 30.1827 45.2548L30.1511 52.4547ZM22.2827 52.4548H30.1669V45.2548H22.2827V52.4548ZM18.7764 50.8835C19.6186 51.7925 20.7729 52.3499 22.0083 52.4443L22.557 45.2652C23.1308 45.3091 23.6668 45.568 24.058 45.9901L18.7764 50.8835ZM17.4664 47.542C17.4664 48.7811 17.9343 49.9746 18.7764 50.8835L24.058 45.9901C24.4491 46.4123 24.6664 46.9665 24.6664 47.542H17.4664ZM18.7764 44.2005C17.9343 45.1095 17.4664 46.3029 17.4664 47.542H24.6664C24.6664 48.1175 24.4491 48.6718 24.058 49.0939L18.7764 44.2005ZM22.0083 42.6397C20.7729 42.7341 19.6186 43.2916 18.7764 44.2005L24.058 49.0939C23.6668 49.5161 23.1308 49.7749 22.557 49.8188L22.0083 42.6397ZM30.1669 42.6293H22.2827V49.8293H30.1669V42.6293ZM32.8956 43.4572C32.0892 42.9187 31.1416 42.6306 30.172 42.6293L30.1618 49.8293C29.7115 49.8286 29.2714 49.6948 28.8969 49.4447L32.8956 43.4572ZM34.7039 45.656C34.3311 44.7607 33.702 43.9958 32.8956 43.4572L28.8969 49.4447C28.5224 49.1946 28.2302 48.8393 28.057 48.4236L34.7039 45.656ZM34.9905 48.4882C35.1763 47.5366 35.0766 46.5511 34.7039 45.6559L28.0571 48.4236C27.8839 48.0078 27.8376 47.5502 27.924 47.1082L34.9905 48.4882ZM33.6593 51.0046C34.3414 50.3155 34.8046 49.44 34.9905 48.4882L27.924 47.1082C28.0103 46.6661 28.2254 46.2595 28.5422 45.9395L33.6593 51.0046ZM54.3324 54.297C54.329 55.8975 53.7708 57.4474 52.7528 58.6824L58.3087 63.2619C60.3862 60.7414 61.5255 57.5785 61.5324 54.3121L54.3324 54.297ZM53.8125 51.6499C54.1579 52.4892 54.3346 53.3883 54.3324 54.296L61.5324 54.3132C61.5368 52.4598 61.1761 50.6238 60.4707 48.9099L53.8125 51.6499ZM52.3193 49.4043C52.9597 50.0475 53.4671 50.8105 53.8125 51.6499L60.4707 48.9098C59.7654 47.1959 58.7294 45.6378 57.4217 44.3244L52.3193 49.4043ZM48.1099 47.4002C49.7023 47.561 51.1897 48.269 52.3186 49.4035L57.4225 44.3251C55.1186 42.0097 52.0831 40.5647 48.8332 40.2366L48.1099 47.4002ZM43.5857 48.5218C44.9186 47.6358 46.5175 47.2394 48.1099 47.4002L48.8332 40.2366C45.5834 39.9085 42.3203 40.7174 39.6 42.5256L43.5857 48.5218ZM40.8002 52.259C41.2684 50.7285 42.2528 49.4077 43.5857 48.5218L39.6 42.5256C36.8798 44.3338 34.8707 47.0293 33.9152 50.1528L40.8002 52.259ZM41.0181 56.9151C40.409 55.435 40.332 53.7895 40.8002 52.259L33.9152 50.1528C32.9596 53.2763 33.1168 56.6345 34.3598 59.6551L41.0181 56.9151ZM44.1405 60.3758C42.7306 59.6182 41.6272 58.3951 41.0181 56.9151L34.3598 59.6551C35.6029 62.6757 37.8549 65.1718 40.7321 66.718L44.1405 60.3758ZM48.7496 61.07C47.1792 61.3788 45.5503 61.1335 44.1405 60.3758L40.7321 66.718C43.6094 68.2643 46.9338 68.7649 50.1388 68.1347L48.7496 61.07ZM52.7528 58.6824C51.7348 59.9174 50.3201 60.7612 48.7496 61.07L50.1388 68.1347C53.3438 67.5045 56.2311 65.7824 58.3087 63.2619L52.7528 58.6824ZM55.1994 47.7141C54.781 47.3142 54.2918 46.9956 53.7566 46.7747L51.009 53.4298C50.718 53.3096 50.452 53.1364 50.2245 52.9189L55.1994 47.7141ZM52.689 53.9165H52.7119V46.7165H52.689V53.9165ZM56.5791 50.9318C56.555 49.7528 56.08 48.6279 55.2519 47.7884L50.1261 52.8447C49.6609 52.3732 49.3942 51.7413 49.3806 51.0791L56.5791 50.9318ZM55.3371 54.1573C56.1326 53.3043 56.5764 52.1823 56.5798 51.016L49.3799 50.9949C49.3818 50.3459 49.6288 49.7215 50.0715 49.2468L55.3371 54.1573ZM50.2625 60.5056L55.5135 53.9533L49.8951 49.4507L44.644 56.003L50.2625 60.5056ZM48.608 61.7708C49.1929 61.5095 49.7156 61.127 50.1417 60.6486L44.7648 55.8601C45.0165 55.5775 45.3253 55.3515 45.6708 55.1971L48.608 61.7708ZM46.9673 62.1697C47.5245 62.137 48.0715 62.0057 48.5829 61.7819L45.696 55.186C45.965 55.0683 46.2529 54.9992 46.5461 54.982L46.9673 62.1697ZM44.9544 61.8109C45.5416 62.0612 46.175 62.1855 46.8135 62.1754L46.6998 54.9763C47.0703 54.9704 47.4376 55.0425 47.7782 55.1877L44.9544 61.8109ZM43.4867 60.8256C43.9373 61.278 44.4783 61.6303 45.0743 61.8595L47.6583 55.1391C48.0072 55.2733 48.3238 55.4795 48.5876 55.7443L43.4867 60.8256ZM40.0136 57.3449L43.4888 60.8277L48.5855 55.7422L45.1104 52.2593L40.0136 57.3449ZM38.6943 54.0674C38.6792 55.2551 39.1254 56.4024 39.939 57.2679L45.1849 52.3363C45.6483 52.8292 45.9024 53.4826 45.8938 54.1591L38.6943 54.0674ZM40.0629 50.8707C39.2105 51.7075 38.7195 52.8446 38.6948 54.0388L45.8933 54.1876C45.8791 54.874 45.5969 55.5276 45.107 56.0085L40.0629 50.8707ZM41.4826 49.9147C40.9256 50.1526 40.4215 50.4991 39.9999 50.9341L45.17 55.9451C44.9254 56.1975 44.633 56.3984 44.3099 56.5364L41.4826 49.9147ZM43.2444 49.5488C42.6386 49.5525 42.0397 49.6769 41.4827 49.9147L44.3098 56.5364C43.9868 56.6744 43.6394 56.7465 43.288 56.7487L43.2444 49.5488ZM46.3751 50.7437C45.5107 49.9589 44.3803 49.5318 43.2129 49.5491L43.3195 56.7483C42.6607 56.7581 42.0229 56.5171 41.5351 56.0743L46.3751 50.7437ZM49.2522 53.6226L46.5042 50.8669L41.406 55.951L44.154 58.7067L49.2522 53.6226ZM48.4703 48.1164L43.8775 53.9339L49.5287 58.3954L54.1214 52.5779L48.4703 48.1164ZM50.1981 46.8058C49.5701 47.0735 49.0118 47.4819 48.5665 47.9997L54.0252 52.6946C53.7512 53.0132 53.4077 53.2645 53.0212 53.4292L50.1981 46.8058ZM51.9554 46.4335C51.3265 46.44 50.706 46.5765 50.1326 46.8345L53.0867 53.4005C52.7542 53.5502 52.3942 53.6294 52.0294 53.6331L51.9554 46.4335ZM53.6358 46.7273C53.103 46.5295 52.5387 46.4299 51.9703 46.4334L52.0146 53.6333C51.7126 53.6351 51.4129 53.5822 51.1298 53.4771L53.6358 46.7273Z" fill="#9F9F9F" mask="url(#path-1-outside-1_904_9250)"/>
</svg>
