<svg width="42" height="42" viewBox="0 0 42 42" fill="none" xmlns="http://www.w3.org/2000/svg">
<mask id="path-1-outside-1_883_9523" maskUnits="userSpaceOnUse" x="5.39844" y="1.2002" width="32" height="39" fill="black">
<rect fill="white" x="5.39844" y="1.2002" width="32" height="39"/>
<path fill-rule="evenodd" clip-rule="evenodd" d="M27.0992 9.61546H27.6574V24.489C28.6013 24.4864 29.5363 24.671 30.4085 25.032C31.2807 25.393 32.0727 25.9232 32.7387 26.5921C32.9975 26.8568 33.2363 27.1404 33.4531 27.4404V9.61546H34.047C34.1857 9.61486 34.3216 9.57625 34.44 9.50383C34.5573 9.42741 34.6503 9.31893 34.7079 9.19127C34.7665 9.06459 34.7868 8.92349 34.7662 8.78541C34.7456 8.64734 34.6849 8.51833 34.5918 8.41433L31.1179 4.44479C31.0501 4.36792 30.9663 4.30694 30.8723 4.26619C30.7793 4.22272 30.678 4.2002 30.5753 4.2002C30.4727 4.2002 30.3714 4.22272 30.2784 4.26619C30.1844 4.30694 30.1006 4.36792 30.0328 4.44479L26.5545 8.41433C26.4625 8.5189 26.4026 8.6478 26.3821 8.78555C26.3616 8.9233 26.3813 9.06405 26.4388 9.19088C26.4963 9.31772 26.5892 9.42525 26.7064 9.50057C26.8235 9.57588 26.9599 9.61578 27.0992 9.61546ZM20.4544 31.6779C20.4499 29.9178 21.0924 28.2174 22.2598 26.9001C23.4272 25.5828 25.0381 24.7406 26.786 24.5336V14.6968C26.786 14.2942 26.7066 13.8955 26.5524 13.5236C26.3982 13.1517 26.1722 12.8138 25.8873 12.5293C25.6024 12.2448 25.2642 12.0193 24.892 11.8656C24.5199 11.7119 24.1211 11.6331 23.7184 11.6337H11.466C11.0634 11.6331 10.6646 11.7119 10.2924 11.8656C9.92029 12.0193 9.58209 12.2448 9.29718 12.5293C9.01227 12.8138 8.78625 13.1517 8.63203 13.5236C8.47782 13.8955 8.39844 14.2942 8.39844 14.6968V33.0978C8.39785 33.5008 8.4768 33.9 8.63075 34.2724C8.7847 34.6449 9.01063 34.9833 9.2956 35.2682C9.58057 35.5532 9.91897 35.7791 10.2914 35.9331C10.6639 36.087 11.063 36.166 11.466 36.1654H22.0485C21.0173 34.8971 20.4544 33.3125 20.4544 31.6779ZM12.4573 17.9877C12.6009 17.8449 12.7951 17.7647 12.9976 17.7644H22.2003C22.4028 17.7647 22.597 17.8449 22.7406 17.9877C22.8836 18.1329 22.9638 18.3286 22.9638 18.5324C22.9635 18.7349 22.8833 18.9291 22.7406 19.0727C22.6703 19.1448 22.5862 19.2021 22.4935 19.2412C22.4007 19.2803 22.301 19.3004 22.2003 19.3004H12.9976C12.8969 19.3004 12.7972 19.2803 12.7044 19.2412C12.6116 19.2021 12.5276 19.1448 12.4573 19.0727C12.3133 18.9295 12.2315 18.7354 12.2296 18.5324C12.2313 18.328 12.3131 18.1325 12.4573 17.9877ZM12.4573 21.0552C12.6009 20.9125 12.7951 20.8323 12.9976 20.832H22.2003C22.3933 20.8467 22.5736 20.9338 22.7051 21.0758C22.8367 21.2178 22.9098 21.4042 22.9098 21.5978C22.9098 21.7913 22.8367 21.9777 22.7051 22.1197C22.5736 22.2617 22.3933 22.3488 22.2003 22.3635H12.9976C12.8455 22.3646 12.6966 22.3202 12.5699 22.2361C12.4433 22.152 12.3446 22.032 12.2866 21.8915C12.2285 21.7509 12.2138 21.5963 12.2442 21.4473C12.2746 21.2983 12.3488 21.1618 12.4573 21.0552ZM12.4573 24.1228C12.6009 23.9801 12.7951 23.8998 12.9976 23.8996H22.2003C22.3933 23.9143 22.5736 24.0014 22.7051 24.1434C22.8367 24.2854 22.9098 24.4718 22.9098 24.6653C22.9098 24.8589 22.8367 25.0453 22.7051 25.1873C22.5736 25.3293 22.3933 25.4164 22.2003 25.4311H12.9976C12.8455 25.4322 12.6966 25.3878 12.5699 25.3037C12.4433 25.2196 12.3446 25.0996 12.2866 24.959C12.2285 24.8185 12.2138 24.6638 12.2442 24.5148C12.2746 24.3659 12.3488 24.2294 12.4573 24.1228ZM18.1414 28.2754C18.0698 28.3466 17.9848 28.403 17.8913 28.4413C17.7978 28.4796 17.6977 28.4991 17.5967 28.4987H12.9976C12.8046 28.4839 12.6243 28.3969 12.4927 28.2549C12.3612 28.1129 12.2881 27.9265 12.2881 27.7329C12.2881 27.5394 12.3612 27.3529 12.4927 27.2109C12.6243 27.069 12.8046 26.9819 12.9976 26.9671H17.5967C17.7482 26.9673 17.8962 27.0123 18.0222 27.0965C18.1481 27.1806 18.2464 27.3001 18.3046 27.4399C18.3628 27.5798 18.3784 27.7337 18.3494 27.8824C18.3204 28.031 18.248 28.1678 18.1414 28.2754ZM32.3932 35.5672C33.296 34.4718 33.7911 33.0973 33.7941 31.6778C33.796 30.8725 33.6393 30.0747 33.3328 29.33C33.0264 28.5853 32.5762 27.9083 32.008 27.3376C31.0068 26.3314 29.6876 25.7034 28.2753 25.5608C26.863 25.4182 25.4449 25.7698 24.2627 26.5556C23.0806 27.3414 22.2075 28.5128 21.7922 29.8702C21.3769 31.2276 21.4452 32.687 21.9854 33.9997C22.5257 35.3124 23.5043 36.3972 24.7547 37.0691C26.0051 37.7411 27.4498 37.9587 28.8427 37.6848C30.2355 37.4109 31.4903 36.6625 32.3932 35.5672ZM30.5569 29.2264C30.6281 29.2558 30.6932 29.2982 30.7489 29.3514H30.7355C30.8413 29.4587 30.9021 29.6025 30.9051 29.7533C30.9047 29.9041 30.8473 30.0493 30.7444 30.1596L27.6813 33.9818C27.6304 34.0389 27.568 34.0846 27.4982 34.1157C27.4275 34.1467 27.352 34.1648 27.275 34.1693C27.1968 34.1706 27.1192 34.1553 27.0472 34.1247C26.9751 34.097 26.9097 34.0544 26.8552 33.9997L24.828 31.968C24.7259 31.8593 24.6699 31.7153 24.6718 31.5661C24.6748 31.418 24.7357 31.277 24.8414 31.1732C24.8931 31.1199 24.9548 31.0775 25.023 31.0483C25.0913 31.0192 25.1646 31.004 25.2388 31.0035C25.3872 31.0013 25.5308 31.0556 25.6407 31.1553L27.2437 32.7628L29.9228 29.3693C29.9728 29.3112 30.0354 29.2654 30.1059 29.2353C30.1761 29.2037 30.2521 29.187 30.3291 29.1862C30.4068 29.1857 30.484 29.1993 30.5569 29.2264Z"/>
</mask>
<path fill-rule="evenodd" clip-rule="evenodd" d="M27.0992 9.61546H27.6574V24.489C28.6013 24.4864 29.5363 24.671 30.4085 25.032C31.2807 25.393 32.0727 25.9232 32.7387 26.5921C32.9975 26.8568 33.2363 27.1404 33.4531 27.4404V9.61546H34.047C34.1857 9.61486 34.3216 9.57625 34.44 9.50383C34.5573 9.42741 34.6503 9.31893 34.7079 9.19127C34.7665 9.06459 34.7868 8.92349 34.7662 8.78541C34.7456 8.64734 34.6849 8.51833 34.5918 8.41433L31.1179 4.44479C31.0501 4.36792 30.9663 4.30694 30.8723 4.26619C30.7793 4.22272 30.678 4.2002 30.5753 4.2002C30.4727 4.2002 30.3714 4.22272 30.2784 4.26619C30.1844 4.30694 30.1006 4.36792 30.0328 4.44479L26.5545 8.41433C26.4625 8.5189 26.4026 8.6478 26.3821 8.78555C26.3616 8.9233 26.3813 9.06405 26.4388 9.19088C26.4963 9.31772 26.5892 9.42525 26.7064 9.50057C26.8235 9.57588 26.9599 9.61578 27.0992 9.61546ZM20.4544 31.6779C20.4499 29.9178 21.0924 28.2174 22.2598 26.9001C23.4272 25.5828 25.0381 24.7406 26.786 24.5336V14.6968C26.786 14.2942 26.7066 13.8955 26.5524 13.5236C26.3982 13.1517 26.1722 12.8138 25.8873 12.5293C25.6024 12.2448 25.2642 12.0193 24.892 11.8656C24.5199 11.7119 24.1211 11.6331 23.7184 11.6337H11.466C11.0634 11.6331 10.6646 11.7119 10.2924 11.8656C9.92029 12.0193 9.58209 12.2448 9.29718 12.5293C9.01227 12.8138 8.78625 13.1517 8.63203 13.5236C8.47782 13.8955 8.39844 14.2942 8.39844 14.6968V33.0978C8.39785 33.5008 8.4768 33.9 8.63075 34.2724C8.7847 34.6449 9.01063 34.9833 9.2956 35.2682C9.58057 35.5532 9.91897 35.7791 10.2914 35.9331C10.6639 36.087 11.063 36.166 11.466 36.1654H22.0485C21.0173 34.8971 20.4544 33.3125 20.4544 31.6779ZM12.4573 17.9877C12.6009 17.8449 12.7951 17.7647 12.9976 17.7644H22.2003C22.4028 17.7647 22.597 17.8449 22.7406 17.9877C22.8836 18.1329 22.9638 18.3286 22.9638 18.5324C22.9635 18.7349 22.8833 18.9291 22.7406 19.0727C22.6703 19.1448 22.5862 19.2021 22.4935 19.2412C22.4007 19.2803 22.301 19.3004 22.2003 19.3004H12.9976C12.8969 19.3004 12.7972 19.2803 12.7044 19.2412C12.6116 19.2021 12.5276 19.1448 12.4573 19.0727C12.3133 18.9295 12.2315 18.7354 12.2296 18.5324C12.2313 18.328 12.3131 18.1325 12.4573 17.9877ZM12.4573 21.0552C12.6009 20.9125 12.7951 20.8323 12.9976 20.832H22.2003C22.3933 20.8467 22.5736 20.9338 22.7051 21.0758C22.8367 21.2178 22.9098 21.4042 22.9098 21.5978C22.9098 21.7913 22.8367 21.9777 22.7051 22.1197C22.5736 22.2617 22.3933 22.3488 22.2003 22.3635H12.9976C12.8455 22.3646 12.6966 22.3202 12.5699 22.2361C12.4433 22.152 12.3446 22.032 12.2866 21.8915C12.2285 21.7509 12.2138 21.5963 12.2442 21.4473C12.2746 21.2983 12.3488 21.1618 12.4573 21.0552ZM12.4573 24.1228C12.6009 23.9801 12.7951 23.8998 12.9976 23.8996H22.2003C22.3933 23.9143 22.5736 24.0014 22.7051 24.1434C22.8367 24.2854 22.9098 24.4718 22.9098 24.6653C22.9098 24.8589 22.8367 25.0453 22.7051 25.1873C22.5736 25.3293 22.3933 25.4164 22.2003 25.4311H12.9976C12.8455 25.4322 12.6966 25.3878 12.5699 25.3037C12.4433 25.2196 12.3446 25.0996 12.2866 24.959C12.2285 24.8185 12.2138 24.6638 12.2442 24.5148C12.2746 24.3659 12.3488 24.2294 12.4573 24.1228ZM18.1414 28.2754C18.0698 28.3466 17.9848 28.403 17.8913 28.4413C17.7978 28.4796 17.6977 28.4991 17.5967 28.4987H12.9976C12.8046 28.4839 12.6243 28.3969 12.4927 28.2549C12.3612 28.1129 12.2881 27.9265 12.2881 27.7329C12.2881 27.5394 12.3612 27.3529 12.4927 27.2109C12.6243 27.069 12.8046 26.9819 12.9976 26.9671H17.5967C17.7482 26.9673 17.8962 27.0123 18.0222 27.0965C18.1481 27.1806 18.2464 27.3001 18.3046 27.4399C18.3628 27.5798 18.3784 27.7337 18.3494 27.8824C18.3204 28.031 18.248 28.1678 18.1414 28.2754ZM32.3932 35.5672C33.296 34.4718 33.7911 33.0973 33.7941 31.6778C33.796 30.8725 33.6393 30.0747 33.3328 29.33C33.0264 28.5853 32.5762 27.9083 32.008 27.3376C31.0068 26.3314 29.6876 25.7034 28.2753 25.5608C26.863 25.4182 25.4449 25.7698 24.2627 26.5556C23.0806 27.3414 22.2075 28.5128 21.7922 29.8702C21.3769 31.2276 21.4452 32.687 21.9854 33.9997C22.5257 35.3124 23.5043 36.3972 24.7547 37.0691C26.0051 37.7411 27.4498 37.9587 28.8427 37.6848C30.2355 37.4109 31.4903 36.6625 32.3932 35.5672ZM30.5569 29.2264C30.6281 29.2558 30.6932 29.2982 30.7489 29.3514H30.7355C30.8413 29.4587 30.9021 29.6025 30.9051 29.7533C30.9047 29.9041 30.8473 30.0493 30.7444 30.1596L27.6813 33.9818C27.6304 34.0389 27.568 34.0846 27.4982 34.1157C27.4275 34.1467 27.352 34.1648 27.275 34.1693C27.1968 34.1706 27.1192 34.1553 27.0472 34.1247C26.9751 34.097 26.9097 34.0544 26.8552 33.9997L24.828 31.968C24.7259 31.8593 24.6699 31.7153 24.6718 31.5661C24.6748 31.418 24.7357 31.277 24.8414 31.1732C24.8931 31.1199 24.9548 31.0775 25.023 31.0483C25.0913 31.0192 25.1646 31.004 25.2388 31.0035C25.3872 31.0013 25.5308 31.0556 25.6407 31.1553L27.2437 32.7628L29.9228 29.3693C29.9728 29.3112 30.0354 29.2654 30.1059 29.2353C30.1761 29.2037 30.2521 29.187 30.3291 29.1862C30.4068 29.1857 30.484 29.1993 30.5569 29.2264Z" fill="#EAC218"/>
<path d="M27.6574 9.61546H29.7574C29.7574 8.45567 28.8172 7.51546 27.6574 7.51546V9.61546ZM27.0992 9.61546V7.51546L27.0945 7.51547L27.0992 9.61546ZM27.6574 24.489H25.5574C25.5574 25.0469 25.7794 25.5819 26.1744 25.9759C26.5694 26.3698 27.105 26.5904 27.6629 26.5889L27.6574 24.489ZM30.4085 25.032L29.6054 26.9724L29.6054 26.9724L30.4085 25.032ZM32.7387 26.5921L34.2404 25.1241C34.2359 25.1195 34.2313 25.1149 34.2268 25.1102L32.7387 26.5921ZM33.4531 27.4404L31.7511 28.6704C32.2845 29.4086 33.233 29.7188 34.0995 29.4385C34.9661 29.1581 35.5531 28.3512 35.5531 27.4404H33.4531ZM33.4531 9.61546V7.51546C32.2934 7.51546 31.3531 8.45567 31.3531 9.61546H33.4531ZM34.047 9.61546V11.7155L34.0562 11.7154L34.047 9.61546ZM34.44 9.50383L35.5362 11.295C35.5529 11.2847 35.5695 11.2743 35.586 11.2636L34.44 9.50383ZM34.7079 9.19127L32.8024 8.30863C32.7994 8.31503 32.7965 8.32144 32.7936 8.32787L34.7079 9.19127ZM34.7662 8.78541L32.6892 9.09575L32.6892 9.09578L34.7662 8.78541ZM34.5918 8.41433L33.0115 9.79732C33.0168 9.80339 33.0221 9.80943 33.0275 9.81545L34.5918 8.41433ZM31.1179 4.44479L32.6982 3.0618L32.6935 3.05652L31.1179 4.44479ZM30.8723 4.26619L29.9828 6.1685C30.0007 6.1769 30.0188 6.18504 30.037 6.19293L30.8723 4.26619ZM30.2784 4.26619L31.1137 6.19293C31.1319 6.18504 31.1499 6.1769 31.1679 6.1685L30.2784 4.26619ZM30.0328 4.44479L28.4572 3.05651L28.4534 3.0608L30.0328 4.44479ZM26.5545 8.41433L28.1312 9.80138L28.1339 9.79832L26.5545 8.41433ZM26.3821 8.78555L24.305 8.47621L24.305 8.47621L26.3821 8.78555ZM26.4388 9.19088L24.5263 10.0583L24.5263 10.0583L26.4388 9.19088ZM26.7064 9.50057L25.5707 11.267L25.5707 11.267L26.7064 9.50057ZM22.2598 26.9001L23.8314 28.293H23.8314L22.2598 26.9001ZM20.4544 31.6779L22.5544 31.6779L22.5544 31.6725L20.4544 31.6779ZM26.786 24.5336L27.033 26.619C28.0899 26.4939 28.886 25.5979 28.886 24.5336H26.786ZM23.7184 11.6337V13.7337L23.7215 13.7337L23.7184 11.6337ZM11.466 11.6337L11.463 13.7337H11.466V11.6337ZM10.2924 11.8656L11.094 13.8066L11.094 13.8066L10.2924 11.8656ZM9.29718 12.5293L10.781 14.0153H10.781L9.29718 12.5293ZM8.63203 13.5236L6.69218 12.7193L8.63203 13.5236ZM8.39844 14.6968H10.4984V14.6968L8.39844 14.6968ZM8.39844 33.0978L10.4984 33.1009V33.0978H8.39844ZM8.63075 34.2724L10.5715 33.4702L8.63075 34.2724ZM9.2956 35.2682L7.81068 36.7532H7.81068L9.2956 35.2682ZM10.2914 35.9331L9.48919 37.8738H9.48919L10.2914 35.9331ZM11.466 36.1654V34.0654L11.4629 34.0654L11.466 36.1654ZM22.0485 36.1654V38.2654C22.8587 38.2654 23.5967 37.7992 23.9448 37.0676C24.2929 36.3359 24.189 35.4692 23.6779 34.8406L22.0485 36.1654ZM12.9976 17.7644V15.6644L12.9946 15.6644L12.9976 17.7644ZM12.4573 17.9877L10.977 16.4981L10.9694 16.5058L12.4573 17.9877ZM22.2003 17.7644L22.2033 15.6644H22.2003V17.7644ZM22.7406 17.9877L24.2371 16.5145C24.2317 16.509 24.2263 16.5036 24.2209 16.4981L22.7406 17.9877ZM22.9638 18.5324L25.0638 18.5354L25.0638 18.5316L22.9638 18.5324ZM22.7406 19.0727L21.251 17.5924C21.2464 17.5971 21.2418 17.6017 21.2372 17.6064L22.7406 19.0727ZM22.4935 19.2412L23.3091 21.1763L23.3091 21.1763L22.4935 19.2412ZM22.2003 19.3004L22.2005 17.2004H22.2003V19.3004ZM12.9976 19.3004V17.2004L12.9974 17.2004L12.9976 19.3004ZM12.7044 19.2412L11.8888 21.1763L11.8888 21.1763L12.7044 19.2412ZM12.4573 19.0727L13.9606 17.6064C13.9532 17.5988 13.9457 17.5912 13.9381 17.5837L12.4573 19.0727ZM12.2296 18.5324L10.1296 18.5145C10.1295 18.5272 10.1295 18.5399 10.1297 18.5526L12.2296 18.5324ZM12.9976 20.832V18.732L12.9946 18.732L12.9976 20.832ZM12.4573 21.0552L13.9287 22.5536L13.9376 22.5448L12.4573 21.0552ZM22.2003 20.832L22.3603 18.7381C22.3071 18.734 22.2537 18.732 22.2003 18.732V20.832ZM22.7051 21.0758L24.2456 19.6486L24.2456 19.6486L22.7051 21.0758ZM22.7051 22.1197L24.2456 23.547L24.2456 23.547L22.7051 22.1197ZM22.2003 22.3635V24.4635C22.2537 24.4635 22.3071 24.4615 22.3603 24.4574L22.2003 22.3635ZM12.9976 22.3635V20.2635C12.9927 20.2635 12.9879 20.2636 12.983 20.2636L12.9976 22.3635ZM12.5699 22.2361L11.4084 23.9856L11.4084 23.9856L12.5699 22.2361ZM12.2866 21.8915L14.2276 21.0899L14.2275 21.0899L12.2866 21.8915ZM12.2442 21.4473L14.3017 21.8674L14.3017 21.8674L12.2442 21.4473ZM12.9976 23.8996V21.7996L12.9946 21.7996L12.9976 23.8996ZM12.4573 24.1228L13.9287 25.6211L13.9376 25.6124L12.4573 24.1228ZM22.2003 23.8996L22.3603 21.8057C22.3071 21.8016 22.2537 21.7996 22.2003 21.7996V23.8996ZM22.7051 24.1434L24.2456 22.7162L24.2456 22.7161L22.7051 24.1434ZM22.7051 25.1873L21.1647 23.7601L21.1647 23.7601L22.7051 25.1873ZM22.2003 25.4311V27.5311C22.2537 27.5311 22.3071 27.5291 22.3603 27.525L22.2003 25.4311ZM12.9976 25.4311V23.3311C12.9927 23.3311 12.9879 23.3311 12.9831 23.3312L12.9976 25.4311ZM12.5699 25.3037L11.4084 27.0532L11.4084 27.0532L12.5699 25.3037ZM12.2442 24.5148L10.1866 24.0947L10.1866 24.0948L12.2442 24.5148ZM18.1414 28.2754L19.6218 29.7649C19.6258 29.7609 19.6299 29.7568 19.6339 29.7528L18.1414 28.2754ZM17.5967 28.4987L17.6059 26.3987H17.5967V28.4987ZM12.9976 28.4987L12.8376 30.5926C12.8908 30.5967 12.9442 30.5987 12.9976 30.5987V28.4987ZM12.4927 27.2109L14.0332 28.6382L14.0332 28.6382L12.4927 27.2109ZM12.9976 26.9671V24.8671C12.9442 24.8671 12.8908 24.8692 12.8375 24.8732L12.9976 26.9671ZM17.5967 26.9671L17.5997 24.8671H17.5967V26.9671ZM18.0222 27.0965L16.8558 28.8428L16.8559 28.8428L18.0222 27.0965ZM18.3494 27.8824L20.4104 28.2849L20.4104 28.2849L18.3494 27.8824ZM33.7941 31.6778L31.6941 31.6727V31.6734L33.7941 31.6778ZM32.3932 35.5672L34.0136 36.9029V36.9029L32.3932 35.5672ZM33.3328 29.33L31.3908 30.1292L31.3908 30.1292L33.3328 29.33ZM32.008 27.3376L30.5194 28.8188L30.5198 28.8193L32.008 27.3376ZM28.2753 25.5608L28.4863 23.4714H28.4863L28.2753 25.5608ZM24.2627 26.5556L23.1002 24.8067H23.1002L24.2627 26.5556ZM21.9854 33.9997L20.0435 34.7989L21.9854 33.9997ZM24.7547 37.0691L25.7488 35.2193H25.7488L24.7547 37.0691ZM30.7489 29.3514V31.4514C31.6069 31.4514 32.3786 30.9294 32.6979 30.1331C33.0173 29.3368 32.8201 28.4262 32.1999 27.8334L30.7489 29.3514ZM30.5569 29.2264L31.3583 27.2853C31.3349 27.2757 31.3114 27.2665 31.2877 27.2577L30.5569 29.2264ZM30.7355 29.3514V27.2514C29.8887 27.2514 29.1248 27.76 28.7981 28.5412C28.4714 29.3224 28.6458 30.2234 29.2404 30.8262L30.7355 29.3514ZM30.9051 29.7533L33.0051 29.7594C33.0052 29.743 33.005 29.7267 33.0047 29.7103L30.9051 29.7533ZM30.7444 30.1596L29.2086 28.7274C29.1728 28.7657 29.1385 28.8054 29.1057 28.8463L30.7444 30.1596ZM27.6813 33.9818L29.2495 35.3785C29.2737 35.3513 29.2972 35.3235 29.32 35.2951L27.6813 33.9818ZM27.4982 34.1157L28.3402 36.0396C28.3451 36.0374 28.35 36.0353 28.3549 36.0331L27.4982 34.1157ZM27.275 34.1693L27.3081 36.2691C27.338 36.2686 27.3679 36.2675 27.3978 36.2657L27.275 34.1693ZM27.0472 34.1247L27.8709 32.1929C27.8477 32.1831 27.8244 32.1736 27.8008 32.1646L27.0472 34.1247ZM26.8552 33.9997L28.343 32.5176L28.3418 32.5164L26.8552 33.9997ZM24.828 31.968L23.298 33.4064C23.3123 33.4216 23.3268 33.4365 23.3415 33.4513L24.828 31.968ZM24.6718 31.5661L22.5722 31.5227C22.5721 31.5283 22.572 31.5338 22.5719 31.5394L24.6718 31.5661ZM24.8414 31.1732L26.3126 32.6717C26.325 32.6596 26.3373 32.6472 26.3494 32.6348L24.8414 31.1732ZM25.023 31.0483L25.8476 32.9797L25.8477 32.9797L25.023 31.0483ZM25.2388 31.0035L25.2516 33.1035C25.2577 33.1034 25.2638 33.1034 25.2699 33.1033L25.2388 31.0035ZM25.6407 31.1553L27.1277 29.6725C27.1032 29.6479 27.0781 29.6239 27.0524 29.6006L25.6407 31.1553ZM27.2437 32.7628L25.7567 34.2457C26.1805 34.6707 26.7659 34.894 27.3651 34.8593C27.9643 34.8246 28.52 34.5351 28.892 34.0641L27.2437 32.7628ZM29.9228 29.3693L28.3307 27.9999C28.3115 28.0222 28.2928 28.0449 28.2745 28.068L29.9228 29.3693ZM30.1059 29.2353L30.9293 31.1672C30.9421 31.1617 30.9548 31.1561 30.9675 31.1504L30.1059 29.2353ZM30.3291 29.1862L30.3163 27.0862L30.3074 27.0863L30.3291 29.1862ZM27.6574 7.51546H27.0992V11.7155H27.6574V7.51546ZM29.7574 24.489V9.61546H25.5574V24.489H29.7574ZM31.2116 23.0916C30.0831 22.6245 28.8731 22.3857 27.6518 22.389L27.6629 26.5889C28.3294 26.5872 28.9896 26.7175 29.6054 26.9724L31.2116 23.0916ZM34.2268 25.1102C33.3649 24.2448 32.3401 23.5587 31.2116 23.0916L29.6054 26.9724C30.2212 27.2272 30.7804 27.6016 31.2507 28.0739L34.2268 25.1102ZM35.1552 26.2104C34.8776 25.8262 34.5718 25.4631 34.2404 25.1241L31.237 28.06C31.4232 28.2505 31.595 28.4545 31.7511 28.6704L35.1552 26.2104ZM31.3531 9.61546V27.4404H35.5531V9.61546H31.3531ZM34.047 7.51546H33.4531V11.7155H34.047V7.51546ZM33.3437 7.71268C33.5527 7.58476 33.7928 7.51656 34.0378 7.51548L34.0562 11.7154C34.5787 11.7132 35.0906 11.5677 35.5362 11.295L33.3437 7.71268ZM32.7936 8.32787C32.9011 8.08945 33.0748 7.88685 33.2939 7.7441L35.586 11.2636C36.0399 10.968 36.3995 10.5484 36.6222 10.0547L32.7936 8.32787ZM32.6892 9.09578C32.6492 8.82797 32.6886 8.55431 32.8024 8.30863L36.6134 10.0739C36.8445 9.57487 36.9244 9.01902 36.8431 8.47505L32.6892 9.09578ZM33.0275 9.81545C32.8469 9.61375 32.7293 9.36355 32.6892 9.09575L36.8431 8.47508C36.7618 7.93112 36.523 7.4229 36.156 7.01322L33.0275 9.81545ZM29.5376 5.82778L33.0115 9.79732L36.1721 7.03135L32.6982 3.06181L29.5376 5.82778ZM30.037 6.19293C29.8476 6.11082 29.6787 5.98795 29.5422 5.83307L32.6935 3.05652C32.4216 2.7479 32.0849 2.50305 31.7075 2.33944L30.037 6.19293ZM30.5753 6.3002C30.3706 6.3002 30.1683 6.25524 29.9828 6.1685L31.7618 2.36387C31.3904 2.1902 30.9853 2.1002 30.5753 2.1002V6.3002ZM31.1679 6.1685C30.9824 6.25524 30.7801 6.3002 30.5753 6.3002V2.1002C30.1653 2.1002 29.7603 2.1902 29.3889 2.36387L31.1679 6.1685ZM31.6085 5.83307C31.472 5.98796 31.3031 6.11082 31.1137 6.19293L29.4431 2.33945C29.0658 2.50305 28.7291 2.74789 28.4572 3.05652L31.6085 5.83307ZM28.1339 9.79832L31.6122 5.82879L28.4534 3.0608L24.975 7.03034L28.1339 9.79832ZM28.4592 9.0949C28.4202 9.35705 28.3063 9.60237 28.1312 9.80138L24.9777 7.02729C24.6187 7.43543 24.3851 7.93855 24.305 8.47621L28.4592 9.0949ZM28.3513 8.3235C28.4608 8.56491 28.4982 8.83277 28.4592 9.09489L24.305 8.47621C24.2249 9.01384 24.3018 9.56318 24.5263 10.0583L28.3513 8.3235ZM27.8421 7.73414C28.065 7.87747 28.2418 8.08212 28.3513 8.3235L24.5263 10.0583C24.7508 10.5533 25.1135 10.973 25.5707 11.267L27.8421 7.73414ZM27.0945 7.51547C27.3595 7.51487 27.6191 7.5908 27.842 7.73413L25.5707 11.267C26.028 11.561 26.5604 11.7167 27.1039 11.7155L27.0945 7.51547ZM20.6882 25.5073C19.1791 27.21 18.3485 29.4081 18.3544 31.6833L22.5544 31.6725C22.5512 30.4275 23.0057 29.2247 23.8314 28.293L20.6882 25.5073ZM26.539 22.4482C24.2796 22.7158 22.1973 23.8045 20.6882 25.5073L23.8314 28.293C24.6572 27.3612 25.7966 26.7655 27.033 26.619L26.539 22.4482ZM24.686 14.6968V24.5336H28.886V14.6968H24.686ZM24.6126 14.3279C24.6611 14.4449 24.686 14.5702 24.686 14.6968H28.886C28.886 14.0182 28.7522 13.3462 28.4923 12.7193L24.6126 14.3279ZM24.4034 14.0153C24.493 14.1048 24.5641 14.211 24.6126 14.3279L28.4923 12.7193C28.2323 12.0924 27.8514 11.5228 27.3711 11.0433L24.4034 14.0153ZM24.0905 13.8066C24.2075 13.855 24.3139 13.9259 24.4034 14.0153L27.3711 11.0433C26.8909 10.5638 26.3208 10.1836 25.6935 9.92459L24.0905 13.8066ZM23.7215 13.7337C23.8481 13.7335 23.9735 13.7583 24.0905 13.8066L25.6935 9.92459C25.0662 9.66556 24.3941 9.53274 23.7154 9.53373L23.7215 13.7337ZM11.466 13.7337H23.7184V9.53373H11.466V13.7337ZM11.094 13.8066C11.211 13.7583 11.3364 13.7335 11.463 13.7337L11.4691 9.53373C10.7904 9.53274 10.1182 9.66556 9.49093 9.92459L11.094 13.8066ZM10.781 14.0153C10.8706 13.9259 10.9769 13.855 11.094 13.8066L9.49093 9.92459C8.86364 10.1836 8.29358 10.5638 7.81334 11.0433L10.781 14.0153ZM10.5719 14.3279C10.6204 14.211 10.6914 14.1048 10.781 14.0153L7.81334 11.0433C7.3331 11.5228 6.95212 12.0924 6.69218 12.7193L10.5719 14.3279ZM10.4984 14.6968C10.4984 14.5702 10.5234 14.4449 10.5719 14.3279L6.69218 12.7193C6.43224 13.3462 6.29844 14.0182 6.29844 14.6968L10.4984 14.6968ZM10.4984 33.0978V14.6968H6.29844V33.0978H10.4984ZM10.5715 33.4702C10.5231 33.3531 10.4983 33.2276 10.4984 33.1009L6.29844 33.0948C6.29745 33.774 6.43052 34.4469 6.69002 35.0746L10.5715 33.4702ZM10.7805 33.7833C10.6909 33.6937 10.6199 33.5873 10.5715 33.4702L6.69002 35.0746C6.94952 35.7024 7.33034 36.2728 7.81068 36.7532L10.7805 33.7833ZM11.0936 33.9923C10.9765 33.9439 10.8701 33.8729 10.7805 33.7833L7.81068 36.7532C8.29101 37.2335 8.86141 37.6143 9.48919 37.8738L11.0936 33.9923ZM11.4629 34.0654C11.3362 34.0656 11.2107 34.0408 11.0936 33.9923L9.48919 37.8738C10.117 38.1333 10.7898 38.2664 11.4691 38.2654L11.4629 34.0654ZM22.0485 34.0654H11.466V38.2654H22.0485V34.0654ZM18.3544 31.6778C18.3544 33.795 19.0835 35.8475 20.4191 37.4902L23.6779 34.8406C22.9511 33.9468 22.5544 32.8299 22.5544 31.6779L18.3544 31.6778ZM12.9946 15.6644C12.2385 15.6655 11.5133 15.9651 10.977 16.4981L13.9376 19.4772C13.6885 19.7248 13.3517 19.8639 13.0005 19.8644L12.9946 15.6644ZM22.2003 15.6644H12.9976V19.8644H22.2003V15.6644ZM24.2209 16.4981C23.6845 15.9651 22.9594 15.6655 22.2033 15.6644L22.1973 19.8644C21.8461 19.8639 21.5094 19.7248 21.2603 19.4772L24.2209 16.4981ZM25.0638 18.5316C25.0635 17.7768 24.7666 17.0524 24.2371 16.5145L21.244 19.4609C21.0005 19.2135 20.864 18.8803 20.8638 18.5332L25.0638 18.5316ZM24.2301 20.553C24.7631 20.0167 25.0628 19.2915 25.0638 18.5354L20.8638 18.5294C20.8643 18.1783 21.0035 17.8415 21.251 17.5924L24.2301 20.553ZM23.3091 21.1763C23.6601 21.0284 23.9779 20.8117 24.2439 20.539L21.2372 17.6064C21.3626 17.4779 21.5124 17.3758 21.6778 17.3061L23.3091 21.1763ZM22.2001 21.4004C22.581 21.4005 22.9581 21.3243 23.3091 21.1763L21.6778 17.3061C21.8433 17.2363 22.021 17.2004 22.2005 17.2004L22.2001 21.4004ZM12.9976 21.4004H22.2003V17.2004H12.9976V21.4004ZM11.8888 21.1763C12.2398 21.3243 12.6169 21.4005 12.9978 21.4004L12.9974 17.2004C13.1769 17.2004 13.3546 17.2363 13.52 17.3061L11.8888 21.1763ZM10.9539 20.539C11.2199 20.8117 11.5378 21.0284 11.8888 21.1763L13.52 17.3061C13.6855 17.3758 13.8353 17.4779 13.9606 17.6064L10.9539 20.539ZM10.1297 18.5526C10.1369 19.3076 10.4411 20.0293 10.9765 20.5617L13.9381 17.5837C14.1855 17.8297 14.3261 18.1633 14.3295 18.5122L10.1297 18.5526ZM10.9694 16.5058C10.4375 17.0398 10.1361 17.7609 10.1296 18.5145L14.3295 18.5503C14.3265 18.8952 14.1886 19.2252 13.9452 19.4696L10.9694 16.5058ZM12.9946 18.732C12.2384 18.7331 11.5133 19.0327 10.977 19.5657L13.9376 22.5448C13.6885 22.7923 13.3517 22.9315 13.0006 22.932L12.9946 18.732ZM22.2003 18.732H12.9976V22.932H22.2003V18.732ZM24.2456 19.6486C23.7544 19.1183 23.081 18.7932 22.3603 18.7381L22.0403 22.9259C21.7056 22.9003 21.3928 22.7493 21.1647 22.503L24.2456 19.6486ZM25.0098 21.5978C25.0098 20.8749 24.7368 20.1788 24.2456 19.6486L21.1647 22.503C20.9365 22.2568 20.8098 21.9335 20.8098 21.5978H25.0098ZM24.2456 23.547C24.7368 23.0167 25.0098 22.3206 25.0098 21.5978H20.8098C20.8098 21.2621 20.9365 20.9387 21.1647 20.6925L24.2456 23.547ZM22.3603 24.4574C23.081 24.4024 23.7544 24.0772 24.2456 23.547L21.1647 20.6925C21.3928 20.4463 21.7056 20.2952 22.0403 20.2696L22.3603 24.4574ZM12.9976 24.4635H22.2003V20.2635H12.9976V24.4635ZM11.4084 23.9856C11.8834 24.301 12.4419 24.4674 13.0121 24.4635L12.983 20.2636C13.2492 20.2617 13.5098 20.3394 13.7315 20.4866L11.4084 23.9856ZM10.3456 22.693C10.5632 23.2201 10.9333 23.6702 11.4084 23.9856L13.7315 20.4866C13.9532 20.6338 14.126 20.8439 14.2276 21.0899L10.3456 22.693ZM10.1866 21.0272C10.0725 21.5859 10.1279 22.166 10.3456 22.693L14.2275 21.0899C14.3291 21.3359 14.355 21.6066 14.3017 21.8674L10.1866 21.0272ZM10.9859 19.5569C10.579 19.9565 10.3007 20.4685 10.1866 21.0272L14.3017 21.8674C14.2485 22.1281 14.1186 22.3671 13.9287 22.5535L10.9859 19.5569ZM12.9946 21.7996C12.2384 21.8006 11.5133 22.1003 10.977 22.6333L13.9376 25.6124C13.6885 25.8599 13.3517 25.9991 13.0005 25.9996L12.9946 21.7996ZM22.2003 21.7996H12.9976V25.9996H22.2003V21.7996ZM24.2456 22.7161C23.7544 22.1859 23.081 21.8607 22.3603 21.8057L22.0403 25.9935C21.7056 25.9679 21.3928 25.8169 21.1647 25.5706L24.2456 22.7161ZM25.0098 24.6653C25.0098 23.9425 24.7368 23.2464 24.2456 22.7162L21.1647 25.5706C20.9365 25.3244 20.8098 25.001 20.8098 24.6653H25.0098ZM24.2456 26.6145C24.7368 26.0843 25.0098 25.3882 25.0098 24.6653H20.8098C20.8098 24.3296 20.9365 24.0063 21.1647 23.7601L24.2456 26.6145ZM22.3603 27.525C23.081 27.4699 23.7543 27.1448 24.2456 26.6145L21.1647 23.7601C21.3928 23.5138 21.7056 23.3628 22.0403 23.3372L22.3603 27.525ZM12.9976 27.5311H22.2003V23.3311H12.9976V27.5311ZM11.4084 27.0532C11.8834 27.3686 12.4419 27.535 13.0121 27.5311L12.9831 23.3312C13.2492 23.3293 13.5098 23.407 13.7315 23.5542L11.4084 27.0532ZM10.3456 25.7606C10.5632 26.2877 10.9333 26.7378 11.4084 27.0532L13.7315 23.5542C13.9532 23.7014 14.126 23.9115 14.2276 24.1575L10.3456 25.7606ZM10.1866 24.0948C10.0725 24.6535 10.1279 25.2335 10.3456 25.7606L14.2276 24.1575C14.3291 24.4035 14.355 24.6742 14.3017 24.9349L10.1866 24.0948ZM10.9859 22.6245C10.579 23.0241 10.3007 23.536 10.1866 24.0947L14.3017 24.9349C14.2485 25.1957 14.1186 25.4346 13.9287 25.6211L10.9859 22.6245ZM18.6877 30.3845C19.0368 30.2414 19.3542 30.0309 19.6218 29.7649L16.6611 26.7859C16.7854 26.6624 16.9328 26.5646 17.0949 26.4982L18.6877 30.3845ZM17.5875 30.5987C17.9647 30.6003 18.3386 30.5275 18.6877 30.3845L17.0949 26.4982C17.2571 26.4317 17.4307 26.3979 17.6059 26.3987L17.5875 30.5987ZM12.9976 30.5987H17.5967V26.3987H12.9976V30.5987ZM10.9523 29.6821C11.4435 30.2123 12.1168 30.5375 12.8376 30.5926L13.1576 26.4048C13.4923 26.4304 13.805 26.5814 14.0332 26.8276L10.9523 29.6821ZM10.1881 27.7329C10.1881 28.4557 10.461 29.1519 10.9523 29.6821L14.0332 26.8276C14.2613 27.0739 14.3881 27.3972 14.3881 27.7329H10.1881ZM10.9523 25.7837C10.461 26.3139 10.1881 27.0101 10.1881 27.7329H14.3881C14.3881 28.0686 14.2613 28.3919 14.0332 28.6382L10.9523 25.7837ZM12.8375 24.8732C12.1169 24.9283 11.4435 25.2535 10.9522 25.7837L14.0332 28.6382C13.805 28.8844 13.4923 29.0354 13.1576 29.061L12.8375 24.8732ZM17.5967 24.8671H12.9976V29.0671H17.5967V24.8671ZM19.1885 25.3501C18.7181 25.036 18.1653 24.8679 17.5997 24.8671L17.5937 29.0671C17.331 29.0668 17.0743 28.9887 16.8558 28.8428L19.1885 25.3501ZM20.2433 26.6327C20.0258 26.1105 19.6589 25.6643 19.1885 25.3501L16.8559 28.8428C16.6374 28.6969 16.4669 28.4897 16.366 28.2471L20.2433 26.6327ZM20.4104 28.2849C20.5189 27.7297 20.4607 27.1549 20.2433 26.6327L16.366 28.2471C16.265 28.0046 16.238 27.7377 16.2883 27.4798L20.4104 28.2849ZM19.6339 29.7528C20.0319 29.3507 20.302 28.84 20.4104 28.2849L16.2883 27.4798C16.3387 27.222 16.4642 26.9848 16.649 26.7981L19.6339 29.7528ZM31.6941 31.6734C31.6922 32.607 31.3665 33.5111 30.7727 34.2315L34.0136 36.9029C35.2255 35.4326 35.8901 33.5875 35.8941 31.6822L31.6941 31.6734ZM31.3908 30.1292C31.5923 30.6188 31.6954 31.1433 31.6941 31.6727L35.8941 31.6828C35.8967 30.6017 35.6863 29.5306 35.2748 28.5308L31.3908 30.1292ZM30.5198 28.8193C30.8934 29.1945 31.1894 29.6396 31.3908 30.1292L35.2748 28.5308C34.8634 27.5311 34.259 26.6221 33.4962 25.856L30.5198 28.8193ZM28.0643 27.6502C28.9932 27.744 29.8609 28.157 30.5194 28.8188L33.4967 25.8564C32.1527 24.5057 30.382 23.6629 28.4863 23.4714L28.0643 27.6502ZM25.4252 28.3045C26.2028 27.7876 27.1354 27.5564 28.0643 27.6502L28.4863 23.4714C26.5905 23.28 24.687 23.7519 23.1002 24.8067L25.4252 28.3045ZM23.8003 30.4845C24.0735 29.5917 24.6477 28.8213 25.4252 28.3045L23.1002 24.8067C21.5134 25.8615 20.3415 27.4338 19.7841 29.2559L23.8003 30.4845ZM23.9274 33.2005C23.5721 32.3372 23.5272 31.3773 23.8003 30.4845L19.7841 29.2559C19.2267 31.0779 19.3183 33.0369 20.0435 34.7989L23.9274 33.2005ZM25.7488 35.2193C24.9264 34.7774 24.2827 34.0639 23.9274 33.2005L20.0435 34.7989C20.7686 36.5609 22.0823 38.017 23.7606 38.9189L25.7488 35.2193ZM28.4375 35.6243C27.5214 35.8044 26.5712 35.6613 25.7488 35.2193L23.7606 38.9189C25.439 39.8209 27.3782 40.113 29.2478 39.7453L28.4375 35.6243ZM30.7727 34.2315C30.1789 34.9519 29.3536 35.4441 28.4375 35.6243L29.2478 39.7453C31.1174 39.3777 32.8017 38.3732 34.0136 36.9029L30.7727 34.2315ZM32.1999 27.8334C31.9558 27.6 31.6704 27.4142 31.3583 27.2853L29.7555 31.1675C29.5857 31.0974 29.4305 30.9963 29.2978 30.8695L32.1999 27.8334ZM30.7355 31.4514H30.7489V27.2514H30.7355V31.4514ZM33.0047 29.7103C32.9906 29.0226 32.7136 28.3664 32.2305 27.8766L29.2404 30.8262C28.9691 30.5511 28.8135 30.1825 28.8056 29.7962L33.0047 29.7103ZM32.2802 31.5918C32.7442 31.0943 33.0032 30.4398 33.0051 29.7594L28.8051 29.7472C28.8062 29.3685 28.9503 29.0043 29.2086 28.7274L32.2802 31.5918ZM29.32 35.2951L32.3831 31.4729L29.1057 28.8463L26.0426 32.6685L29.32 35.2951ZM28.3549 36.0331C28.6961 35.8806 29.001 35.6575 29.2495 35.3785L26.1131 32.5851C26.2599 32.4203 26.44 32.2885 26.6416 32.1984L28.3549 36.0331ZM27.3978 36.2657C27.7229 36.2467 28.042 36.1701 28.3402 36.0396L26.6562 32.1919C26.8131 32.1233 26.981 32.0829 27.1521 32.0729L27.3978 36.2657ZM26.2236 36.0564C26.5662 36.2025 26.9357 36.2749 27.3081 36.2691L27.2418 32.0696C27.4578 32.0662 27.6722 32.1082 27.8709 32.1929L26.2236 36.0564ZM25.3675 35.4817C25.6303 35.7456 25.9459 35.9511 26.2936 36.0848L27.8008 32.1646C28.0044 32.2428 28.1891 32.3631 28.343 32.5176L25.3675 35.4817ZM23.3415 33.4513L25.3687 35.4829L28.3418 32.5164L26.3146 30.4847L23.3415 33.4513ZM22.5719 31.5394C22.5631 32.2323 22.8234 32.9015 23.298 33.4064L26.3581 30.5296C26.6284 30.8171 26.7766 31.1983 26.7716 31.5929L22.5719 31.5394ZM23.3702 29.6747C22.873 30.1628 22.5866 30.8261 22.5722 31.5227L26.7713 31.6095C26.763 32.0099 26.5984 32.3912 26.3126 32.6717L23.3702 29.6747ZM24.1985 29.117C23.8735 29.2558 23.5794 29.4579 23.3335 29.7116L26.3494 32.6348C26.2067 32.7819 26.0362 32.8992 25.8476 32.9797L24.1985 29.117ZM25.2261 28.9036C24.8728 28.9057 24.5234 28.9783 24.1984 29.117L25.8477 32.9797C25.6592 33.0601 25.4565 33.1022 25.2516 33.1035L25.2261 28.9036ZM27.0524 29.6006C26.5481 29.1428 25.8887 28.8937 25.2078 28.9038L25.2699 33.1033C24.8856 33.109 24.5136 32.9684 24.229 32.7101L27.0524 29.6006ZM28.7307 31.2799L27.1277 29.6725L24.1537 32.6382L25.7567 34.2457L28.7307 31.2799ZM28.2745 28.068L25.5954 31.4615L28.892 34.0641L31.5711 30.6705L28.2745 28.068ZM29.2825 27.3035C28.9161 27.4596 28.5904 27.6979 28.3307 27.9999L31.5149 30.7386C31.3551 30.9244 31.1547 31.0711 30.9293 31.1672L29.2825 27.3035ZM30.3074 27.0863C29.9407 27.0901 29.5787 27.1697 29.2442 27.3202L30.9675 31.1504C30.7735 31.2377 30.5635 31.2839 30.3508 31.2861L30.3074 27.0863ZM31.2877 27.2577C30.9769 27.1423 30.6478 27.0842 30.3163 27.0862L30.342 31.2862C30.1659 31.2872 29.9911 31.2564 29.826 31.1951L31.2877 27.2577Z" fill="white" mask="url(#path-1-outside-1_883_9523)"/>
</svg>
