<svg width="30" height="30" viewBox="0 0 30 30" fill="none" xmlns="http://www.w3.org/2000/svg">
<mask id="path-1-outside-1_883_9519" maskUnits="userSpaceOnUse" x="4" y="1" width="23" height="28" fill="black">
<rect fill="white" x="4" y="1" width="23" height="28"/>
<path fill-rule="evenodd" clip-rule="evenodd" d="M19.3569 6.86805H19.7556V17.492C20.4298 17.4902 21.0977 17.622 21.7207 17.8798C22.3437 18.1377 22.9094 18.5164 23.3851 18.9942C23.57 19.1833 23.7406 19.3858 23.8954 19.6002V6.86805H24.3196C24.4187 6.86762 24.5158 6.84004 24.6003 6.78831C24.6841 6.73372 24.7505 6.65624 24.7917 6.56506C24.8336 6.47457 24.8481 6.37378 24.8333 6.27516C24.8186 6.17653 24.7753 6.08438 24.7087 6.0101L22.2274 3.17471C22.179 3.1198 22.1191 3.07624 22.052 3.04714C21.9856 3.01609 21.9132 3 21.8399 3C21.7666 3 21.6942 3.01609 21.6278 3.04714C21.5606 3.07624 21.5007 3.1198 21.4524 3.17471L18.9678 6.0101C18.9021 6.08479 18.8594 6.17686 18.8447 6.27525C18.83 6.37365 18.8441 6.47418 18.8852 6.56478C18.9263 6.65537 18.9927 6.73218 19.0763 6.78598C19.16 6.83978 19.2574 6.86827 19.3569 6.86805ZM14.6114 22.6269C14.6082 21.3697 15.0671 20.1551 15.901 19.2142C16.7349 18.2733 17.8855 17.6717 19.134 17.5239V10.4976C19.134 10.21 19.0773 9.92524 18.9671 9.65958C18.857 9.39392 18.6955 9.15258 18.492 8.94937C18.2885 8.74616 18.047 8.58507 17.7811 8.4753C17.5153 8.36553 17.2305 8.30925 16.9429 8.30967H8.19113C7.90353 8.30925 7.61868 8.36553 7.35286 8.4753C7.08704 8.58507 6.84547 8.74616 6.64196 8.94937C6.43845 9.15258 6.27701 9.39392 6.16685 9.65958C6.0567 9.92524 6 10.21 6 10.4976V23.6412C5.99958 23.929 6.05597 24.2141 6.16594 24.4802C6.2759 24.7462 6.43728 24.9879 6.64083 25.1915C6.84438 25.395 7.08609 25.5564 7.35212 25.6663C7.61815 25.7763 7.90327 25.8327 8.19113 25.8323H15.75C15.0135 24.9264 14.6114 23.7945 14.6114 22.6269ZM8.89918 12.8482C9.00176 12.7462 9.14046 12.6889 9.28509 12.6887H15.8585C16.0031 12.6889 16.1418 12.7462 16.2444 12.8482C16.3465 12.952 16.4038 13.0917 16.4039 13.2373C16.4036 13.3819 16.3463 13.5206 16.2444 13.6232C16.1942 13.6747 16.1341 13.7156 16.0679 13.7436C16.0016 13.7715 15.9304 13.7859 15.8585 13.7859H9.28509C9.21317 13.7859 9.14197 13.7715 9.07569 13.7436C9.00941 13.7156 8.9494 13.6747 8.89918 13.6232C8.79635 13.521 8.73791 13.3823 8.73652 13.2373C8.73776 13.0913 8.79615 12.9516 8.89918 12.8482ZM8.89918 15.0393C9.00176 14.9374 9.14046 14.8801 9.28509 14.8799H15.8585C15.9963 14.8904 16.1251 14.9526 16.2191 15.054C16.313 15.1554 16.3652 15.2886 16.3652 15.4268C16.3652 15.5651 16.313 15.6983 16.2191 15.7997C16.1251 15.9011 15.9963 15.9633 15.8585 15.9738H9.28509C9.17649 15.9746 9.07013 15.9429 8.97965 15.8828C8.88917 15.8227 8.81868 15.737 8.77722 15.6366C8.73577 15.5362 8.72523 15.4258 8.74695 15.3193C8.76868 15.2129 8.82169 15.1154 8.89918 15.0393ZM8.89918 17.2304C9.00176 17.1285 9.14046 17.0712 9.28509 17.071H15.8585C15.9963 17.0815 16.1251 17.1437 16.2191 17.2451C16.313 17.3465 16.3652 17.4797 16.3652 17.618C16.3652 17.7562 16.313 17.8894 16.2191 17.9908C16.1251 18.0922 15.9963 18.1544 15.8585 18.1649H9.28509C9.17649 18.1657 9.07013 18.134 8.97965 18.0739C8.88917 18.0139 8.81868 17.9281 8.77722 17.8277C8.73577 17.7274 8.72523 17.6169 8.74695 17.5105C8.76868 17.4041 8.82169 17.3065 8.89918 17.2304ZM12.9593 20.1966C12.9081 20.2475 12.8474 20.2877 12.7806 20.3151C12.7139 20.3425 12.6423 20.3564 12.5702 20.3561H9.28509C9.14724 20.3455 9.01845 20.2833 8.92448 20.1819C8.83052 20.0805 8.77831 19.9473 8.77831 19.8091C8.77831 19.6708 8.83052 19.5377 8.92448 19.4363C9.01845 19.3348 9.14724 19.2726 9.28509 19.2621H12.5702C12.6784 19.2623 12.7841 19.2944 12.8741 19.3545C12.9641 19.4146 13.0343 19.4999 13.0758 19.5998C13.1174 19.6997 13.1286 19.8096 13.1078 19.9158C13.0871 20.022 13.0354 20.1197 12.9593 20.1966ZM23.1388 25.405C23.7837 24.6226 24.1374 23.6408 24.1395 22.6269C24.1409 22.0517 24.0289 21.4818 23.81 20.9499C23.5911 20.418 23.2696 19.9344 22.8637 19.5268C22.1486 18.808 21.2063 18.3595 20.1975 18.2576C19.1887 18.1558 18.1758 18.4069 17.3314 18.9682C16.487 19.5294 15.8633 20.3662 15.5667 21.3357C15.2701 22.3053 15.3189 23.3478 15.7047 24.2854C16.0906 25.223 16.7897 25.9979 17.6828 26.4778C18.5759 26.9578 19.6079 27.1132 20.6027 26.9176C21.5976 26.722 22.4939 26.1874 23.1388 25.405ZM21.8272 20.8759C21.878 20.8969 21.9245 20.9272 21.9643 20.9652H21.9547C22.0304 21.0418 22.0737 21.1446 22.0759 21.2522C22.0756 21.36 22.0346 21.4637 21.9611 21.5425L19.7732 24.2726C19.7369 24.3134 19.6923 24.346 19.6424 24.3683C19.5919 24.3904 19.5379 24.4033 19.4829 24.4066C19.4271 24.4074 19.3717 24.3966 19.3203 24.3747C19.2688 24.3549 19.2221 24.3244 19.1831 24.2854L17.7352 22.8342C17.6622 22.7566 17.6222 22.6537 17.6235 22.5471C17.6257 22.4413 17.6692 22.3406 17.7447 22.2665C17.7816 22.2284 17.8257 22.1981 17.8744 22.1773C17.9232 22.1565 17.9756 22.1456 18.0286 22.1453C18.1345 22.1437 18.2372 22.1825 18.3156 22.2537L19.4606 23.4019L21.3743 20.9779C21.41 20.9365 21.4547 20.9037 21.505 20.8823C21.5552 20.8597 21.6095 20.8477 21.6645 20.8472C21.72 20.8468 21.7751 20.8566 21.8272 20.8759Z"/>
</mask>
<path fill-rule="evenodd" clip-rule="evenodd" d="M19.3569 6.86805H19.7556V17.492C20.4298 17.4902 21.0977 17.622 21.7207 17.8798C22.3437 18.1377 22.9094 18.5164 23.3851 18.9942C23.57 19.1833 23.7406 19.3858 23.8954 19.6002V6.86805H24.3196C24.4187 6.86762 24.5158 6.84004 24.6003 6.78831C24.6841 6.73372 24.7505 6.65624 24.7917 6.56506C24.8336 6.47457 24.8481 6.37378 24.8333 6.27516C24.8186 6.17653 24.7753 6.08438 24.7087 6.0101L22.2274 3.17471C22.179 3.1198 22.1191 3.07624 22.052 3.04714C21.9856 3.01609 21.9132 3 21.8399 3C21.7666 3 21.6942 3.01609 21.6278 3.04714C21.5606 3.07624 21.5007 3.1198 21.4524 3.17471L18.9678 6.0101C18.9021 6.08479 18.8594 6.17686 18.8447 6.27525C18.83 6.37365 18.8441 6.47418 18.8852 6.56478C18.9263 6.65537 18.9927 6.73218 19.0763 6.78598C19.16 6.83978 19.2574 6.86827 19.3569 6.86805ZM14.6114 22.6269C14.6082 21.3697 15.0671 20.1551 15.901 19.2142C16.7349 18.2733 17.8855 17.6717 19.134 17.5239V10.4976C19.134 10.21 19.0773 9.92524 18.9671 9.65958C18.857 9.39392 18.6955 9.15258 18.492 8.94937C18.2885 8.74616 18.047 8.58507 17.7811 8.4753C17.5153 8.36553 17.2305 8.30925 16.9429 8.30967H8.19113C7.90353 8.30925 7.61868 8.36553 7.35286 8.4753C7.08704 8.58507 6.84547 8.74616 6.64196 8.94937C6.43845 9.15258 6.27701 9.39392 6.16685 9.65958C6.0567 9.92524 6 10.21 6 10.4976V23.6412C5.99958 23.929 6.05597 24.2141 6.16594 24.4802C6.2759 24.7462 6.43728 24.9879 6.64083 25.1915C6.84438 25.395 7.08609 25.5564 7.35212 25.6663C7.61815 25.7763 7.90327 25.8327 8.19113 25.8323H15.75C15.0135 24.9264 14.6114 23.7945 14.6114 22.6269ZM8.89918 12.8482C9.00176 12.7462 9.14046 12.6889 9.28509 12.6887H15.8585C16.0031 12.6889 16.1418 12.7462 16.2444 12.8482C16.3465 12.952 16.4038 13.0917 16.4039 13.2373C16.4036 13.3819 16.3463 13.5206 16.2444 13.6232C16.1942 13.6747 16.1341 13.7156 16.0679 13.7436C16.0016 13.7715 15.9304 13.7859 15.8585 13.7859H9.28509C9.21317 13.7859 9.14197 13.7715 9.07569 13.7436C9.00941 13.7156 8.9494 13.6747 8.89918 13.6232C8.79635 13.521 8.73791 13.3823 8.73652 13.2373C8.73776 13.0913 8.79615 12.9516 8.89918 12.8482ZM8.89918 15.0393C9.00176 14.9374 9.14046 14.8801 9.28509 14.8799H15.8585C15.9963 14.8904 16.1251 14.9526 16.2191 15.054C16.313 15.1554 16.3652 15.2886 16.3652 15.4268C16.3652 15.5651 16.313 15.6983 16.2191 15.7997C16.1251 15.9011 15.9963 15.9633 15.8585 15.9738H9.28509C9.17649 15.9746 9.07013 15.9429 8.97965 15.8828C8.88917 15.8227 8.81868 15.737 8.77722 15.6366C8.73577 15.5362 8.72523 15.4258 8.74695 15.3193C8.76868 15.2129 8.82169 15.1154 8.89918 15.0393ZM8.89918 17.2304C9.00176 17.1285 9.14046 17.0712 9.28509 17.071H15.8585C15.9963 17.0815 16.1251 17.1437 16.2191 17.2451C16.313 17.3465 16.3652 17.4797 16.3652 17.618C16.3652 17.7562 16.313 17.8894 16.2191 17.9908C16.1251 18.0922 15.9963 18.1544 15.8585 18.1649H9.28509C9.17649 18.1657 9.07013 18.134 8.97965 18.0739C8.88917 18.0139 8.81868 17.9281 8.77722 17.8277C8.73577 17.7274 8.72523 17.6169 8.74695 17.5105C8.76868 17.4041 8.82169 17.3065 8.89918 17.2304ZM12.9593 20.1966C12.9081 20.2475 12.8474 20.2877 12.7806 20.3151C12.7139 20.3425 12.6423 20.3564 12.5702 20.3561H9.28509C9.14724 20.3455 9.01845 20.2833 8.92448 20.1819C8.83052 20.0805 8.77831 19.9473 8.77831 19.8091C8.77831 19.6708 8.83052 19.5377 8.92448 19.4363C9.01845 19.3348 9.14724 19.2726 9.28509 19.2621H12.5702C12.6784 19.2623 12.7841 19.2944 12.8741 19.3545C12.9641 19.4146 13.0343 19.4999 13.0758 19.5998C13.1174 19.6997 13.1286 19.8096 13.1078 19.9158C13.0871 20.022 13.0354 20.1197 12.9593 20.1966ZM23.1388 25.405C23.7837 24.6226 24.1374 23.6408 24.1395 22.6269C24.1409 22.0517 24.0289 21.4818 23.81 20.9499C23.5911 20.418 23.2696 19.9344 22.8637 19.5268C22.1486 18.808 21.2063 18.3595 20.1975 18.2576C19.1887 18.1558 18.1758 18.4069 17.3314 18.9682C16.487 19.5294 15.8633 20.3662 15.5667 21.3357C15.2701 22.3053 15.3189 23.3478 15.7047 24.2854C16.0906 25.223 16.7897 25.9979 17.6828 26.4778C18.5759 26.9578 19.6079 27.1132 20.6027 26.9176C21.5976 26.722 22.4939 26.1874 23.1388 25.405ZM21.8272 20.8759C21.878 20.8969 21.9245 20.9272 21.9643 20.9652H21.9547C22.0304 21.0418 22.0737 21.1446 22.0759 21.2522C22.0756 21.36 22.0346 21.4637 21.9611 21.5425L19.7732 24.2726C19.7369 24.3134 19.6923 24.346 19.6424 24.3683C19.5919 24.3904 19.5379 24.4033 19.4829 24.4066C19.4271 24.4074 19.3717 24.3966 19.3203 24.3747C19.2688 24.3549 19.2221 24.3244 19.1831 24.2854L17.7352 22.8342C17.6622 22.7566 17.6222 22.6537 17.6235 22.5471C17.6257 22.4413 17.6692 22.3406 17.7447 22.2665C17.7816 22.2284 17.8257 22.1981 17.8744 22.1773C17.9232 22.1565 17.9756 22.1456 18.0286 22.1453C18.1345 22.1437 18.2372 22.1825 18.3156 22.2537L19.4606 23.4019L21.3743 20.9779C21.41 20.9365 21.4547 20.9037 21.505 20.8823C21.5552 20.8597 21.6095 20.8477 21.6645 20.8472C21.72 20.8468 21.7751 20.8566 21.8272 20.8759Z" fill="white"/>
<path d="M19.7556 6.86805H21.2556C21.2556 6.03962 20.584 5.36805 19.7556 5.36805V6.86805ZM19.3569 6.86805L19.3569 5.36805L19.3535 5.36805L19.3569 6.86805ZM19.7556 17.492H18.2556C18.2556 17.8905 18.4142 18.2726 18.6963 18.554C18.9785 18.8355 19.3611 18.993 19.7596 18.992L19.7556 17.492ZM21.7207 17.8798L22.2943 16.4939L22.2943 16.4939L21.7207 17.8798ZM23.3851 18.9942L24.4578 17.9456L24.448 17.9357L23.3851 18.9942ZM23.8954 19.6002L22.6797 20.4787C23.0607 21.006 23.7382 21.2276 24.3571 21.0273C24.9761 20.8271 25.3954 20.2507 25.3954 19.6002H23.8954ZM23.8954 6.86805V5.36805C23.067 5.36805 22.3954 6.03962 22.3954 6.86805H23.8954ZM24.3196 6.86805L24.3196 8.36806L24.3262 8.36803L24.3196 6.86805ZM24.6003 6.78831L25.3833 8.06771C25.3953 8.0604 25.4071 8.05291 25.4189 8.04527L24.6003 6.78831ZM24.7917 6.56506L23.4306 5.9346C23.4285 5.93918 23.4264 5.94376 23.4243 5.94836L24.7917 6.56506ZM24.8333 6.27516L26.3169 6.05347L26.3169 6.05347L24.8333 6.27516ZM24.7087 6.0101L23.58 6.99794C23.5837 7.00228 23.5876 7.0066 23.5914 7.01089L24.7087 6.0101ZM22.2274 3.17471L23.3562 2.18686L23.3529 2.1831L22.2274 3.17471ZM22.052 3.04714L21.4166 4.40593C21.4294 4.41193 21.4423 4.41775 21.4553 4.42338L22.052 3.04714ZM21.6278 3.04714L22.2244 4.42338C22.2374 4.41775 22.2503 4.41193 22.2631 4.40593L21.6278 3.04714ZM21.4524 3.17471L20.3269 2.18308L20.3242 2.18615L21.4524 3.17471ZM18.9678 6.0101L20.094 7.00085L20.096 6.99866L18.9678 6.0101ZM18.8852 6.56478L17.5191 7.18433L17.5191 7.18434L18.8852 6.56478ZM19.0763 6.78598L19.8875 5.52424L19.8875 5.52424L19.0763 6.78598ZM15.901 19.2142L17.0236 20.2091L17.0236 20.2091L15.901 19.2142ZM14.6114 22.6269L16.1114 22.627L16.1114 22.6231L14.6114 22.6269ZM19.134 17.5239L19.3104 19.0135C20.0653 18.9241 20.634 18.2841 20.634 17.5239H19.134ZM19.134 10.4976L17.634 10.4976V10.4976H19.134ZM18.9671 9.65958L20.3527 9.08505L20.3527 9.08505L18.9671 9.65958ZM18.492 8.94937L19.5519 7.88794L19.5519 7.88794L18.492 8.94937ZM17.7811 8.4753L17.2086 9.86175L17.2086 9.86175L17.7811 8.4753ZM16.9429 8.30967L16.9429 9.80967L16.9451 9.80967L16.9429 8.30967ZM8.19113 8.30967L8.18894 9.80967H8.19113V8.30967ZM7.35286 8.4753L7.92537 9.86175L7.92537 9.86175L7.35286 8.4753ZM6.64196 8.94937L5.58207 7.88794L5.58207 7.88794L6.64196 8.94937ZM6.16685 9.65958L4.78124 9.08505L4.78124 9.08505L6.16685 9.65958ZM6 10.4976L7.5 10.4976L7.5 10.4976L6 10.4976ZM6 23.6412L7.5 23.6433V23.6412H6ZM6.16594 24.4802L4.7797 25.0532L4.7797 25.0532L6.16594 24.4802ZM6.64083 25.1915L5.58017 26.2521L5.58017 26.2521L6.64083 25.1915ZM7.35212 25.6663L6.77911 27.0526L6.77911 27.0526L7.35212 25.6663ZM8.19113 25.8323L8.19113 24.3323L8.18894 24.3323L8.19113 25.8323ZM15.75 25.8323V27.3323C16.3288 27.3323 16.8559 26.9993 17.1045 26.4767C17.3532 25.9541 17.279 25.335 16.9139 24.886L15.75 25.8323ZM9.28509 12.6887L9.28509 11.1887L9.28297 11.1887L9.28509 12.6887ZM8.89918 12.8482L7.8418 11.7842L7.83637 11.7897L8.89918 12.8482ZM15.8585 12.6887L15.8606 11.1887H15.8585V12.6887ZM16.2444 12.8482L17.3133 11.7959C17.3095 11.792 17.3056 11.7881 17.3017 11.7843L16.2444 12.8482ZM16.4039 13.2373L17.9039 13.2394L17.9039 13.2367L16.4039 13.2373ZM16.2444 13.6232L15.1804 12.5658L15.1706 12.5759L16.2444 13.6232ZM16.0679 13.7436L16.6505 15.1258L16.6505 15.1258L16.0679 13.7436ZM15.8585 13.7859L15.8586 12.2859H15.8585V13.7859ZM9.28509 13.7859L9.28509 12.2859L9.28495 12.2859L9.28509 13.7859ZM9.07569 13.7436L8.49309 15.1258L8.4931 15.1258L9.07569 13.7436ZM8.89918 13.6232L9.973 12.5759C9.96768 12.5704 9.96231 12.565 9.95691 12.5596L8.89918 13.6232ZM8.73652 13.2373L7.23657 13.2245C7.23649 13.2336 7.2365 13.2427 7.23658 13.2518L8.73652 13.2373ZM9.28509 14.8799L9.28509 13.3799L9.28297 13.3799L9.28509 14.8799ZM8.89918 15.0393L9.95021 16.1096L9.95653 16.1033L8.89918 15.0393ZM15.8585 14.8799L15.9728 13.3842C15.9347 13.3813 15.8966 13.3799 15.8585 13.3799V14.8799ZM16.2191 15.054L15.1188 16.0735L15.1188 16.0735L16.2191 15.054ZM16.2191 15.7997L15.1188 14.7802L15.1188 14.7802L16.2191 15.7997ZM15.8585 15.9738V17.4738C15.8966 17.4738 15.9347 17.4724 15.9728 17.4695L15.8585 15.9738ZM9.28509 15.9738L9.28509 14.4738L9.27471 14.4739L9.28509 15.9738ZM8.97965 15.8828L8.14994 17.1324L8.14995 17.1324L8.97965 15.8828ZM8.77722 15.6366L7.39079 16.2092L7.3908 16.2092L8.77722 15.6366ZM8.74695 15.3193L10.2166 15.6194L10.2166 15.6194L8.74695 15.3193ZM9.28509 17.071L9.28509 15.571L9.28297 15.571L9.28509 17.071ZM8.89918 17.2304L9.95021 18.3007L9.95654 18.2944L8.89918 17.2304ZM15.8585 17.071L15.9728 15.5753C15.9347 15.5724 15.8966 15.571 15.8585 15.571V17.071ZM16.2191 17.2451L15.1187 18.2646L15.1188 18.2646L16.2191 17.2451ZM16.2191 17.9908L15.1188 16.9713L15.1188 16.9713L16.2191 17.9908ZM15.8585 18.1649V19.6649C15.8966 19.6649 15.9347 19.6635 15.9728 19.6606L15.8585 18.1649ZM9.28509 18.1649L9.28509 16.6649L9.27471 16.665L9.28509 18.1649ZM8.97965 18.0739L9.80935 16.8243L9.80934 16.8243L8.97965 18.0739ZM8.77722 17.8277L7.39079 18.4003L7.3908 18.4003L8.77722 17.8277ZM8.74695 17.5105L10.2166 17.8105L10.2166 17.8105L8.74695 17.5105ZM12.9593 20.1966L14.0167 21.2606L14.0253 21.2518L12.9593 20.1966ZM12.5702 20.3561L12.5768 18.8561H12.5702V20.3561ZM9.28509 20.3561L9.1708 21.8517C9.20883 21.8546 9.24696 21.8561 9.28509 21.8561V20.3561ZM8.92448 20.1819L7.82415 21.2014L7.82416 21.2014L8.92448 20.1819ZM8.92448 19.4363L10.0248 20.4557L10.0248 20.4557L8.92448 19.4363ZM9.28509 19.2621V17.7621C9.24696 17.7621 9.20883 17.7636 9.1708 17.7665L9.28509 19.2621ZM12.5702 19.2621L12.5723 17.7621H12.5702V19.2621ZM13.0758 19.5998L14.4606 19.0232L14.4606 19.0232L13.0758 19.5998ZM13.1078 19.9158L11.6356 19.6283L11.6356 19.6283L13.1078 19.9158ZM24.1395 22.6269L22.6395 22.6233L22.6395 22.6237L24.1395 22.6269ZM23.1388 25.405L24.2963 26.3591L24.2963 26.3591L23.1388 25.405ZM23.81 20.9499L22.4229 21.5207L22.4229 21.5207L23.81 20.9499ZM22.8637 19.5268L21.8004 20.5848L21.8007 20.5851L22.8637 19.5268ZM20.1975 18.2576L20.3482 16.7652L20.3482 16.7652L20.1975 18.2576ZM17.3314 18.9682L16.501 17.719L16.501 17.719L17.3314 18.9682ZM15.5667 21.3357L17.0011 21.7745L17.0011 21.7745L15.5667 21.3357ZM15.7047 24.2854L14.3176 24.8562L14.3176 24.8562L15.7047 24.2854ZM17.6828 26.4778L16.9727 27.7991L16.9727 27.7991L17.6828 26.4778ZM21.9643 20.9652V22.4652C22.5772 22.4652 23.1284 22.0924 23.3565 21.5235C23.5846 20.9547 23.4438 20.3043 23.0008 19.8809L21.9643 20.9652ZM21.8272 20.8759L22.3996 19.4894C22.3829 19.4825 22.3661 19.4759 22.3492 19.4697L21.8272 20.8759ZM21.9547 20.9652V19.4652C21.3499 19.4652 20.8042 19.8284 20.5709 20.3864C20.3375 20.9444 20.4621 21.588 20.8869 22.0186L21.9547 20.9652ZM22.0759 21.2522L23.5759 21.2566C23.576 21.2449 23.5759 21.2332 23.5756 21.2215L22.0759 21.2522ZM21.9611 21.5425L20.8641 20.5195C20.8386 20.5469 20.814 20.5752 20.7906 20.6044L21.9611 21.5425ZM19.7732 24.2726L20.8933 25.2702C20.9106 25.2508 20.9274 25.2309 20.9437 25.2106L19.7732 24.2726ZM19.6424 24.3683L20.2439 25.7425L20.2543 25.7378L19.6424 24.3683ZM19.4829 24.4066L19.5066 25.9064C19.528 25.906 19.5494 25.9052 19.5707 25.904L19.4829 24.4066ZM19.3203 24.3747L19.9086 22.9948C19.892 22.9878 19.8754 22.981 19.8586 22.9746L19.3203 24.3747ZM19.1831 24.2854L20.2458 23.2267L20.245 23.2259L19.1831 24.2854ZM17.7352 22.8342L16.6422 23.8616C16.6524 23.8724 16.6628 23.8831 16.6733 23.8937L17.7352 22.8342ZM17.6235 22.5471L16.1238 22.5161L16.1236 22.528L17.6235 22.5471ZM17.7447 22.2665L18.7956 23.3368C18.8044 23.3282 18.8132 23.3194 18.8218 23.3105L17.7447 22.2665ZM17.8744 22.1773L18.4634 23.5568L18.4635 23.5568L17.8744 22.1773ZM18.0286 22.1453L18.0377 23.6453L18.0508 23.6451L18.0286 22.1453ZM18.3156 22.2537L19.3778 21.1945C19.3603 21.177 19.3423 21.1599 19.324 21.1432L18.3156 22.2537ZM19.4606 23.4019L18.3985 24.4611C18.7012 24.7646 19.1194 24.9242 19.5474 24.8994C19.9754 24.8746 20.3723 24.6679 20.6379 24.3314L19.4606 23.4019ZM21.3743 20.9779L20.237 19.9999C20.2233 20.0158 20.21 20.032 20.1969 20.0485L21.3743 20.9779ZM21.505 20.8823L22.0931 22.2622C22.1023 22.2583 22.1114 22.2543 22.1205 22.2502L21.505 20.8823ZM21.6645 20.8472L21.6553 19.3472L21.6491 19.3473L21.6645 20.8472ZM19.7556 5.36805H19.3569V8.36805H19.7556V5.36805ZM21.2556 17.492V6.86805H18.2556V17.492H21.2556ZM22.2943 16.4939C21.4882 16.1602 20.624 15.9897 19.7516 15.992L19.7596 18.992C20.2356 18.9907 20.7072 19.0838 21.1471 19.2658L22.2943 16.4939ZM24.448 17.9357C23.8324 17.3176 23.1004 16.8275 22.2943 16.4939L21.1471 19.2658C21.5869 19.4479 21.9863 19.7153 22.3223 20.0526L24.448 17.9357ZM25.1112 18.7216C24.9129 18.4471 24.6945 18.1878 24.4578 17.9457L22.3125 20.0427C22.4455 20.1788 22.5682 20.3245 22.6797 20.4787L25.1112 18.7216ZM22.3954 6.86805V19.6002H25.3954V6.86805H22.3954ZM24.3196 5.36805H23.8954V8.36805H24.3196V5.36805ZM23.8173 5.50892C23.9666 5.41754 24.138 5.36883 24.3131 5.36806L24.3262 8.36803C24.6994 8.3664 25.065 8.26253 25.3833 8.06771L23.8173 5.50892ZM23.4243 5.94836C23.5011 5.77803 23.6252 5.63332 23.7817 5.53136L25.4189 8.04527C25.7431 7.83413 26 7.53446 26.159 7.18175L23.4243 5.94836ZM23.3498 6.49684C23.3212 6.30554 23.3493 6.11008 23.4306 5.9346L26.1527 7.19551C26.3178 6.83906 26.3749 6.44203 26.3169 6.05347L23.3498 6.49684ZM23.5914 7.01089C23.4624 6.86682 23.3784 6.68811 23.3498 6.49684L26.3169 6.05347C26.2588 5.66494 26.0882 5.30194 25.8261 5.00931L23.5914 7.01089ZM21.0986 4.16256L23.58 6.99794L25.8375 5.02225L23.3562 2.18687L21.0986 4.16256ZM21.4553 4.42338C21.3201 4.36474 21.1994 4.27697 21.1019 4.16633L23.3529 2.1831C23.1586 1.96264 22.9181 1.78775 22.6486 1.6709L21.4553 4.42338ZM21.8399 4.5C21.6936 4.5 21.5491 4.46789 21.4166 4.40593L22.6873 1.68834C22.422 1.56429 22.1327 1.5 21.8399 1.5V4.5ZM22.2631 4.40593C22.1306 4.46789 21.9861 4.5 21.8399 4.5V1.5C21.547 1.5 21.2577 1.56429 20.9924 1.68834L22.2631 4.40593ZM22.5778 4.16634C22.4804 4.27696 22.3597 4.36473 22.2244 4.42338L21.0312 1.67089C20.7616 1.78776 20.5211 1.96265 20.3269 2.18308L22.5778 4.16634ZM20.096 6.99866L22.5805 4.16328L20.3242 2.18615L17.8396 5.02153L20.096 6.99866ZM20.3283 6.49622C20.3004 6.68347 20.2191 6.8587 20.094 7.00084L17.8416 5.01935C17.5851 5.31088 17.4183 5.67025 17.3611 6.05429L20.3283 6.49622ZM20.2513 5.94522C20.3295 6.11764 20.3562 6.30897 20.3283 6.49622L17.3611 6.05429C17.3039 6.43833 17.3587 6.83071 17.5191 7.18433L20.2513 5.94522ZM19.8875 5.52424C20.0468 5.62663 20.1731 5.7728 20.2513 5.94521L17.5191 7.18434C17.6795 7.53794 17.9385 7.83774 18.2651 8.04772L19.8875 5.52424ZM19.3535 5.36805C19.5428 5.36763 19.7283 5.42186 19.8875 5.52424L18.2651 8.04771C18.5917 8.25769 18.972 8.36892 19.3603 8.36805L19.3535 5.36805ZM14.7784 18.2193C13.7005 19.4356 13.1072 21.0056 13.1114 22.6308L16.1114 22.6231C16.1091 21.7338 16.4337 20.8746 17.0236 20.2091L14.7784 18.2193ZM18.9576 16.0343C17.3437 16.2254 15.8563 17.0031 14.7784 18.2193L17.0236 20.2091C17.6134 19.5436 18.4273 19.1181 19.3104 19.0135L18.9576 16.0343ZM17.634 10.4976V17.5239H20.634V10.4976H17.634ZM17.5815 10.2341C17.6162 10.3176 17.634 10.4072 17.634 10.4976L20.634 10.4976C20.634 10.0128 20.5384 9.53285 20.3527 9.08505L17.5815 10.2341ZM17.4321 10.0108C17.4961 10.0747 17.5469 10.1506 17.5815 10.2341L20.3527 9.08505C20.1671 8.63726 19.8949 8.23047 19.5519 7.88794L17.4321 10.0108ZM17.2086 9.86175C17.2922 9.89626 17.3682 9.94691 17.4321 10.0108L19.5519 7.88794C19.2089 7.54541 18.8017 7.27387 18.3536 7.08885L17.2086 9.86175ZM16.9451 9.80967C17.0355 9.80954 17.125 9.82723 17.2086 9.86175L18.3536 7.08886C17.9056 6.90383 17.4254 6.80897 16.9407 6.80967L16.9451 9.80967ZM8.19113 9.80967H16.9429V6.80967H8.19113V9.80967ZM7.92537 9.86175C8.00895 9.82723 8.09851 9.80954 8.18894 9.80967L8.19331 6.80967C7.70855 6.80897 7.22841 6.90383 6.78035 7.08886L7.92537 9.86175ZM7.70185 10.0108C7.76583 9.94691 7.84179 9.89626 7.92537 9.86175L6.78035 7.08886C6.33229 7.27387 5.9251 7.54541 5.58207 7.88794L7.70185 10.0108ZM7.55246 10.2341C7.5871 10.1506 7.63786 10.0747 7.70185 10.0108L5.58207 7.88794C5.23905 8.23047 4.96691 8.63726 4.78124 9.08505L7.55246 10.2341ZM7.5 10.4976C7.5 10.4072 7.51783 10.3176 7.55246 10.2341L4.78124 9.08505C4.59557 9.53284 4.5 10.0128 4.5 10.4976L7.5 10.4976ZM7.5 23.6412V10.4976H4.5V23.6412H7.5ZM7.55217 23.9072C7.5176 23.8235 7.49987 23.7339 7.5 23.6433L4.5 23.639C4.4993 24.1242 4.59434 24.6048 4.7797 25.0532L7.55217 23.9072ZM7.70149 24.1308C7.63749 24.0668 7.58675 23.9908 7.55217 23.9072L4.7797 25.0532C4.96506 25.5016 5.23708 25.909 5.58017 26.2521L7.70149 24.1308ZM7.92514 24.2801C7.84149 24.2455 7.76549 24.1948 7.70149 24.1308L5.58017 26.2521C5.92327 26.5952 6.3307 26.8672 6.77911 27.0526L7.92514 24.2801ZM8.18894 24.3323C8.09843 24.3324 8.00878 24.3147 7.92513 24.2801L6.77911 27.0526C7.22752 27.2379 7.7081 27.333 8.19331 27.3323L8.18894 24.3323ZM15.75 24.3323H8.19113V27.3323H15.75V24.3323ZM13.1114 22.6269C13.1114 24.1391 13.6322 25.6052 14.5862 26.7786L16.9139 24.886C16.3948 24.2475 16.1114 23.4498 16.1114 22.627L13.1114 22.6269ZM9.28297 11.1887C8.74287 11.1895 8.22491 11.4035 7.84181 11.7843L9.95654 13.9121C9.77861 14.089 9.53806 14.1884 9.28722 14.1887L9.28297 11.1887ZM15.8585 11.1887H9.28509V14.1887H15.8585V11.1887ZM17.3017 11.7843C16.9186 11.4035 16.4007 11.1895 15.8606 11.1887L15.8563 14.1887C15.6055 14.1884 15.3649 14.089 15.187 13.9121L17.3017 11.7843ZM17.9039 13.2367C17.9037 12.6976 17.6916 12.1801 17.3133 11.7959L15.1754 13.9005C15.0015 13.7238 14.9039 13.4858 14.9039 13.2379L17.9039 13.2367ZM17.3083 14.6806C17.6891 14.2975 17.9031 13.7795 17.9039 13.2394L14.9039 13.2352C14.9042 12.9843 15.0036 12.7438 15.1804 12.5659L17.3083 14.6806ZM16.6505 15.1258C16.9012 15.0201 17.1282 14.8653 17.3182 14.6706L15.1706 12.5759C15.2601 12.4841 15.3671 12.4111 15.4853 12.3613L16.6505 15.1258ZM15.8583 15.2859C16.1304 15.2859 16.3997 15.2315 16.6505 15.1258L15.4853 12.3613C15.6034 12.3115 15.7304 12.2859 15.8586 12.2859L15.8583 15.2859ZM9.28509 15.2859H15.8585V12.2859H9.28509V15.2859ZM8.4931 15.1258C8.74382 15.2315 9.01315 15.2859 9.28523 15.2859L9.28495 12.2859C9.41318 12.2859 9.54012 12.3115 9.65828 12.3613L8.4931 15.1258ZM7.82535 14.6706C8.01534 14.8653 8.24238 15.0201 8.49309 15.1258L9.65829 12.3613C9.77645 12.4111 9.88345 12.4841 9.973 12.5759L7.82535 14.6706ZM7.23658 13.2518C7.24178 13.791 7.45907 14.3065 7.84144 14.6868L9.95691 12.5596C10.1336 12.7354 10.234 12.9736 10.2364 13.2229L7.23658 13.2518ZM7.83637 11.7897C7.45649 12.1711 7.24116 12.6862 7.23657 13.2245L10.2365 13.2501C10.2344 13.4965 10.1358 13.7322 9.96198 13.9067L7.83637 11.7897ZM9.28297 13.3799C8.74286 13.3806 8.22491 13.5947 7.84182 13.9754L9.95653 16.1033C9.77861 16.2801 9.53806 16.3795 9.28722 16.3799L9.28297 13.3799ZM15.8585 13.3799H9.28509V16.3799H15.8585V13.3799ZM17.3194 14.0346C16.9685 13.6558 16.4876 13.4236 15.9728 13.3842L15.7442 16.3755C15.5051 16.3572 15.2817 16.2493 15.1188 16.0735L17.3194 14.0346ZM17.8652 15.4268C17.8652 14.9105 17.6703 14.4133 17.3194 14.0345L15.1188 16.0735C14.9558 15.8976 14.8652 15.6666 14.8652 15.4268H17.8652ZM17.3194 16.8191C17.6703 16.4404 17.8652 15.9431 17.8652 15.4268H14.8652C14.8652 15.1871 14.9558 14.9561 15.1188 14.7802L17.3194 16.8191ZM15.9728 17.4695C16.4876 17.4301 16.9685 17.1978 17.3194 16.8191L15.1188 14.7802C15.2817 14.6043 15.5051 14.4965 15.7442 14.4782L15.9728 17.4695ZM9.28509 17.4738H15.8585V14.4738H9.28509V17.4738ZM8.14995 17.1324C8.48929 17.3577 8.88816 17.4766 9.29547 17.4738L9.27471 14.4739C9.46481 14.4725 9.65097 14.528 9.80934 14.6332L8.14995 17.1324ZM7.3908 16.2092C7.54627 16.5857 7.81061 16.9071 8.14994 17.1324L9.80935 14.6332C9.96772 14.7383 10.0911 14.8884 10.1637 15.0641L7.3908 16.2092ZM7.27727 15.0193C7.19579 15.4184 7.23532 15.8327 7.39079 16.2092L10.1637 15.0641C10.2362 15.2398 10.2547 15.4331 10.2166 15.6194L7.27727 15.0193ZM7.84816 13.9691C7.55754 14.2545 7.35876 14.6202 7.27727 15.0193L10.2166 15.6194C10.1786 15.8057 10.0858 15.9763 9.9502 16.1095L7.84816 13.9691ZM9.28297 15.571C8.74287 15.5717 8.22491 15.7858 7.84181 16.1665L9.95654 18.2944C9.77861 18.4712 9.53806 18.5706 9.28722 18.571L9.28297 15.571ZM15.8585 15.571H9.28509V18.571H15.8585V15.571ZM17.3194 16.2257C16.9685 15.8469 16.4875 15.6147 15.9728 15.5753L15.7442 18.5666C15.5051 18.5483 15.2817 18.4405 15.1187 18.2646L17.3194 16.2257ZM17.8652 17.618C17.8652 17.1017 17.6703 16.6044 17.3194 16.2257L15.1188 18.2646C14.9558 18.0887 14.8652 17.8577 14.8652 17.618H17.8652ZM17.3194 19.0102C17.6703 18.6315 17.8652 18.1343 17.8652 17.618H14.8652C14.8652 17.3782 14.9558 17.1472 15.1188 16.9713L17.3194 19.0102ZM15.9728 19.6606C16.4876 19.6212 16.9685 19.389 17.3194 19.0102L15.1188 16.9713C15.2817 16.7955 15.5051 16.6876 15.7442 16.6693L15.9728 19.6606ZM9.28509 19.6649H15.8585V16.6649H9.28509V19.6649ZM8.14994 19.3236C8.48928 19.5489 8.88816 19.6677 9.29547 19.6649L9.27471 16.665C9.46481 16.6637 9.65098 16.7191 9.80935 16.8243L8.14994 19.3236ZM7.3908 18.4003C7.54627 18.7768 7.81062 19.0983 8.14995 19.3236L9.80934 16.8243C9.96771 16.9294 10.0911 17.0795 10.1637 17.2552L7.3908 18.4003ZM7.27727 17.2104C7.19579 17.6095 7.23532 18.0238 7.39079 18.4003L10.1637 17.2552C10.2362 17.4309 10.2547 17.6243 10.2166 17.8105L7.27727 17.2104ZM7.84816 16.1602C7.55754 16.4456 7.35876 16.8113 7.27727 17.2104L10.2166 17.8105C10.1786 17.9968 10.0858 18.1675 9.9502 18.3007L7.84816 16.1602ZM13.3495 21.7031C13.5988 21.6009 13.8255 21.4505 14.0167 21.2605L11.9019 19.1327C11.9907 19.0444 12.096 18.9746 12.2118 18.9271L13.3495 21.7031ZM12.5636 21.8561C12.8331 21.8572 13.1001 21.8052 13.3495 21.7031L12.2118 18.9271C12.3276 18.8797 12.4516 18.8555 12.5768 18.8561L12.5636 21.8561ZM9.28509 21.8561H12.5702V18.8561H9.28509V21.8561ZM7.82416 21.2014C8.17505 21.5801 8.65601 21.8124 9.1708 21.8517L9.39938 18.8604C9.63847 18.8787 9.86184 18.9866 10.0248 19.1625L7.82416 21.2014ZM7.27831 19.8091C7.27831 20.3254 7.47327 20.8226 7.82415 21.2014L10.0248 19.1625C10.1878 19.3384 10.2783 19.5693 10.2783 19.8091H7.27831ZM7.82416 18.4168C7.47326 18.7955 7.27831 19.2928 7.27831 19.8091H10.2783C10.2783 20.0489 10.1878 20.2798 10.0248 20.4557L7.82416 18.4168ZM9.1708 17.7665C8.65602 17.8058 8.17505 18.0381 7.82415 18.4168L10.0248 20.4557C9.86184 20.6316 9.63846 20.7395 9.39938 20.7577L9.1708 17.7665ZM12.5702 17.7621H9.28509V20.7621H12.5702V17.7621ZM13.7072 18.1071C13.3712 17.8827 12.9763 17.7627 12.5723 17.7621L12.5681 20.7621C12.3804 20.7618 12.1971 20.7061 12.041 20.6019L13.7072 18.1071ZM14.4606 19.0232C14.3053 18.6502 14.0432 18.3315 13.7072 18.1071L12.041 20.6019C11.885 20.4977 11.7632 20.3496 11.6911 20.1764L14.4606 19.0232ZM14.58 20.2034C14.6575 19.8068 14.6159 19.3962 14.4606 19.0232L11.6911 20.1764C11.619 20.0032 11.5997 19.8125 11.6356 19.6283L14.58 20.2034ZM14.0253 21.2518C14.3096 20.9647 14.5026 20.5999 14.58 20.2034L11.6356 19.6283C11.6716 19.4441 11.7612 19.2747 11.8932 19.1414L14.0253 21.2518ZM22.6395 22.6237C22.6381 23.2906 22.4055 23.9364 21.9813 24.451L24.2963 26.3591C25.1619 25.3089 25.6366 23.991 25.6395 22.63L22.6395 22.6237ZM22.4229 21.5207C22.5668 21.8705 22.6404 22.2451 22.6395 22.6233L25.6395 22.6305C25.6413 21.8582 25.491 21.0932 25.1971 20.3791L22.4229 21.5207ZM21.8007 20.5851C22.0675 20.8531 22.279 21.171 22.4229 21.5207L25.1971 20.3791C24.9033 19.6649 24.4716 19.0157 23.9267 18.4684L21.8007 20.5851ZM20.0468 19.75C20.7103 19.817 21.33 20.112 21.8004 20.5848L23.927 18.4688C22.9671 17.504 21.7023 16.9019 20.3482 16.7652L20.0468 19.75ZM18.1617 20.2174C18.7171 19.8482 19.3833 19.683 20.0468 19.75L20.3482 16.7652C18.9941 16.6285 17.6344 16.9655 16.501 17.719L18.1617 20.2174ZM17.0011 21.7745C17.1962 21.1368 17.6063 20.5865 18.1617 20.2174L16.501 17.719C15.3676 18.4724 14.5305 19.5955 14.1323 20.8969L17.0011 21.7745ZM17.0919 23.7146C16.8381 23.0979 16.806 22.4123 17.0011 21.7745L14.1323 20.8969C13.7342 22.1984 13.7997 23.5977 14.3176 24.8562L17.0919 23.7146ZM18.3929 25.1566C17.8054 24.8409 17.3457 24.3313 17.0919 23.7146L14.3176 24.8562C14.8355 26.1148 15.7739 27.1549 16.9727 27.7991L18.3929 25.1566ZM20.3133 25.4458C19.659 25.5745 18.9803 25.4722 18.3929 25.1566L16.9727 27.7991C18.1716 28.4434 19.5567 28.652 20.8921 28.3894L20.3133 25.4458ZM21.9813 24.451C21.5572 24.9655 20.9677 25.3171 20.3133 25.4458L20.8921 28.3894C22.2276 28.1268 23.4306 27.4093 24.2963 26.3591L21.9813 24.451ZM23.0008 19.8809C22.8264 19.7142 22.6226 19.5815 22.3996 19.4894L21.2547 22.2624C21.1335 22.2123 21.0226 22.1401 20.9278 22.0495L23.0008 19.8809ZM21.9547 22.4652H21.9643V19.4652H21.9547V22.4652ZM23.5756 21.2215C23.5656 20.7303 23.3677 20.2616 23.0226 19.9118L20.8869 22.0186C20.6931 21.8221 20.5819 21.5588 20.5763 21.2829L23.5756 21.2215ZM23.0581 22.5655C23.3896 22.2101 23.5745 21.7426 23.5759 21.2566L20.5759 21.2479C20.5767 20.9774 20.6797 20.7172 20.8641 20.5195L23.0581 22.5655ZM20.9437 25.2106L23.1316 22.4805L20.7906 20.6044L18.6027 23.3346L20.9437 25.2106ZM20.2543 25.7378C20.498 25.6289 20.7158 25.4695 20.8933 25.2702L18.653 23.275C18.7579 23.1572 18.8866 23.0631 19.0306 22.9988L20.2543 25.7378ZM19.5707 25.904C19.8029 25.8904 20.0308 25.8357 20.2439 25.7424L19.041 22.9942C19.1531 22.9451 19.273 22.9163 19.3952 22.9091L19.5707 25.904ZM18.732 25.7545C18.9767 25.8588 19.2406 25.9106 19.5066 25.9064L19.4593 22.9067C19.6136 22.9043 19.7667 22.9343 19.9086 22.9948L18.732 25.7545ZM18.1204 25.344C18.3082 25.5325 18.5336 25.6793 18.782 25.7747L19.8586 22.9746C20.004 23.0305 20.1359 23.1164 20.2458 23.2267L18.1204 25.344ZM16.6733 23.8937L18.1213 25.3449L20.245 23.2259L18.797 21.7747L16.6733 23.8937ZM16.1236 22.528C16.1173 23.0229 16.3033 23.501 16.6422 23.8616L18.8281 21.8068C19.0211 22.0121 19.127 22.2844 19.1234 22.5662L16.1236 22.528ZM16.6939 21.1961C16.3387 21.5448 16.1341 22.0186 16.1238 22.5161L19.1232 22.5781C19.1173 22.8641 18.9997 23.1364 18.7956 23.3368L16.6939 21.1961ZM17.2855 20.7978C17.0533 20.8969 16.8433 21.0413 16.6676 21.2225L18.8218 23.3105C18.7199 23.4156 18.5981 23.4993 18.4634 23.5568L17.2855 20.7978ZM18.0195 20.6453C17.7671 20.6468 17.5176 20.6987 17.2854 20.7978L18.4635 23.5568C18.3288 23.6143 18.1841 23.6443 18.0377 23.6452L18.0195 20.6453ZM19.324 21.1432C18.9638 20.8162 18.4928 20.6382 18.0064 20.6454L18.0508 23.6451C17.7763 23.6492 17.5105 23.5488 17.3073 23.3642L19.324 21.1432ZM20.5228 22.3427L19.3778 21.1945L17.2535 23.3129L18.3985 24.4611L20.5228 22.3427ZM20.1969 20.0485L18.2833 22.4724L20.6379 24.3314L22.5516 21.9074L20.1969 20.0485ZM20.9169 19.5024C20.6552 19.6139 20.4226 19.7841 20.237 19.9999L22.5115 21.956C22.3973 22.0888 22.2542 22.1935 22.0931 22.2622L20.9169 19.5024ZM21.6491 19.3473C21.3871 19.35 21.1285 19.4069 20.8896 19.5143L22.1205 22.2502C21.9819 22.3125 21.8319 22.3455 21.68 22.3471L21.6491 19.3473ZM22.3492 19.4697C22.1272 19.3872 21.8921 19.3458 21.6553 19.3472L21.6737 22.3472C21.5479 22.3479 21.423 22.3259 21.3051 22.2821L22.3492 19.4697Z" fill="#C7C7C7" mask="url(#path-1-outside-1_883_9519)"/>
<path d="M19.7556 6.86805H21.2556C21.2556 6.03962 20.584 5.36805 19.7556 5.36805V6.86805ZM19.3569 6.86805L19.3569 5.36805L19.3535 5.36805L19.3569 6.86805ZM19.7556 17.492H18.2556C18.2556 17.8905 18.4142 18.2726 18.6963 18.554C18.9785 18.8355 19.3611 18.993 19.7596 18.992L19.7556 17.492ZM21.7207 17.8798L22.2943 16.4939L22.2943 16.4939L21.7207 17.8798ZM23.3851 18.9942L24.4578 17.9456L24.448 17.9357L23.3851 18.9942ZM23.8954 19.6002L22.6797 20.4787C23.0607 21.006 23.7382 21.2276 24.3571 21.0273C24.9761 20.8271 25.3954 20.2507 25.3954 19.6002H23.8954ZM23.8954 6.86805V5.36805C23.067 5.36805 22.3954 6.03962 22.3954 6.86805H23.8954ZM24.3196 6.86805L24.3196 8.36806L24.3262 8.36803L24.3196 6.86805ZM24.6003 6.78831L25.3833 8.06771C25.3953 8.0604 25.4071 8.05291 25.4189 8.04527L24.6003 6.78831ZM24.7917 6.56506L23.4306 5.9346C23.4285 5.93918 23.4264 5.94376 23.4243 5.94836L24.7917 6.56506ZM24.8333 6.27516L26.3169 6.05347L26.3169 6.05347L24.8333 6.27516ZM24.7087 6.0101L23.58 6.99794C23.5837 7.00228 23.5876 7.0066 23.5914 7.01089L24.7087 6.0101ZM22.2274 3.17471L23.3562 2.18686L23.3529 2.1831L22.2274 3.17471ZM22.052 3.04714L21.4166 4.40593C21.4294 4.41193 21.4423 4.41775 21.4553 4.42338L22.052 3.04714ZM21.6278 3.04714L22.2244 4.42338C22.2374 4.41775 22.2503 4.41193 22.2631 4.40593L21.6278 3.04714ZM21.4524 3.17471L20.3269 2.18308L20.3242 2.18615L21.4524 3.17471ZM18.9678 6.0101L20.094 7.00085L20.096 6.99866L18.9678 6.0101ZM18.8852 6.56478L17.5191 7.18433L17.5191 7.18434L18.8852 6.56478ZM19.0763 6.78598L19.8875 5.52424L19.8875 5.52424L19.0763 6.78598ZM15.901 19.2142L17.0236 20.2091L17.0236 20.2091L15.901 19.2142ZM14.6114 22.6269L16.1114 22.627L16.1114 22.6231L14.6114 22.6269ZM19.134 17.5239L19.3104 19.0135C20.0653 18.9241 20.634 18.2841 20.634 17.5239H19.134ZM19.134 10.4976L17.634 10.4976V10.4976H19.134ZM18.9671 9.65958L20.3527 9.08505L20.3527 9.08505L18.9671 9.65958ZM18.492 8.94937L19.5519 7.88794L19.5519 7.88794L18.492 8.94937ZM17.7811 8.4753L17.2086 9.86175L17.2086 9.86175L17.7811 8.4753ZM16.9429 8.30967L16.9429 9.80967L16.9451 9.80967L16.9429 8.30967ZM8.19113 8.30967L8.18894 9.80967H8.19113V8.30967ZM7.35286 8.4753L7.92537 9.86175L7.92537 9.86175L7.35286 8.4753ZM6.64196 8.94937L5.58207 7.88794L5.58207 7.88794L6.64196 8.94937ZM6.16685 9.65958L4.78124 9.08505L4.78124 9.08505L6.16685 9.65958ZM6 10.4976L7.5 10.4976L7.5 10.4976L6 10.4976ZM6 23.6412L7.5 23.6433V23.6412H6ZM6.16594 24.4802L4.7797 25.0532L4.7797 25.0532L6.16594 24.4802ZM6.64083 25.1915L5.58017 26.2521L5.58017 26.2521L6.64083 25.1915ZM7.35212 25.6663L6.77911 27.0526L6.77911 27.0526L7.35212 25.6663ZM8.19113 25.8323L8.19113 24.3323L8.18894 24.3323L8.19113 25.8323ZM15.75 25.8323V27.3323C16.3288 27.3323 16.8559 26.9993 17.1045 26.4767C17.3532 25.9541 17.279 25.335 16.9139 24.886L15.75 25.8323ZM9.28509 12.6887L9.28509 11.1887L9.28297 11.1887L9.28509 12.6887ZM8.89918 12.8482L7.8418 11.7842L7.83637 11.7897L8.89918 12.8482ZM15.8585 12.6887L15.8606 11.1887H15.8585V12.6887ZM16.2444 12.8482L17.3133 11.7959C17.3095 11.792 17.3056 11.7881 17.3017 11.7843L16.2444 12.8482ZM16.4039 13.2373L17.9039 13.2394L17.9039 13.2367L16.4039 13.2373ZM16.2444 13.6232L15.1804 12.5658L15.1706 12.5759L16.2444 13.6232ZM16.0679 13.7436L16.6505 15.1258L16.6505 15.1258L16.0679 13.7436ZM15.8585 13.7859L15.8586 12.2859H15.8585V13.7859ZM9.28509 13.7859L9.28509 12.2859L9.28495 12.2859L9.28509 13.7859ZM9.07569 13.7436L8.49309 15.1258L8.4931 15.1258L9.07569 13.7436ZM8.89918 13.6232L9.973 12.5759C9.96768 12.5704 9.96231 12.565 9.95691 12.5596L8.89918 13.6232ZM8.73652 13.2373L7.23657 13.2245C7.23649 13.2336 7.2365 13.2427 7.23658 13.2518L8.73652 13.2373ZM9.28509 14.8799L9.28509 13.3799L9.28297 13.3799L9.28509 14.8799ZM8.89918 15.0393L9.95021 16.1096L9.95653 16.1033L8.89918 15.0393ZM15.8585 14.8799L15.9728 13.3842C15.9347 13.3813 15.8966 13.3799 15.8585 13.3799V14.8799ZM16.2191 15.054L15.1188 16.0735L15.1188 16.0735L16.2191 15.054ZM16.2191 15.7997L15.1188 14.7802L15.1188 14.7802L16.2191 15.7997ZM15.8585 15.9738V17.4738C15.8966 17.4738 15.9347 17.4724 15.9728 17.4695L15.8585 15.9738ZM9.28509 15.9738L9.28509 14.4738L9.27471 14.4739L9.28509 15.9738ZM8.97965 15.8828L8.14994 17.1324L8.14995 17.1324L8.97965 15.8828ZM8.77722 15.6366L7.39079 16.2092L7.3908 16.2092L8.77722 15.6366ZM8.74695 15.3193L10.2166 15.6194L10.2166 15.6194L8.74695 15.3193ZM9.28509 17.071L9.28509 15.571L9.28297 15.571L9.28509 17.071ZM8.89918 17.2304L9.95021 18.3007L9.95654 18.2944L8.89918 17.2304ZM15.8585 17.071L15.9728 15.5753C15.9347 15.5724 15.8966 15.571 15.8585 15.571V17.071ZM16.2191 17.2451L15.1187 18.2646L15.1188 18.2646L16.2191 17.2451ZM16.2191 17.9908L15.1188 16.9713L15.1188 16.9713L16.2191 17.9908ZM15.8585 18.1649V19.6649C15.8966 19.6649 15.9347 19.6635 15.9728 19.6606L15.8585 18.1649ZM9.28509 18.1649L9.28509 16.6649L9.27471 16.665L9.28509 18.1649ZM8.97965 18.0739L9.80935 16.8243L9.80934 16.8243L8.97965 18.0739ZM8.77722 17.8277L7.39079 18.4003L7.3908 18.4003L8.77722 17.8277ZM8.74695 17.5105L10.2166 17.8105L10.2166 17.8105L8.74695 17.5105ZM12.9593 20.1966L14.0167 21.2606L14.0253 21.2518L12.9593 20.1966ZM12.5702 20.3561L12.5768 18.8561H12.5702V20.3561ZM9.28509 20.3561L9.1708 21.8517C9.20883 21.8546 9.24696 21.8561 9.28509 21.8561V20.3561ZM8.92448 20.1819L7.82415 21.2014L7.82416 21.2014L8.92448 20.1819ZM8.92448 19.4363L10.0248 20.4557L10.0248 20.4557L8.92448 19.4363ZM9.28509 19.2621V17.7621C9.24696 17.7621 9.20883 17.7636 9.1708 17.7665L9.28509 19.2621ZM12.5702 19.2621L12.5723 17.7621H12.5702V19.2621ZM13.0758 19.5998L14.4606 19.0232L14.4606 19.0232L13.0758 19.5998ZM13.1078 19.9158L11.6356 19.6283L11.6356 19.6283L13.1078 19.9158ZM24.1395 22.6269L22.6395 22.6233L22.6395 22.6237L24.1395 22.6269ZM23.1388 25.405L24.2963 26.3591L24.2963 26.3591L23.1388 25.405ZM23.81 20.9499L22.4229 21.5207L22.4229 21.5207L23.81 20.9499ZM22.8637 19.5268L21.8004 20.5848L21.8007 20.5851L22.8637 19.5268ZM20.1975 18.2576L20.3482 16.7652L20.3482 16.7652L20.1975 18.2576ZM17.3314 18.9682L16.501 17.719L16.501 17.719L17.3314 18.9682ZM15.5667 21.3357L17.0011 21.7745L17.0011 21.7745L15.5667 21.3357ZM15.7047 24.2854L14.3176 24.8562L14.3176 24.8562L15.7047 24.2854ZM17.6828 26.4778L16.9727 27.7991L16.9727 27.7991L17.6828 26.4778ZM21.9643 20.9652V22.4652C22.5772 22.4652 23.1284 22.0924 23.3565 21.5235C23.5846 20.9547 23.4438 20.3043 23.0008 19.8809L21.9643 20.9652ZM21.8272 20.8759L22.3996 19.4894C22.3829 19.4825 22.3661 19.4759 22.3492 19.4697L21.8272 20.8759ZM21.9547 20.9652V19.4652C21.3499 19.4652 20.8042 19.8284 20.5709 20.3864C20.3375 20.9444 20.4621 21.588 20.8869 22.0186L21.9547 20.9652ZM22.0759 21.2522L23.5759 21.2566C23.576 21.2449 23.5759 21.2332 23.5756 21.2215L22.0759 21.2522ZM21.9611 21.5425L20.8641 20.5195C20.8386 20.5469 20.814 20.5752 20.7906 20.6044L21.9611 21.5425ZM19.7732 24.2726L20.8933 25.2702C20.9106 25.2508 20.9274 25.2309 20.9437 25.2106L19.7732 24.2726ZM19.6424 24.3683L20.2439 25.7425L20.2543 25.7378L19.6424 24.3683ZM19.4829 24.4066L19.5066 25.9064C19.528 25.906 19.5494 25.9052 19.5707 25.904L19.4829 24.4066ZM19.3203 24.3747L19.9086 22.9948C19.892 22.9878 19.8754 22.981 19.8586 22.9746L19.3203 24.3747ZM19.1831 24.2854L20.2458 23.2267L20.245 23.2259L19.1831 24.2854ZM17.7352 22.8342L16.6422 23.8616C16.6524 23.8724 16.6628 23.8831 16.6733 23.8937L17.7352 22.8342ZM17.6235 22.5471L16.1238 22.5161L16.1236 22.528L17.6235 22.5471ZM17.7447 22.2665L18.7956 23.3368C18.8044 23.3282 18.8132 23.3194 18.8218 23.3105L17.7447 22.2665ZM17.8744 22.1773L18.4634 23.5568L18.4635 23.5568L17.8744 22.1773ZM18.0286 22.1453L18.0377 23.6453L18.0508 23.6451L18.0286 22.1453ZM18.3156 22.2537L19.3778 21.1945C19.3603 21.177 19.3423 21.1599 19.324 21.1432L18.3156 22.2537ZM19.4606 23.4019L18.3985 24.4611C18.7012 24.7646 19.1194 24.9242 19.5474 24.8994C19.9754 24.8746 20.3723 24.6679 20.6379 24.3314L19.4606 23.4019ZM21.3743 20.9779L20.237 19.9999C20.2233 20.0158 20.21 20.032 20.1969 20.0485L21.3743 20.9779ZM21.505 20.8823L22.0931 22.2622C22.1023 22.2583 22.1114 22.2543 22.1205 22.2502L21.505 20.8823ZM21.6645 20.8472L21.6553 19.3472L21.6491 19.3473L21.6645 20.8472ZM19.7556 5.36805H19.3569V8.36805H19.7556V5.36805ZM21.2556 17.492V6.86805H18.2556V17.492H21.2556ZM22.2943 16.4939C21.4882 16.1602 20.624 15.9897 19.7516 15.992L19.7596 18.992C20.2356 18.9907 20.7072 19.0838 21.1471 19.2658L22.2943 16.4939ZM24.448 17.9357C23.8324 17.3176 23.1004 16.8275 22.2943 16.4939L21.1471 19.2658C21.5869 19.4479 21.9863 19.7153 22.3223 20.0526L24.448 17.9357ZM25.1112 18.7216C24.9129 18.4471 24.6945 18.1878 24.4578 17.9457L22.3125 20.0427C22.4455 20.1788 22.5682 20.3245 22.6797 20.4787L25.1112 18.7216ZM22.3954 6.86805V19.6002H25.3954V6.86805H22.3954ZM24.3196 5.36805H23.8954V8.36805H24.3196V5.36805ZM23.8173 5.50892C23.9666 5.41754 24.138 5.36883 24.3131 5.36806L24.3262 8.36803C24.6994 8.3664 25.065 8.26253 25.3833 8.06771L23.8173 5.50892ZM23.4243 5.94836C23.5011 5.77803 23.6252 5.63332 23.7817 5.53136L25.4189 8.04527C25.7431 7.83413 26 7.53446 26.159 7.18175L23.4243 5.94836ZM23.3498 6.49684C23.3212 6.30554 23.3493 6.11008 23.4306 5.9346L26.1527 7.19551C26.3178 6.83906 26.3749 6.44203 26.3169 6.05347L23.3498 6.49684ZM23.5914 7.01089C23.4624 6.86682 23.3784 6.68811 23.3498 6.49684L26.3169 6.05347C26.2588 5.66494 26.0882 5.30194 25.8261 5.00931L23.5914 7.01089ZM21.0986 4.16256L23.58 6.99794L25.8375 5.02225L23.3562 2.18687L21.0986 4.16256ZM21.4553 4.42338C21.3201 4.36474 21.1994 4.27697 21.1019 4.16633L23.3529 2.1831C23.1586 1.96264 22.9181 1.78775 22.6486 1.6709L21.4553 4.42338ZM21.8399 4.5C21.6936 4.5 21.5491 4.46789 21.4166 4.40593L22.6873 1.68834C22.422 1.56429 22.1327 1.5 21.8399 1.5V4.5ZM22.2631 4.40593C22.1306 4.46789 21.9861 4.5 21.8399 4.5V1.5C21.547 1.5 21.2577 1.56429 20.9924 1.68834L22.2631 4.40593ZM22.5778 4.16634C22.4804 4.27696 22.3597 4.36473 22.2244 4.42338L21.0312 1.67089C20.7616 1.78776 20.5211 1.96265 20.3269 2.18308L22.5778 4.16634ZM20.096 6.99866L22.5805 4.16328L20.3242 2.18615L17.8396 5.02153L20.096 6.99866ZM20.3283 6.49622C20.3004 6.68347 20.2191 6.8587 20.094 7.00084L17.8416 5.01935C17.5851 5.31088 17.4183 5.67025 17.3611 6.05429L20.3283 6.49622ZM20.2513 5.94522C20.3295 6.11764 20.3562 6.30897 20.3283 6.49622L17.3611 6.05429C17.3039 6.43833 17.3587 6.83071 17.5191 7.18433L20.2513 5.94522ZM19.8875 5.52424C20.0468 5.62663 20.1731 5.7728 20.2513 5.94521L17.5191 7.18434C17.6795 7.53794 17.9385 7.83774 18.2651 8.04772L19.8875 5.52424ZM19.3535 5.36805C19.5428 5.36763 19.7283 5.42186 19.8875 5.52424L18.2651 8.04771C18.5917 8.25769 18.972 8.36892 19.3603 8.36805L19.3535 5.36805ZM14.7784 18.2193C13.7005 19.4356 13.1072 21.0056 13.1114 22.6308L16.1114 22.6231C16.1091 21.7338 16.4337 20.8746 17.0236 20.2091L14.7784 18.2193ZM18.9576 16.0343C17.3437 16.2254 15.8563 17.0031 14.7784 18.2193L17.0236 20.2091C17.6134 19.5436 18.4273 19.1181 19.3104 19.0135L18.9576 16.0343ZM17.634 10.4976V17.5239H20.634V10.4976H17.634ZM17.5815 10.2341C17.6162 10.3176 17.634 10.4072 17.634 10.4976L20.634 10.4976C20.634 10.0128 20.5384 9.53285 20.3527 9.08505L17.5815 10.2341ZM17.4321 10.0108C17.4961 10.0747 17.5469 10.1506 17.5815 10.2341L20.3527 9.08505C20.1671 8.63726 19.8949 8.23047 19.5519 7.88794L17.4321 10.0108ZM17.2086 9.86175C17.2922 9.89626 17.3682 9.94691 17.4321 10.0108L19.5519 7.88794C19.2089 7.54541 18.8017 7.27387 18.3536 7.08885L17.2086 9.86175ZM16.9451 9.80967C17.0355 9.80954 17.125 9.82723 17.2086 9.86175L18.3536 7.08886C17.9056 6.90383 17.4254 6.80897 16.9407 6.80967L16.9451 9.80967ZM8.19113 9.80967H16.9429V6.80967H8.19113V9.80967ZM7.92537 9.86175C8.00895 9.82723 8.09851 9.80954 8.18894 9.80967L8.19331 6.80967C7.70855 6.80897 7.22841 6.90383 6.78035 7.08886L7.92537 9.86175ZM7.70185 10.0108C7.76583 9.94691 7.84179 9.89626 7.92537 9.86175L6.78035 7.08886C6.33229 7.27387 5.9251 7.54541 5.58207 7.88794L7.70185 10.0108ZM7.55246 10.2341C7.5871 10.1506 7.63786 10.0747 7.70185 10.0108L5.58207 7.88794C5.23905 8.23047 4.96691 8.63726 4.78124 9.08505L7.55246 10.2341ZM7.5 10.4976C7.5 10.4072 7.51783 10.3176 7.55246 10.2341L4.78124 9.08505C4.59557 9.53284 4.5 10.0128 4.5 10.4976L7.5 10.4976ZM7.5 23.6412V10.4976H4.5V23.6412H7.5ZM7.55217 23.9072C7.5176 23.8235 7.49987 23.7339 7.5 23.6433L4.5 23.639C4.4993 24.1242 4.59434 24.6048 4.7797 25.0532L7.55217 23.9072ZM7.70149 24.1308C7.63749 24.0668 7.58675 23.9908 7.55217 23.9072L4.7797 25.0532C4.96506 25.5016 5.23708 25.909 5.58017 26.2521L7.70149 24.1308ZM7.92514 24.2801C7.84149 24.2455 7.76549 24.1948 7.70149 24.1308L5.58017 26.2521C5.92327 26.5952 6.3307 26.8672 6.77911 27.0526L7.92514 24.2801ZM8.18894 24.3323C8.09843 24.3324 8.00878 24.3147 7.92513 24.2801L6.77911 27.0526C7.22752 27.2379 7.7081 27.333 8.19331 27.3323L8.18894 24.3323ZM15.75 24.3323H8.19113V27.3323H15.75V24.3323ZM13.1114 22.6269C13.1114 24.1391 13.6322 25.6052 14.5862 26.7786L16.9139 24.886C16.3948 24.2475 16.1114 23.4498 16.1114 22.627L13.1114 22.6269ZM9.28297 11.1887C8.74287 11.1895 8.22491 11.4035 7.84181 11.7843L9.95654 13.9121C9.77861 14.089 9.53806 14.1884 9.28722 14.1887L9.28297 11.1887ZM15.8585 11.1887H9.28509V14.1887H15.8585V11.1887ZM17.3017 11.7843C16.9186 11.4035 16.4007 11.1895 15.8606 11.1887L15.8563 14.1887C15.6055 14.1884 15.3649 14.089 15.187 13.9121L17.3017 11.7843ZM17.9039 13.2367C17.9037 12.6976 17.6916 12.1801 17.3133 11.7959L15.1754 13.9005C15.0015 13.7238 14.9039 13.4858 14.9039 13.2379L17.9039 13.2367ZM17.3083 14.6806C17.6891 14.2975 17.9031 13.7795 17.9039 13.2394L14.9039 13.2352C14.9042 12.9843 15.0036 12.7438 15.1804 12.5659L17.3083 14.6806ZM16.6505 15.1258C16.9012 15.0201 17.1282 14.8653 17.3182 14.6706L15.1706 12.5759C15.2601 12.4841 15.3671 12.4111 15.4853 12.3613L16.6505 15.1258ZM15.8583 15.2859C16.1304 15.2859 16.3997 15.2315 16.6505 15.1258L15.4853 12.3613C15.6034 12.3115 15.7304 12.2859 15.8586 12.2859L15.8583 15.2859ZM9.28509 15.2859H15.8585V12.2859H9.28509V15.2859ZM8.4931 15.1258C8.74382 15.2315 9.01315 15.2859 9.28523 15.2859L9.28495 12.2859C9.41318 12.2859 9.54012 12.3115 9.65828 12.3613L8.4931 15.1258ZM7.82535 14.6706C8.01534 14.8653 8.24238 15.0201 8.49309 15.1258L9.65829 12.3613C9.77645 12.4111 9.88345 12.4841 9.973 12.5759L7.82535 14.6706ZM7.23658 13.2518C7.24178 13.791 7.45907 14.3065 7.84144 14.6868L9.95691 12.5596C10.1336 12.7354 10.234 12.9736 10.2364 13.2229L7.23658 13.2518ZM7.83637 11.7897C7.45649 12.1711 7.24116 12.6862 7.23657 13.2245L10.2365 13.2501C10.2344 13.4965 10.1358 13.7322 9.96198 13.9067L7.83637 11.7897ZM9.28297 13.3799C8.74286 13.3806 8.22491 13.5947 7.84182 13.9754L9.95653 16.1033C9.77861 16.2801 9.53806 16.3795 9.28722 16.3799L9.28297 13.3799ZM15.8585 13.3799H9.28509V16.3799H15.8585V13.3799ZM17.3194 14.0346C16.9685 13.6558 16.4876 13.4236 15.9728 13.3842L15.7442 16.3755C15.5051 16.3572 15.2817 16.2493 15.1188 16.0735L17.3194 14.0346ZM17.8652 15.4268C17.8652 14.9105 17.6703 14.4133 17.3194 14.0345L15.1188 16.0735C14.9558 15.8976 14.8652 15.6666 14.8652 15.4268H17.8652ZM17.3194 16.8191C17.6703 16.4404 17.8652 15.9431 17.8652 15.4268H14.8652C14.8652 15.1871 14.9558 14.9561 15.1188 14.7802L17.3194 16.8191ZM15.9728 17.4695C16.4876 17.4301 16.9685 17.1978 17.3194 16.8191L15.1188 14.7802C15.2817 14.6043 15.5051 14.4965 15.7442 14.4782L15.9728 17.4695ZM9.28509 17.4738H15.8585V14.4738H9.28509V17.4738ZM8.14995 17.1324C8.48929 17.3577 8.88816 17.4766 9.29547 17.4738L9.27471 14.4739C9.46481 14.4725 9.65097 14.528 9.80934 14.6332L8.14995 17.1324ZM7.3908 16.2092C7.54627 16.5857 7.81061 16.9071 8.14994 17.1324L9.80935 14.6332C9.96772 14.7383 10.0911 14.8884 10.1637 15.0641L7.3908 16.2092ZM7.27727 15.0193C7.19579 15.4184 7.23532 15.8327 7.39079 16.2092L10.1637 15.0641C10.2362 15.2398 10.2547 15.4331 10.2166 15.6194L7.27727 15.0193ZM7.84816 13.9691C7.55754 14.2545 7.35876 14.6202 7.27727 15.0193L10.2166 15.6194C10.1786 15.8057 10.0858 15.9763 9.9502 16.1095L7.84816 13.9691ZM9.28297 15.571C8.74287 15.5717 8.22491 15.7858 7.84181 16.1665L9.95654 18.2944C9.77861 18.4712 9.53806 18.5706 9.28722 18.571L9.28297 15.571ZM15.8585 15.571H9.28509V18.571H15.8585V15.571ZM17.3194 16.2257C16.9685 15.8469 16.4875 15.6147 15.9728 15.5753L15.7442 18.5666C15.5051 18.5483 15.2817 18.4405 15.1187 18.2646L17.3194 16.2257ZM17.8652 17.618C17.8652 17.1017 17.6703 16.6044 17.3194 16.2257L15.1188 18.2646C14.9558 18.0887 14.8652 17.8577 14.8652 17.618H17.8652ZM17.3194 19.0102C17.6703 18.6315 17.8652 18.1343 17.8652 17.618H14.8652C14.8652 17.3782 14.9558 17.1472 15.1188 16.9713L17.3194 19.0102ZM15.9728 19.6606C16.4876 19.6212 16.9685 19.389 17.3194 19.0102L15.1188 16.9713C15.2817 16.7955 15.5051 16.6876 15.7442 16.6693L15.9728 19.6606ZM9.28509 19.6649H15.8585V16.6649H9.28509V19.6649ZM8.14994 19.3236C8.48928 19.5489 8.88816 19.6677 9.29547 19.6649L9.27471 16.665C9.46481 16.6637 9.65098 16.7191 9.80935 16.8243L8.14994 19.3236ZM7.3908 18.4003C7.54627 18.7768 7.81062 19.0983 8.14995 19.3236L9.80934 16.8243C9.96771 16.9294 10.0911 17.0795 10.1637 17.2552L7.3908 18.4003ZM7.27727 17.2104C7.19579 17.6095 7.23532 18.0238 7.39079 18.4003L10.1637 17.2552C10.2362 17.4309 10.2547 17.6243 10.2166 17.8105L7.27727 17.2104ZM7.84816 16.1602C7.55754 16.4456 7.35876 16.8113 7.27727 17.2104L10.2166 17.8105C10.1786 17.9968 10.0858 18.1675 9.9502 18.3007L7.84816 16.1602ZM13.3495 21.7031C13.5988 21.6009 13.8255 21.4505 14.0167 21.2605L11.9019 19.1327C11.9907 19.0444 12.096 18.9746 12.2118 18.9271L13.3495 21.7031ZM12.5636 21.8561C12.8331 21.8572 13.1001 21.8052 13.3495 21.7031L12.2118 18.9271C12.3276 18.8797 12.4516 18.8555 12.5768 18.8561L12.5636 21.8561ZM9.28509 21.8561H12.5702V18.8561H9.28509V21.8561ZM7.82416 21.2014C8.17505 21.5801 8.65601 21.8124 9.1708 21.8517L9.39938 18.8604C9.63847 18.8787 9.86184 18.9866 10.0248 19.1625L7.82416 21.2014ZM7.27831 19.8091C7.27831 20.3254 7.47327 20.8226 7.82415 21.2014L10.0248 19.1625C10.1878 19.3384 10.2783 19.5693 10.2783 19.8091H7.27831ZM7.82416 18.4168C7.47326 18.7955 7.27831 19.2928 7.27831 19.8091H10.2783C10.2783 20.0489 10.1878 20.2798 10.0248 20.4557L7.82416 18.4168ZM9.1708 17.7665C8.65602 17.8058 8.17505 18.0381 7.82415 18.4168L10.0248 20.4557C9.86184 20.6316 9.63846 20.7395 9.39938 20.7577L9.1708 17.7665ZM12.5702 17.7621H9.28509V20.7621H12.5702V17.7621ZM13.7072 18.1071C13.3712 17.8827 12.9763 17.7627 12.5723 17.7621L12.5681 20.7621C12.3804 20.7618 12.1971 20.7061 12.041 20.6019L13.7072 18.1071ZM14.4606 19.0232C14.3053 18.6502 14.0432 18.3315 13.7072 18.1071L12.041 20.6019C11.885 20.4977 11.7632 20.3496 11.6911 20.1764L14.4606 19.0232ZM14.58 20.2034C14.6575 19.8068 14.6159 19.3962 14.4606 19.0232L11.6911 20.1764C11.619 20.0032 11.5997 19.8125 11.6356 19.6283L14.58 20.2034ZM14.0253 21.2518C14.3096 20.9647 14.5026 20.5999 14.58 20.2034L11.6356 19.6283C11.6716 19.4441 11.7612 19.2747 11.8932 19.1414L14.0253 21.2518ZM22.6395 22.6237C22.6381 23.2906 22.4055 23.9364 21.9813 24.451L24.2963 26.3591C25.1619 25.3089 25.6366 23.991 25.6395 22.63L22.6395 22.6237ZM22.4229 21.5207C22.5668 21.8705 22.6404 22.2451 22.6395 22.6233L25.6395 22.6305C25.6413 21.8582 25.491 21.0932 25.1971 20.3791L22.4229 21.5207ZM21.8007 20.5851C22.0675 20.8531 22.279 21.171 22.4229 21.5207L25.1971 20.3791C24.9033 19.6649 24.4716 19.0157 23.9267 18.4684L21.8007 20.5851ZM20.0468 19.75C20.7103 19.817 21.33 20.112 21.8004 20.5848L23.927 18.4688C22.9671 17.504 21.7023 16.9019 20.3482 16.7652L20.0468 19.75ZM18.1617 20.2174C18.7171 19.8482 19.3833 19.683 20.0468 19.75L20.3482 16.7652C18.9941 16.6285 17.6344 16.9655 16.501 17.719L18.1617 20.2174ZM17.0011 21.7745C17.1962 21.1368 17.6063 20.5865 18.1617 20.2174L16.501 17.719C15.3676 18.4724 14.5305 19.5955 14.1323 20.8969L17.0011 21.7745ZM17.0919 23.7146C16.8381 23.0979 16.806 22.4123 17.0011 21.7745L14.1323 20.8969C13.7342 22.1984 13.7997 23.5977 14.3176 24.8562L17.0919 23.7146ZM18.3929 25.1566C17.8054 24.8409 17.3457 24.3313 17.0919 23.7146L14.3176 24.8562C14.8355 26.1148 15.7739 27.1549 16.9727 27.7991L18.3929 25.1566ZM20.3133 25.4458C19.659 25.5745 18.9803 25.4722 18.3929 25.1566L16.9727 27.7991C18.1716 28.4434 19.5567 28.652 20.8921 28.3894L20.3133 25.4458ZM21.9813 24.451C21.5572 24.9655 20.9677 25.3171 20.3133 25.4458L20.8921 28.3894C22.2276 28.1268 23.4306 27.4093 24.2963 26.3591L21.9813 24.451ZM23.0008 19.8809C22.8264 19.7142 22.6226 19.5815 22.3996 19.4894L21.2547 22.2624C21.1335 22.2123 21.0226 22.1401 20.9278 22.0495L23.0008 19.8809ZM21.9547 22.4652H21.9643V19.4652H21.9547V22.4652ZM23.5756 21.2215C23.5656 20.7303 23.3677 20.2616 23.0226 19.9118L20.8869 22.0186C20.6931 21.8221 20.5819 21.5588 20.5763 21.2829L23.5756 21.2215ZM23.0581 22.5655C23.3896 22.2101 23.5745 21.7426 23.5759 21.2566L20.5759 21.2479C20.5767 20.9774 20.6797 20.7172 20.8641 20.5195L23.0581 22.5655ZM20.9437 25.2106L23.1316 22.4805L20.7906 20.6044L18.6027 23.3346L20.9437 25.2106ZM20.2543 25.7378C20.498 25.6289 20.7158 25.4695 20.8933 25.2702L18.653 23.275C18.7579 23.1572 18.8866 23.0631 19.0306 22.9988L20.2543 25.7378ZM19.5707 25.904C19.8029 25.8904 20.0308 25.8357 20.2439 25.7424L19.041 22.9942C19.1531 22.9451 19.273 22.9163 19.3952 22.9091L19.5707 25.904ZM18.732 25.7545C18.9767 25.8588 19.2406 25.9106 19.5066 25.9064L19.4593 22.9067C19.6136 22.9043 19.7667 22.9343 19.9086 22.9948L18.732 25.7545ZM18.1204 25.344C18.3082 25.5325 18.5336 25.6793 18.782 25.7747L19.8586 22.9746C20.004 23.0305 20.1359 23.1164 20.2458 23.2267L18.1204 25.344ZM16.6733 23.8937L18.1213 25.3449L20.245 23.2259L18.797 21.7747L16.6733 23.8937ZM16.1236 22.528C16.1173 23.0229 16.3033 23.501 16.6422 23.8616L18.8281 21.8068C19.0211 22.0121 19.127 22.2844 19.1234 22.5662L16.1236 22.528ZM16.6939 21.1961C16.3387 21.5448 16.1341 22.0186 16.1238 22.5161L19.1232 22.5781C19.1173 22.8641 18.9997 23.1364 18.7956 23.3368L16.6939 21.1961ZM17.2855 20.7978C17.0533 20.8969 16.8433 21.0413 16.6676 21.2225L18.8218 23.3105C18.7199 23.4156 18.5981 23.4993 18.4634 23.5568L17.2855 20.7978ZM18.0195 20.6453C17.7671 20.6468 17.5176 20.6987 17.2854 20.7978L18.4635 23.5568C18.3288 23.6143 18.1841 23.6443 18.0377 23.6452L18.0195 20.6453ZM19.324 21.1432C18.9638 20.8162 18.4928 20.6382 18.0064 20.6454L18.0508 23.6451C17.7763 23.6492 17.5105 23.5488 17.3073 23.3642L19.324 21.1432ZM20.5228 22.3427L19.3778 21.1945L17.2535 23.3129L18.3985 24.4611L20.5228 22.3427ZM20.1969 20.0485L18.2833 22.4724L20.6379 24.3314L22.5516 21.9074L20.1969 20.0485ZM20.9169 19.5024C20.6552 19.6139 20.4226 19.7841 20.237 19.9999L22.5115 21.956C22.3973 22.0888 22.2542 22.1935 22.0931 22.2622L20.9169 19.5024ZM21.6491 19.3473C21.3871 19.35 21.1285 19.4069 20.8896 19.5143L22.1205 22.2502C21.9819 22.3125 21.8319 22.3455 21.68 22.3471L21.6491 19.3473ZM22.3492 19.4697C22.1272 19.3872 21.8921 19.3458 21.6553 19.3472L21.6737 22.3472C21.5479 22.3479 21.423 22.3259 21.3051 22.2821L22.3492 19.4697Z" fill="black" fill-opacity="0.2" mask="url(#path-1-outside-1_883_9519)"/>
</svg>
