<svg width="72" height="72" viewBox="0 0 72 72" fill="none" xmlns="http://www.w3.org/2000/svg">
<mask id="path-1-outside-1_904_9293" maskUnits="userSpaceOnUse" x="11.4297" y="5.60034" width="46" height="58" fill="black">
<rect fill="white" x="11.4297" y="5.60034" width="46" height="58"/>
<path fill-rule="evenodd" clip-rule="evenodd" d="M38.4026 9.60034H21.7297C20.0588 9.60034 18.4564 10.2641 17.2749 11.4456C16.0934 12.627 15.4297 14.2295 15.4297 15.9003V53.7003C15.4297 55.3712 16.0934 56.9736 17.2749 58.1551C18.4564 59.3366 20.0588 60.0003 21.7297 60.0003H46.9297C48.6005 60.0003 50.203 59.3366 51.3845 58.1551C52.5659 56.9736 53.2297 55.3712 53.2297 53.7003V24.4274C53.2295 23.592 52.8975 22.7909 52.3067 22.2003L40.6297 10.5233C40.0391 9.93251 39.238 9.60052 38.4026 9.60034ZM39.0547 20.6253V14.3253L48.5047 23.7753H42.2047C41.3693 23.7753 40.568 23.4435 39.9773 22.8527C39.3866 22.262 39.0547 21.4608 39.0547 20.6253ZM19.694 27.389C19.694 26.7262 20.2312 26.189 20.894 26.189H26.8234C27.4861 26.189 28.0234 26.7262 28.0234 27.389C28.0234 28.0517 27.4861 28.589 26.8234 28.589H20.894C20.2312 28.589 19.694 28.0517 19.694 27.389ZM20.894 32.1183C20.2312 32.1183 19.694 32.6555 19.694 33.3183C19.694 33.981 20.2312 34.5183 20.894 34.5183H38.6822C39.345 34.5183 39.8822 33.981 39.8822 33.3183C39.8822 32.6555 39.345 32.1183 38.6822 32.1183H20.894ZM19.694 39.2467C19.694 38.5839 20.2312 38.0467 20.894 38.0467H41.6469C42.3097 38.0467 42.8469 38.5839 42.8469 39.2467C42.8469 39.9094 42.3097 40.4467 41.6469 40.4467H20.894C20.2312 40.4467 19.694 39.9094 19.694 39.2467ZM20.894 43.9764C20.2312 43.9764 19.694 44.5136 19.694 45.1764C19.694 45.8391 20.2312 46.3764 20.894 46.3764H41.6469C42.3097 46.3764 42.8469 45.8391 42.8469 45.1764C42.8469 44.5136 42.3097 43.9764 41.6469 43.9764H20.894Z"/>
</mask>
<path fill-rule="evenodd" clip-rule="evenodd" d="M38.4026 9.60034H21.7297C20.0588 9.60034 18.4564 10.2641 17.2749 11.4456C16.0934 12.627 15.4297 14.2295 15.4297 15.9003V53.7003C15.4297 55.3712 16.0934 56.9736 17.2749 58.1551C18.4564 59.3366 20.0588 60.0003 21.7297 60.0003H46.9297C48.6005 60.0003 50.203 59.3366 51.3845 58.1551C52.5659 56.9736 53.2297 55.3712 53.2297 53.7003V24.4274C53.2295 23.592 52.8975 22.7909 52.3067 22.2003L40.6297 10.5233C40.0391 9.93251 39.238 9.60052 38.4026 9.60034ZM39.0547 20.6253V14.3253L48.5047 23.7753H42.2047C41.3693 23.7753 40.568 23.4435 39.9773 22.8527C39.3866 22.262 39.0547 21.4608 39.0547 20.6253ZM19.694 27.389C19.694 26.7262 20.2312 26.189 20.894 26.189H26.8234C27.4861 26.189 28.0234 26.7262 28.0234 27.389C28.0234 28.0517 27.4861 28.589 26.8234 28.589H20.894C20.2312 28.589 19.694 28.0517 19.694 27.389ZM20.894 32.1183C20.2312 32.1183 19.694 32.6555 19.694 33.3183C19.694 33.981 20.2312 34.5183 20.894 34.5183H38.6822C39.345 34.5183 39.8822 33.981 39.8822 33.3183C39.8822 32.6555 39.345 32.1183 38.6822 32.1183H20.894ZM19.694 39.2467C19.694 38.5839 20.2312 38.0467 20.894 38.0467H41.6469C42.3097 38.0467 42.8469 38.5839 42.8469 39.2467C42.8469 39.9094 42.3097 40.4467 41.6469 40.4467H20.894C20.2312 40.4467 19.694 39.9094 19.694 39.2467ZM20.894 43.9764C20.2312 43.9764 19.694 44.5136 19.694 45.1764C19.694 45.8391 20.2312 46.3764 20.894 46.3764H41.6469C42.3097 46.3764 42.8469 45.8391 42.8469 45.1764C42.8469 44.5136 42.3097 43.9764 41.6469 43.9764H20.894Z" fill="#41A4FF"/>
<path d="M38.4026 9.60034L38.4034 6.00034H38.4026V9.60034ZM17.2749 11.4456L14.7293 8.89998L14.7293 8.89998L17.2749 11.4456ZM17.2749 58.1551L19.8205 55.6095L19.8205 55.6095L17.2749 58.1551ZM51.3845 58.1551L48.8389 55.6095L48.8389 55.6095L51.3845 58.1551ZM53.2297 24.4274L56.8297 24.4274L56.8297 24.4266L53.2297 24.4274ZM52.3067 22.2003L49.7612 24.7459L49.7615 24.7463L52.3067 22.2003ZM40.6297 10.5233L38.0837 13.0685L38.0841 13.0689L40.6297 10.5233ZM39.0547 14.3253L41.6003 11.7798C40.5707 10.7502 39.0223 10.4422 37.677 10.9994C36.3318 11.5566 35.4547 12.8693 35.4547 14.3253H39.0547ZM48.5047 23.7753V27.3753C49.9607 27.3753 51.2734 26.4982 51.8307 25.153C52.3879 23.8078 52.0799 22.2593 51.0503 21.2298L48.5047 23.7753ZM39.9773 22.8527L37.4317 25.3983L37.4317 25.3983L39.9773 22.8527ZM21.7297 13.2003H38.4026V6.00034H21.7297V13.2003ZM19.8205 13.9912C20.3268 13.4848 21.0136 13.2003 21.7297 13.2003V6.00034C19.104 6.00034 16.5859 7.04337 14.7293 8.89998L19.8205 13.9912ZM19.0297 15.9003C19.0297 15.1843 19.3142 14.4975 19.8205 13.9912L14.7293 8.89998C12.8727 10.7566 11.8297 13.2747 11.8297 15.9003H19.0297ZM19.0297 53.7003V15.9003H11.8297V53.7003H19.0297ZM19.8205 55.6095C19.3142 55.1032 19.0297 54.4164 19.0297 53.7003H11.8297C11.8297 56.326 12.8727 58.8441 14.7293 60.7007L19.8205 55.6095ZM21.7297 56.4003C21.0136 56.4003 20.3268 56.1159 19.8205 55.6095L14.7293 60.7007C16.5859 62.5573 19.104 63.6003 21.7297 63.6003V56.4003ZM46.9297 56.4003H21.7297V63.6003H46.9297V56.4003ZM48.8389 55.6095C48.3325 56.1159 47.6458 56.4003 46.9297 56.4003V63.6003C49.5553 63.6003 52.0734 62.5573 53.93 60.7007L48.8389 55.6095ZM49.6297 53.7003C49.6297 54.4164 49.3452 55.1032 48.8389 55.6095L53.93 60.7007C55.7867 58.8441 56.8297 56.326 56.8297 53.7003H49.6297ZM49.6297 24.4274V53.7003H56.8297V24.4274H49.6297ZM49.7615 24.7463C49.6771 24.6619 49.6297 24.5475 49.6297 24.4282L56.8297 24.4266C56.8293 22.6365 56.1179 20.9199 54.8519 19.6544L49.7615 24.7463ZM38.0841 13.0689L49.7612 24.7459L54.8523 19.6548L43.1753 7.97771L38.0841 13.0689ZM38.4019 13.2003C38.2825 13.2003 38.1681 13.1529 38.0837 13.0685L43.1757 7.97809C41.9101 6.71214 40.1935 6.00072 38.4034 6.00034L38.4019 13.2003ZM35.4547 14.3253V20.6253H42.6547V14.3253H35.4547ZM51.0503 21.2298L41.6003 11.7798L36.5091 16.8709L45.9591 26.3209L51.0503 21.2298ZM42.2047 27.3753H48.5047V20.1753H42.2047V27.3753ZM37.4317 25.3983C38.6976 26.6642 40.4145 27.3753 42.2047 27.3753V20.1753C42.324 20.1753 42.4385 20.2228 42.5229 20.3071L37.4317 25.3983ZM35.4547 20.6253C35.4547 22.4155 36.1658 24.1324 37.4317 25.3983L42.5229 20.3071C42.6073 20.3915 42.6547 20.506 42.6547 20.6253H35.4547ZM20.894 22.589C18.243 22.589 16.094 24.738 16.094 27.389H23.294C23.294 28.7145 22.2195 29.789 20.894 29.789V22.589ZM26.8234 22.589H20.894V29.789H26.8234V22.589ZM31.6234 27.389C31.6234 24.738 29.4744 22.589 26.8234 22.589V29.789C25.4979 29.789 24.4234 28.7145 24.4234 27.389H31.6234ZM26.8234 32.189C29.4744 32.189 31.6234 30.04 31.6234 27.389H24.4234C24.4234 26.0635 25.4979 24.989 26.8234 24.989V32.189ZM20.894 32.189H26.8234V24.989H20.894V32.189ZM16.094 27.389C16.094 30.04 18.243 32.189 20.894 32.189V24.989C22.2195 24.989 23.294 26.0635 23.294 27.389H16.094ZM23.294 33.3183C23.294 34.6437 22.2195 35.7183 20.894 35.7183V28.5183C18.243 28.5183 16.094 30.6673 16.094 33.3183H23.294ZM20.894 30.9183C22.2195 30.9183 23.294 31.9928 23.294 33.3183H16.094C16.094 35.9692 18.243 38.1183 20.894 38.1183V30.9183ZM38.6822 30.9183H20.894V38.1183H38.6822V30.9183ZM36.2822 33.3183C36.2822 31.9928 37.3567 30.9183 38.6822 30.9183V38.1183C41.3332 38.1183 43.4822 35.9692 43.4822 33.3183H36.2822ZM38.6822 35.7183C37.3567 35.7183 36.2822 34.6437 36.2822 33.3183H43.4822C43.4822 30.6673 41.3332 28.5183 38.6822 28.5183V35.7183ZM20.894 35.7183H38.6822V28.5183H20.894V35.7183ZM20.894 34.4467C18.243 34.4467 16.094 36.5957 16.094 39.2467H23.294C23.294 40.5722 22.2195 41.6467 20.894 41.6467V34.4467ZM41.6469 34.4467H20.894V41.6467H41.6469V34.4467ZM46.4469 39.2467C46.4469 36.5957 44.2979 34.4467 41.6469 34.4467V41.6467C40.3214 41.6467 39.2469 40.5722 39.2469 39.2467H46.4469ZM41.6469 44.0467C44.2979 44.0467 46.4469 41.8977 46.4469 39.2467H39.2469C39.2469 37.9212 40.3214 36.8467 41.6469 36.8467V44.0467ZM20.894 44.0467H41.6469V36.8467H20.894V44.0467ZM16.094 39.2467C16.094 41.8977 18.243 44.0467 20.894 44.0467V36.8467C22.2195 36.8467 23.294 37.9212 23.294 39.2467H16.094ZM23.294 45.1764C23.294 46.5019 22.2195 47.5764 20.894 47.5764V40.3764C18.243 40.3764 16.094 42.5254 16.094 45.1764H23.294ZM20.894 42.7764C22.2195 42.7764 23.294 43.8509 23.294 45.1764H16.094C16.094 47.8273 18.243 49.9764 20.894 49.9764V42.7764ZM41.6469 42.7764H20.894V49.9764H41.6469V42.7764ZM39.2469 45.1764C39.2469 43.8509 40.3214 42.7764 41.6469 42.7764V49.9764C44.2979 49.9764 46.4469 47.8273 46.4469 45.1764H39.2469ZM41.6469 47.5764C40.3214 47.5764 39.2469 46.5019 39.2469 45.1764H46.4469C46.4469 42.5254 44.2979 40.3764 41.6469 40.3764V47.5764ZM20.894 47.5764H41.6469V40.3764H20.894V47.5764Z" fill="white" mask="url(#path-1-outside-1_904_9293)"/>
<mask id="path-3-outside-2_904_9293" maskUnits="userSpaceOnUse" x="34.6895" y="35.2466" width="31" height="27" fill="black">
<rect fill="white" x="34.6895" y="35.2466" width="31" height="27"/>
<path d="M58.9888 40.698C57.0014 39.7612 54.9029 39.2963 52.7114 39.2505C48.4922 39.163 44.8559 40.5537 41.9302 43.6265C39.8497 45.8111 38.5839 48.3731 38.6964 51.4709C38.7422 52.7353 39.1127 53.9094 39.8733 54.9504C40.0926 54.8296 40.1245 54.6256 40.2092 54.4646C41.2029 52.5535 42.3604 50.7506 43.7442 49.0976C44.9072 47.7083 46.2021 46.4606 47.6802 45.4086C48.2659 44.9922 48.8669 45.056 49.2444 45.5543C49.6247 46.0567 49.5137 46.6521 48.9557 47.0949C48.7656 47.2461 48.5671 47.3863 48.377 47.5362C45.4346 49.8665 43.3708 52.8713 41.697 56.1842C41.5096 56.5534 41.5527 56.7269 41.8899 56.9614C45.7427 59.6415 50.6337 58.9406 53.7343 55.2696C55.2693 53.4528 56.2339 51.3432 57 49.1212C57.8105 46.7729 59.1859 44.8909 61.4773 43.7764C61.6605 43.6876 61.8243 43.5585 61.9978 43.4488C61.9978 43.3448 61.9978 43.2407 61.9978 43.1366C61.2705 41.986 60.1908 41.2643 58.9888 40.698Z"/>
</mask>
<path d="M58.9888 40.698C57.0014 39.7612 54.9029 39.2963 52.7114 39.2505C48.4922 39.163 44.8559 40.5537 41.9302 43.6265C39.8497 45.8111 38.5839 48.3731 38.6964 51.4709C38.7422 52.7353 39.1127 53.9094 39.8733 54.9504C40.0926 54.8296 40.1245 54.6256 40.2092 54.4646C41.2029 52.5535 42.3604 50.7506 43.7442 49.0976C44.9072 47.7083 46.2021 46.4606 47.6802 45.4086C48.2659 44.9922 48.8669 45.056 49.2444 45.5543C49.6247 46.0567 49.5137 46.6521 48.9557 47.0949C48.7656 47.2461 48.5671 47.3863 48.377 47.5362C45.4346 49.8665 43.3708 52.8713 41.697 56.1842C41.5096 56.5534 41.5527 56.7269 41.8899 56.9614C45.7427 59.6415 50.6337 58.9406 53.7343 55.2696C55.2693 53.4528 56.2339 51.3432 57 49.1212C57.8105 46.7729 59.1859 44.8909 61.4773 43.7764C61.6605 43.6876 61.8243 43.5585 61.9978 43.4488C61.9978 43.3448 61.9978 43.2407 61.9978 43.1366C61.2705 41.986 60.1908 41.2643 58.9888 40.698Z" fill="#41A4FF"/>
<path d="M58.9888 40.698C57.0014 39.7612 54.9029 39.2963 52.7114 39.2505C48.4922 39.163 44.8559 40.5537 41.9302 43.6265C39.8497 45.8111 38.5839 48.3731 38.6964 51.4709C38.7422 52.7353 39.1127 53.9094 39.8733 54.9504C40.0926 54.8296 40.1245 54.6256 40.2092 54.4646C41.2029 52.5535 42.3604 50.7506 43.7442 49.0976C44.9072 47.7083 46.2021 46.4606 47.6802 45.4086C48.2659 44.9922 48.8669 45.056 49.2444 45.5543C49.6247 46.0567 49.5137 46.6521 48.9557 47.0949C48.7656 47.2461 48.5671 47.3863 48.377 47.5362C45.4346 49.8665 43.3708 52.8713 41.697 56.1842C41.5096 56.5534 41.5527 56.7269 41.8899 56.9614C45.7427 59.6415 50.6337 58.9406 53.7343 55.2696C55.2693 53.4528 56.2339 51.3432 57 49.1212C57.8105 46.7729 59.1859 44.8909 61.4773 43.7764C61.6605 43.6876 61.8243 43.5585 61.9978 43.4488C61.9978 43.3448 61.9978 43.2407 61.9978 43.1366C61.2705 41.986 60.1908 41.2643 58.9888 40.698Z" stroke="white" stroke-width="7.2" stroke-linejoin="round" mask="url(#path-3-outside-2_904_9293)"/>
</svg>
