<svg width="72" height="72" viewBox="0 0 72 72" fill="none" xmlns="http://www.w3.org/2000/svg">
<mask id="path-1-outside-1_904_9283" maskUnits="userSpaceOnUse" x="11.4316" y="5.60034" width="46" height="58" fill="black">
<rect fill="white" x="11.4316" y="5.60034" width="46" height="58"/>
<path fill-rule="evenodd" clip-rule="evenodd" d="M38.4046 9.60034H21.7316C20.0608 9.60034 18.4583 10.2641 17.2769 11.4456C16.0954 12.627 15.4316 14.2295 15.4316 15.9003V53.7003C15.4316 55.3712 16.0954 56.9736 17.2769 58.1551C18.4583 59.3366 20.0608 60.0003 21.7316 60.0003H46.9316C48.6025 60.0003 50.2049 59.3366 51.3864 58.1551C52.5679 56.9736 53.2316 55.3712 53.2316 53.7003V24.4274C53.2315 23.592 52.8995 22.7909 52.3087 22.2003L40.6316 10.5233C40.041 9.93251 39.24 9.60052 38.4046 9.60034ZM39.0566 20.6253V14.3253L48.5066 23.7753H42.2066C41.3712 23.7753 40.57 23.4435 39.9792 22.8527C39.3885 22.262 39.0566 21.4608 39.0566 20.6253ZM19.6959 27.389C19.6959 26.7262 20.2332 26.189 20.8959 26.189H26.8253C27.4881 26.189 28.0253 26.7262 28.0253 27.389C28.0253 28.0517 27.4881 28.589 26.8253 28.589H20.8959C20.2332 28.589 19.6959 28.0517 19.6959 27.389ZM20.8959 32.1183C20.2332 32.1183 19.6959 32.6555 19.6959 33.3183C19.6959 33.981 20.2332 34.5183 20.8959 34.5183H38.6842C39.3469 34.5183 39.8842 33.981 39.8842 33.3183C39.8842 32.6555 39.3469 32.1183 38.6842 32.1183H20.8959ZM19.6959 39.2467C19.6959 38.5839 20.2332 38.0467 20.8959 38.0467H41.6489C42.3116 38.0467 42.8489 38.5839 42.8489 39.2467C42.8489 39.9094 42.3116 40.4467 41.6489 40.4467H20.8959C20.2332 40.4467 19.6959 39.9094 19.6959 39.2467ZM20.8959 43.9764C20.2332 43.9764 19.6959 44.5136 19.6959 45.1764C19.6959 45.8391 20.2332 46.3764 20.8959 46.3764H41.6489C42.3116 46.3764 42.8489 45.8391 42.8489 45.1764C42.8489 44.5136 42.3116 43.9764 41.6489 43.9764H20.8959Z"/>
</mask>
<path fill-rule="evenodd" clip-rule="evenodd" d="M38.4046 9.60034H21.7316C20.0608 9.60034 18.4583 10.2641 17.2769 11.4456C16.0954 12.627 15.4316 14.2295 15.4316 15.9003V53.7003C15.4316 55.3712 16.0954 56.9736 17.2769 58.1551C18.4583 59.3366 20.0608 60.0003 21.7316 60.0003H46.9316C48.6025 60.0003 50.2049 59.3366 51.3864 58.1551C52.5679 56.9736 53.2316 55.3712 53.2316 53.7003V24.4274C53.2315 23.592 52.8995 22.7909 52.3087 22.2003L40.6316 10.5233C40.041 9.93251 39.24 9.60052 38.4046 9.60034ZM39.0566 20.6253V14.3253L48.5066 23.7753H42.2066C41.3712 23.7753 40.57 23.4435 39.9792 22.8527C39.3885 22.262 39.0566 21.4608 39.0566 20.6253ZM19.6959 27.389C19.6959 26.7262 20.2332 26.189 20.8959 26.189H26.8253C27.4881 26.189 28.0253 26.7262 28.0253 27.389C28.0253 28.0517 27.4881 28.589 26.8253 28.589H20.8959C20.2332 28.589 19.6959 28.0517 19.6959 27.389ZM20.8959 32.1183C20.2332 32.1183 19.6959 32.6555 19.6959 33.3183C19.6959 33.981 20.2332 34.5183 20.8959 34.5183H38.6842C39.3469 34.5183 39.8842 33.981 39.8842 33.3183C39.8842 32.6555 39.3469 32.1183 38.6842 32.1183H20.8959ZM19.6959 39.2467C19.6959 38.5839 20.2332 38.0467 20.8959 38.0467H41.6489C42.3116 38.0467 42.8489 38.5839 42.8489 39.2467C42.8489 39.9094 42.3116 40.4467 41.6489 40.4467H20.8959C20.2332 40.4467 19.6959 39.9094 19.6959 39.2467ZM20.8959 43.9764C20.2332 43.9764 19.6959 44.5136 19.6959 45.1764C19.6959 45.8391 20.2332 46.3764 20.8959 46.3764H41.6489C42.3116 46.3764 42.8489 45.8391 42.8489 45.1764C42.8489 44.5136 42.3116 43.9764 41.6489 43.9764H20.8959Z" fill="white"/>
<path fill-rule="evenodd" clip-rule="evenodd" d="M38.4046 9.60034H21.7316C20.0608 9.60034 18.4583 10.2641 17.2769 11.4456C16.0954 12.627 15.4316 14.2295 15.4316 15.9003V53.7003C15.4316 55.3712 16.0954 56.9736 17.2769 58.1551C18.4583 59.3366 20.0608 60.0003 21.7316 60.0003H46.9316C48.6025 60.0003 50.2049 59.3366 51.3864 58.1551C52.5679 56.9736 53.2316 55.3712 53.2316 53.7003V24.4274C53.2315 23.592 52.8995 22.7909 52.3087 22.2003L40.6316 10.5233C40.041 9.93251 39.24 9.60052 38.4046 9.60034ZM39.0566 20.6253V14.3253L48.5066 23.7753H42.2066C41.3712 23.7753 40.57 23.4435 39.9792 22.8527C39.3885 22.262 39.0566 21.4608 39.0566 20.6253ZM19.6959 27.389C19.6959 26.7262 20.2332 26.189 20.8959 26.189H26.8253C27.4881 26.189 28.0253 26.7262 28.0253 27.389C28.0253 28.0517 27.4881 28.589 26.8253 28.589H20.8959C20.2332 28.589 19.6959 28.0517 19.6959 27.389ZM20.8959 32.1183C20.2332 32.1183 19.6959 32.6555 19.6959 33.3183C19.6959 33.981 20.2332 34.5183 20.8959 34.5183H38.6842C39.3469 34.5183 39.8842 33.981 39.8842 33.3183C39.8842 32.6555 39.3469 32.1183 38.6842 32.1183H20.8959ZM19.6959 39.2467C19.6959 38.5839 20.2332 38.0467 20.8959 38.0467H41.6489C42.3116 38.0467 42.8489 38.5839 42.8489 39.2467C42.8489 39.9094 42.3116 40.4467 41.6489 40.4467H20.8959C20.2332 40.4467 19.6959 39.9094 19.6959 39.2467ZM20.8959 43.9764C20.2332 43.9764 19.6959 44.5136 19.6959 45.1764C19.6959 45.8391 20.2332 46.3764 20.8959 46.3764H41.6489C42.3116 46.3764 42.8489 45.8391 42.8489 45.1764C42.8489 44.5136 42.3116 43.9764 41.6489 43.9764H20.8959Z" stroke="#9F9F9F" stroke-width="7.2" stroke-linejoin="round" mask="url(#path-1-outside-1_904_9283)"/>
<mask id="path-2-outside-2_904_9283" maskUnits="userSpaceOnUse" x="34.6895" y="35.2466" width="31" height="27" fill="black">
<rect fill="white" x="34.6895" y="35.2466" width="31" height="27"/>
<path d="M58.9888 40.698C57.0014 39.7612 54.9029 39.2963 52.7114 39.2505C48.4922 39.163 44.8559 40.5537 41.9302 43.6265C39.8497 45.8111 38.5839 48.3731 38.6964 51.4709C38.7422 52.7353 39.1127 53.9094 39.8733 54.9504C40.0926 54.8296 40.1245 54.6256 40.2092 54.4646C41.2029 52.5535 42.3604 50.7506 43.7442 49.0976C44.9072 47.7083 46.2021 46.4606 47.6802 45.4086C48.2659 44.9922 48.8669 45.056 49.2444 45.5543C49.6247 46.0567 49.5137 46.6521 48.9557 47.0949C48.7656 47.2461 48.5671 47.3863 48.377 47.5362C45.4346 49.8665 43.3708 52.8713 41.697 56.1842C41.5096 56.5534 41.5527 56.7269 41.8899 56.9614C45.7427 59.6415 50.6337 58.9406 53.7343 55.2696C55.2693 53.4528 56.2339 51.3432 57 49.1212C57.8105 46.7729 59.1859 44.8909 61.4773 43.7764C61.6605 43.6876 61.8243 43.5585 61.9978 43.4488C61.9978 43.3448 61.9978 43.2407 61.9978 43.1366C61.2705 41.986 60.1908 41.2643 58.9888 40.698Z"/>
</mask>
<path d="M58.9888 40.698C57.0014 39.7612 54.9029 39.2963 52.7114 39.2505C48.4922 39.163 44.8559 40.5537 41.9302 43.6265C39.8497 45.8111 38.5839 48.3731 38.6964 51.4709C38.7422 52.7353 39.1127 53.9094 39.8733 54.9504C40.0926 54.8296 40.1245 54.6256 40.2092 54.4646C41.2029 52.5535 42.3604 50.7506 43.7442 49.0976C44.9072 47.7083 46.2021 46.4606 47.6802 45.4086C48.2659 44.9922 48.8669 45.056 49.2444 45.5543C49.6247 46.0567 49.5137 46.6521 48.9557 47.0949C48.7656 47.2461 48.5671 47.3863 48.377 47.5362C45.4346 49.8665 43.3708 52.8713 41.697 56.1842C41.5096 56.5534 41.5527 56.7269 41.8899 56.9614C45.7427 59.6415 50.6337 58.9406 53.7343 55.2696C55.2693 53.4528 56.2339 51.3432 57 49.1212C57.8105 46.7729 59.1859 44.8909 61.4773 43.7764C61.6605 43.6876 61.8243 43.5585 61.9978 43.4488C61.9978 43.3448 61.9978 43.2407 61.9978 43.1366C61.2705 41.986 60.1908 41.2643 58.9888 40.698Z" fill="white"/>
<path d="M58.9888 40.698C57.0014 39.7612 54.9029 39.2963 52.7114 39.2505C48.4922 39.163 44.8559 40.5537 41.9302 43.6265C39.8497 45.8111 38.5839 48.3731 38.6964 51.4709C38.7422 52.7353 39.1127 53.9094 39.8733 54.9504C40.0926 54.8296 40.1245 54.6256 40.2092 54.4646C41.2029 52.5535 42.3604 50.7506 43.7442 49.0976C44.9072 47.7083 46.2021 46.4606 47.6802 45.4086C48.2659 44.9922 48.8669 45.056 49.2444 45.5543C49.6247 46.0567 49.5137 46.6521 48.9557 47.0949C48.7656 47.2461 48.5671 47.3863 48.377 47.5362C45.4346 49.8665 43.3708 52.8713 41.697 56.1842C41.5096 56.5534 41.5527 56.7269 41.8899 56.9614C45.7427 59.6415 50.6337 58.9406 53.7343 55.2696C55.2693 53.4528 56.2339 51.3432 57 49.1212C57.8105 46.7729 59.1859 44.8909 61.4773 43.7764C61.6605 43.6876 61.8243 43.5585 61.9978 43.4488C61.9978 43.3448 61.9978 43.2407 61.9978 43.1366C61.2705 41.986 60.1908 41.2643 58.9888 40.698Z" stroke="#9F9F9F" stroke-width="7.2" stroke-linejoin="round" mask="url(#path-2-outside-2_904_9283)"/>
</svg>
