<svg width="42" height="43" viewBox="0 0 42 43" fill="none" xmlns="http://www.w3.org/2000/svg">
<mask id="path-1-outside-1_883_9123" maskUnits="userSpaceOnUse" x="6" y="3.1001" width="28" height="35" fill="black">
<rect fill="white" x="6" y="3.1001" width="28" height="35"/>
<path fill-rule="evenodd" clip-rule="evenodd" d="M22.4009 6.1001H12.675C11.7003 6.1001 10.7656 6.48728 10.0764 7.17648C9.38719 7.86568 9 8.80043 9 9.7751V31.8251C9 32.7998 9.38719 33.7345 10.0764 34.4237C10.7656 35.1129 11.7003 35.5001 12.675 35.5001H27.375C28.3497 35.5001 29.2844 35.1129 29.9736 34.4237C30.6628 33.7345 31.05 32.7998 31.05 31.8251V14.7492C31.0499 14.2619 30.8562 13.7946 30.5116 13.4501L23.7 6.63849C23.3555 6.29386 22.8882 6.1002 22.4009 6.1001ZM22.7813 12.5313V8.85635L28.2937 14.3688H24.6187C24.1314 14.3688 23.664 14.1753 23.3194 13.8307C22.9748 13.4861 22.7813 13.0187 22.7813 12.5313ZM11.4883 16.4769C11.4883 16.0903 11.8017 15.7769 12.1883 15.7769H15.6471C16.0337 15.7769 16.3471 16.0903 16.3471 16.4769C16.3471 16.8635 16.0337 17.1769 15.6471 17.1769H12.1883C11.8017 17.1769 11.4883 16.8635 11.4883 16.4769ZM12.1883 19.2355C11.8017 19.2355 11.4883 19.5489 11.4883 19.9355C11.4883 20.3221 11.8017 20.6355 12.1883 20.6355H22.5648C22.9514 20.6355 23.2648 20.3221 23.2648 19.9355C23.2648 19.5489 22.9514 19.2355 22.5648 19.2355H12.1883ZM11.4883 23.3938C11.4883 23.0072 11.8017 22.6938 12.1883 22.6938H24.2942C24.6808 22.6938 24.9942 23.0072 24.9942 23.3938C24.9942 23.7804 24.6808 24.0938 24.2942 24.0938H12.1883C11.8017 24.0938 11.4883 23.7804 11.4883 23.3938ZM12.1883 26.1528C11.8017 26.1528 11.4883 26.4662 11.4883 26.8528C11.4883 27.2394 11.8017 27.5528 12.1883 27.5528H24.2942C24.6808 27.5528 24.9942 27.2394 24.9942 26.8528C24.9942 26.4662 24.6808 26.1528 24.2942 26.1528H12.1883Z"/>
</mask>
<path fill-rule="evenodd" clip-rule="evenodd" d="M22.4009 6.1001H12.675C11.7003 6.1001 10.7656 6.48728 10.0764 7.17648C9.38719 7.86568 9 8.80043 9 9.7751V31.8251C9 32.7998 9.38719 33.7345 10.0764 34.4237C10.7656 35.1129 11.7003 35.5001 12.675 35.5001H27.375C28.3497 35.5001 29.2844 35.1129 29.9736 34.4237C30.6628 33.7345 31.05 32.7998 31.05 31.8251V14.7492C31.0499 14.2619 30.8562 13.7946 30.5116 13.4501L23.7 6.63849C23.3555 6.29386 22.8882 6.1002 22.4009 6.1001ZM22.7813 12.5313V8.85635L28.2937 14.3688H24.6187C24.1314 14.3688 23.664 14.1753 23.3194 13.8307C22.9748 13.4861 22.7813 13.0187 22.7813 12.5313ZM11.4883 16.4769C11.4883 16.0903 11.8017 15.7769 12.1883 15.7769H15.6471C16.0337 15.7769 16.3471 16.0903 16.3471 16.4769C16.3471 16.8635 16.0337 17.1769 15.6471 17.1769H12.1883C11.8017 17.1769 11.4883 16.8635 11.4883 16.4769ZM12.1883 19.2355C11.8017 19.2355 11.4883 19.5489 11.4883 19.9355C11.4883 20.3221 11.8017 20.6355 12.1883 20.6355H22.5648C22.9514 20.6355 23.2648 20.3221 23.2648 19.9355C23.2648 19.5489 22.9514 19.2355 22.5648 19.2355H12.1883ZM11.4883 23.3938C11.4883 23.0072 11.8017 22.6938 12.1883 22.6938H24.2942C24.6808 22.6938 24.9942 23.0072 24.9942 23.3938C24.9942 23.7804 24.6808 24.0938 24.2942 24.0938H12.1883C11.8017 24.0938 11.4883 23.7804 11.4883 23.3938ZM12.1883 26.1528C11.8017 26.1528 11.4883 26.4662 11.4883 26.8528C11.4883 27.2394 11.8017 27.5528 12.1883 27.5528H24.2942C24.6808 27.5528 24.9942 27.2394 24.9942 26.8528C24.9942 26.4662 24.6808 26.1528 24.2942 26.1528H12.1883Z" fill="#41A4FF"/>
<path d="M22.4009 6.1001L22.4013 4.0001H22.4009V6.1001ZM10.0764 7.17648L8.59146 5.69156L8.59146 5.69156L10.0764 7.17648ZM29.9736 34.4237L28.4887 32.9388L28.4887 32.9388L29.9736 34.4237ZM31.05 14.7492H33.15V14.7488L31.05 14.7492ZM30.5116 13.4501L29.0267 14.935L29.0269 14.9352L30.5116 13.4501ZM23.7 6.63849L22.2149 8.12318L22.2151 8.12341L23.7 6.63849ZM22.7813 8.85635L24.2662 7.37142C23.6656 6.77083 22.7623 6.59116 21.9776 6.9162C21.1929 7.24124 20.6813 8.00698 20.6813 8.85635H22.7813ZM28.2937 14.3688V16.4688C29.1431 16.4688 29.9089 15.9572 30.2339 15.1725C30.5589 14.3878 30.3793 13.4845 29.7787 12.8839L28.2937 14.3688ZM23.3194 13.8307L24.8044 12.3457L24.8044 12.3457L23.3194 13.8307ZM12.675 8.2001H22.4009V4.0001H12.675V8.2001ZM11.5613 8.6614C11.8567 8.36603 12.2573 8.2001 12.675 8.2001V4.0001C11.1434 4.0001 9.67448 4.60853 8.59146 5.69156L11.5613 8.6614ZM11.1 9.7751C11.1 9.35738 11.2659 8.95677 11.5613 8.6614L8.59146 5.69156C7.50844 6.77458 6.9 8.24347 6.9 9.7751H11.1ZM11.1 31.8251V9.7751H6.9V31.8251H11.1ZM11.5613 32.9388C11.2659 32.6434 11.1 32.2428 11.1 31.8251H6.9C6.9 33.3567 7.50844 34.8256 8.59146 35.9086L11.5613 32.9388ZM12.675 33.4001C12.2573 33.4001 11.8567 33.2342 11.5613 32.9388L8.59146 35.9086C9.67448 36.9917 11.1434 37.6001 12.675 37.6001V33.4001ZM27.375 33.4001H12.675V37.6001H27.375V33.4001ZM28.4887 32.9388C28.1933 33.2342 27.7927 33.4001 27.375 33.4001V37.6001C28.9066 37.6001 30.3755 36.9917 31.4585 35.9086L28.4887 32.9388ZM28.95 31.8251C28.95 32.2428 28.7841 32.6434 28.4887 32.9388L31.4585 35.9086C32.5416 34.8256 33.15 33.3567 33.15 31.8251H28.95ZM28.95 14.7492V31.8251H33.15V14.7492H28.95ZM29.0269 14.9352C28.9777 14.886 28.95 14.8193 28.95 14.7497L33.15 14.7488C33.1498 13.7046 32.7348 12.7032 31.9963 11.9649L29.0269 14.9352ZM22.2151 8.12341L29.0267 14.935L31.9965 11.9652L25.1849 5.15356L22.2151 8.12341ZM22.4004 8.2001C22.3308 8.20008 22.2641 8.17242 22.2149 8.12318L25.1851 5.15379C24.4469 4.41531 23.4455 4.00032 22.4013 4.0001L22.4004 8.2001ZM20.6813 8.85635V12.5313H24.8813V8.85635H20.6813ZM29.7787 12.8839L24.2662 7.37142L21.2963 10.3413L26.8088 15.8538L29.7787 12.8839ZM24.6187 16.4688H28.2937V12.2688H24.6187V16.4688ZM21.8345 15.3156C22.5729 16.054 23.5745 16.4688 24.6187 16.4688V12.2688C24.6884 12.2688 24.7551 12.2965 24.8044 12.3457L21.8345 15.3156ZM20.6813 12.5313C20.6813 13.5756 21.0961 14.5772 21.8345 15.3156L24.8044 12.3457C24.8536 12.395 24.8813 12.4617 24.8813 12.5313H20.6813ZM12.1883 13.6769C10.6419 13.6769 9.38828 14.9305 9.38828 16.4769H13.5883C13.5883 17.2501 12.9615 17.8769 12.1883 17.8769V13.6769ZM15.6471 13.6769H12.1883V17.8769H15.6471V13.6769ZM18.4471 16.4769C18.4471 14.9305 17.1935 13.6769 15.6471 13.6769V17.8769C14.8739 17.8769 14.2471 17.2501 14.2471 16.4769H18.4471ZM15.6471 19.2769C17.1935 19.2769 18.4471 18.0233 18.4471 16.4769H14.2471C14.2471 15.7037 14.8739 15.0769 15.6471 15.0769V19.2769ZM12.1883 19.2769H15.6471V15.0769H12.1883V19.2769ZM9.38828 16.4769C9.38828 18.0233 10.6419 19.2769 12.1883 19.2769V15.0769C12.9615 15.0769 13.5883 15.7037 13.5883 16.4769H9.38828ZM13.5883 19.9355C13.5883 20.7087 12.9615 21.3355 12.1883 21.3355V17.1355C10.6419 17.1355 9.38828 18.3891 9.38828 19.9355H13.5883ZM12.1883 18.5355C12.9615 18.5355 13.5883 19.1623 13.5883 19.9355H9.38828C9.38828 21.4819 10.6419 22.7355 12.1883 22.7355V18.5355ZM22.5648 18.5355H12.1883V22.7355H22.5648V18.5355ZM21.1648 19.9355C21.1648 19.1623 21.7916 18.5355 22.5648 18.5355V22.7355C24.1111 22.7355 25.3648 21.4819 25.3648 19.9355H21.1648ZM22.5648 21.3355C21.7916 21.3355 21.1648 20.7087 21.1648 19.9355H25.3648C25.3648 18.3891 24.1111 17.1355 22.5648 17.1355V21.3355ZM12.1883 21.3355H22.5648V17.1355H12.1883V21.3355ZM12.1883 20.5938C10.6419 20.5938 9.38828 21.8474 9.38828 23.3938H13.5883C13.5883 24.167 12.9615 24.7938 12.1883 24.7938V20.5938ZM24.2942 20.5938H12.1883V24.7938H24.2942V20.5938ZM27.0942 23.3938C27.0942 21.8474 25.8406 20.5938 24.2942 20.5938V24.7938C23.521 24.7938 22.8942 24.167 22.8942 23.3938H27.0942ZM24.2942 26.1938C25.8406 26.1938 27.0942 24.9402 27.0942 23.3938H22.8942C22.8942 22.6206 23.521 21.9938 24.2942 21.9938V26.1938ZM12.1883 26.1938H24.2942V21.9938H12.1883V26.1938ZM9.38828 23.3938C9.38828 24.9402 10.6419 26.1938 12.1883 26.1938V21.9938C12.9615 21.9938 13.5883 22.6206 13.5883 23.3938H9.38828ZM13.5883 26.8528C13.5883 27.626 12.9615 28.2528 12.1883 28.2528V24.0528C10.6419 24.0528 9.38828 25.3064 9.38828 26.8528H13.5883ZM12.1883 25.4528C12.9615 25.4528 13.5883 26.0796 13.5883 26.8528H9.38828C9.38828 28.3992 10.6419 29.6528 12.1883 29.6528V25.4528ZM24.2942 25.4528H12.1883V29.6528H24.2942V25.4528ZM22.8942 26.8528C22.8942 26.0796 23.521 25.4528 24.2942 25.4528V29.6528C25.8406 29.6528 27.0942 28.3992 27.0942 26.8528H22.8942ZM24.2942 28.2528C23.521 28.2528 22.8942 27.626 22.8942 26.8528H27.0942C27.0942 25.3064 25.8406 24.0528 24.2942 24.0528V28.2528ZM12.1883 28.2528H24.2942V24.0528H12.1883V28.2528Z" fill="white" mask="url(#path-1-outside-1_883_9123)"/>
<mask id="path-3-outside-2_883_9123" maskUnits="userSpaceOnUse" x="19.5684" y="20.3938" width="19" height="17" fill="black">
<rect fill="white" x="19.5684" y="20.3938" width="19" height="17"/>
<path d="M34.4097 24.2405C33.2503 23.694 32.0262 23.4228 30.7478 23.3961C28.2866 23.3451 26.1654 24.1563 24.4588 25.9488C23.2452 27.2231 22.5068 28.7176 22.5724 30.5247C22.5991 31.2622 22.8153 31.9471 23.2589 32.5543C23.3869 32.4839 23.4055 32.3649 23.4549 32.271C24.0345 31.1561 24.7098 30.1045 25.5169 29.1402C26.1954 28.3298 26.9508 27.602 27.813 26.9883C28.1546 26.7454 28.5052 26.7826 28.7254 27.0733C28.9472 27.3664 28.8825 27.7137 28.557 27.972C28.4461 28.0602 28.3303 28.142 28.2194 28.2294C26.503 29.5887 25.2992 31.3415 24.3228 33.2741C24.2135 33.4894 24.2386 33.5906 24.4353 33.7275C26.6828 35.2908 29.5358 34.882 31.3445 32.7405C32.2399 31.6808 32.8026 30.4502 33.2495 29.154C33.7223 27.7841 34.5246 26.6863 35.8613 26.0362C35.9682 25.9844 36.0637 25.9091 36.1649 25.8451C36.1649 25.7844 36.1649 25.7237 36.1649 25.663C35.7407 24.9918 35.1108 24.5708 34.4097 24.2405Z"/>
</mask>
<path d="M34.4097 24.2405C33.2503 23.694 32.0262 23.4228 30.7478 23.3961C28.2866 23.3451 26.1654 24.1563 24.4588 25.9488C23.2452 27.2231 22.5068 28.7176 22.5724 30.5247C22.5991 31.2622 22.8153 31.9471 23.2589 32.5543C23.3869 32.4839 23.4055 32.3649 23.4549 32.271C24.0345 31.1561 24.7098 30.1045 25.5169 29.1402C26.1954 28.3298 26.9508 27.602 27.813 26.9883C28.1546 26.7454 28.5052 26.7826 28.7254 27.0733C28.9472 27.3664 28.8825 27.7137 28.557 27.972C28.4461 28.0602 28.3303 28.142 28.2194 28.2294C26.503 29.5887 25.2992 31.3415 24.3228 33.2741C24.2135 33.4894 24.2386 33.5906 24.4353 33.7275C26.6828 35.2908 29.5358 34.882 31.3445 32.7405C32.2399 31.6808 32.8026 30.4502 33.2495 29.154C33.7223 27.7841 34.5246 26.6863 35.8613 26.0362C35.9682 25.9844 36.0637 25.9091 36.1649 25.8451C36.1649 25.7844 36.1649 25.7237 36.1649 25.663C35.7407 24.9918 35.1108 24.5708 34.4097 24.2405Z" fill="#41A4FF"/>
<path d="M34.4097 24.2405C33.2503 23.694 32.0262 23.4228 30.7478 23.3961C28.2866 23.3451 26.1654 24.1563 24.4588 25.9488C23.2452 27.2231 22.5068 28.7176 22.5724 30.5247C22.5991 31.2622 22.8153 31.9471 23.2589 32.5543C23.3869 32.4839 23.4055 32.3649 23.4549 32.271C24.0345 31.1561 24.7098 30.1045 25.5169 29.1402C26.1954 28.3298 26.9508 27.602 27.813 26.9883C28.1546 26.7454 28.5052 26.7826 28.7254 27.0733C28.9472 27.3664 28.8825 27.7137 28.557 27.972C28.4461 28.0602 28.3303 28.142 28.2194 28.2294C26.503 29.5887 25.2992 31.3415 24.3228 33.2741C24.2135 33.4894 24.2386 33.5906 24.4353 33.7275C26.6828 35.2908 29.5358 34.882 31.3445 32.7405C32.2399 31.6808 32.8026 30.4502 33.2495 29.154C33.7223 27.7841 34.5246 26.6863 35.8613 26.0362C35.9682 25.9844 36.0637 25.9091 36.1649 25.8451C36.1649 25.7844 36.1649 25.7237 36.1649 25.663C35.7407 24.9918 35.1108 24.5708 34.4097 24.2405Z" stroke="white" stroke-width="4.2" stroke-linejoin="round" mask="url(#path-3-outside-2_883_9123)"/>
</svg>
