<svg width="72" height="73" viewBox="0 0 72 73" fill="none" xmlns="http://www.w3.org/2000/svg">
<mask id="path-1-outside-1_904_9302" maskUnits="userSpaceOnUse" x="11.4297" y="6.40015" width="46" height="58" fill="black">
<rect fill="white" x="11.4297" y="6.40015" width="46" height="58"/>
<path fill-rule="evenodd" clip-rule="evenodd" d="M38.4026 10.4001H21.7297C20.0588 10.4001 18.4564 11.0639 17.2749 12.2454C16.0934 13.4269 15.4297 15.0293 15.4297 16.7001V54.5001C15.4297 56.171 16.0934 57.7734 17.2749 58.9549C18.4564 60.1364 20.0588 60.8001 21.7297 60.8001H46.9297C48.6005 60.8001 50.203 60.1364 51.3845 58.9549C52.5659 57.7734 53.2297 56.171 53.2297 54.5001V25.2272C53.2295 24.3918 52.8975 23.5907 52.3067 23.0001L40.6297 11.3231C40.0391 10.7323 39.238 10.4003 38.4026 10.4001ZM39.0547 21.4251V15.1251L48.5047 24.5751H42.2047C41.3693 24.5751 40.568 24.2433 39.9773 23.6525C39.3866 23.0618 39.0547 22.2606 39.0547 21.4251ZM19.694 28.189C19.694 27.5263 20.2312 26.989 20.894 26.989H26.8234C27.4861 26.989 28.0234 27.5263 28.0234 28.189C28.0234 28.8517 27.4861 29.389 26.8234 29.389H20.894C20.2312 29.389 19.694 28.8517 19.694 28.189ZM20.894 32.9181C20.2312 32.9181 19.694 33.4553 19.694 34.1181C19.694 34.7808 20.2312 35.3181 20.894 35.3181H38.6822C39.345 35.3181 39.8822 34.7808 39.8822 34.1181C39.8822 33.4553 39.345 32.9181 38.6822 32.9181H20.894ZM19.694 40.0465C19.694 39.3838 20.2312 38.8465 20.894 38.8465H41.6469C42.3097 38.8465 42.8469 39.3838 42.8469 40.0465C42.8469 40.7092 42.3097 41.2465 41.6469 41.2465H20.894C20.2312 41.2465 19.694 40.7092 19.694 40.0465ZM20.894 44.7762C20.2312 44.7762 19.694 45.3134 19.694 45.9762C19.694 46.6389 20.2312 47.1762 20.894 47.1762H41.6469C42.3097 47.1762 42.8469 46.6389 42.8469 45.9762C42.8469 45.3134 42.3097 44.7762 41.6469 44.7762H20.894Z"/>
</mask>
<path fill-rule="evenodd" clip-rule="evenodd" d="M38.4026 10.4001H21.7297C20.0588 10.4001 18.4564 11.0639 17.2749 12.2454C16.0934 13.4269 15.4297 15.0293 15.4297 16.7001V54.5001C15.4297 56.171 16.0934 57.7734 17.2749 58.9549C18.4564 60.1364 20.0588 60.8001 21.7297 60.8001H46.9297C48.6005 60.8001 50.203 60.1364 51.3845 58.9549C52.5659 57.7734 53.2297 56.171 53.2297 54.5001V25.2272C53.2295 24.3918 52.8975 23.5907 52.3067 23.0001L40.6297 11.3231C40.0391 10.7323 39.238 10.4003 38.4026 10.4001ZM39.0547 21.4251V15.1251L48.5047 24.5751H42.2047C41.3693 24.5751 40.568 24.2433 39.9773 23.6525C39.3866 23.0618 39.0547 22.2606 39.0547 21.4251ZM19.694 28.189C19.694 27.5263 20.2312 26.989 20.894 26.989H26.8234C27.4861 26.989 28.0234 27.5263 28.0234 28.189C28.0234 28.8517 27.4861 29.389 26.8234 29.389H20.894C20.2312 29.389 19.694 28.8517 19.694 28.189ZM20.894 32.9181C20.2312 32.9181 19.694 33.4553 19.694 34.1181C19.694 34.7808 20.2312 35.3181 20.894 35.3181H38.6822C39.345 35.3181 39.8822 34.7808 39.8822 34.1181C39.8822 33.4553 39.345 32.9181 38.6822 32.9181H20.894ZM19.694 40.0465C19.694 39.3838 20.2312 38.8465 20.894 38.8465H41.6469C42.3097 38.8465 42.8469 39.3838 42.8469 40.0465C42.8469 40.7092 42.3097 41.2465 41.6469 41.2465H20.894C20.2312 41.2465 19.694 40.7092 19.694 40.0465ZM20.894 44.7762C20.2312 44.7762 19.694 45.3134 19.694 45.9762C19.694 46.6389 20.2312 47.1762 20.894 47.1762H41.6469C42.3097 47.1762 42.8469 46.6389 42.8469 45.9762C42.8469 45.3134 42.3097 44.7762 41.6469 44.7762H20.894Z" fill="#6B6B6B"/>
<path d="M38.4026 10.4001L38.4034 6.80015H38.4026V10.4001ZM17.2749 12.2454L14.7293 9.69979L14.7293 9.69979L17.2749 12.2454ZM17.2749 58.9549L19.8205 56.4093L19.8205 56.4093L17.2749 58.9549ZM53.2297 25.2272H56.8297V25.2264L53.2297 25.2272ZM52.3067 23.0001L49.7612 25.5457L49.7615 25.5461L52.3067 23.0001ZM40.6297 11.3231L38.0837 13.8683L38.0841 13.8687L40.6297 11.3231ZM39.0547 15.1251L41.6003 12.5796C40.5707 11.55 39.0223 11.242 37.677 11.7992C36.3318 12.3564 35.4547 13.6691 35.4547 15.1251H39.0547ZM48.5047 24.5751V28.1751C49.9608 28.1751 51.2734 27.298 51.8307 25.9528C52.3879 24.6076 52.0799 23.0592 51.0503 22.0296L48.5047 24.5751ZM39.9773 23.6525L37.4317 26.1981L37.4317 26.1981L39.9773 23.6525ZM21.7297 14.0001H38.4026V6.80015H21.7297V14.0001ZM19.8205 14.791C20.3268 14.2846 21.0136 14.0001 21.7297 14.0001V6.80015C19.104 6.80015 16.5859 7.84318 14.7293 9.69979L19.8205 14.791ZM19.0297 16.7001C19.0297 15.9841 19.3142 15.2973 19.8205 14.791L14.7293 9.69979C12.8727 11.5564 11.8297 14.0745 11.8297 16.7001H19.0297ZM19.0297 54.5001V16.7001H11.8297V54.5001H19.0297ZM19.8205 56.4093C19.3142 55.903 19.0297 55.2162 19.0297 54.5001H11.8297C11.8297 57.1258 12.8727 59.6439 14.7293 61.5005L19.8205 56.4093ZM21.7297 57.2001C21.0136 57.2001 20.3268 56.9157 19.8205 56.4093L14.7293 61.5005C16.5859 63.3571 19.104 64.4001 21.7297 64.4001V57.2001ZM46.9297 57.2001H21.7297V64.4001H46.9297V57.2001ZM48.8389 56.4093C48.3325 56.9157 47.6458 57.2001 46.9297 57.2001V64.4001C49.5553 64.4001 52.0734 63.3571 53.93 61.5005L48.8389 56.4093ZM49.6297 54.5001C49.6297 55.2162 49.3452 55.903 48.8389 56.4093L53.93 61.5005C55.7866 59.6439 56.8297 57.1258 56.8297 54.5001H49.6297ZM49.6297 25.2272V54.5001H56.8297V25.2272H49.6297ZM49.7615 25.5461C49.6771 25.4617 49.6297 25.3473 49.6297 25.228L56.8297 25.2264C56.8293 23.4364 56.1179 21.7198 54.8519 20.4542L49.7615 25.5461ZM38.0841 13.8687L49.7612 25.5457L54.8523 20.4546L43.1753 8.77751L38.0841 13.8687ZM38.4019 14.0001C38.2825 14.0001 38.1681 13.9527 38.0837 13.8683L43.1757 8.7779C41.9101 7.51194 40.1935 6.80053 38.4034 6.80015L38.4019 14.0001ZM35.4547 15.1251V21.4251H42.6547V15.1251H35.4547ZM51.0503 22.0296L41.6003 12.5796L36.5091 17.6707L45.9591 27.1207L51.0503 22.0296ZM42.2047 28.1751H48.5047V20.9751H42.2047V28.1751ZM37.4317 26.1981C38.6976 27.464 40.4145 28.1751 42.2047 28.1751V20.9751C42.324 20.9751 42.4385 21.0226 42.5229 21.1069L37.4317 26.1981ZM35.4547 21.4251C35.4547 23.2154 36.1658 24.9322 37.4317 26.1981L42.5229 21.1069C42.6073 21.1913 42.6547 21.3058 42.6547 21.4251H35.4547ZM20.894 23.389C18.243 23.389 16.094 25.538 16.094 28.189H23.294C23.294 29.5145 22.2195 30.589 20.894 30.589V23.389ZM26.8234 23.389H20.894V30.589H26.8234V23.389ZM31.6234 28.189C31.6234 25.538 29.4744 23.389 26.8234 23.389V30.589C25.4979 30.589 24.4234 29.5145 24.4234 28.189H31.6234ZM26.8234 32.989C29.4744 32.989 31.6234 30.84 31.6234 28.189H24.4234C24.4234 26.8635 25.4979 25.789 26.8234 25.789V32.989ZM20.894 32.989H26.8234V25.789H20.894V32.989ZM16.094 28.189C16.094 30.84 18.243 32.989 20.894 32.989V25.789C22.2195 25.789 23.294 26.8635 23.294 28.189H16.094ZM23.294 34.1181C23.294 35.4435 22.2195 36.5181 20.894 36.5181V29.3181C18.243 29.3181 16.094 31.4671 16.094 34.1181H23.294ZM20.894 31.7181C22.2195 31.7181 23.294 32.7926 23.294 34.1181H16.094C16.094 36.769 18.243 38.9181 20.894 38.9181V31.7181ZM38.6822 31.7181H20.894V38.9181H38.6822V31.7181ZM36.2822 34.1181C36.2822 32.7926 37.3567 31.7181 38.6822 31.7181V38.9181C41.3332 38.9181 43.4822 36.769 43.4822 34.1181H36.2822ZM38.6822 36.5181C37.3567 36.5181 36.2822 35.4435 36.2822 34.1181H43.4822C43.4822 31.4671 41.3332 29.3181 38.6822 29.3181V36.5181ZM20.894 36.5181H38.6822V29.3181H20.894V36.5181ZM20.894 35.2465C18.243 35.2465 16.094 37.3955 16.094 40.0465H23.294C23.294 41.372 22.2195 42.4465 20.894 42.4465V35.2465ZM41.6469 35.2465H20.894V42.4465H41.6469V35.2465ZM46.4469 40.0465C46.4469 37.3955 44.2979 35.2465 41.6469 35.2465V42.4465C40.3214 42.4465 39.2469 41.372 39.2469 40.0465H46.4469ZM41.6469 44.8465C44.2979 44.8465 46.4469 42.6975 46.4469 40.0465H39.2469C39.2469 38.721 40.3214 37.6465 41.6469 37.6465V44.8465ZM20.894 44.8465H41.6469V37.6465H20.894V44.8465ZM16.094 40.0465C16.094 42.6975 18.243 44.8465 20.894 44.8465V37.6465C22.2195 37.6465 23.294 38.721 23.294 40.0465H16.094ZM23.294 45.9762C23.294 47.3017 22.2195 48.3762 20.894 48.3762V41.1762C18.243 41.1762 16.094 43.3252 16.094 45.9762H23.294ZM20.894 43.5762C22.2195 43.5762 23.294 44.6507 23.294 45.9762H16.094C16.094 48.6271 18.243 50.7762 20.894 50.7762V43.5762ZM41.6469 43.5762H20.894V50.7762H41.6469V43.5762ZM39.2469 45.9762C39.2469 44.6507 40.3214 43.5762 41.6469 43.5762V50.7762C44.2979 50.7762 46.4469 48.6271 46.4469 45.9762H39.2469ZM41.6469 48.3762C40.3214 48.3762 39.2469 47.3017 39.2469 45.9762H46.4469C46.4469 43.3252 44.2979 41.1762 41.6469 41.1762V48.3762ZM20.894 48.3762H41.6469V41.1762H20.894V48.3762Z" fill="white" mask="url(#path-1-outside-1_904_9302)"/>
<mask id="path-3-outside-2_904_9302" maskUnits="userSpaceOnUse" x="34.6895" y="36.0465" width="31" height="27" fill="black">
<rect fill="white" x="34.6895" y="36.0465" width="31" height="27"/>
<path d="M58.9888 41.498C57.0014 40.5611 54.9029 40.0962 52.7114 40.0504C48.4922 39.9629 44.8559 41.3536 41.9302 44.4264C39.8497 46.611 38.5839 49.173 38.6964 52.2708C38.7422 53.5352 39.1127 54.7094 39.8733 55.7503C40.0926 55.6295 40.1245 55.4255 40.2092 55.2645C41.2029 53.3534 42.3604 51.5505 43.7442 49.8975C44.9072 48.5082 46.2021 47.2605 47.6802 46.2085C48.2659 45.7921 48.8669 45.856 49.2444 46.3542C49.6247 46.8566 49.5137 47.452 48.9557 47.8948C48.7656 48.0461 48.5671 48.1862 48.377 48.3361C45.4346 50.6664 43.3708 53.6712 41.697 56.9841C41.5096 57.3533 41.5527 57.5268 41.8899 57.7614C45.7427 60.4414 50.6337 59.7405 53.7343 56.0695C55.2693 54.2527 56.2339 52.1431 57 49.9211C57.8105 47.5728 59.1859 45.6908 61.4773 44.5763C61.6605 44.4875 61.8243 44.3584 61.9978 44.2488C61.9978 44.1447 61.9978 44.0406 61.9978 43.9365C61.2705 42.7859 60.1908 42.0642 58.9888 41.498Z"/>
</mask>
<path d="M58.9888 41.498C57.0014 40.5611 54.9029 40.0962 52.7114 40.0504C48.4922 39.9629 44.8559 41.3536 41.9302 44.4264C39.8497 46.611 38.5839 49.173 38.6964 52.2708C38.7422 53.5352 39.1127 54.7094 39.8733 55.7503C40.0926 55.6295 40.1245 55.4255 40.2092 55.2645C41.2029 53.3534 42.3604 51.5505 43.7442 49.8975C44.9072 48.5082 46.2021 47.2605 47.6802 46.2085C48.2659 45.7921 48.8669 45.856 49.2444 46.3542C49.6247 46.8566 49.5137 47.452 48.9557 47.8948C48.7656 48.0461 48.5671 48.1862 48.377 48.3361C45.4346 50.6664 43.3708 53.6712 41.697 56.9841C41.5096 57.3533 41.5527 57.5268 41.8899 57.7614C45.7427 60.4414 50.6337 59.7405 53.7343 56.0695C55.2693 54.2527 56.2339 52.1431 57 49.9211C57.8105 47.5728 59.1859 45.6908 61.4773 44.5763C61.6605 44.4875 61.8243 44.3584 61.9978 44.2488C61.9978 44.1447 61.9978 44.0406 61.9978 43.9365C61.2705 42.7859 60.1908 42.0642 58.9888 41.498Z" fill="#6B6B6B"/>
<path d="M58.9888 41.498C57.0014 40.5611 54.9029 40.0962 52.7114 40.0504C48.4922 39.9629 44.8559 41.3536 41.9302 44.4264C39.8497 46.611 38.5839 49.173 38.6964 52.2708C38.7422 53.5352 39.1127 54.7094 39.8733 55.7503C40.0926 55.6295 40.1245 55.4255 40.2092 55.2645C41.2029 53.3534 42.3604 51.5505 43.7442 49.8975C44.9072 48.5082 46.2021 47.2605 47.6802 46.2085C48.2659 45.7921 48.8669 45.856 49.2444 46.3542C49.6247 46.8566 49.5137 47.452 48.9557 47.8948C48.7656 48.0461 48.5671 48.1862 48.377 48.3361C45.4346 50.6664 43.3708 53.6712 41.697 56.9841C41.5096 57.3533 41.5527 57.5268 41.8899 57.7614C45.7427 60.4414 50.6337 59.7405 53.7343 56.0695C55.2693 54.2527 56.2339 52.1431 57 49.9211C57.8105 47.5728 59.1859 45.6908 61.4773 44.5763C61.6605 44.4875 61.8243 44.3584 61.9978 44.2488C61.9978 44.1447 61.9978 44.0406 61.9978 43.9365C61.2705 42.7859 60.1908 42.0642 58.9888 41.498Z" stroke="white" stroke-width="7.2" stroke-linejoin="round" mask="url(#path-3-outside-2_904_9302)"/>
</svg>
