<svg width="42" height="43" viewBox="0 0 42 43" fill="none" xmlns="http://www.w3.org/2000/svg">
<mask id="path-1-outside-1_883_9165" maskUnits="userSpaceOnUse" x="6" y="2.90015" width="28" height="35" fill="black">
<rect fill="white" x="6" y="2.90015" width="28" height="35"/>
<path fill-rule="evenodd" clip-rule="evenodd" d="M22.4009 5.90015H12.675C11.7003 5.90015 10.7656 6.28733 10.0764 6.97653C9.38719 7.66573 9 8.60048 9 9.57515V31.6251C9 32.5998 9.38719 33.5346 10.0764 34.2238C10.7656 34.913 11.7003 35.3001 12.675 35.3001H27.375C28.3497 35.3001 29.2844 34.913 29.9736 34.2238C30.6628 33.5346 31.05 32.5998 31.05 31.6251V14.5493C31.0499 14.062 30.8562 13.5947 30.5116 13.2501L23.7 6.43853C23.3555 6.09391 22.8882 5.90025 22.4009 5.90015ZM22.7813 12.3314V8.6564L28.2937 14.1689H24.6187C24.1314 14.1689 23.664 13.9753 23.3194 13.6307C22.9748 13.2861 22.7813 12.8187 22.7813 12.3314ZM11.4883 16.2769C11.4883 15.8903 11.8017 15.5769 12.1883 15.5769H15.6471C16.0337 15.5769 16.3471 15.8903 16.3471 16.2769C16.3471 16.6635 16.0337 16.9769 15.6471 16.9769H12.1883C11.8017 16.9769 11.4883 16.6635 11.4883 16.2769ZM12.1883 19.0356C11.8017 19.0356 11.4883 19.349 11.4883 19.7356C11.4883 20.1222 11.8017 20.4356 12.1883 20.4356H22.5648C22.9514 20.4356 23.2648 20.1222 23.2648 19.7356C23.2648 19.349 22.9514 19.0356 22.5648 19.0356H12.1883ZM11.4883 23.1939C11.4883 22.8073 11.8017 22.4939 12.1883 22.4939H24.2942C24.6808 22.4939 24.9942 22.8073 24.9942 23.1939C24.9942 23.5805 24.6808 23.8939 24.2942 23.8939H12.1883C11.8017 23.8939 11.4883 23.5805 11.4883 23.1939ZM12.1883 25.9529C11.8017 25.9529 11.4883 26.2663 11.4883 26.6529C11.4883 27.0395 11.8017 27.3529 12.1883 27.3529H24.2942C24.6808 27.3529 24.9942 27.0395 24.9942 26.6529C24.9942 26.2663 24.6808 25.9529 24.2942 25.9529H12.1883Z"/>
</mask>
<path fill-rule="evenodd" clip-rule="evenodd" d="M22.4009 5.90015H12.675C11.7003 5.90015 10.7656 6.28733 10.0764 6.97653C9.38719 7.66573 9 8.60048 9 9.57515V31.6251C9 32.5998 9.38719 33.5346 10.0764 34.2238C10.7656 34.913 11.7003 35.3001 12.675 35.3001H27.375C28.3497 35.3001 29.2844 34.913 29.9736 34.2238C30.6628 33.5346 31.05 32.5998 31.05 31.6251V14.5493C31.0499 14.062 30.8562 13.5947 30.5116 13.2501L23.7 6.43853C23.3555 6.09391 22.8882 5.90025 22.4009 5.90015ZM22.7813 12.3314V8.6564L28.2937 14.1689H24.6187C24.1314 14.1689 23.664 13.9753 23.3194 13.6307C22.9748 13.2861 22.7813 12.8187 22.7813 12.3314ZM11.4883 16.2769C11.4883 15.8903 11.8017 15.5769 12.1883 15.5769H15.6471C16.0337 15.5769 16.3471 15.8903 16.3471 16.2769C16.3471 16.6635 16.0337 16.9769 15.6471 16.9769H12.1883C11.8017 16.9769 11.4883 16.6635 11.4883 16.2769ZM12.1883 19.0356C11.8017 19.0356 11.4883 19.349 11.4883 19.7356C11.4883 20.1222 11.8017 20.4356 12.1883 20.4356H22.5648C22.9514 20.4356 23.2648 20.1222 23.2648 19.7356C23.2648 19.349 22.9514 19.0356 22.5648 19.0356H12.1883ZM11.4883 23.1939C11.4883 22.8073 11.8017 22.4939 12.1883 22.4939H24.2942C24.6808 22.4939 24.9942 22.8073 24.9942 23.1939C24.9942 23.5805 24.6808 23.8939 24.2942 23.8939H12.1883C11.8017 23.8939 11.4883 23.5805 11.4883 23.1939ZM12.1883 25.9529C11.8017 25.9529 11.4883 26.2663 11.4883 26.6529C11.4883 27.0395 11.8017 27.3529 12.1883 27.3529H24.2942C24.6808 27.3529 24.9942 27.0395 24.9942 26.6529C24.9942 26.2663 24.6808 25.9529 24.2942 25.9529H12.1883Z" fill="#6B6B6B"/>
<path d="M22.4009 5.90015L22.4013 3.80015H22.4009V5.90015ZM10.0764 6.97653L8.59146 5.4916L8.59146 5.4916L10.0764 6.97653ZM29.9736 34.2238L28.4887 32.7388L28.4887 32.7388L29.9736 34.2238ZM31.05 14.5493H33.15V14.5488L31.05 14.5493ZM30.5116 13.2501L29.0267 14.7351L29.0269 14.7353L30.5116 13.2501ZM23.7 6.43853L22.2149 7.92323L22.2151 7.92346L23.7 6.43853ZM22.7813 8.6564L24.2662 7.17147C23.6656 6.57088 22.7623 6.39121 21.9776 6.71625C21.1929 7.04129 20.6813 7.80703 20.6813 8.6564H22.7813ZM28.2937 14.1689V16.2689C29.1431 16.2689 29.9089 15.7572 30.2339 14.9725C30.5589 14.1878 30.3793 13.2846 29.7787 12.684L28.2937 14.1689ZM23.3194 13.6307L24.8044 12.1458L24.8044 12.1458L23.3194 13.6307ZM12.675 8.00015H22.4009V3.80015H12.675V8.00015ZM11.5613 8.46145C11.8567 8.16608 12.2573 8.00015 12.675 8.00015V3.80015C11.1434 3.80015 9.67448 4.40858 8.59146 5.4916L11.5613 8.46145ZM11.1 9.57515C11.1 9.15743 11.2659 8.75682 11.5613 8.46145L8.59146 5.4916C7.50844 6.57463 6.9 8.04352 6.9 9.57515H11.1ZM11.1 31.6251V9.57515H6.9V31.6251H11.1ZM11.5613 32.7388C11.2659 32.4435 11.1 32.0429 11.1 31.6251H6.9C6.9 33.1568 7.50844 34.6257 8.59146 35.7087L11.5613 32.7388ZM12.675 33.2001C12.2573 33.2001 11.8567 33.0342 11.5613 32.7388L8.59146 35.7087C9.67448 36.7917 11.1434 37.4001 12.675 37.4001V33.2001ZM27.375 33.2001H12.675V37.4001H27.375V33.2001ZM28.4887 32.7388C28.1933 33.0342 27.7927 33.2001 27.375 33.2001V37.4001C28.9066 37.4001 30.3755 36.7917 31.4585 35.7087L28.4887 32.7388ZM28.95 31.6251C28.95 32.0429 28.7841 32.4435 28.4887 32.7388L31.4585 35.7087C32.5416 34.6257 33.15 33.1568 33.15 31.6251H28.95ZM28.95 14.5493V31.6251H33.15V14.5493H28.95ZM29.0269 14.7353C28.9777 14.6861 28.95 14.6193 28.95 14.5497L33.15 14.5488C33.1498 13.5046 32.7348 12.5033 31.9963 11.765L29.0269 14.7353ZM22.2151 7.92346L29.0267 14.7351L31.9965 11.7652L25.1849 4.95361L22.2151 7.92346ZM22.4004 8.00015C22.3308 8.00013 22.2641 7.97246 22.2149 7.92323L25.1851 4.95383C24.4469 4.21536 23.4455 3.80037 22.4013 3.80015L22.4004 8.00015ZM20.6813 8.6564V12.3314H24.8813V8.6564H20.6813ZM29.7787 12.684L24.2662 7.17147L21.2963 10.1413L26.8088 15.6538L29.7787 12.684ZM24.6187 16.2689H28.2937V12.0689H24.6187V16.2689ZM21.8345 15.1156C22.5729 15.8541 23.5745 16.2689 24.6187 16.2689V12.0689C24.6884 12.0689 24.7551 12.0966 24.8044 12.1458L21.8345 15.1156ZM20.6813 12.3314C20.6813 13.3757 21.0961 14.3772 21.8345 15.1156L24.8044 12.1458C24.8536 12.195 24.8813 12.2618 24.8813 12.3314H20.6813ZM12.1883 13.4769C10.6419 13.4769 9.38828 14.7305 9.38828 16.2769H13.5883C13.5883 17.0501 12.9615 17.6769 12.1883 17.6769V13.4769ZM15.6471 13.4769H12.1883V17.6769H15.6471V13.4769ZM18.4471 16.2769C18.4471 14.7305 17.1935 13.4769 15.6471 13.4769V17.6769C14.8739 17.6769 14.2471 17.0501 14.2471 16.2769H18.4471ZM15.6471 19.0769C17.1935 19.0769 18.4471 17.8233 18.4471 16.2769H14.2471C14.2471 15.5037 14.8739 14.8769 15.6471 14.8769V19.0769ZM12.1883 19.0769H15.6471V14.8769H12.1883V19.0769ZM9.38828 16.2769C9.38828 17.8233 10.6419 19.0769 12.1883 19.0769V14.8769C12.9615 14.8769 13.5883 15.5037 13.5883 16.2769H9.38828ZM13.5883 19.7356C13.5883 20.5088 12.9615 21.1356 12.1883 21.1356V16.9356C10.6419 16.9356 9.38828 18.1892 9.38828 19.7356H13.5883ZM12.1883 18.3356C12.9615 18.3356 13.5883 18.9624 13.5883 19.7356H9.38828C9.38828 21.282 10.6419 22.5356 12.1883 22.5356V18.3356ZM22.5648 18.3356H12.1883V22.5356H22.5648V18.3356ZM21.1648 19.7356C21.1648 18.9624 21.7916 18.3356 22.5648 18.3356V22.5356C24.1111 22.5356 25.3648 21.282 25.3648 19.7356H21.1648ZM22.5648 21.1356C21.7916 21.1356 21.1648 20.5088 21.1648 19.7356H25.3648C25.3648 18.1892 24.1111 16.9356 22.5648 16.9356V21.1356ZM12.1883 21.1356H22.5648V16.9356H12.1883V21.1356ZM12.1883 20.3939C10.6419 20.3939 9.38828 21.6475 9.38828 23.1939H13.5883C13.5883 23.9671 12.9615 24.5939 12.1883 24.5939V20.3939ZM24.2942 20.3939H12.1883V24.5939H24.2942V20.3939ZM27.0942 23.1939C27.0942 21.6475 25.8406 20.3939 24.2942 20.3939V24.5939C23.521 24.5939 22.8942 23.9671 22.8942 23.1939H27.0942ZM24.2942 25.9939C25.8406 25.9939 27.0942 24.7403 27.0942 23.1939H22.8942C22.8942 22.4207 23.521 21.7939 24.2942 21.7939V25.9939ZM12.1883 25.9939H24.2942V21.7939H12.1883V25.9939ZM9.38828 23.1939C9.38828 24.7403 10.6419 25.9939 12.1883 25.9939V21.7939C12.9615 21.7939 13.5883 22.4207 13.5883 23.1939H9.38828ZM13.5883 26.6529C13.5883 27.4261 12.9615 28.0529 12.1883 28.0529V23.8529C10.6419 23.8529 9.38828 25.1065 9.38828 26.6529H13.5883ZM12.1883 25.2529C12.9615 25.2529 13.5883 25.8797 13.5883 26.6529H9.38828C9.38828 28.1992 10.6419 29.4529 12.1883 29.4529V25.2529ZM24.2942 25.2529H12.1883V29.4529H24.2942V25.2529ZM22.8942 26.6529C22.8942 25.8797 23.521 25.2529 24.2942 25.2529V29.4529C25.8406 29.4529 27.0942 28.1993 27.0942 26.6529H22.8942ZM24.2942 28.0529C23.521 28.0529 22.8942 27.4261 22.8942 26.6529H27.0942C27.0942 25.1065 25.8406 23.8529 24.2942 23.8529V28.0529ZM12.1883 28.0529H24.2942V23.8529H12.1883V28.0529Z" fill="white" mask="url(#path-1-outside-1_883_9165)"/>
<mask id="path-3-outside-2_883_9165" maskUnits="userSpaceOnUse" x="19.5684" y="20.1938" width="19" height="17" fill="black">
<rect fill="white" x="19.5684" y="20.1938" width="19" height="17"/>
<path d="M34.4097 24.0405C33.2503 23.494 32.0262 23.2228 30.7478 23.1961C28.2866 23.1451 26.1654 23.9563 24.4588 25.7488C23.2452 27.0231 22.5068 28.5177 22.5724 30.3247C22.5991 31.0623 22.8153 31.7472 23.2589 32.3544C23.3869 32.2839 23.4055 32.1649 23.4549 32.071C24.0345 30.9562 24.7098 29.9045 25.5169 28.9403C26.1954 28.1299 26.9508 27.402 27.813 26.7883C28.1546 26.5455 28.5052 26.5827 28.7254 26.8733C28.9472 27.1664 28.8825 27.5137 28.557 27.772C28.4461 27.8603 28.3303 27.942 28.2194 28.0295C26.503 29.3888 25.2992 31.1416 24.3228 33.0741C24.2135 33.2895 24.2386 33.3907 24.4353 33.5275C26.6828 35.0909 29.5358 34.682 31.3445 32.5406C32.2399 31.4808 32.8026 30.2502 33.2495 28.954C33.7223 27.5842 34.5246 26.4864 35.8613 25.8362C35.9682 25.7844 36.0637 25.7091 36.1649 25.6452C36.1649 25.5844 36.1649 25.5237 36.1649 25.463C35.7407 24.7918 35.1108 24.3708 34.4097 24.0405Z"/>
</mask>
<path d="M34.4097 24.0405C33.2503 23.494 32.0262 23.2228 30.7478 23.1961C28.2866 23.1451 26.1654 23.9563 24.4588 25.7488C23.2452 27.0231 22.5068 28.5177 22.5724 30.3247C22.5991 31.0623 22.8153 31.7472 23.2589 32.3544C23.3869 32.2839 23.4055 32.1649 23.4549 32.071C24.0345 30.9562 24.7098 29.9045 25.5169 28.9403C26.1954 28.1299 26.9508 27.402 27.813 26.7883C28.1546 26.5455 28.5052 26.5827 28.7254 26.8733C28.9472 27.1664 28.8825 27.5137 28.557 27.772C28.4461 27.8603 28.3303 27.942 28.2194 28.0295C26.503 29.3888 25.2992 31.1416 24.3228 33.0741C24.2135 33.2895 24.2386 33.3907 24.4353 33.5275C26.6828 35.0909 29.5358 34.682 31.3445 32.5406C32.2399 31.4808 32.8026 30.2502 33.2495 28.954C33.7223 27.5842 34.5246 26.4864 35.8613 25.8362C35.9682 25.7844 36.0637 25.7091 36.1649 25.6452C36.1649 25.5844 36.1649 25.5237 36.1649 25.463C35.7407 24.7918 35.1108 24.3708 34.4097 24.0405Z" fill="#6B6B6B"/>
<path d="M34.4097 24.0405C33.2503 23.494 32.0262 23.2228 30.7478 23.1961C28.2866 23.1451 26.1654 23.9563 24.4588 25.7488C23.2452 27.0231 22.5068 28.5177 22.5724 30.3247C22.5991 31.0623 22.8153 31.7472 23.2589 32.3544C23.3869 32.2839 23.4055 32.1649 23.4549 32.071C24.0345 30.9562 24.7098 29.9045 25.5169 28.9403C26.1954 28.1299 26.9508 27.402 27.813 26.7883C28.1546 26.5455 28.5052 26.5827 28.7254 26.8733C28.9472 27.1664 28.8825 27.5137 28.557 27.772C28.4461 27.8603 28.3303 27.942 28.2194 28.0295C26.503 29.3888 25.2992 31.1416 24.3228 33.0741C24.2135 33.2895 24.2386 33.3907 24.4353 33.5275C26.6828 35.0909 29.5358 34.682 31.3445 32.5406C32.2399 31.4808 32.8026 30.2502 33.2495 28.954C33.7223 27.5842 34.5246 26.4864 35.8613 25.8362C35.9682 25.7844 36.0637 25.7091 36.1649 25.6452C36.1649 25.5844 36.1649 25.5237 36.1649 25.463C35.7407 24.7918 35.1108 24.3708 34.4097 24.0405Z" stroke="white" stroke-width="4.2" stroke-linejoin="round" mask="url(#path-3-outside-2_883_9165)"/>
</svg>
